<?xml version="1.0" encoding="utf-8"?>
<!-- Generator: Adobe Illustrator 18.0.0, SVG Export Plug-In . SVG Version: 6.00 Build 0)  -->
<svg version="1.1" id="Capa_1" xmlns="http://www.w3.org/2000/svg" xmlns:xlink="http://www.w3.org/1999/xlink" x="0px" y="0px"
	 viewBox="0 0 271.9 48.7" enable-background="new 0 0 271.9 48.7" xml:space="preserve">
<g>
	<path fill="#A2ABA9" d="M28.2,0v45.7h3.9v2.1h-4.4c-1.4,0-2.8,0-4,0.1l-4,0.3h-1V44h-0.1c-1.5,3.1-3.8,4.7-7,4.7
		c-3.1,0-5.8-1.5-8.1-4.5c-2.3-3-3.5-6.6-3.5-11c0-4.2,1.2-7.7,3.5-10.5c2.3-2.8,5.1-4.2,8.2-4.2c2.6,0,5,1.2,7,3.6V2.8H13V0.7h5
		c1.1,0,3.1-0.1,5.8-0.3C26.5,0.1,27.9,0,28.2,0z M18.7,36.9v-7.6c0-2.9-0.5-5.1-1.6-6.5s-2.2-2.1-3.4-2.1c-0.9,0-1.6,0.5-2.1,1.5
		c-0.5,1-0.7,3.1-0.7,6.1v10.6c0,2.9,0.2,4.9,0.5,5.9c0.4,1,1,1.5,2,1.5c1,0,2.1-0.7,3.4-2C18,43,18.7,40.5,18.7,36.9z"/>
	<path fill="#A2ABA9" d="M66.6,38.5h1.9c-0.4,3.2-1.8,5.7-4.2,7.5c-2.4,1.8-5.2,2.7-8.3,2.7c-4.3,0-7.9-1.4-11-4.3S40.5,38,40.5,34
		c0-4.1,1.6-7.7,4.7-10.8c3.1-3.1,6.9-4.6,11.4-4.6c3.1,0,5.8,0.7,8,2.2c2.2,1.5,3.4,3.4,3.4,5.8c0,1.3-0.5,2.4-1.4,3.3
		c-0.9,0.9-2.1,1.4-3.6,1.4c-1.3,0-2.5-0.4-3.4-1.3c-0.9-0.9-1.4-2-1.4-3.3c0-1.8,0.6-3,1.9-3.6c0.5-0.3,0.7-0.6,0.7-1
		c0-0.4-0.4-0.7-1.2-1c-0.8-0.3-1.7-0.4-2.7-0.4c-1.8,0-3.1,0.6-4,1.9s-1.4,4.6-1.4,10c0,5.6,0.3,9.3,0.9,11.1
		c0.6,1.8,2.2,2.7,4.9,2.7C62,46.3,65.1,43.7,66.6,38.5z"/>
	<path fill="#A2ABA9" d="M91.9,48.7c-4.7,0-8.5-1.5-11.3-4.5c-2.8-3-4.2-6.5-4.2-10.5c0-4,1.4-7.6,4.3-10.6c2.9-3,6.6-4.5,11.2-4.5
		c4.7,0,8.4,1.5,11.3,4.5c2.9,3,4.3,6.5,4.3,10.6c0,4.1-1.4,7.6-4.3,10.6C100.4,47.2,96.6,48.7,91.9,48.7z M91.9,20.4
		c-1.2,0-2.2,0.3-3,0.9s-1.2,1.5-1.4,2.7c-0.2,1.2-0.2,4.4-0.2,9.6c0,5,0.1,8.1,0.2,9.3c0.2,1.1,0.6,2.1,1.4,2.8s1.9,1.1,3.2,1.1
		c1.1,0,2-0.3,2.8-0.9c0.8-0.6,1.3-1.7,1.5-3.4s0.2-4.4,0.2-8.3c0-6.1-0.2-9.9-0.7-11.5C95.5,21.2,94.1,20.4,91.9,20.4z"/>
</g>
<g>
	<path fill="#3F3C38" d="M143.3,48.5V32.6c0-3.9-2-7.4-6.1-7.4c-4,0-6.3,3.5-6.3,7.4v15.8h-7.3V18.8h6.8l0.5,3.6
		c1.6-3,5-4.1,7.8-4.1c3.5,0,7.1,1.4,8.8,5.5c2.6-4.2,6.1-5.4,9.9-5.4c8.4,0,12.5,5.2,12.5,14v16h-7.3v-16c0-3.9-1.6-7.2-5.6-7.2
		c-4,0-6.4,3.4-6.4,7.3v15.8H143.3z"/>
	<path fill="#3F3C38" d="M206.8,18.9h7v29.6h-6.9l-0.4-4.3c-1.7,3.5-6.3,5.2-9.6,5.2c-8.8,0.1-15.2-5.3-15.2-15.7
		c0-10.2,6.8-15.5,15.4-15.5c4,0,7.7,1.9,9.4,4.8L206.8,18.9z M189.1,33.7c0,5.6,3.9,9,8.8,9c11.5,0,11.5-17.9,0-17.9
		C193,24.7,189.1,28,189.1,33.7z"/>
	<path fill="#3F3C38" d="M244.9,18.9h8.8v0.2l-9.7,14.3l10.3,14.8v0.2h-8.8l-6.4-9.9l-6.4,9.9h-8.8v-0.2l10.3-14.8l-9.7-14.3v-0.2
		h8.8l5.8,10L244.9,18.9z"/>
	<path fill="#3F3C38" d="M271.9,10.6c0,5.7-8.6,5.7-8.6,0S271.9,4.9,271.9,10.6z M263.9,18.8v29.7h7.3V18.8H263.9z"/>
</g>
</svg>
