<?xml version="1.0" encoding="utf-8"?>
<!-- Generator: Adobe Illustrator 18.0.0, SVG Export Plug-In . SVG Version: 6.00 Build 0)  -->
<svg version="1.1" id="Capa_1" xmlns="http://www.w3.org/2000/svg" xmlns:xlink="http://www.w3.org/1999/xlink" x="0px" y="0px"
	 viewBox="12.2 0 252.7 48.7" enable-background="new 12.2 0 252.7 48.7" xml:space="preserve">
<g>
	<g>
		<path fill="#BDA2A5" d="M40.4,0v45.7h3.9v2.1h-4.4c-1.4,0-2.8,0-4,0.1l-4,0.3h-1V44h-0.1c-1.5,3.1-3.8,4.7-7,4.7
			c-3.1,0-5.8-1.5-8.1-4.5c-2.3-3-3.5-6.6-3.5-11c0-4.2,1.2-7.7,3.5-10.5c2.3-2.8,5.1-4.2,8.2-4.2c2.6,0,5,1.2,7,3.6V2.8h-5.7V0.7h5
			c1.1,0,3.1-0.1,5.8-0.3C38.7,0.1,40.2,0,40.4,0z M30.9,36.9v-7.6c0-2.9-0.5-5.1-1.6-6.5s-2.2-2.1-3.4-2.1c-0.9,0-1.6,0.5-2.1,1.5
			c-0.5,1-0.7,3.1-0.7,6.1v10.6c0,2.9,0.2,4.9,0.5,5.9c0.4,1,1,1.5,2,1.5c1,0,2.1-0.7,3.4-2C30.2,43,30.9,40.5,30.9,36.9z"/>
		<path fill="#BDA2A5" d="M78.8,38.5h1.9c-0.4,3.2-1.8,5.7-4.2,7.5c-2.4,1.8-5.2,2.7-8.3,2.7c-4.3,0-7.9-1.4-11-4.3
			c-3.1-2.9-4.6-6.3-4.6-10.4c0-4.1,1.6-7.7,4.7-10.8c3.1-3.1,6.9-4.6,11.4-4.6c3.1,0,5.8,0.7,8,2.2c2.2,1.5,3.4,3.4,3.4,5.8
			c0,1.3-0.5,2.4-1.4,3.3c-0.9,0.9-2.1,1.4-3.6,1.4c-1.3,0-2.5-0.4-3.4-1.3c-0.9-0.9-1.4-2-1.4-3.3c0-1.8,0.6-3,1.9-3.6
			c0.5-0.3,0.7-0.6,0.7-1c0-0.4-0.4-0.7-1.2-1c-0.8-0.3-1.7-0.4-2.7-0.4c-1.8,0-3.1,0.6-4,1.9s-1.4,4.6-1.4,10
			c0,5.6,0.3,9.3,0.9,11.1c0.6,1.8,2.2,2.7,4.9,2.7C74.2,46.3,77.3,43.7,78.8,38.5z"/>
		<path fill="#BDA2A5" d="M104.1,48.7c-4.7,0-8.5-1.5-11.3-4.5c-2.8-3-4.2-6.5-4.2-10.5c0-4,1.4-7.6,4.3-10.6
			c2.9-3,6.6-4.5,11.2-4.5c4.7,0,8.4,1.5,11.3,4.5c2.9,3,4.3,6.5,4.3,10.6c0,4.1-1.4,7.6-4.3,10.6S108.8,48.7,104.1,48.7z
			 M104.1,20.4c-1.2,0-2.2,0.3-3,0.9s-1.2,1.5-1.4,2.7c-0.2,1.2-0.2,4.4-0.2,9.6c0,5,0.1,8.1,0.2,9.3c0.2,1.1,0.6,2.1,1.4,2.8
			c0.8,0.7,1.9,1.1,3.2,1.1c1.1,0,2-0.3,2.8-0.9c0.8-0.6,1.3-1.7,1.5-3.4c0.2-1.6,0.2-4.4,0.2-8.3c0-6.1-0.2-9.9-0.7-11.5
			C107.7,21.2,106.3,20.4,104.1,20.4z"/>
	</g>
	<g>
		<path fill="#3F3C38" d="M155.5,48.5V32.6c0-3.9-2-7.4-6.1-7.4c-4,0-6.3,3.5-6.3,7.4v15.8h-7.3V18.9h6.8l0.5,3.6
			c1.6-3,5-4.1,7.8-4.1c3.5,0,7.1,1.4,8.8,5.5c2.6-4.2,6.1-5.4,9.9-5.4c8.4,0,12.5,5.2,12.5,14v16h-7.3v-16c0-3.9-1.6-7.2-5.6-7.2
			c-4,0-6.4,3.4-6.4,7.3v15.8H155.5z"/>
		<path fill="#3F3C38" d="M203.5,10.6c0,5.7-8.6,5.7-8.6,0S203.5,4.9,203.5,10.6z M195.6,18.8v29.7h7.3V18.8H195.6z"/>
		<path fill="#3F3C38" d="M237.3,48.5V33c0-4.5-2.5-7.9-7.1-7.9c-4.5,0-7.6,3.8-7.6,8.3v15.1h-7.3V18.9h6.5l0.5,4
			c3-2.9,6-4.4,9.7-4.4c7,0,12.5,5.2,12.5,14.5v15.5H237.3z"/>
		<path fill="#3F3C38" d="M264.9,10.6c0,5.7-8.6,5.7-8.6,0S264.9,4.9,264.9,10.6z M256.9,18.8v29.7h7.3V18.8H256.9z"/>
	</g>
</g>
</svg>
