<?xml version="1.0" encoding="utf-8"?>
<!-- Generator: Adobe Illustrator 22.1.0, SVG Export Plug-In . SVG Version: 6.00 Build 0)  -->
<svg version="1.1" id="Capa_1" xmlns="http://www.w3.org/2000/svg" xmlns:xlink="http://www.w3.org/1999/xlink" x="0px" y="0px"
	 viewBox="0 0 271.9 124" style="enable-background:new 0 0 271.9 124;" xml:space="preserve">
<style type="text/css">
	.st0{fill:#FFFFFF;}
	.st1{fill:#3F3C38;}
</style>
<g>
	<path class="st0" d="M28.2,75.3V121h3.9v2.1h-4.4c-1.4,0-2.8,0-4,0.1l-4,0.3h-1v-4.2h-0.1c-1.5,3.1-3.8,4.7-7,4.7
		c-3.1,0-5.8-1.5-8.1-4.5s-3.5-6.6-3.5-11c0-4.2,1.2-7.7,3.5-10.5s5.1-4.2,8.2-4.2c2.6,0,5,1.2,7,3.6V78.1H13V76h5
		c1.1,0,3.1-0.1,5.8-0.3C26.5,75.4,27.9,75.3,28.2,75.3z M18.7,112.2v-7.6c0-2.9-0.5-5.1-1.6-6.5S14.9,96,13.7,96
		c-0.9,0-1.6,0.5-2.1,1.5s-0.7,3.1-0.7,6.1v10.6c0,2.9,0.2,4.9,0.5,5.9c0.4,1,1,1.5,2,1.5s2.1-0.7,3.4-2
		C18,118.3,18.7,115.8,18.7,112.2z"/>
	<path class="st0" d="M66.6,113.8h1.9c-0.4,3.2-1.8,5.7-4.2,7.5c-2.4,1.8-5.2,2.7-8.3,2.7c-4.3,0-7.9-1.4-11-4.3s-4.5-6.4-4.5-10.4
		c0-4.1,1.6-7.7,4.7-10.8c3.1-3.1,6.9-4.6,11.4-4.6c3.1,0,5.8,0.7,8,2.2c2.2,1.5,3.4,3.4,3.4,5.8c0,1.3-0.5,2.4-1.4,3.3
		s-2.1,1.4-3.6,1.4c-1.3,0-2.5-0.4-3.4-1.3s-1.4-2-1.4-3.3c0-1.8,0.6-3,1.9-3.6c0.5-0.3,0.7-0.6,0.7-1s-0.4-0.7-1.2-1
		S57.9,96,56.9,96c-1.8,0-3.1,0.6-4,1.9s-1.4,4.6-1.4,10c0,5.6,0.3,9.3,0.9,11.1c0.6,1.8,2.2,2.7,4.9,2.7
		C62,121.6,65.1,119,66.6,113.8z"/>
	<path class="st0" d="M91.9,124c-4.7,0-8.5-1.5-11.3-4.5s-4.2-6.5-4.2-10.5s1.4-7.6,4.3-10.6s6.6-4.5,11.2-4.5
		c4.7,0,8.4,1.5,11.3,4.5s4.3,6.5,4.3,10.6s-1.4,7.6-4.3,10.6C100.4,122.5,96.6,124,91.9,124z M91.9,95.7c-1.2,0-2.2,0.3-3,0.9
		s-1.2,1.5-1.4,2.7c-0.2,1.2-0.2,4.4-0.2,9.6c0,5,0.1,8.1,0.2,9.3c0.2,1.1,0.6,2.1,1.4,2.8c0.8,0.7,1.9,1.1,3.2,1.1
		c1.1,0,2-0.3,2.8-0.9s1.3-1.7,1.5-3.4c0.2-1.7,0.2-4.4,0.2-8.3c0-6.1-0.2-9.9-0.7-11.5C95.5,96.5,94.1,95.7,91.9,95.7z"/>
</g>
<g>
	<path class="st1" d="M143.3,123.8v-15.9c0-3.9-2-7.4-6.1-7.4c-4,0-6.3,3.5-6.3,7.4v15.8h-7.3V94.1h6.8l0.5,3.6c1.6-3,5-4.1,7.8-4.1
		c3.5,0,7.1,1.4,8.8,5.5c2.6-4.2,6.1-5.4,9.9-5.4c8.4,0,12.5,5.2,12.5,14v16h-7.3v-16c0-3.9-1.6-7.2-5.6-7.2s-6.4,3.4-6.4,7.3v15.8
		h-7.3L143.3,123.8L143.3,123.8z"/>
	<path class="st1" d="M206.8,94.2h7v29.6h-6.9l-0.4-4.3c-1.7,3.5-6.3,5.2-9.6,5.2c-8.8,0.1-15.2-5.3-15.2-15.7
		c0-10.2,6.8-15.5,15.4-15.5c4,0,7.7,1.9,9.4,4.8L206.8,94.2z M189.1,109c0,5.6,3.9,9,8.8,9c11.5,0,11.5-17.9,0-17.9
		C193,100,189.1,103.3,189.1,109z"/>
	<path class="st1" d="M244.9,94.2h8.8v0.2l-9.7,14.3l10.3,14.8v0.2h-8.8l-6.4-9.9l-6.4,9.9h-8.8v-0.2l10.3-14.8l-9.7-14.3v-0.2h8.8
		l5.8,10L244.9,94.2z"/>
	<path class="st1" d="M271.9,85.9c0,5.7-8.6,5.7-8.6,0S271.9,80.2,271.9,85.9z M263.9,94.1v29.7h7.3V94.1H263.9z"/>
</g>
</svg>
