<?xml version="1.0" encoding="utf-8"?>
<!-- Generator: Adobe Illustrator 22.1.0, SVG Export Plug-In . SVG Version: 6.00 Build 0)  -->
<svg version="1.1" id="Capa_1" xmlns="http://www.w3.org/2000/svg" xmlns:xlink="http://www.w3.org/1999/xlink" x="0px" y="0px"
	 viewBox="0 0 254.3 130.1" style="enable-background:new 0 0 254.3 130.1;" xml:space="preserve">
<style type="text/css">
	.st0{fill:#FFFFFF;}
	.st1{fill:#3F3C38;}
</style>
<g>
	<g>
		<path class="st0" d="M28.2,81v45.7h3.9v2.1h-4.4c-1.4,0-2.8,0-4,0.1l-4,0.3h-1V125h-0.1c-1.5,3.1-3.8,4.7-7,4.7
			c-3.1,0-5.8-1.5-8.1-4.5s-3.5-6.6-3.5-11c0-4.2,1.2-7.7,3.5-10.5s5.1-4.2,8.2-4.2c2.6,0,5,1.2,7,3.6V83.8H13v-2.1h5
			c1.1,0,3.1-0.1,5.8-0.3C26.5,81.1,28,81,28.2,81z M18.7,117.9v-7.6c0-2.9-0.5-5.1-1.6-6.5s-2.2-2.1-3.4-2.1
			c-0.9,0-1.6,0.5-2.1,1.5s-0.7,3.1-0.7,6.1v10.6c0,2.9,0.2,4.9,0.5,5.9c0.4,1,1,1.5,2,1.5s2.1-0.7,3.4-2
			C18,124,18.7,121.5,18.7,117.9z"/>
		<path class="st0" d="M66.6,119.5h1.9c-0.4,3.2-1.8,5.7-4.2,7.5s-5.2,2.7-8.3,2.7c-4.3,0-7.9-1.4-11-4.3s-4.6-6.3-4.6-10.4
			s1.6-7.7,4.7-10.8c3.1-3.1,6.9-4.6,11.4-4.6c3.1,0,5.8,0.7,8,2.2c2.2,1.5,3.4,3.4,3.4,5.8c0,1.3-0.5,2.4-1.4,3.3s-2.1,1.4-3.6,1.4
			c-1.3,0-2.5-0.4-3.4-1.3s-1.4-2-1.4-3.3c0-1.8,0.6-3,1.9-3.6c0.5-0.3,0.7-0.6,0.7-1s-0.4-0.7-1.2-1s-1.7-0.4-2.7-0.4
			c-1.8,0-3.1,0.6-4,1.9s-1.4,4.6-1.4,10c0,5.6,0.3,9.3,0.9,11.1c0.6,1.8,2.2,2.7,4.9,2.7C62,127.3,65.1,124.7,66.6,119.5z"/>
		<path class="st0" d="M91.9,129.7c-4.7,0-8.5-1.5-11.3-4.5s-4.2-6.5-4.2-10.5s1.4-7.6,4.3-10.6s6.6-4.5,11.2-4.5
			c4.7,0,8.4,1.5,11.3,4.5s4.3,6.5,4.3,10.6s-1.4,7.6-4.3,10.6C100.3,128.3,96.6,129.7,91.9,129.7z M91.9,101.4
			c-1.2,0-2.2,0.3-3,0.9s-1.2,1.5-1.4,2.7s-0.2,4.4-0.2,9.6c0,5,0.1,8.1,0.2,9.3c0.2,1.1,0.6,2.1,1.4,2.8c0.8,0.7,1.9,1.1,3.2,1.1
			c1.1,0,2-0.3,2.8-0.9s1.3-1.7,1.5-3.4c0.2-1.6,0.2-4.4,0.2-8.3c0-6.1-0.2-9.9-0.7-11.5C95.5,102.2,94.1,101.4,91.9,101.4z"/>
	</g>
	<g>
		<path class="st1" d="M143.3,129.5v-15.9c0-3.9-2-7.4-6.1-7.4c-4,0-6.3,3.5-6.3,7.4v15.8h-7.3V99.8h6.8l0.5,3.6
			c1.6-3,5-4.1,7.8-4.1c3.5,0,7.1,1.4,8.8,5.5c2.6-4.2,6.1-5.4,9.9-5.4c8.4,0,12.5,5.2,12.5,14v16h-7.3v-16c0-3.9-1.6-7.2-5.6-7.2
			s-6.4,3.4-6.4,7.3v15.8h-7.3L143.3,129.5L143.3,129.5z"/>
		<path class="st1" d="M191.3,91.6c0,5.7-8.6,5.7-8.6,0S191.3,85.9,191.3,91.6z M183.4,99.8v29.7h7.3V99.8H183.4z"/>
		<path class="st1" d="M234,87.5v41.9h-6.8l-0.5-4.1c-2.3,3.5-5.9,4.7-9.5,4.7c-8.7,0-15.2-5.8-15.2-15.5c0-10.2,6.4-15.5,15.1-15.5
			c3.1,0,8,1.7,9.7,4.7V87.5H234z M209.2,114.7c0,5.2,3.7,8.7,8.4,8.7c4.6,0,8.6-3.4,8.6-8.7c0-5.2-4-8.6-8.6-8.6
			C212.9,106,209.2,109.3,209.2,114.7z"/>
		<path class="st1" d="M254.3,91.6c0,5.7-8.6,5.7-8.6,0S254.3,85.9,254.3,91.6z M246.4,99.8v29.7h7.3V99.8H246.4z"/>
	</g>
</g>
</svg>
