<?xml version="1.0" encoding="utf-8"?>
<!-- Generator: Adobe Illustrator 18.0.0, SVG Export Plug-In . SVG Version: 6.00 Build 0)  -->
<!DOCTYPE svg PUBLIC "-//W3C//DTD SVG 1.1//EN" "http://www.w3.org/Graphics/SVG/1.1/DTD/svg11.dtd">
<svg version="1.1" id="Capa_1" xmlns="http://www.w3.org/2000/svg" xmlns:xlink="http://www.w3.org/1999/xlink" x="0px" y="0px"
	 viewBox="0 91.7 595.3 205" enable-background="new 0 91.7 595.3 205" xml:space="preserve">
<g>
	<g>
		<path fill="#BFC5C2" d="M114.6,134.5v97.2h10.1v3.9h-8.3c-5.3,0-10.7,0.2-16.6,0.8v-12.2h-0.4c-4.1,8.7-10.3,13.2-19.1,13.2
			c-7.1,0-13.2-3-18.5-9.3c-5.3-6.3-7.9-13.4-7.9-21.1c0-8.5,2.8-15.8,8.5-22.1c5.7-6.3,12.4-9.5,19.9-9.5c7.7,0,13.6,3.4,17.2,10.5
			h0.2v-46.4H86.2v-3.9h13.6C104.7,135.7,109.5,135.3,114.6,134.5z M82.5,178.5c-5.5,0-8.7,2-10.1,6.1c-1.4,4.1-2,12.2-2,24.5
			c0,10.7,0.8,17.4,2.6,20.3c1.8,2.8,4.5,4.3,8.3,4.3c4.3,0,7.9-1.4,11-4.3c3.2-2.8,5.3-6.1,6.3-9.7c1-3.7,1.4-9.5,1.4-17.6
			c0-7.7-1.6-13.6-4.7-17.4C92.3,180.6,88,178.5,82.5,178.5z"/>
		<path fill="#BFC5C2" d="M190.7,215.2h3.2c-1.4,7.3-4.5,12.8-8.7,16.4c-4.5,3.9-9.5,5.7-15.8,5.7c-8.3,0-15.4-3-21.3-9.3
			c-5.9-6.3-8.7-13.4-8.7-21.5c0-8.3,3-15.6,8.9-21.9c5.9-6.3,13.4-9.5,22.1-9.5c6.3,0,11.4,1.6,15.4,4.9c4.1,3.2,5.9,6.7,5.9,10.7
			c0,2-0.6,3.9-2,5.3c-1.4,1.6-3,2.4-5.3,2.4c-2.2,0-3.9-0.6-5.3-2c-1.4-1.4-2-3-2-5.3c0-1.6,0.6-3,1.8-4.5c1.2-1.4,1.8-2.4,1.8-3
			c0-1.4-1-2.4-2.8-3.4c-1.8-1-4.3-1.6-7.1-1.6c-5.1,0-8.9,1.4-11.6,4.3c-2.4,2.8-3.9,8.7-3.9,17.6s0.2,15.6,0.6,19.9
			s1.8,7.7,3.9,10.1c2,2.4,5.5,3.7,10.1,3.7C179.7,234.1,186.6,227.8,190.7,215.2z"/>
		<path fill="#BFC5C2" d="M209.3,206.1c0-8.5,3-15.8,8.9-21.9c5.9-6.1,13.2-9.1,21.9-9.1c8.5,0,15.8,2.8,21.7,8.7
			c5.9,5.9,8.9,13,8.9,21.7c0,8.9-3,16.4-9.3,22.5c-6.1,6.1-13.4,9.3-21.9,9.3c-8.3,0-15.4-3-21.3-9.1
			C212.2,222.3,209.3,214.8,209.3,206.1z M253.9,206.1c0-9.1-0.4-15.2-1-18.1c-0.6-2.8-2-5.3-4.3-6.9c-2.2-1.6-5.1-2.6-8.9-2.6
			c-3.7,0-6.5,0.8-8.9,2.6c-2.2,1.8-3.7,4.1-4.3,7.1c-0.6,2.8-0.8,8.9-0.8,18.1s0.4,15.2,1,18.3c0.6,3,2.2,5.3,4.5,7.1
			c2.2,1.6,5.1,2.4,8.5,2.4s6.3-0.8,8.7-2.6c2.2-1.6,3.9-4.1,4.5-7.1C253.5,221.3,253.9,215.2,253.9,206.1z"/>
	</g>
	<path fill="#3F3C38" d="M397.3,210.6h-9.5v-5.3c8.7,0,16,0,24.7,0v5.1H403v24.9h-5.7V210.6z"/>
	<path fill="#3F3C38" d="M424.7,205.3v11.8c1.8-2.4,4.3-3.2,6.7-3.2c6.1,0,8.7,4.1,8.7,10.3v11.2h-5.3v-11.2c0-3.9-2-5.5-4.9-5.5
		c-3,0-5.3,2.6-5.3,5.9v11h-5.3v-30.2H424.7z"/>
	<path fill="#3F3C38" d="M452.7,226.8c0.4,2.6,2.6,4.5,6.3,4.5c2,0,4.5-0.8,5.7-2l3.4,3.2c-2.2,2.2-5.9,3.4-9.1,3.4
		c-7.3,0-11.8-4.5-11.8-11.4c0-6.5,4.5-11.2,11.4-11.2c7.1,0,11.6,4.5,10.7,13.2h-16.6V226.8z M464.3,222.5
		c-0.4-2.8-2.4-4.1-5.5-4.1c-2.8,0-5.1,1.4-5.9,4.1H464.3z"/>
	<path fill="#3F3C38" d="M516.4,231.7c-3,3-7.1,4.5-11.4,4.5c-11.2,0-16-7.7-16-15.6c0-7.9,5.1-15.8,16-15.8c4.1,0,7.9,1.6,11.2,4.7
		l-3.9,3.7c-2-2-4.7-2.8-7.3-2.8c-7.3,0-10.3,5.5-10.3,10.5s2.8,10.1,10.3,10.1c2.6,0,5.7-1,7.5-3L516.4,231.7z"/>
	<path fill="#3F3C38" d="M543.6,225c0,6.1-4.3,11.2-11.2,11.2c-6.9,0-11-4.9-11-11.2c0-6.1,4.3-11.2,11-11.2
		C539.3,213.8,543.6,218.9,543.6,225z M526.7,225c0,3.2,2,6.3,5.7,6.3c3.9,0,5.7-3,5.7-6.3c0-3.2-2.2-6.3-5.7-6.3
		C528.8,218.7,526.7,221.7,526.7,225z"/>
	<path fill="#BFC5C2" d="M560.2,231.7c0,5.7-8.7,5.7-8.7,0C551.5,226,560.2,226,560.2,231.7z"/>
	<g>
		<g>
			<rect x="286.6" y="233.5" fill="#3F3C38" width="85" height="4.1"/>
		</g>
	</g>
</g>
</svg>
