<?xml version="1.0" encoding="utf-8"?>
<!-- Generator: Adobe Illustrator 21.0.0, SVG Export Plug-In . SVG Version: 6.00 Build 0)  -->
<svg version="1.1" id="Capa_1" xmlns="http://www.w3.org/2000/svg" xmlns:xlink="http://www.w3.org/1999/xlink" x="0px" y="0px"
	 viewBox="0 0 612 322.4" style="enable-background:new 0 0 612 322.4;" xml:space="preserve">
<style type="text/css">
	.st0{clip-path:url(#SVGID_2_);}
	.st1{clip-path:url(#SVGID_4_);}
	.st2{fill:#FFFFFF;}
	.st3{clip-path:url(#SVGID_6_);}
	.st4{fill:#FFFFFF;stroke:#000000;stroke-miterlimit:10;}
</style>
<g>
	<g>
		<defs>
			<rect id="SVGID_1_" x="-15" y="-8" width="633" height="332"/>
		</defs>
		<clipPath id="SVGID_2_">
			<use xlink:href="#SVGID_1_"  style="overflow:visible;"/>
		</clipPath>
		<g id="Capa_1_1_" class="st0">
			<g>
				<g id="_x32__38_">
					<g>
						<path d="M306,1.6c-169,0-306,137-306,306s137,306,306,306s306-137,306-306S475,1.6,306,1.6z M469.3,394.4
							c-7.5,7.5-19.6,7.5-27,0L306,258.1L169.8,394.3c-7.5,7.5-19.6,7.5-27,0c-7.5-7.5-7.5-19.6,0-27l146.4-146.5
							c4.6-4.6,10.9-6,16.8-5c5.9-1.1,12.2,0.4,16.8,5l146.5,146.5C476.7,374.8,476.7,386.9,469.3,394.4z"/>
					</g>
				</g>
			</g>
		</g>
	</g>
	<g>
		<defs>
			<rect id="SVGID_3_" x="-15" y="-8" width="633" height="332"/>
		</defs>
		<clipPath id="SVGID_4_">
			<use xlink:href="#SVGID_3_"  style="overflow:visible;"/>
		</clipPath>
		<g class="st1">
			<rect x="121" y="87" class="st2" width="357" height="201"/>
			<g id="Capa_2">
				<g>
					<g>
						<defs>
							<rect id="SVGID_5_" x="112.6" y="70.5" width="371.4" height="222"/>
						</defs>
						<clipPath id="SVGID_6_">
							<use xlink:href="#SVGID_5_"  style="overflow:visible;"/>
						</clipPath>
						<g class="st3">
							<g id="_x32__1_">
								<g>
									<path d="M311.9-113.9c-158.9,0-287.7,137-287.7,306s128.8,306,287.7,306s287.7-137,287.7-306S470.8-113.9,311.9-113.9z
										 M465.5,278.9c-7.1,7.5-18.4,7.5-25.4,0L311.9,142.6L183.8,278.8c-7.1,7.5-18.4,7.5-25.4,0c-7.1-7.5-7.1-19.6,0-27
										l137.7-146.5c4.3-4.6,10.2-6,15.8-5c5.5-1.1,11.5,0.4,15.8,5l137.8,146.5C472.4,259.3,472.4,271.4,465.5,278.9z"/>
								</g>
							</g>
						</g>
					</g>
				</g>
				<rect x="112.6" y="292.5" width="383.4" height="129.5"/>
				<rect x="213" y="277" width="192" height="30.6"/>
				<rect y="324" class="st4" width="612" height="289.6"/>
			</g>
		</g>
	</g>
</g>
</svg>
