<?xml version="1.0" encoding="utf-8"?>
<!-- Generator: Adobe Illustrator 21.0.0, SVG Export Plug-In . SVG Version: 6.00 Build 0)  -->
<svg version="1.1" id="Layer_1" xmlns="http://www.w3.org/2000/svg" xmlns:xlink="http://www.w3.org/1999/xlink" x="0px" y="0px"
	 viewBox="0 0 470 470" style="enable-background:new 0 0 470 470;" xml:space="preserve">
<style type="text/css">
	.st0{fill:#A80404;}
</style>
<g>
	<path class="st0" d="M162.5,117.5c0-40,32.5-72.5,72.5-72.5s72.5,32.5,72.5,72.5V175h30v-57.5C337.5,61,291.5,15,235,15
		S132.5,61,132.5,117.5V175h30V117.5z"/>
	<path class="st0" d="M77.5,173v280h315V173H77.5z M250,321.1v53.6h-30v-53.6c-11.8-5.6-20-17.7-20-31.6c0-19.3,15.7-35,35-35
		s35,15.7,35,35C270,303.4,261.8,315.4,250,321.1z"/>
</g>
</svg>
