<?xml version="1.0" encoding="utf-8"?>
<!-- Generator: Adobe Illustrator 18.0.0, SVG Export Plug-In . SVG Version: 6.00 Build 0)  -->
<svg version="1.1" id="Capa_1" xmlns="http://www.w3.org/2000/svg" xmlns:xlink="http://www.w3.org/1999/xlink" x="0px" y="0px"
	 viewBox="0 0 90 65.7" enable-background="new 0 0 90 65.7" xml:space="preserve">
<g>
	<g>
		<rect x="0.5" y="0.6" fill="#C2C3C9" width="11.1" height="10.7"/>
	</g>
	<g>
		<rect x="11.6" y="0.6" fill="#FFFFFF" width="11.1" height="10.7"/>
	</g>
	<g>
		<rect x="22.8" y="0.6" fill="#C2C3C9" width="11.1" height="10.7"/>
	</g>
	<g>
		<rect x="33.9" y="0.6" fill="#FFFFFF" width="11.1" height="10.7"/>
	</g>
	<g>
		<rect x="45" y="0.6" fill="#C2C3C9" width="11.1" height="10.7"/>
	</g>
	<g>
		<rect x="56.2" y="0.6" fill="#FFFFFF" width="11.1" height="10.7"/>
	</g>
	<g>
		<rect x="67.3" y="0.6" fill="#C2C3C9" width="11.1" height="10.7"/>
	</g>
	<g>
		<rect x="78.4" y="0.6" fill="#FFFFFF" width="11.1" height="10.7"/>
	</g>
	<g>
		<rect x="78.4" y="11.3" fill="#C2C3C9" width="11.1" height="10.7"/>
	</g>
	<g>
		<rect x="67.3" y="11.3" fill="#FFFFFF" width="11.1" height="10.7"/>
	</g>
	<g>
		<rect x="56.2" y="11.3" fill="#C2C3C9" width="11.1" height="10.7"/>
	</g>
	<g>
		<rect x="45" y="11.3" fill="#FFFFFF" width="11.1" height="10.7"/>
	</g>
	<g>
		<rect x="33.9" y="11.3" fill="#C2C3C9" width="11.1" height="10.7"/>
	</g>
	<g>
		<rect x="22.8" y="11.3" fill="#FFFFFF" width="11.1" height="10.7"/>
	</g>
	<g>
		<rect x="11.6" y="11.3" fill="#C2C3C9" width="11.1" height="10.7"/>
	</g>
	<g>
		<rect x="0.5" y="11.3" fill="#FFFFFF" width="11.1" height="10.7"/>
	</g>
	<g>
		<rect x="0.5" y="22" fill="#C2C3C9" width="11.1" height="10.7"/>
	</g>
	<g>
		<rect x="11.6" y="22" fill="#FFFFFF" width="11.1" height="10.7"/>
	</g>
	<g>
		<rect x="22.8" y="22" fill="#C2C3C9" width="11.1" height="10.7"/>
	</g>
	<g>
		<rect x="33.9" y="22" fill="#FFFFFF" width="11.1" height="10.7"/>
	</g>
	<g>
		<rect x="45" y="22" fill="#C2C3C9" width="11.1" height="10.7"/>
	</g>
	<g>
		<rect x="56.2" y="22" fill="#FFFFFF" width="11.1" height="10.7"/>
	</g>
	<g>
		<rect x="67.3" y="22" fill="#C2C3C9" width="11.1" height="10.7"/>
	</g>
	<g>
		<rect x="78.4" y="22" fill="#FFFFFF" width="11.1" height="10.7"/>
	</g>
	<g>
		<rect x="78.4" y="32.8" fill="#C2C3C9" width="11.1" height="10.7"/>
	</g>
	<g>
		<rect x="67.3" y="32.8" fill="#FFFFFF" width="11.1" height="10.7"/>
	</g>
	<g>
		<rect x="56.2" y="32.8" fill="#C2C3C9" width="11.1" height="10.7"/>
	</g>
	<g>
		<rect x="45" y="32.8" fill="#FFFFFF" width="11.1" height="10.7"/>
	</g>
	<g>
		<rect x="33.9" y="32.8" fill="#C2C3C9" width="11.1" height="10.7"/>
	</g>
	<g>
		<rect x="22.8" y="32.8" fill="#FFFFFF" width="11.1" height="10.7"/>
	</g>
	<g>
		<rect x="11.6" y="32.8" fill="#C2C3C9" width="11.1" height="10.7"/>
	</g>
	<g>
		<rect x="0.5" y="32.8" fill="#FFFFFF" width="11.1" height="10.7"/>
	</g>
	<g>
		<rect x="0.5" y="43.5" fill="#C2C3C9" width="11.1" height="10.7"/>
	</g>
	<g>
		<rect x="11.6" y="43.5" fill="#FFFFFF" width="11.1" height="10.7"/>
	</g>
	<g>
		<rect x="22.8" y="43.5" fill="#C2C3C9" width="11.1" height="10.7"/>
	</g>
	<g>
		<rect x="33.9" y="43.5" fill="#FFFFFF" width="11.1" height="10.7"/>
	</g>
	<g>
		<rect x="45" y="43.5" fill="#C2C3C9" width="11.1" height="10.7"/>
	</g>
	<g>
		<rect x="56.2" y="43.5" fill="#FFFFFF" width="11.1" height="10.7"/>
	</g>
	<g>
		<rect x="67.3" y="43.5" fill="#C2C3C9" width="11.1" height="10.7"/>
	</g>
	<g>
		<rect x="78.4" y="43.5" fill="#FFFFFF" width="11.1" height="10.7"/>
	</g>
	<g>
		<rect x="78.4" y="54.2" fill="#C2C3C9" width="11.1" height="10.7"/>
	</g>
	<g>
		<rect x="67.3" y="54.2" fill="#FFFFFF" width="11.1" height="10.7"/>
	</g>
	<g>
		<rect x="56.2" y="54.2" fill="#C2C3C9" width="11.1" height="10.7"/>
	</g>
	<g>
		<rect x="45" y="54.2" fill="#FFFFFF" width="11.1" height="10.7"/>
	</g>
	<g>
		<rect x="33.9" y="54.2" fill="#C2C3C9" width="11.1" height="10.7"/>
	</g>
	<g>
		<rect x="22.8" y="54.2" fill="#FFFFFF" width="11.1" height="10.7"/>
	</g>
	<g>
		<rect x="11.6" y="54.2" fill="#C2C3C9" width="11.1" height="10.7"/>
	</g>
	<g>
		<rect x="0.5" y="54.2" fill="#FFFFFF" width="11.1" height="10.7"/>
	</g>
	<g>
		<rect x="30.5" y="18.3" fill="#2A2A2A" width="29" height="29"/>
	</g>
	<g>
		<path fill="#C2C3C9" d="M90,65.7H0V0h90V65.7z M1,64.7h88V1H1V64.7z"/>
	</g>
</g>
</svg>
