<?xml version="1.0" encoding="utf-8"?>
<!-- Generator: Adobe Illustrator 18.0.0, SVG Export Plug-In . SVG Version: 6.00 Build 0)  -->
<svg version="1.1" id="Capa_1" xmlns="http://www.w3.org/2000/svg" xmlns:xlink="http://www.w3.org/1999/xlink" x="0px" y="0px"
	 viewBox="0 0 103.9 75.1" enable-background="new 0 0 103.9 75.1" xml:space="preserve">
<g>
	<g>
		<rect x="0.5" y="10" fill="#C2C3C9" width="11.1" height="10.7"/>
	</g>
	<g>
		<rect x="11.6" y="10" fill="#FFFFFF" width="11.1" height="10.7"/>
	</g>
	<g>
		<rect x="22.8" y="10" fill="#C2C3C9" width="11.1" height="10.7"/>
	</g>
	<g>
		<rect x="33.9" y="10" fill="#FFFFFF" width="11.1" height="10.7"/>
	</g>
	<g>
		<rect x="45" y="10" fill="#C2C3C9" width="11.1" height="10.7"/>
	</g>
	<g>
		<rect x="56.2" y="10" fill="#FFFFFF" width="11.1" height="10.7"/>
	</g>
	<g>
		<rect x="67.3" y="10" fill="#C2C3C9" width="11.1" height="10.7"/>
	</g>
	<g>
		<rect x="78.4" y="10" fill="#FFFFFF" width="11.1" height="10.7"/>
	</g>
	<g>
		<rect x="78.4" y="20.7" fill="#C2C3C9" width="11.1" height="10.7"/>
	</g>
	<g>
		<rect x="67.3" y="20.7" fill="#FFFFFF" width="11.1" height="10.7"/>
	</g>
	<g>
		<rect x="56.2" y="20.7" fill="#C2C3C9" width="11.1" height="10.7"/>
	</g>
	<g>
		<rect x="45" y="20.7" fill="#FFFFFF" width="11.1" height="10.7"/>
	</g>
	<g>
		<rect x="33.9" y="20.7" fill="#C2C3C9" width="11.1" height="10.7"/>
	</g>
	<g>
		<rect x="22.8" y="20.7" fill="#FFFFFF" width="11.1" height="10.7"/>
	</g>
	<g>
		<rect x="11.6" y="20.7" fill="#C2C3C9" width="11.1" height="10.7"/>
	</g>
	<g>
		<rect x="0.5" y="20.7" fill="#FFFFFF" width="11.1" height="10.7"/>
	</g>
	<g>
		<rect x="0.5" y="31.5" fill="#C2C3C9" width="11.1" height="10.7"/>
	</g>
	<g>
		<rect x="11.6" y="31.5" fill="#FFFFFF" width="11.1" height="10.7"/>
	</g>
	<g>
		<rect x="22.8" y="31.5" fill="#C2C3C9" width="11.1" height="10.7"/>
	</g>
	<g>
		<rect x="33.9" y="31.5" fill="#FFFFFF" width="11.1" height="10.7"/>
	</g>
	<g>
		<rect x="45" y="31.5" fill="#C2C3C9" width="11.1" height="10.7"/>
	</g>
	<g>
		<rect x="56.2" y="31.5" fill="#FFFFFF" width="11.1" height="10.7"/>
	</g>
	<g>
		<rect x="67.3" y="31.5" fill="#C2C3C9" width="11.1" height="10.7"/>
	</g>
	<g>
		<rect x="78.4" y="31.5" fill="#FFFFFF" width="11.1" height="10.7"/>
	</g>
	<g>
		<rect x="78.4" y="42.2" fill="#C2C3C9" width="11.1" height="10.7"/>
	</g>
	<g>
		<rect x="67.3" y="42.2" fill="#FFFFFF" width="11.1" height="10.7"/>
	</g>
	<g>
		<rect x="56.2" y="42.2" fill="#C2C3C9" width="11.1" height="10.7"/>
	</g>
	<g>
		<rect x="45" y="42.2" fill="#FFFFFF" width="11.1" height="10.7"/>
	</g>
	<g>
		<rect x="33.9" y="42.2" fill="#C2C3C9" width="11.1" height="10.7"/>
	</g>
	<g>
		<rect x="22.8" y="42.2" fill="#FFFFFF" width="11.1" height="10.7"/>
	</g>
	<g>
		<rect x="11.6" y="42.2" fill="#C2C3C9" width="11.1" height="10.7"/>
	</g>
	<g>
		<rect x="0.5" y="42.2" fill="#FFFFFF" width="11.1" height="10.7"/>
	</g>
	<g>
		<rect x="0.5" y="52.9" fill="#C2C3C9" width="11.1" height="10.7"/>
	</g>
	<g>
		<rect x="11.6" y="52.9" fill="#FFFFFF" width="11.1" height="10.7"/>
	</g>
	<g>
		<rect x="22.8" y="52.9" fill="#C2C3C9" width="11.1" height="10.7"/>
	</g>
	<g>
		<rect x="33.9" y="52.9" fill="#FFFFFF" width="11.1" height="10.7"/>
	</g>
	<g>
		<rect x="45" y="52.9" fill="#C2C3C9" width="11.1" height="10.7"/>
	</g>
	<g>
		<rect x="56.2" y="52.9" fill="#FFFFFF" width="11.1" height="10.7"/>
	</g>
	<g>
		<rect x="67.3" y="52.9" fill="#C2C3C9" width="11.1" height="10.7"/>
	</g>
	<g>
		<rect x="78.4" y="52.9" fill="#FFFFFF" width="11.1" height="10.7"/>
	</g>
	<g>
		<rect x="78.4" y="63.6" fill="#C2C3C9" width="11.1" height="10.7"/>
	</g>
	<g>
		<rect x="67.3" y="63.6" fill="#FFFFFF" width="11.1" height="10.7"/>
	</g>
	<g>
		<rect x="56.2" y="63.6" fill="#C2C3C9" width="11.1" height="10.7"/>
	</g>
	<g>
		<rect x="45" y="63.6" fill="#FFFFFF" width="11.1" height="10.7"/>
	</g>
	<g>
		<rect x="33.9" y="63.6" fill="#C2C3C9" width="11.1" height="10.7"/>
	</g>
	<g>
		<rect x="22.8" y="63.6" fill="#FFFFFF" width="11.1" height="10.7"/>
	</g>
	<g>
		<rect x="11.6" y="63.6" fill="#C2C3C9" width="11.1" height="10.7"/>
	</g>
	<g>
		<rect x="0.5" y="63.6" fill="#FFFFFF" width="11.1" height="10.7"/>
	</g>
	<g>
		<rect x="30.5" y="27.7" fill="#2A2A2A" width="29" height="29"/>
	</g>
	<g>
		<path fill="#C2C3C9" d="M90,75.1H0V9.4h90V75.1z M1,74.1h88V10.4H1V74.1z"/>
	</g>
	<g>
		<g>
			<path fill="#2A2A2A" d="M103.9,19.5L103.9,19.5L103.9,19.5c-2.9,0.1-5.6,0.4-7.7,0.9c0,0,0,0,0,0c-1.3,0.3-2.2,1.3-2.6,2.5v0
				c-0.5,2.1-0.8,4.8-0.8,7.7h0l0,0h0c0-2.9-0.3-5.6-0.8-7.7c0,0,0,0,0,0c-0.3-1.3-1.3-2.2-2.6-2.6c0,0,0,0,0,0
				c-2-0.5-4.7-0.8-7.7-0.8v0l0,0v0c2.9,0,5.6-0.3,7.7-0.8h0c1.3-0.3,2.2-1.3,2.5-2.6c0,0,0,0,0,0c0.5-2.1,0.8-4.8,0.8-7.7h0l0,0h0
				c0,2.9,0.3,5.6,0.8,7.7c0,0,0,0,0,0c0.3,1.3,1.3,2.2,2.5,2.6c0,0,0,0,0,0C98.2,19.2,100.9,19.5,103.9,19.5L103.9,19.5z"/>
		</g>
	</g>
	<g>
		<g>
			<path fill="#2A2A2A" d="M87,8.3L87,8.3L87,8.3c-2.2,0-4.2,0.3-5.8,0.6l0,0c-0.9,0.2-1.7,1-1.9,1.9c0,0,0,0,0,0
				c-0.4,1.5-0.6,3.6-0.6,5.8h0l0,0h0c0-2.2-0.2-4.2-0.6-5.8c0,0,0,0,0,0c-0.2-0.9-1-1.7-1.9-1.9c0,0,0,0,0,0
				c-1.5-0.4-3.6-0.6-5.8-0.6v0l0,0v0c2.2,0,4.2-0.2,5.8-0.6c0,0,0,0,0,0c0.9-0.2,1.7-1,1.9-1.9l0,0c0.4-1.5,0.6-3.6,0.6-5.8h0l0,0
				h0c0,2.2,0.2,4.2,0.6,5.8c0,0,0,0,0,0c0.2,0.9,1,1.7,1.9,1.9c0,0,0,0,0,0C82.7,8.1,84.7,8.3,87,8.3L87,8.3z"/>
		</g>
	</g>
	<g>
		<g>
			<path fill="#2A2A2A" d="M78.7,26.4L78.7,26.4L78.7,26.4c-1.1,0-2.1,0.1-2.9,0.3l0,0c-0.5,0.1-0.8,0.5-0.9,0.9l0,0
				c-0.2,0.8-0.3,1.8-0.3,2.9l0,0l0,0l0,0c0-1.1-0.1-2.1-0.3-2.9l0,0c-0.1-0.5-0.5-0.8-0.9-0.9l0,0c-0.8-0.2-1.8-0.3-2.9-0.3l0,0
				l0,0l0,0c1.1,0,2.1-0.1,2.9-0.3l0,0c0.5-0.1,0.8-0.5,0.9-0.9l0,0c0.2-0.8,0.3-1.8,0.3-2.9l0,0l0,0l0,0c0,1.1,0.1,2.1,0.3,2.9l0,0
				c0.1,0.5,0.5,0.8,0.9,0.9l0,0C76.5,26.2,77.6,26.3,78.7,26.4L78.7,26.4z"/>
		</g>
	</g>
</g>
</svg>
