<?xml version="1.0" encoding="utf-8"?>
<!-- Generator: Adobe Illustrator 21.0.0, SVG Export Plug-In . SVG Version: 6.00 Build 0)  -->
<svg version="1.1"
	 id="Capa_1" xmlns:cc="http://creativecommons.org/ns#" xmlns:dc="http://purl.org/dc/elements/1.1/" xmlns:inkscape="http://www.inkscape.org/namespaces/inkscape" xmlns:rdf="http://www.w3.org/1999/02/22-rdf-syntax-ns#" xmlns:sodipodi="http://sodipodi.sourceforge.net/DTD/sodipodi-0.dtd" xmlns:svg="http://www.w3.org/2000/svg"
	 xmlns="http://www.w3.org/2000/svg" xmlns:xlink="http://www.w3.org/1999/xlink" x="0px" y="0px" viewBox="0 0 595.3 416.7"
	 style="enable-background:new 0 0 595.3 416.7;" xml:space="preserve">
<style type="text/css">
	.st0{stroke:#000000;stroke-width:6;stroke-miterlimit:10;}
</style>
<g transform="translate(0,-952.36218)">
	<path class="st0" d="M258.8,952.4c-10.6,0-19.3,8.8-19.3,19.3v19.3H137.7c-2.5,0-4.8,2.4-4.8,4.8v58.1c0,2.5,2.4,4.8,4.8,4.8h19.7
		l24,286.3c0,0.1,0,0.3,0,0.4c1.3,8.5,4.3,14.7,8.8,18.4c4.5,3.8,10.2,4.9,15.4,4.9h184.2c5.4,0,10.9-1.1,15.4-4.9
		c4.5-3.8,7.4-9.9,8.8-18.4c0-0.1,0-0.3,0-0.4l24-286.3h19.7c2.5,0,4.8-2.4,4.8-4.8v-58.1c0-2.4-1.8-4.4-3.9-4.8c-0.3,0-0.6,0-0.9,0
		H355.8v-19.3c0-10.6-8.8-19.3-19.3-19.3L258.8,952.4L258.8,952.4z M258.8,962.1h77.5c5.5,0,9.8,4.3,9.8,9.8v19.3h-97.1v-19.5
		C249.1,966.3,253.3,962.1,258.8,962.1z M142.4,1000.8h310.2v48.5H142.4V1000.8z M167.1,1059h57.8l14.1,300.6h-33.6
		c-4,0-6.9-0.7-9.1-2.6c-2.1-1.9-4.4-5.4-5.5-12.4v-0.3L167.1,1059z M234.8,1059h57.9v300.6H249L234.8,1059z M302.5,1059h57.9
		l-14.1,300.6h-43.9V1059z M370.1,1059H428l-23.7,285.3c0,0.1,0,0.1,0,0.3c-1.1,7-3.4,10.6-5.5,12.4c-2.1,1.9-4.9,2.6-9.1,2.6H356
		L370.1,1059z"/>
</g>
</svg>
