<?xml version="1.0" encoding="utf-8"?>
<!-- Generator: Adobe Illustrator 22.1.0, SVG Export Plug-In . SVG Version: 6.00 Build 0)  -->
<svg version="1.1" id="Capa_1" xmlns="http://www.w3.org/2000/svg" xmlns:xlink="http://www.w3.org/1999/xlink" x="0px" y="0px"
	 viewBox="0 0 100 84" style="enable-background:new 0 0 100 84;" xml:space="preserve">
<path d="M13.3,43.4C4.5,54,1.2,66.4,1.1,74.6c0,1.1,0.7,2.1,1.8,2.4c0.3,0.1,0.5,0.1,0.7,0.1c0.9,0,1.7-0.4,2.2-1.2
	c11.5-19.7,31.6-22.4,49.8-22.4c0.5,0,1,0,1.4,0l-0.2,15.4c0,0.1,0,0.2,0,0.3c0,1.4,1.1,2.5,2.5,2.5l0,0c0.6,0,1.1-0.2,1.6-0.6
	l37.2-30c0.6-0.5,0.9-1.2,0.9-1.9s-0.3-1.4-0.9-1.9L61.8,6.6C61,5.9,60,5.8,59.1,6.2s-1.5,1.2-1.5,2.2l-0.2,15.8
	C33.9,24.8,20.6,34.9,13.3,43.4z M7.7,64.8C11.7,50,25,29.1,59.6,29.1h0.2l0,0c1.4,0,2.5-1.1,2.5-2.5l0.2-12.9l30.1,25.4L61.9,63.9
	L62.1,51c0-0.7-0.2-1.3-0.7-1.8s-1.1-0.8-1.8-0.8c-1.3,0-2.6,0-3.9,0C38.9,48.4,20.7,50.6,7.7,64.8z"/>
</svg>
