<?xml version="1.0" encoding="utf-8"?>
<!-- Generator: Adobe Illustrator 22.1.0, SVG Export Plug-In . SVG Version: 6.00 Build 0)  -->
<svg version="1.1" id="Capa_1" xmlns="http://www.w3.org/2000/svg" xmlns:xlink="http://www.w3.org/1999/xlink" x="0px" y="0px"
	 viewBox="0 0 100 84" style="enable-background:new 0 0 100 84;" xml:space="preserve">
<path d="M42.7,24.2L42.5,8.4c0-1-0.6-1.8-1.5-2.2s-1.9-0.3-2.7,0.4L2,37.3c-0.6,0.5-0.9,1.2-0.9,1.9s0.3,1.4,0.9,1.9l37.2,30
	c0.5,0.4,1,0.6,1.6,0.6l0,0c1.4,0,2.5-1.1,2.5-2.5c0-0.1,0-0.2,0-0.3l-0.2-15.4c0.4,0,0.9,0,1.4,0c18.2,0,38.3,2.7,49.8,22.4
	c0.5,0.8,1.3,1.2,2.2,1.2c0.2,0,0.4,0,0.7-0.1c1.1-0.3,1.8-1.3,1.8-2.4c-0.1-8.2-3.4-20.6-12.2-31.2C79.5,34.9,66.2,24.8,42.7,24.2z
	 M44.4,48.4c-1.3,0-2.6,0-3.9,0c-0.7,0-1.3,0.3-1.8,0.8S38,50.3,38,51l0.2,12.9L7.5,39.1l30.1-25.4l0.2,12.9c0,1.4,1.1,2.5,2.5,2.5
	l0,0h0.2c34.6,0,47.9,20.9,51.9,35.7C79.4,50.6,61.2,48.4,44.4,48.4z"/>
</svg>
