<?xml version="1.0" encoding="utf-8"?>
<!-- Generator: Adobe Illustrator 18.0.0, SVG Export Plug-In . SVG Version: 6.00 Build 0)  -->
<svg version="1.1" id="Capa_1" xmlns="http://www.w3.org/2000/svg" xmlns:xlink="http://www.w3.org/1999/xlink" x="0px" y="0px"
	 viewBox="0 0 1686.6 2383.9" enable-background="new 0 0 1686.6 2383.9" xml:space="preserve">
<g>
	<g>
		<path fill="#FFFFFF" d="M815.2,1466.5c3.7,3.7,9.4,9.4,16.9,11.2c1.9,1.9,7.5,3.7,13.1,3.7c3.7,0,11.2,0,16.9-3.7
			c5.6-1.9,11.2-7.5,11.2-9.4l262.4-262.4c9.4-9.4,11.2-18.7,11.2-30c0-11.2-5.6-22.5-11.2-30c-15-15-43.1-15-60,0l-189.3,187.4
			v-714c1.9-24.4-16.9-43.1-41.2-43.1c-26.2,0-43.1,16.9-43.1,43.1v714l-189.3-189.3c-15-15-43.1-15-60,0c-16.9,16.9-16.9,43.1,0,60
			L815.2,1466.5z"/>
	</g>
	<g>
		<path fill="#FFFFFF" d="M1497.3,1530.2c-24.4,0-43.1,16.9-43.1,43.1v140.6c0,5.6-1.9,9.4-9.4,9.4H245.5c-5.6,0-9.4-1.9-9.4-9.4
			v-140.6c0-24.4-16.9-43.1-43.1-43.1s-43.1,18.7-43.1,43.1v140.6c0,52.5,41.2,93.7,93.7,93.7h1203.1c52.5,0,93.7-41.2,93.7-93.7
			v-140.6C1540.4,1549,1523.6,1530.2,1497.3,1530.2z"/>
	</g>
</g>
</svg>
