<?xml version="1.0" encoding="utf-8"?>
<!-- Svg Vector Icons : http://www.onlinewebfonts.com/icon -->
<!DOCTYPE svg PUBLIC "-//W3C//DTD SVG 1.1//EN" "http://www.w3.org/Graphics/SVG/1.1/DTD/svg11.dtd">
<svg version="1.1" xmlns="http://www.w3.org/2000/svg" xmlns:xlink="http://www.w3.org/1999/xlink" x="0px" y="0px" viewBox="0 0 1000 1000" enable-background="new 0 0 1000 1000" xml:space="preserve">
<metadata> Svg Vector Icons : http://www.onlinewebfonts.com/icon </metadata>
<g><g transform="translate(0.000000,511.000000) scale(0.100000,-0.100000)"><path d="M4358.3,4969.5c-309.1-111.2-542.3-309.1-675.2-574.8l-70.5-135.6l-181.7,86.7c-168.1,78.6-208.8,86.8-442,86.8c-179,0-301-16.3-398.6-48.8c-214.2-75.9-452.8-265.7-580.3-458.3C1833.8,3649,1823,3583.9,1823,2727.1v-762l-355.2-352.5c-371.5-371.5-545-599.2-656.2-867.7c-130.2-317.3-141-412.2-141-1233.7c0-734.8,2.7-783.6,62.4-976.2c73.2-225,160-412.2,284.7-596.5c100.3-149.1,1393.7-1458.8,1673-1692c591.1-496.2,1323.2-843.3,2074.3-981.6c382.3-73.2,1231.1-73.2,1559.1,0c713.1,154.5,1336.8,490.8,1857.4,995.1c553.2,539.6,902.9,1163.2,1079.2,1936c54.2,233.2,57,336.3,65.1,2424.1c8.1,1529.3,2.7,2220.7-19,2323.8c-97.6,469.1-471.8,821.6-957.2,905.6c-219.6,40.7-439.3,8.1-661.6-94.9c-84-37.9-154.6-65.1-157.3-62.4c-2.7,5.4-40.7,73.2-81.3,151.8c-173.5,322.7-547.7,566.7-913.8,593.8c-219.6,16.3-485.4-38-642.6-130.1c-48.8-29.8-92.2-51.5-94.9-46.1c-122,290.1-333.5,517.9-596.5,645.3c-168.1,84.1-216.9,94.9-447.4,100.3C4556.2,5015.6,4461.3,5004.7,4358.3,4969.5z M5003.6,4356.7c81.3-48.8,151.9-119.3,200.7-203.4l75.9-127.5l13.6-875.8l13.6-878.5l75.9-65.1c130.1-111.2,347.1-78.6,433.8,70.5c38,65.1,46.1,160,46.1,602c0,512.5,2.7,528.8,70.5,669.8c179,357.9,621,425.7,905.7,141c170.8-170.8,189.8-263,189.8-884v-507.1l78.6-78.6c56.9-57,105.7-78.6,176.3-78.6c235.9,0,314.5,111.2,314.5,444.7c0,260.3,40.7,390.4,157.3,512.5c111.2,119.3,254.9,181.7,412.1,181.7c238.6,0,412.1-103,523.3-311.8c59.7-108.5,59.7-111.2,59.7-2223.5c0-2261.4,0-2261.4-141-2725.1c-260.3-867.7-946.3-1632.4-1789.6-1993c-818.9-352.5-1835.7-336.2-2746.8,43.4c-604.7,252.2-881.2,466.4-1805.9,1391c-732.1,732.1-767.4,770.1-875.8,992.4c-149.1,311.8-173.5,496.2-160,1206.6c10.8,485.4,21.7,596.5,70.5,748.4c70.5,214.2,225.1,455.5,395.9,620.9l124.7,119.3V856.1c0-287.4,2.7-292.9,78.6-371.5c132.9-130.1,385-92.2,458.2,70.5c24.4,51.5,32.5,439.3,32.5,1461.5v1388.3l70.5,143.7c179,357.9,620.9,425.7,905.6,141c170.8-170.8,189.8-263,189.8-884v-507.1l78.6-78.6c86.8-86.8,214.2-103,341.7-46.1c141,65.1,149.1,113.9,149.1,973.4c0,547.7,10.8,824.3,32.5,902.9c40.7,135.6,216.9,317.3,347.1,360.6C4659.3,4462.4,4862.6,4438,5003.6,4356.7z"/></g></g>
</svg>