<?xml version="1.0" encoding="utf-8"?>
<!-- Generator: Adobe Illustrator 18.0.0, SVG Export Plug-In . SVG Version: 6.00 Build 0)  -->
<!DOCTYPE svg PUBLIC "-//W3C//DTD SVG 1.1//EN" "http://www.w3.org/Graphics/SVG/1.1/DTD/svg11.dtd">
<svg version="1.1" id="Capa_1" xmlns="http://www.w3.org/2000/svg" xmlns:xlink="http://www.w3.org/1999/xlink" x="0px" y="0px"
	 viewBox="0 0 595.3 416.7" enable-background="new 0 0 595.3 416.7" xml:space="preserve">
<title>Artboard 6</title>
<line fill="none" x1="366.8" y1="130" x2="366.9" y2="127.7"/>
<g>
	<g>
		<path d="M296.3,86.7c-95.5,0-178.6,48.7-226.9,122.7c48.2,74,131.7,122.7,226.9,122.7s178.6-48.7,226.9-122.7
			C475.2,135.4,391.8,86.7,296.3,86.7z M296.3,307.9c-77.4,0-156.7-38.7-196.7-98.3c39.2-60,119.6-97.4,196.7-97.4
			c77.4,0,157.6,37.4,196.7,97.4C454.2,269.3,373.7,307.9,296.3,307.9z"/>
		<path d="M348.7,154.5l-0.9-0.9c-0.9-0.9-3-3-3.9-4c-0.9,0-0.9-0.9-2.1-0.9c-0.9-0.9-3-2.1-3.9-3c-0.9,0-2.1-0.9-2.1-0.9
			c-0.9-0.9-3-2.1-3.9-2.1s-2.1-0.9-3-0.9c-2.1-2.1-3.9-3-6-3c-0.9,0-2.1-0.9-3-0.9c-2.1-0.9-3-0.9-5.1-0.9c-0.9,0-2.1-0.9-3-0.9
			c-2.1,0-3.9-0.9-5.1-0.9c-1.2,0-2.1,0-3,0c-3,0-5.1,0-8.1,0c-9.9,0-20.2,2.1-29.2,6.1c-6.9,3-13,7-19,11.3
			c-6,5.2-9.9,10-14.2,16.1c-6.9,11.3-12.1,25.3-12.1,41.7c0,16.1,5.1,30.4,13,42.6c3.9,6.1,9,11.3,14.2,16.1
			c6,5.2,12.1,8.2,19,11.3c9,4,19,6.1,29.2,6.1c3,0,6,0,8.1,0c0.9,0,2.1,0,2.1,0c2.1,0,3.9-0.9,6-0.9c0.9,0,2.1,0,3-0.9
			c2.1,0,3.9-0.9,5.1-2.1c0.9,0,2.1-0.9,2.1-0.9c2.1-0.9,3.9-2.1,6-2.1c0.9,0,0.9-0.9,2.1-0.9c2.1-0.9,3.9-2.1,6.9-4l0,0
			c6.9-5.2,13-10,18.1-17.3l0,0l0,0c9.9-13.1,16-29.5,16-46.6C371.6,188,362.6,168.8,348.7,154.5z M335.5,256.2
			c-21.1-5.2-37.1-24.3-37.1-47.8c0-22.2,15.1-41.7,35.2-46.6c14.2,11.3,23.2,28.3,23.2,47.8C356.5,227.6,348.7,244.9,335.5,256.2z
			 M266.2,174c6.9,0,12.1,6.1,12.1,12.2c0,7-6,12.2-12.1,12.2c-6.9,0-12.1-6.1-12.1-12.2C253.2,180.1,259.2,174,266.2,174z"/>
	</g>
	<polygon stroke="#000000" stroke-width="1.5" stroke-miterlimit="10" points="490.4,15.9 108.8,401.4 96.7,389.1 478.2,3.6 	"/>
	<polygon fill="#FFFFFF" points="110.4,400.5 489.1,18.8 500.8,31 122.5,412.7 	"/>
</g>
</svg>
