<?xml version="1.0" encoding="utf-8"?>
<!-- Generator: Adobe Illustrator 21.0.0, SVG Export Plug-In . SVG Version: 6.00 Build 0)  -->
<svg version="1.1" id="Capa_1" xmlns="http://www.w3.org/2000/svg" xmlns:xlink="http://www.w3.org/1999/xlink" x="0px" y="0px"
	 viewBox="0 0 612 612" style="enable-background:new 0 0 612 612;" xml:space="preserve">
<g>
	<g id="_x32__38_">
		<g>
			<path d="M306,0C137,0,0,137,0,306s137,306,306,306s306-137,306-306S475,0,306,0z M469.3,392.8c-7.5,7.5-19.6,7.5-27,0L306,256.5
				L169.8,392.7c-7.5,7.5-19.6,7.5-27,0c-7.5-7.5-7.5-19.6,0-27l146.4-146.4c4.6-4.6,10.9-6,16.8-5c5.9-1.1,12.2,0.4,16.8,5
				l146.4,146.4C476.7,373.2,476.7,385.3,469.3,392.8z"/>
		</g>
	</g>
</g>
<rect width="199" height="286.6"/>
<rect x="111" y="0" width="501" height="163.6"/>
<rect x="506" y="121.7" width="106" height="490.4"/>
<rect y="286.6" width="89" height="325.4"/>
<rect x="89" y="474.6" width="466" height="137.4"/>
</svg>
