<?xml version="1.0" encoding="utf-8"?>
<!-- Generator: Adobe Illustrator 18.0.0, SVG Export Plug-In . SVG Version: 6.00 Build 0)  -->
<svg version="1.1" id="Capa_1" xmlns="http://www.w3.org/2000/svg" xmlns:xlink="http://www.w3.org/1999/xlink" x="0px" y="0px"
	 viewBox="0 0 99.6 75.3" enable-background="new 0 0 99.6 75.3" xml:space="preserve">
<g>
	<path fill="#87868A" d="M90,65.7H0V0h90V65.7z M1,64.7h88V1H1V64.7z"/>
</g>
<g>
	<path fill="#2A2A2A" d="M56.3,34c-0.3,0.2-1.5,1.1-2.9,2l-14.9,9.7c-1.4,0.9-1.8,1.2-2,1.3c-0.8,0.4-1.7,0.6-2.3,0.2
		c-0.5-0.3-0.9-0.9-0.9-1.8c0,0,0-1,0-2.6V23.2c0-1.6-0.2-4.2,0.8-4.7c0.3-0.1,1-0.1,1.3,0c0.4,0.1,1.7,1,3.1,1.9l14.9,9.6
		c1.4,0.9,2.6,1.8,2.9,2C56.9,32.5,56.8,33.6,56.3,34z"/>
</g>
<rect x="81.3" y="50.9" fill="#FFFFFF" width="15.1" height="24.4"/>
<g>
	<path fill="#2A2A2A" d="M87.7,69.5c0-2.7,0.3-3.8,2.8-5.6c1.1-0.7,1.7-1.6,1.7-2.7c0-2.2-1.5-2.7-2.7-2.7c-2.5,0-2.9,1.9-3,3.2v0
		h-3.9c0-4.8,3.6-6.5,6.7-6.5c1.7,0,7.1,0.5,7.1,5.9c0,2.3-1.2,3.6-3.4,5.1c-1.2,0.9-1.7,1.4-1.7,3.4L87.7,69.5L87.7,69.5z
		 M91.7,75.3h-4.1v-3.9h4.1V75.3z"/>
</g>
</svg>
