<?xml version="1.0" encoding="utf-8"?>
<!-- Generator: Adobe Illustrator 21.0.0, SVG Export Plug-In . SVG Version: 6.00 Build 0)  -->
<svg version="1.1"
	 id="Capa_1" xmlns:cc="http://creativecommons.org/ns#" xmlns:dc="http://purl.org/dc/elements/1.1/" xmlns:inkscape="http://www.inkscape.org/namespaces/inkscape" xmlns:rdf="http://www.w3.org/1999/02/22-rdf-syntax-ns#" xmlns:sodipodi="http://sodipodi.sourceforge.net/DTD/sodipodi-0.dtd" xmlns:svg="http://www.w3.org/2000/svg"
	 xmlns="http://www.w3.org/2000/svg" xmlns:xlink="http://www.w3.org/1999/xlink" x="0px" y="0px" viewBox="0 0 595.3 416.7"
	 style="enable-background:new 0 0 595.3 416.7;" xml:space="preserve">
<style type="text/css">
	.st0{stroke:#000000;stroke-width:10;stroke-miterlimit:10;}
</style>
<g transform="translate(0,-952.36218)">
	<path class="st0" d="M162.8,1203.2c-25.9,25.9-25.9,68.2,0,94.3c25.9,25.9,68.2,25.9,94.3,0l69.1-69.1
		c24.7-24.7,26.1-64.4,3.6-90.5c-3.2-3.8-8.8-4.2-12.6-0.8c-3.8,3.2-4.2,8.8-0.8,12.6l0,0c16.5,19.3,15.7,47.8-2.6,66.2l-69.1,69.1
		c-19.3,19.3-49.8,19.3-69.1,0s-19.3-49.8,0-69.1l66-66c3.6-3.4,3.6-9,0.2-12.6c-3.4-3.6-9-3.6-12.6-0.2l-0.2,0.2L162.8,1203.2z
		 M282.1,1084c-24.7,24.7-26.1,64.4-3.6,90.5c3.2,3.8,8.8,4.2,12.6,1c3.8-3.2,4.2-8.8,1-12.6l0,0c-16.5-19.3-15.7-47.8,2.6-66.2
		l69.1-69.1c19.3-19.3,49.8-19.3,69.1,0c19.3,19.3,19.3,49.8,0,69.1l-66,66c-3.6,3.4-3.6,9-0.2,12.6s9,3.6,12.6,0.2l0.2-0.2l66-66
		c25.9-25.9,25.9-68.2,0-94.3c-25.9-25.9-68.2-25.9-94.3,0L282.1,1084L282.1,1084z"/>
</g>
</svg>
