<?xml version="1.0" encoding="utf-8"?>
<!-- Generator: Adobe Illustrator 18.0.0, SVG Export Plug-In . SVG Version: 6.00 Build 0)  -->
<!DOCTYPE svg PUBLIC "-//W3C//DTD SVG 1.1//EN" "http://www.w3.org/Graphics/SVG/1.1/DTD/svg11.dtd">
<svg version="1.1" id="Capa_1" xmlns="http://www.w3.org/2000/svg" xmlns:xlink="http://www.w3.org/1999/xlink" x="0px" y="0px"
	 viewBox="0 0 595.3 416.7" enable-background="new 0 0 595.3 416.7" xml:space="preserve">
<g>
	<path d="M297.6,97.5c-93.6,0-175.2,47.3-222.5,119.1c47.3,71.8,129.1,119.1,222.5,119.1S472.8,288.4,520,216.6
		C473.1,144.8,391.2,97.5,297.6,97.5z M297.6,312.3c-75.9,0-153.6-37.5-192.9-95.4c38.4-58.2,117.3-94.5,192.9-94.5
		c75.9,0,154.5,36.3,192.9,94.5C452.4,274.8,373.5,312.3,297.6,312.3z"/>
	<path d="M349,163.7l-0.9-0.9c-0.9-0.9-3-3-3.8-3.8c-0.9,0-0.9-0.9-2.1-0.9c-0.9-0.9-3-2.1-3.8-3c-0.9,0-2.1-0.9-2.1-0.9
		c-0.9-0.9-3-2.1-3.8-2.1c-0.9,0-2.1-0.9-3-0.9c-2.1-2.1-3.8-3-5.9-3c-0.9,0-2.1-0.9-3-0.9c-2.1-0.9-3-0.9-5-0.9
		c-0.9,0-2.1-0.9-3-0.9c-2.1,0-3.8-0.9-5-0.9s-2.1,0-3,0c-3,0-5,0-8,0c-9.7,0-19.8,2.1-28.7,5.9c-6.8,3-12.7,6.8-18.6,10.9
		c-5.9,5-9.7,9.7-13.9,15.7c-6.8,10.9-11.8,24.5-11.8,40.5c0,15.7,5,29.5,12.7,41.4c3.8,5.9,8.9,10.9,13.9,15.7
		c5.9,5,11.8,8,18.6,10.9c8.9,3.8,18.6,5.9,28.7,5.9c3,0,5.9,0,8,0c0.9,0,2.1,0,2.1,0c2.1,0,3.8-0.9,5.9-0.9c0.9,0,2.1,0,3-0.9
		c2.1,0,3.8-0.9,5-2.1c0.9,0,2.1-0.9,2.1-0.9c2.1-0.9,3.8-2.1,5.9-2.1c0.9,0,0.9-0.9,2.1-0.9c2.1-0.9,3.8-2.1,6.8-3.8l0,0
		c6.8-5,12.7-9.7,17.7-16.8l0,0l0,0c9.7-12.7,15.7-28.7,15.7-45.2C371.4,196.2,362.6,177.3,349,163.7z M336,262.1
		c-20.7-5-36.3-23.6-36.3-46.4c0-21.6,14.8-40.5,34.6-45.2c13.9,10.9,22.7,27.5,22.7,46.4C356.7,234.6,349,251.2,336,262.1z
		 M268,182.3c6.8,0,11.8,5.9,11.8,11.8c0,6.8-5.9,11.8-11.8,11.8c-6.8,0-11.8-5.9-11.8-11.8C255.3,188.2,261.3,182.3,268,182.3z"/>
</g>
</svg>
