<?xml version="1.0" encoding="utf-8"?>
<!-- Generator: Adobe Illustrator 18.0.0, SVG Export Plug-In . SVG Version: 6.00 Build 0)  -->
<svg version="1.1" id="Capa_1" xmlns="http://www.w3.org/2000/svg" xmlns:xlink="http://www.w3.org/1999/xlink" x="0px" y="0px"
	 viewBox="-1.9 0 425.2 142.7" enable-background="new -1.9 0 425.2 142.7" xml:space="preserve">
<g>
	<path fill="#3F3C38" d="M31.5,133.4v8h4.9v0.6h-5.6v-8.7H31.5z"/>
	<path fill="#3F3C38" d="M48,142l-1-2.1h-5.2l-0.9,2.1h-0.7l3.9-8.7h0.7l3.9,8.7H48z M46.8,139.3l-2.3-5.3l-2.3,5.3H46.8z"/>
	<path fill="#3F3C38" d="M67.2,140.8c-0.9,0.9-2,1.3-3.2,1.3c-2.9,0-4.5-2-4.5-4.4c0-2.3,1.5-4.5,4.5-4.5c1.1,0,2.3,0.4,3.2,1.3
		l-0.5,0.4c-0.7-0.7-1.7-1.1-2.7-1.1c-2.5,0-3.8,1.8-3.8,3.9c0,2,1.3,3.8,3.8,3.8c1,0,2-0.4,2.7-1.1L67.2,140.8z"/>
	<path fill="#3F3C38" d="M80.6,137.7c0,2.3-1.5,4.5-4.4,4.5c-2.9,0-4.4-2.2-4.4-4.5c0-2.3,1.5-4.5,4.4-4.5S80.6,135.4,80.6,137.7z
		 M72.5,137.7c0,2,1.3,3.9,3.7,3.9c2.5,0,3.7-1.9,3.7-3.9c0-2-1.2-3.9-3.7-3.9S72.5,135.7,72.5,137.7z"/>
	<path fill="#3F3C38" d="M93.3,134.3l-3.3,5.1h-0.2l-3.3-5.1v7.7h-0.7v-8.7c0.3,0,0.5,0,0.8,0l3.3,5.1l3.3-5.1h0.8v8.7h-0.7V134.3z"
		/>
	<path fill="#3F3C38" d="M100,139v3h-0.7v-8.7c1.3,0,2.5,0,3.8,0c3.8,0,3.8,5.7,0,5.7H100z M100,134v4.5h3.1c2.9,0,2.9-4.5,0-4.5
		H100z"/>
	<path fill="#3F3C38" d="M117.8,142l-1-2.1h-5.2l-0.9,2.1H110l3.9-8.7h0.7l3.9,8.7H117.8z M116.6,139.3l-2.3-5.3l-2.3,5.3H116.6z"/>
	<path fill="#3F3C38" d="M123.4,133.4l5.8,7.2v-7.2h0.7v8.7h-0.3l-5.9-7.2v7.2h-0.7v-8.7H123.4z M125.2,132.2c0.1-0.7,0.8-1,1.4-0.7
		l0.5,0.3c0.3,0.1,0.7,0.1,0.8-0.3l0.4,0.1c-0.1,0.8-0.8,1-1.4,0.7l-0.5-0.3c-0.3-0.1-0.7-0.1-0.8,0.3L125.2,132.2z"/>
	<path fill="#3F3C38" d="M135.3,132.4L135.3,132.4l0.9-1.5h0.8v0l-1.1,1.5H135.3z M135.9,142v-8.7h-0.7v8.7H135.9z"/>
	<path fill="#3F3C38" d="M148.2,142l-1-2.1h-5.2l-0.9,2.1h-0.7l3.9-8.7h0.7l3.9,8.7H148.2z M147,139.3l-2.3-5.3l-2.3,5.3H147z"/>
	<path fill="#3F3C38" d="M167.6,137.6c0,2.2-1.4,4.4-4.4,4.4c-1,0-2,0-2.9,0v-8.7c1,0,2,0,2.9,0
		C166.1,133.4,167.5,135.5,167.6,137.6z M160.9,134v7.4h2.3c2.6,0,3.8-1.9,3.7-3.8c0-1.8-1.2-3.6-3.7-3.6H160.9z"/>
	<path fill="#3F3C38" d="M173.2,137.4h5.1v0.6h-5.1v3.4h5.5v0.6h-6.1v-8.7h6v0.6h-5.3V137.4z"/>
	<path fill="#3F3C38" d="M191.2,133.4v8h4.9v0.6h-5.6v-8.7H191.2z"/>
	<path fill="#3F3C38" d="M208.9,137.7c0,2.3-1.5,4.5-4.4,4.5s-4.4-2.2-4.4-4.5c0-2.3,1.5-4.5,4.4-4.5
		C207.5,133.2,208.9,135.4,208.9,137.7z M200.8,137.7c0,2,1.3,3.9,3.7,3.9c2.5,0,3.7-1.9,3.7-3.9c0-2-1.2-3.9-3.7-3.9
		S200.8,135.7,200.8,137.7z"/>
	<path fill="#3F3C38" d="M219.9,135c-0.6-1-1.6-1.2-2.6-1.2c-1,0-2.6,0.4-2.6,1.8c0,1.1,1.2,1.4,2.7,1.6c1.7,0.3,3.4,0.6,3.4,2.5
		c0,2-2,2.4-3.4,2.4c-1.4,0-2.9-0.6-3.6-1.9l0.6-0.3c0.5,1.1,1.9,1.6,3,1.6c1.1,0,2.8-0.3,2.8-1.8c0-1.3-1.4-1.6-2.9-1.9
		c-1.6-0.3-3.2-0.6-3.2-2.2c0-1.8,1.9-2.4,3.3-2.4c1.2,0,2.3,0.2,3.2,1.5L219.9,135z"/>
	<path fill="#3F3C38" d="M233.1,139v3h-0.7v-8.7c1.3,0,2.5,0,3.8,0c3.8,0,3.8,5.7,0,5.7H233.1z M233.1,134v4.5h3.1
		c2.9,0,2.9-4.5,0-4.5H233.1z"/>
	<path fill="#3F3C38" d="M250.9,142h-0.9l-3-3.3h-2.4v3.3H244v-8.7c1.3,0,2.5,0,3.8,0c1.9,0,2.8,1.4,2.9,2.7c0,1.4-0.9,2.7-2.8,2.7
		L250.9,142z M244.7,138.1h3.1c1.5,0,2.2-0.9,2.2-2.1c0-1-0.7-2.1-2.1-2.1h-3.2V138.1z"/>
	<path fill="#3F3C38" d="M263.9,137.7c0,2.3-1.5,4.5-4.4,4.5c-2.9,0-4.4-2.2-4.4-4.5c0-2.3,1.5-4.5,4.4-4.5
		C262.5,133.2,263.9,135.4,263.9,137.7z M255.8,137.7c0,2,1.3,3.9,3.7,3.9c2.5,0,3.7-1.9,3.7-3.9c0-2-1.2-3.9-3.7-3.9
		S255.8,135.7,255.8,137.7z"/>
	<path fill="#3F3C38" d="M271,138.6l-3.4-5.2v0h0.8l2.9,4.6l3-4.6h0.8v0l-3.4,5.2v3.5H271V138.6z"/>
	<path fill="#3F3C38" d="M280.4,137.4h5.1v0.6h-5.1v3.4h5.5v0.6h-6.1v-8.7h6v0.6h-5.3V137.4z"/>
	<path fill="#3F3C38" d="M298,140.8c-0.9,0.9-2,1.3-3.2,1.3c-2.9,0-4.5-2-4.5-4.4c0-2.3,1.5-4.5,4.5-4.5c1.1,0,2.3,0.4,3.2,1.3
		l-0.5,0.4c-0.7-0.7-1.7-1.1-2.7-1.1c-2.5,0-3.8,1.8-3.8,3.9c0,2,1.3,3.8,3.8,3.8c1,0,2-0.4,2.7-1.1L298,140.8z"/>
	<path fill="#3F3C38" d="M305.3,134h-3.1v-0.6h6.9v0.6H306v8.1h-0.7V134z"/>
	<path fill="#3F3C38" d="M322.3,137.7c0,2.3-1.5,4.5-4.4,4.5c-2.9,0-4.4-2.2-4.4-4.5c0-2.3,1.5-4.5,4.4-4.5
		C320.8,133.2,322.3,135.4,322.3,137.7z M314.2,137.7c0,2,1.3,3.9,3.7,3.9c2.5,0,3.7-1.9,3.7-3.9c0-2-1.2-3.9-3.7-3.9
		S314.2,135.7,314.2,137.7z"/>
	<path fill="#3F3C38" d="M333.2,135c-0.6-1-1.6-1.2-2.6-1.2c-1,0-2.6,0.4-2.6,1.8c0,1.1,1.2,1.4,2.7,1.6c1.7,0.3,3.4,0.6,3.4,2.5
		c0,2-2,2.4-3.4,2.4c-1.4,0-2.9-0.6-3.6-1.9l0.6-0.3c0.5,1.1,1.9,1.6,3,1.6s2.8-0.3,2.8-1.8c0-1.3-1.4-1.6-2.9-1.9
		c-1.6-0.3-3.2-0.6-3.2-2.2c0-1.8,1.9-2.4,3.3-2.4c1.2,0,2.3,0.2,3.2,1.5L333.2,135z"/>
	<path fill="#3F3C38" d="M353.1,137.6c0,2.2-1.4,4.4-4.4,4.4c-1,0-2,0-2.9,0v-8.7c1,0,2,0,2.9,0C351.6,133.4,353,135.5,353.1,137.6z
		 M346.4,134v7.4h2.3c2.6,0,3.8-1.9,3.7-3.8c0-1.8-1.2-3.6-3.7-3.6H346.4z"/>
	<path fill="#3F3C38" d="M358.7,137.4h5.1v0.6h-5.1v3.4h5.5v0.6H358v-8.7h6v0.6h-5.3V137.4z"/>
	<path fill="#3F3C38" d="M376.3,140.8c-0.9,0.9-2,1.3-3.2,1.3c-2.9,0-4.5-2-4.5-4.4c0-2.3,1.5-4.5,4.5-4.5c1.1,0,2.3,0.4,3.2,1.3
		l-0.5,0.4c-0.7-0.7-1.7-1.1-2.7-1.1c-2.5,0-3.8,1.8-3.8,3.9c0,2,1.3,3.8,3.8,3.8c1,0,2-0.4,2.7-1.1L376.3,140.8z"/>
	<path fill="#3F3C38" d="M389.7,137.7c0,2.3-1.5,4.5-4.4,4.5s-4.4-2.2-4.4-4.5c0-2.3,1.5-4.5,4.4-4.5
		C388.3,133.2,389.7,135.4,389.7,137.7z M381.6,137.7c0,2,1.3,3.9,3.7,3.9c2.5,0,3.7-1.9,3.7-3.9c0-2-1.2-3.9-3.7-3.9
		S381.6,135.7,381.6,137.7z"/>
</g>
<path fill="none" stroke="#3F3C38" stroke-miterlimit="10" d="M52.2,0.8v84.9H61v3.3h-7.3c-4.6,0-9.5,0.3-14.6,0.8V79.2h-0.3
	c-3.5,7.7-9,11.5-16.7,11.5c-6.1,0-11.5-2.7-16.2-8.2C1.4,77.1-1,70.9-1,64c0-7.4,2.5-13.8,7.4-19.4c4.9-5.6,10.7-8.3,17.4-8.3
	c6.8,0,11.8,3.1,15,9.2h0.3V5.1H27.3V1.8h11.8C43.5,1.8,47.9,1.5,52.2,0.8z M24.2,39.2c-4.7,0-7.7,1.8-8.9,5.3
	c-1.2,3.5-1.8,10.7-1.8,21.5c0,9.3,0.8,15.2,2.3,17.6c1.5,2.4,4,3.6,7.4,3.6c3.6,0,6.9-1.2,9.6-3.7c2.8-2.5,4.6-5.3,5.5-8.5
	c0.9-3.2,1.3-8.3,1.3-15.4c0-6.8-1.4-11.9-4.1-15.3C32.8,41,29,39.2,24.2,39.2z"/>
<path fill="none" stroke="#3F3C38" stroke-miterlimit="10" d="M116.8,70.5h2.8c-1.3,6.3-3.9,11.1-7.7,14.4
	c-3.8,3.3-8.4,4.9-13.8,4.9c-7.3,0-13.5-2.7-18.6-8.2c-5.1-5.4-7.6-11.7-7.6-18.8c0-7.3,2.6-13.7,7.8-19.2
	c5.2-5.5,11.7-8.3,19.4-8.3c5.5,0,10,1.4,13.5,4.2c3.5,2.8,5.2,5.9,5.2,9.4c0,1.7-0.6,3.3-1.8,4.7c-1.2,1.4-2.7,2.1-4.7,2.1
	c-1.9,0-3.4-0.6-4.7-1.8c-1.2-1.2-1.9-2.7-1.9-4.6c0-1.3,0.5-2.7,1.6-4c1.1-1.3,1.6-2.2,1.6-2.7c0-1.2-0.8-2.2-2.4-3.1
	c-1.6-0.9-3.7-1.3-6.2-1.3c-4.5,0-7.9,1.2-10.1,3.6c-2.2,2.4-3.3,7.6-3.3,15.4c0,7.9,0.2,13.7,0.6,17.4c0.4,3.8,1.5,6.7,3.3,8.9
	c1.8,2.1,4.7,3.2,8.8,3.2C107.3,86.9,113.3,81.5,116.8,70.5z"/>
<path fill="none" stroke="#3F3C38" stroke-miterlimit="10" d="M133.1,62.5c0-7.5,2.6-13.9,7.7-19.2c5.2-5.3,11.6-7.9,19.2-7.9
	c7.5,0,13.8,2.5,19,7.6c5.2,5.1,7.8,11.4,7.8,19c0,7.8-2.7,14.3-8.1,19.8c-5.4,5.4-11.7,8.1-19.1,8.1c-7.2,0-13.4-2.6-18.7-7.9
	C135.7,76.7,133.1,70.2,133.1,62.5z M172.1,62.5c0-8-0.3-13.3-0.8-15.8c-0.5-2.6-1.8-4.6-3.6-6.1c-1.9-1.5-4.5-2.2-7.8-2.2
	c-3.1,0-5.7,0.8-7.7,2.3c-2,1.5-3.3,3.6-3.7,6.1c-0.5,2.6-0.7,7.8-0.7,15.8c0,8,0.3,13.3,0.9,15.9c0.6,2.6,1.9,4.6,3.8,6.1
	c2,1.5,4.5,2.2,7.5,2.2c3,0,5.6-0.7,7.6-2.2c2-1.5,3.3-3.6,3.8-6.2C171.8,75.8,172.1,70.5,172.1,62.5z"/>
<path fill="#3F3C38" d="M293.1,69.1h-7.7v-4.2c7,0,13,0,20.1,0v4.2h-7.7v20.2h-4.6V69.1z"/>
<path fill="#3F3C38" d="M315.2,64.9v9.5c1.5-2,3.4-2.6,5.4-2.6c4.9,0,7,3.3,7,8.4v9.1h-4.2v-9c0-3.1-1.6-4.5-3.9-4.5
	c-2.5,0-4.2,2.1-4.2,4.7v8.8H311V64.9H315.2z"/>
<path fill="#3F3C38" d="M337.8,82.3c0.3,2.1,2.1,3.7,5.1,3.7c1.6,0,3.6-0.6,4.6-1.6l2.7,2.7c-1.8,1.9-4.8,2.8-7.4,2.8
	c-5.9,0-9.4-3.7-9.4-9.2c0-5.2,3.6-9,9.1-9c5.7,0,9.3,3.6,8.7,10.6H337.8z M347.2,78.7c-0.3-2.2-2-3.3-4.5-3.3
	c-2.3,0-4.2,1.1-4.8,3.3H347.2z"/>
<path fill="#3F3C38" d="M387.5,86.3c-2.5,2.5-5.7,3.6-9.3,3.6c-9.1,0-12.9-6.2-12.9-12.6c0-6.4,4.1-12.8,12.9-12.8
	c3.3,0,6.4,1.3,8.9,3.7l-3.1,3c-1.6-1.6-3.8-2.3-5.9-2.3c-5.9,0-8.4,4.4-8.4,8.5c0,4,2.4,8.3,8.4,8.3c2.1,0,4.5-0.9,6.1-2.5
	L387.5,86.3z"/>
<path fill="#3F3C38" d="M409.5,80.8c0,4.9-3.4,8.9-8.9,8.9c-5.6,0-8.9-4-8.9-8.9c0-4.9,3.4-8.9,8.9-8.9
	C406,71.8,409.5,75.8,409.5,80.8z M395.9,80.8c0,2.6,1.6,5,4.7,5c3.1,0,4.7-2.4,4.7-5c0-2.6-1.8-5.1-4.7-5.1
	C397.5,75.7,395.9,78.2,395.9,80.8z"/>
<g>
	<g>
		<rect x="200.7" y="86" fill="#3F3C38" width="70.8" height="3.3"/>
	</g>
</g>
<circle fill="none" stroke="#3F3C38" stroke-miterlimit="10" cx="418.9" cy="86.3" r="3.5"/>
</svg>
