<?xml version="1.0" encoding="utf-8"?>
<!-- Generator: Adobe Illustrator 21.0.0, SVG Export Plug-In . SVG Version: 6.00 Build 0)  -->
<svg version="1.1" id="Capa_1" xmlns="http://www.w3.org/2000/svg" xmlns:xlink="http://www.w3.org/1999/xlink" x="0px" y="0px"
	 viewBox="0 0 181 128.8" style="enable-background:new 0 0 181 128.8;" xml:space="preserve">
<style type="text/css">
	.st0{fill:#BFC5C2;}
	.st1{fill:#3F3C38;}
</style>
<g>
	<path class="st0" d="M43.4,25.5v64.8h6.7v2.5h-5.6c-3.5,0-7.3,0.2-11.2,0.6v-8.2h-0.2c-2.7,5.9-6.9,8.8-12.8,8.8
		c-4.7,0-8.8-2.1-12.4-6.3c-3.5-4.1-5.3-8.9-5.3-14.1c0-5.7,1.9-10.5,5.7-14.8s8.2-6.3,13.3-6.3c5.2,0,9,2.4,11.5,7h0.2V28.8h-9.1
		v-2.5h9C36.7,26.2,40,26,43.4,25.5z M22,54.8c-3.6,0-5.9,1.4-6.8,4c-0.9,2.7-1.4,8.2-1.4,16.4c0,7.1,0.6,11.6,1.8,13.4
		c1.1,1.8,3.1,2.7,5.7,2.7c2.7,0,5.3-0.9,7.3-2.8c2.1-1.9,3.5-4,4.2-6.5c0.7-2.4,1-6.3,1-11.8c0-5.2-1.1-9.1-3.1-11.7
		C28.5,56.1,25.6,54.8,22,54.8z"/>
	<path class="st0" d="M93.4,79.4h2.1c-1,4.8-3,8.5-5.9,11s-6.4,3.7-10.5,3.7c-5.6,0-10.3-2.1-14.2-6.3c-3.9-4.1-5.8-8.9-5.8-14.4
		c0-5.6,2-10.5,6-14.7s8.9-6.3,14.8-6.3c4.2,0,7.6,1.1,10.3,3.2s4,4.5,4,7.2c0,1.3-0.5,2.5-1.4,3.6S90.7,68,89.2,68
		s-2.6-0.5-3.6-1.4c-0.9-0.9-1.5-2.1-1.5-3.5c0-1,0.4-2.1,1.2-3.1c0.8-1,1.2-1.7,1.2-2.1c0-0.9-0.6-1.7-1.8-2.4
		c-1.2-0.7-2.8-1-4.7-1c-3.4,0-6,0.9-7.7,2.7S69.8,63,69.8,69s0.2,10.5,0.5,13.3c0.3,2.9,1.1,5.1,2.5,6.8c1.4,1.6,3.6,2.4,6.7,2.4
		C86.1,91.9,90.7,87.7,93.4,79.4z"/>
	<path class="st0" d="M105.8,73.3c0-5.7,2-10.6,5.9-14.7s8.9-6,14.7-6c5.7,0,10.5,1.9,14.5,5.8s6,8.7,6,14.5c0,6-2.1,10.9-6.2,15.1
		c-4.1,4.1-8.9,6.2-14.6,6.2c-5.5,0-10.2-2-14.3-6C107.8,84,105.8,79.1,105.8,73.3z M135.6,73.3c0-6.1-0.2-10.2-0.6-12.1
		c-0.4-2-1.4-3.5-2.7-4.7c-1.5-1.1-3.4-1.7-6-1.7c-2.4,0-4.4,0.6-5.9,1.8c-1.5,1.1-2.5,2.7-2.8,4.7c-0.4,2-0.5,6-0.5,12.1
		s0.2,10.2,0.7,12.1c0.5,2,1.5,3.5,2.9,4.7c1.5,1.1,3.4,1.7,5.7,1.7s4.3-0.5,5.8-1.7c1.5-1.1,2.5-2.7,2.9-4.7
		C135.4,83.3,135.6,79.3,135.6,73.3z"/>
	<g>
		<g>
			<rect x="170.4" y="12.6" class="st1" width="3.5" height="74.3"/>
		</g>
	</g>
	<circle class="st0" cx="172.1" cy="107.2" r="3.7"/>
</g>
</svg>
