<?xml version="1.0" encoding="utf-8"?>
<!-- Generator: Adobe Illustrator 18.0.0, SVG Export Plug-In . SVG Version: 6.00 Build 0)  -->
<svg version="1.1" id="Capa_1" xmlns="http://www.w3.org/2000/svg" xmlns:xlink="http://www.w3.org/1999/xlink" x="0px" y="0px"
	 viewBox="0 0 223.2 73.2" enable-background="new 0 0 223.2 73.2" xml:space="preserve">
<g>
	<g>
		<path fill="#3F3C38" d="M68.3,26c-0.1,0.5-0.3,1.3-0.9,2.5s-1.2,2.5-2.1,4.1c-0.9,1.5-1.9,3.1-3,4.7c-1.1,1.6-2.2,3.1-3.3,4.5
			c-1.1,1.4-2.2,2.5-3.2,3.4c-1,0.9-1.9,1.3-2.6,1.3c-0.4,0-0.7-0.1-1-0.2c-0.3-0.1-0.6-0.3-0.9-0.4c-1.1-0.6-1.9-1.1-2.6-1.7
			c-0.7-0.6-1-1.6-1-2.9c0-1.3,0.3-3,0.8-5.3c0.5-2.2,1.2-4.7,2-7.3c0.9-2.7,1.9-5.3,3.1-8c1.2-2.7,2.5-5.2,3.9-7.4
			c1.4-2.2,2.8-4,4.3-5.5c1.5-1.4,3-2.1,4.5-2.1c0.9,0,1.7,0.2,2.6,0.6c0.9,0.4,1.3,1.1,1.3,2.2c0,1-0.2,2.1-0.6,3.4
			c-0.4,1.3-1,2.6-1.8,4.1c-0.8,1.4-1.6,2.8-2.6,4.2c-1,1.4-2,2.6-3.1,3.7c-1.1,1.1-2.2,2-3.3,2.7c-1.1,0.7-2.2,1-3.2,1H55
			c-0.4,0.6-0.7,1.6-1.1,2.9c-0.4,1.3-0.7,2.7-1,4.1c-0.3,1.4-0.6,2.8-0.8,4.2c-0.2,1.4-0.3,2.4-0.3,3.2c0,0.4,0,0.8,0.1,1.3
			c0,0.5,0.2,0.9,0.3,1.2c0.6-0.2,1.2-0.6,2-1.4c0.8-0.8,1.6-1.6,2.5-2.5s1.6-1.8,2.3-2.7c0.7-0.9,1.3-1.6,1.7-2.1
			c0.1-0.2,0.4-0.6,0.8-1.1c0.4-0.5,0.7-0.8,0.8-0.9c-0.7,1-1.3,2-2,2.9s-1.4,1.8-2.1,2.8c0.9-1,1.7-2,2.5-3c0.8-1,1.5-2.1,2.2-3.2
			l0.1,0.1c-0.4,0.9-0.9,1.8-1.6,2.7c-0.7,0.9-1.3,1.8-1.9,2.5v0.2c0.9-1.1,1.7-2.1,2.5-3.3c0.8-1.1,1.6-2.2,2.3-3.4
			c-0.3,0.6-0.6,1.2-1,1.8c-0.4,0.6-0.7,1.2-1.1,1.8c0.3-0.3,0.6-0.7,0.9-1.4s0.7-1.1,0.9-1.2c0,0,0.3-0.4,0.7-1.1
			c0.4-0.7,0.9-1.4,1.4-2.2c0.5-0.8,0.9-1.6,1.4-2.3C67.9,26.6,68.2,26.2,68.3,26z M48.7,42.7c0-2.7,0.3-5.3,0.8-7.7
			c0.5-2.4,1.2-4.9,2.1-7.5c0.4-1.1,0.8-2.2,1.3-3.3c0.5-1.1,0.9-2.2,1.2-3.3h-0.1c-0.6,1-1.1,2.3-1.8,4.1c-0.6,1.8-1.2,3.6-1.8,5.6
			c-0.6,2-1.1,3.9-1.4,5.7c-0.4,1.8-0.6,3.3-0.6,4.4c0,0.4,0,0.7,0,1C48.5,42,48.6,42.4,48.7,42.7z M49.4,37.7
			c0.1-0.2,0.2-0.4,0.2-0.7C49.5,37.1,49.4,37.3,49.4,37.7c-0.1,0.3-0.1,0.6-0.2,1c-0.1,0.4-0.1,0.7-0.2,1.1
			C49,40.1,49,40.3,49,40.4v1.1C49.2,40.2,49.4,39,49.4,37.7z M49.9,40.1L49.9,40.1l-0.1,0.5h0.1V40.1z M50.3,42.1
			c0-1,0.1-1.9,0.2-2.9c0.1-1,0.3-2,0.4-2.9c-0.2,0.8-0.3,1.6-0.5,2.4c-0.2,0.8-0.2,1.6-0.2,2.5C50.2,41.6,50.2,41.9,50.3,42.1z
			 M54.4,20.3c-0.1,0.1-0.1,0.1-0.1,0.2c0,0.1,0,0.1-0.1,0.2h0.1c0,0,0-0.1,0-0.1S54.4,20.4,54.4,20.3L54.4,20.3z M54.5,19.8
			L54.5,19.8c0.1,0,0.1,0,0.2-0.1c0-0.1,0.1-0.1,0.1-0.2v-0.1L54.5,19.8z M67.4,7.4c-1,0.4-2.1,1.3-3.3,2.7c-1.2,1.4-2.3,3-3.4,4.7
			c-1.1,1.7-2,3.5-2.9,5.2s-1.4,3.1-1.8,4.1L56,24.5l0.1,0.1c0.7-0.6,1.3-1.1,2-1.6c0.7-0.5,1.4-1.1,2.2-1.8
			c0.7-0.7,1.5-1.5,2.3-2.5c0.9-1,1.7-2.1,2.4-3.3c0.7-1.2,1.4-2.3,1.9-3.5c0.5-1.2,0.8-2.3,0.8-3.3c0-0.3,0-0.5,0-0.6
			C67.6,7.8,67.5,7.6,67.4,7.4z M67.8,7.5c0,1.2-0.2,2.4-0.6,3.5c-0.4,1.1-0.8,2.1-1.2,3c-0.4,0.9-0.8,1.6-1.2,2.2
			c-0.4,0.6-0.6,0.9-0.6,1.1c0.4-0.4,0.8-0.9,1.2-1.7c0.5-0.8,0.9-1.6,1.2-2.4s0.7-1.7,0.9-2.5c0.3-0.8,0.4-1.5,0.4-2.1
			c0-0.2,0-0.4,0-0.5c0-0.2,0-0.3,0-0.5l-0.2-0.2V7.5z M68.4,7.9c-0.1,0.1-0.1,0.3-0.1,0.6c0,0.3,0,0.5,0,0.6c0,0.4-0.1,0.9-0.3,1.6
			c-0.2,0.7-0.4,1.2-0.5,1.5v0.1l-0.2,0.3h0.1c0,0,0-0.1,0-0.2c0,0,0-0.1,0-0.2c0.3-0.4,0.5-1,0.6-1.7c0.2-0.7,0.3-1.3,0.3-1.8V7.9z
			 M68.9,8.3c0,0.6-0.1,1.1-0.2,1.6c-0.1,0.5-0.2,1-0.3,1.5C68.8,10.5,69,9.7,69,9c0-0.1,0-0.2,0-0.3C68.9,8.5,68.9,8.4,68.9,8.3z
			 M68.9,10.9c0.3-0.8,0.4-1.5,0.4-2.1V8.5c-0.1,0.4-0.2,0.8-0.2,1.2C69.1,10.1,69,10.5,68.9,10.9z"/>
		<path fill="#3F3C38" d="M84.4,24.4c0.1-0.1,0.2-0.2,0.3-0.3c0.1-0.1,0.2-0.3,0.3-0.4c-0.1,0.7-0.6,1.8-1.7,3.3
			c-1.1,1.5-2.3,3-3.7,4.5c-1.4,1.5-2.8,3-4.1,4.3c-1.3,1.3-2.3,2.2-2.9,2.7c-0.6,0.4-1.3,0.6-2.1,0.6c-0.8,0-1.6-0.1-2.4-0.4
			c-0.8-0.3-1.6-0.7-2.3-1.2c-0.7-0.5-1.2-1.1-1.7-1.8c-0.4-0.7-0.6-1.5-0.5-2.4l-0.2,0.1c0.1-0.6,0.1-1.2,0.3-1.7
			c0.1-0.6,0.2-1.1,0.3-1.7c0.3-0.6,0.5-1.1,0.6-1.5c0.2-0.7,0.6-1.4,1.2-2.2c0.6-0.8,1.3-1.5,2-2.1c0.8-0.6,1.6-1.1,2.4-1.6
			c0.9-0.4,1.7-0.6,2.4-0.6c0.3,0,0.7,0,1.1,0.1c0.4,0.1,0.8,0.2,1.2,0.4c0.4,0.2,0.7,0.4,0.9,0.7c0.3,0.3,0.4,0.6,0.4,0.9
			c0,0.6-0.2,1.4-0.6,2.2c-0.4,0.9-0.9,1.7-1.4,2.5c-0.6,0.8-1.2,1.5-1.9,2.1c-0.7,0.6-1.4,0.9-2,0.9c-0.4,0-0.9-0.1-1.5-0.4
			c-0.6-0.3-1-0.5-1.4-0.8c-0.4,1.1-0.6,2.2-0.6,3.3c0,0.2,0,0.5,0.1,0.8c0,0.4,0.1,0.7,0.2,1.1c0.1,0.4,0.2,0.7,0.3,1
			c0.2,0.3,0.4,0.5,0.6,0.5c0.1,0.1,0.2,0.1,0.3,0.2c0.1,0.1,0.2,0.1,0.3,0.1c0.7,0,1.6-0.3,2.6-0.9c1-0.6,2.1-1.4,3.2-2.4
			c1.1-1,2.2-2.1,3.4-3.3c1.2-1.2,2.2-2.4,3.2-3.6c1-1.2,1.9-2.2,2.6-3.2c0.8-1,1.3-1.7,1.7-2.2l-0.1,0.4c-0.9,1.4-1.7,2.6-2.6,3.7
			V26c0.5-0.5,1-1,1.4-1.6c0.4-0.6,0.8-1.2,1.1-1.7C84.9,23.3,84.7,23.9,84.4,24.4z M64.2,32.3L64.2,32.3l-0.1,0.5h0.1V32.3z
			 M68.8,28c-0.1,0.2-0.2,0.4-0.2,0.5c-0.1,0.2-0.1,0.3-0.1,0.5C68.6,28.9,68.7,28.5,68.8,28z M68.9,28.4c-0.1,0.2-0.1,0.3-0.1,0.4
			c0,0.1-0.1,0.3-0.1,0.4l0.1,0.1C68.9,28.9,68.9,28.6,68.9,28.4z M73.5,23.6c-0.5,0-0.9,0.3-1.3,0.8c-0.4,0.5-0.8,1.1-1.2,1.8
			c-0.4,0.7-0.7,1.4-0.9,2.1c-0.3,0.7-0.4,1.2-0.5,1.6l0.1,0.1c0.4-0.2,0.8-0.5,1.3-1c0.5-0.5,0.9-1,1.2-1.6
			c0.4-0.6,0.7-1.2,0.9-1.8c0.3-0.6,0.4-1.1,0.4-1.6C73.6,23.8,73.6,23.7,73.5,23.6z M73.6,25.6c0.3-0.5,0.4-1,0.4-1.5
			c0-0.2,0-0.4-0.1-0.5c0,0.4,0,0.7,0,1S73.7,25.2,73.6,25.6z"/>
		<path fill="#3F3C38" d="M95.6,33.8c0.3-0.6,0.5-1.3,0.8-2.1c0.3-0.8,0.7-1.5,1.1-2l0.2,0.3l0.2-0.1l0.2,0.3
			c-0.1,0.4-0.2,0.8-0.4,1.1c-0.5,1.4-1,2.8-1.6,4.2c-0.6,1.5-1.4,2.9-2.2,4.3c-0.8,1.4-1.7,2.7-2.7,3.9c-1,1.2-2.1,2.3-3.3,3.1
			c-0.5,0.4-0.9,0.7-1.4,1c-0.5,0.3-1,0.5-1.6,0.5c-0.4,0-0.8-0.1-1.1-0.2c-0.3-0.1-0.7-0.3-1.1-0.5c-0.9-0.5-1.6-0.9-2.1-1.4
			s-0.9-1-1.2-1.6c-0.3-0.6-0.5-1.2-0.5-1.9c-0.1-0.7-0.1-1.6-0.1-2.5c0-1.9,0.2-3.8,0.5-5.7c0.4-1.9,0.8-3.8,1.4-5.6
			c0.6-1.8,1.2-3.7,2-5.5c0.8-1.8,1.5-3.6,2.3-5.2c0.5-1.1,1.1-2.1,1.7-3.2c0.6-1.1,1.1-2.2,1.5-3.2c-0.6,0-1.4-0.1-2.5-0.2
			s-2.1-0.4-3.2-0.6s-2.1-0.6-3-1.1c-0.9-0.5-1.5-1-1.8-1.6l0.1-0.3l0.2,0.3L78,8c0.2,0.1,0.3,0.1,0.4,0.2c0.1,0.1,0.2,0.1,0.3,0.2
			L79,8.2c0.3,0.1,0.6,0.3,0.8,0.5C80,9,80.3,9.2,80.6,9.3c0.9,0.4,1.7,0.7,2.5,0.8c0.8,0.1,1.6,0.2,2.7,0.2c0.6,0,1.1,0,1.6,0
			c0.5,0,1,0,1.6,0c0.2,0,0.5-0.3,0.9-1C90.1,8.6,90.5,7.8,91,7c0.5-0.8,1-1.5,1.6-2.2c0.5-0.7,1-1,1.6-1c0.3,0,0.5,0.1,0.6,0.2
			c0.2,0.1,0.4,0.2,0.6,0.2l0.2,0.2l0.3-0.1l0.2,0.2c0.2-0.2,0.3-0.2,0.4-0.2c0.1,0,0.2,0.1,0.2,0.2c0,0.1,0.1,0.2,0.1,0.3l0.2-0.2
			l0.2,0.1L97.4,5l0.1,0.5l-1.9,3.9c0.4,0,0.8,0,1.4-0.2c0.6-0.1,1.2-0.2,1.8-0.4c0.6-0.2,1.2-0.3,1.7-0.4c0.5-0.1,0.9-0.2,1.2-0.3
			c2.2-0.6,4.6-1.3,7.3-2.2c2.7-0.9,5.4-1.8,8.2-2.6c2.8-0.9,5.5-1.6,8.2-2.2c2.7-0.6,5.1-0.9,7.2-0.9c0.6,0,1.3,0.1,2.3,0.3
			c1,0.2,2,0.4,3,0.8c1,0.4,1.8,0.8,2.5,1.3c0.7,0.5,1.1,1.1,1.1,1.9c0,0.3,0,0.6,0,0.9s-0.1,0.6-0.2,0.8c-0.2,0.2-0.3,0.2-0.5,0.2
			c-0.2,0-0.4-0.1-0.8-0.3c-0.4-0.2-0.7-0.4-0.8-0.5c0-0.2,0-0.3,0-0.5c0-0.2-0.1-0.3-0.2-0.4l0.1,0.6l-0.4,0.2V5.2
			c0-0.2,0-0.4-0.1-0.7c-0.1-0.3-0.3-0.6-0.5-0.9s-0.5-0.6-0.7-0.8c-0.3-0.3-0.4-0.4-0.5-0.4c-3.2,0-6.3,0.3-9.4,1
			c-3.1,0.7-6.2,1.4-9.3,2.3c-3.1,0.9-6.2,1.8-9.2,2.8c-3.1,1-6.1,1.7-9.2,2.3c-0.8,0.2-1.5,0.3-2.3,0.5c-0.8,0.2-1.6,0.2-2.3,0.2
			c-0.3,0-0.5,0.3-0.7,0.8c-0.2,0.5-0.4,0.9-0.5,1.1c-0.9,1.8-1.9,4-3.1,6.7c-1.2,2.6-2.3,5.3-3.4,8.1s-2,5.6-2.7,8.3
			c-0.8,2.8-1.1,5.2-1.1,7.3c0,0.9,0.1,1.7,0.2,2.5c1.3-0.6,2.5-1.5,3.7-2.7c1.2-1.2,2.3-2.5,3.3-4c1-1.5,2-3,2.8-4.5
			c0.8-1.5,1.5-2.9,2.1-4.1l0.2-0.1c-0.8,1.6-1.6,3.2-2.4,4.7c-0.8,1.5-1.7,3.1-2.6,4.7c0.5-0.4,0.9-1,1.5-1.9c0.5-0.9,1-1.9,1.6-3
			s1-2.1,1.5-3.1c0.5-1,0.9-1.8,1.2-2.3l-0.1,0.2v0.2c-0.5,1-0.9,2-1.4,3c-0.5,1-1,2-1.4,3v0.2c0,0,0.1-0.2,0.3-0.4
			c0.1-0.2,0.3-0.4,0.4-0.7c0.1-0.3,0.2-0.5,0.3-0.7c0.1-0.2,0.2-0.4,0.2-0.4c0,0,0.2-0.2,0.4-0.6c0.2-0.4,0.5-0.9,0.7-1.4
			c0.3-0.5,0.5-1,0.7-1.5c0.2-0.5,0.4-0.8,0.5-0.9c-0.4,1-0.8,2-1.2,3c-0.5,1-0.9,2-1.3,2.9c0.6-0.9,1.1-1.8,1.4-2.9
			c0.3-1.1,0.8-2.1,1.3-2.9h0.1c-0.1,0.2-0.2,0.4-0.3,0.8s-0.3,0.8-0.5,1.2c-0.2,0.4-0.4,0.8-0.5,1.2C95.7,33.4,95.5,33.7,95.6,33.8
			L95.6,33.8z M79.9,44.3c-0.1-0.1-0.2-0.3-0.2-0.7c0-0.4-0.1-0.8-0.1-1.2c0-0.5,0-0.9,0-1.3c0-0.4,0-0.7,0-0.8c0-0.9,0.1-2,0.3-3.5
			c0.2-1.5,0.5-3,0.9-4.5c0.4-1.6,0.7-3,1.2-4.4c0.4-1.4,0.8-2.4,1.2-3.1l-0.1-0.1c-0.1,0.4-0.2,0.7-0.4,1c-0.2,0.3-0.3,0.6-0.4,0.9
			c-0.4,1-0.8,2.1-1.1,3.3c-0.4,1.2-0.7,2.4-0.9,3.6c-0.3,1.2-0.5,2.5-0.7,3.7c-0.2,1.2-0.3,2.3-0.3,3.4
			C79.4,41.9,79.5,43.2,79.9,44.3L79.9,44.3z M80.8,35.1c-0.2,1-0.3,1.9-0.5,2.8c-0.2,0.9-0.3,1.9-0.3,2.8v1.4c0,0.1,0,0.1,0,0.1
			c0,0,0,0.1,0,0.1c0-1.2,0.1-2.4,0.2-3.6C80.5,37.5,80.7,36.3,80.8,35.1L80.8,35.1z M81,42.6v-1H81L81,42.6L81,42.6z M81.5,42.9
			c0-0.2,0.1-0.4,0.1-0.8c-0.1-0.8,0-1.6,0.2-2.5s0.4-1.8,0.6-2.6l-0.1-0.2c-0.1,0.2-0.2,0.5-0.3,1.1s-0.2,1.1-0.3,1.8
			c-0.1,0.6-0.2,1.2-0.2,1.7c-0.1,0.5-0.1,0.8-0.1,0.9L81.5,42.9L81.5,42.9z"/>
		<path fill="#3F3C38" d="M106.6,15.9c-0.4,0-0.8-0.2-1.3-0.5s-0.9-0.5-1.3-0.7v-0.2c0-1,0.2-1.9,0.6-2.8s0.6-1.9,0.5-2.9l-0.5-0.4
			c0-0.2,0.1-0.3,0.3-0.4l-0.2-0.3c0.1-0.1,0.4-0.2,0.8-0.4c0.4-0.2,0.7-0.3,0.8-0.3c0.3,0,0.6,0,0.9,0.1c0.4,0.1,0.7,0.2,1.1,0.3
			c0.4,0.2,0.6,0.3,0.9,0.6c0.2,0.2,0.3,0.5,0.3,0.8c0,1.3-0.3,2.4-0.9,3.5c-0.6,1.1-1.2,2.2-1.8,3.2L106.6,15.9z M104.2,14.6
			c0.2-0.1,0.3-0.4,0.5-0.9c0.2-0.5,0.3-1.1,0.5-1.7c0.2-0.6,0.3-1.2,0.4-1.7c0.1-0.6,0.2-0.9,0.2-1.1c-0.1,0-0.1,0.3-0.3,0.8
			c-0.1,0.5-0.3,1.1-0.5,1.7c-0.2,0.7-0.3,1.3-0.5,1.9C104.4,14.1,104.3,14.5,104.2,14.6z M105.3,12.6l0.2-0.2l-0.1-0.1
			C105.4,12.5,105.4,12.6,105.3,12.6z M105.5,12L105.5,12c0.1,0,0.2-0.1,0.2-0.2L105.5,12z M105.9,10.9c0.1-0.1,0.2-0.3,0.2-0.5
			C105.9,10.5,105.9,10.6,105.9,10.9z M106.2,9.9c0-0.1,0-0.2,0-0.2c0,0,0-0.1,0-0.2C106,9.7,106,10,106,10.4
			C106.1,10.2,106.2,10,106.2,9.9z M108.6,9.3c0.1-0.3,0.1-0.4,0.1-0.5C108.6,8.9,108.6,9,108.6,9.3z"/>
		<path fill="#3F3C38" d="M129.6,25.4c0.4,0,0.8,0.1,1.4,0.2c0.6,0.2,0.9,0.4,1,0.8l-0.1,0.3c-0.6-0.2-1.2,0-2,0.4
			c-0.8,0.4-1.6,1-2.4,1.7c-0.8,0.7-1.6,1.4-2.3,2.1c-0.7,0.7-1.3,1.3-1.6,1.6c0.5,0.9,0.9,1.6,1.4,2.2c0.5,0.6,0.9,1.3,1.2,1.9
			c0.4,0.7,0.6,1.4,0.8,2.2c0.2,0.8,0.3,1.7,0.3,2.8c0,1.5-0.3,2.9-0.9,4.3c-0.6,1.4-1.4,2.7-2.5,3.8c-1,1.1-2.2,2-3.6,2.7
			s-2.8,1-4.3,1c-0.6,0-1.3-0.1-2-0.3c-0.7-0.2-1.3-0.5-1.9-0.8c-0.6-0.4-1-0.8-1.4-1.4c-0.4-0.5-0.6-1.1-0.6-1.9
			c0-0.9,0.2-1.9,0.7-3.1c0.5-1.1,1.1-2.3,1.7-3.5c0.7-1.2,1.4-2.3,2.2-3.4c0.8-1.1,1.5-1.9,2-2.7c0.5-0.6,1.1-1.2,1.8-1.9
			c0.7-0.7,1.2-1.4,1.6-2c-0.2-0.5-0.5-1-1.1-1.7c-0.6-0.7-1.2-1.4-1.9-2.1c-0.7-0.7-1.3-1.5-1.8-2.2c-0.5-0.8-0.8-1.5-0.8-2.2
			c0-0.5,0.2-1.1,0.5-1.8c0.3-0.7,0.7-1.3,1.1-1.9c0.5-0.6,1-1.1,1.5-1.6c0.6-0.4,1.1-0.6,1.7-0.6c0.4,0,0.8,0.1,1.3,0.2
			s0.9,0.4,1.1,0.6c0,0.2-0.1,0.3-0.2,0.3c-0.2,0-0.3,0.1-0.4,0.1c-0.8,0.4-1.5,1-2,2c-0.6,1-0.8,1.9-0.8,2.8c0,0.9,0.1,1.6,0.4,2.1
			c0.3,0.5,0.6,1,0.9,1.4c0.4,0.4,0.8,0.8,1.2,1.2c0.4,0.4,0.8,0.9,1.2,1.5c0.3-0.3,0.8-0.8,1.4-1.4c0.7-0.6,1.4-1.2,2.2-1.9
			c0.8-0.6,1.5-1.1,2.2-1.6C128.6,25.6,129.2,25.4,129.6,25.4z M110.6,50.5c0.1-0.5,0.1-0.9,0-1.2c0-0.4,0-0.8,0.1-1.2
			c0.3-1.2,0.8-2.5,1.5-3.9c0.7-1.4,1.5-2.7,2.4-4.1c0.9-1.3,1.8-2.6,2.8-3.8c1-1.2,2-2.2,2.9-3.1l-0.2,0.1c-0.8,0.9-1.8,2-2.9,3.4
			c-1.1,1.3-2.2,2.7-3.2,4.2c-1,1.5-1.9,3-2.6,4.5c-0.7,1.5-1.1,3-1.1,4.3C110.4,49.9,110.5,50.2,110.6,50.5z M110.9,49.8
			c0.1-1.1,0.3-2.1,0.5-2.9c-0.2,0.4-0.3,0.8-0.4,1.2c-0.1,0.4-0.2,0.8-0.2,1.3V49.8z M111.1,49.1c0.1-0.2,0.1-0.4,0.1-0.6
			c0,0.1-0.1,0.2-0.1,0.3C111.1,48.9,111.1,49,111.1,49.1L111.1,49.1z M111.3,49.8c0.1-0.4,0.2-0.8,0.2-1.3c0-0.5,0.2-0.9,0.4-1.2
			h-0.1c-0.1,0.1-0.1,0.2-0.2,0.3c0,0.1-0.1,0.2-0.1,0.3c-0.1,0.2-0.2,0.4-0.2,0.9C111.4,49.3,111.3,49.6,111.3,49.8z M111.9,48.3
			c-0.1,0.3-0.1,0.5-0.2,0.6s-0.1,0.4-0.1,0.6c0,0.3,0,0.4,0.1,0.5c0-0.3,0-0.5,0-0.7c0.1-0.2,0.1-0.5,0.1-0.7V48.3z M111.9,45.9
			c-0.1,0.1-0.1,0.1-0.1,0.1c0,0,0,0.1-0.1,0.1l0.1,0.1C111.8,46,111.8,45.9,111.9,45.9z M112.2,45.2L112.2,45.2l-0.3,0.4h0.1
			L112.2,45.2z M113.5,52c0.6,0,1.2-0.1,1.9-0.4c0.7-0.3,1.3-0.6,1.9-0.9c1.7-1,3.1-2.3,4.3-4c1.1-1.7,1.7-3.6,1.7-5.5
			c0-0.4-0.1-0.9-0.2-1.5c-0.1-0.6-0.2-1.2-0.4-1.8c-0.2-0.6-0.3-1.2-0.5-1.7c-0.2-0.6-0.4-1-0.7-1.3c-0.7,0.7-1.6,1.7-2.6,3
			c-1,1.3-2,2.7-3,4.2c-0.9,1.5-1.7,3-2.4,4.5c-0.7,1.5-1,2.7-1,3.7c0,0.2,0.1,0.5,0.3,1C113.1,51.7,113.3,52,113.5,52z M115.3,24.5
			c0.1-0.1,0.2-0.3,0.2-0.5c0-0.3,0-0.4,0-0.5c-0.1,0.2-0.2,0.3-0.2,0.5C115.3,24.1,115.3,24.3,115.3,24.5z M115.6,22.9
			c0,0,0.1-0.2,0.1-0.3v-0.2L115.6,22.9L115.6,22.9z M116.9,25.1c0-0.2,0.1-0.5,0.1-0.9C116.9,24.5,116.8,24.8,116.9,25.1z
			 M118.4,36l-0.2,0.2v0.1L118.4,36L118.4,36z M119.1,35.1l-0.2,0.2v0.1L119.1,35.1L119.1,35.1z M120.3,33.8
			c-0.2,0.2-0.3,0.3-0.4,0.3l0.1,0.1c0-0.1,0.1-0.2,0.2-0.2C120.2,34,120.2,33.9,120.3,33.8z M123.1,30.4c-0.1,0.1-0.2,0.2-0.3,0.3
			c-0.1,0.1-0.2,0.2-0.3,0.4c0.1-0.1,0.2-0.2,0.3-0.3C122.9,30.6,123,30.5,123.1,30.4z M123.5,38.4c0.2,1,0.3,2,0.3,3.2
			c0,0.6-0.1,1.1-0.2,1.7s-0.3,1.1-0.4,1.6c0.3-0.6,0.4-1.1,0.6-1.7c0.1-0.6,0.2-1.2,0.2-1.8C124,40.3,123.8,39.3,123.5,38.4z
			 M124.4,40.7c0,0.3,0,0.6,0,0.9c0,0.3,0,0.6-0.1,0.9c0-0.3,0.1-0.5,0.1-0.7c0-0.2,0-0.4,0-0.7C124.5,40.9,124.5,40.8,124.4,40.7z
			 M125.2,42.3L125.2,42.3l0.1-0.8h-0.1V42.3z M125.6,41.5c-0.1,0.3-0.1,0.6-0.1,0.9c0,0.3,0,0.6,0,0.9c0-0.3,0.1-0.6,0.1-0.9
			C125.7,42.1,125.7,41.8,125.6,41.5z"/>
	</g>
	<g>
		<path fill="#BFC5C2" d="M166.7,8.3v35.4h3.7v1.4h-3c-1.9,0-3.9,0.1-6.1,0.3V41h-0.1c-1.4,3.2-3.8,4.8-6.9,4.8
			c-2.5,0-4.8-1.1-6.7-3.4c-1.9-2.3-2.9-4.8-2.9-7.7c0-3.1,1-5.8,3.1-8.1c2.1-2.3,4.5-3.5,7.3-3.5c2.8,0,4.9,1.3,6.3,3.8h0.1V10.1
			h-4.9V8.8h4.9C163.1,8.8,164.9,8.6,166.7,8.3z M155.1,24.3c-2,0-3.2,0.7-3.7,2.2c-0.5,1.5-0.7,4.5-0.7,9c0,3.9,0.3,6.3,0.9,7.3
			c0.6,1,1.7,1.5,3.1,1.5c1.5,0,2.9-0.5,4-1.5c1.2-1,1.9-2.2,2.3-3.5c0.4-1.3,0.5-3.5,0.5-6.4c0-2.8-0.6-4.9-1.7-6.4
			C158.6,25.1,157,24.3,155.1,24.3z"/>
	</g>
	<g>
		<path fill="#BFC5C2" d="M194,37.7h1.2c-0.5,2.6-1.6,4.6-3.2,6c-1.6,1.4-3.5,2.1-5.7,2.1c-3.1,0-5.6-1.1-7.8-3.4
			c-2.1-2.3-3.2-4.9-3.2-7.8c0-3,1.1-5.7,3.3-8c2.2-2.3,4.9-3.4,8.1-3.4c2.3,0,4.2,0.6,5.6,1.7c1.4,1.2,2.2,2.5,2.2,3.9
			c0,0.7-0.2,1.4-0.7,2c-0.5,0.6-1.1,0.9-1.9,0.9c-0.8,0-1.4-0.2-1.9-0.7c-0.5-0.5-0.8-1.1-0.8-1.9c0-0.6,0.2-1.1,0.7-1.7
			c0.4-0.5,0.7-0.9,0.7-1.1c0-0.5-0.3-0.9-1-1.3c-0.7-0.4-1.5-0.6-2.6-0.6c-1.9,0-3.3,0.5-4.2,1.5c-0.9,1-1.4,3.2-1.4,6.4
			c0,3.3,0.1,5.7,0.3,7.3c0.2,1.6,0.6,2.8,1.4,3.7c0.7,0.9,2,1.3,3.7,1.3C190.1,44.6,192.6,42.3,194,37.7z"/>
	</g>
	<g>
		<path fill="#BFC5C2" d="M200.8,34.4c0-3.1,1.1-5.8,3.2-8s4.8-3.3,8-3.3c3.1,0,5.7,1.1,7.9,3.2c2.2,2.1,3.2,4.7,3.2,7.9
			c0,3.2-1.1,6-3.4,8.2c-2.2,2.3-4.9,3.4-7.9,3.4c-3,0-5.6-1.1-7.8-3.3C201.9,40.3,200.8,37.6,200.8,34.4z M217.1,34.4
			c0-3.3-0.1-5.5-0.3-6.6c-0.2-1.1-0.7-1.9-1.5-2.5c-0.8-0.6-1.9-0.9-3.2-0.9c-1.3,0-2.4,0.3-3.2,1c-0.8,0.6-1.4,1.5-1.6,2.6
			c-0.2,1.1-0.3,3.3-0.3,6.6c0,3.3,0.1,5.6,0.4,6.6c0.2,1.1,0.8,1.9,1.6,2.5c0.8,0.6,1.9,0.9,3.1,0.9c1.3,0,2.3-0.3,3.2-0.9
			c0.8-0.6,1.4-1.5,1.6-2.6C217,39.9,217.1,37.7,217.1,34.4z"/>
	</g>
	<g>
		<g>
			<g>
				<rect x="0" y="42.7" fill="#BFC5C2" width="35.1" height="2.4"/>
			</g>
		</g>
	</g>
</g>
<g>
	<path d="M25.6,70.7h2.7V71h-2.7v1.8h2.9v0.3h-3.3v-4.6h3.2v0.3h-2.8V70.7z"/>
	<path d="M31.6,68.6v4.3h2.6v0.3h-3v-4.6H31.6z"/>
	<path d="M44.2,69.8c0,0.5-0.3,0.8-0.8,1c0.6,0.2,0.9,0.6,0.9,1.2c0,1-0.9,1.2-1.7,1.2c-0.7,0-1.2,0-1.9,0v-4.6c0.7,0,1.2,0,1.9,0
		C43.4,68.6,44.2,68.9,44.2,69.8z M41.1,70.7h1.6c0.6,0,1.1-0.2,1.1-0.8c0-0.7-0.6-1-1.2-1h-1.5V70.7z M41.1,72.9h1.5
		c0.6,0,1.3-0.1,1.3-0.9c0-0.7-0.7-1-1.3-1c-0.6,0-1,0-1.6,0V72.9z"/>
	<path d="M47.5,68.6v4.3h2.6v0.3h-3v-4.6H47.5z"/>
	<path d="M57.1,70.9c0,1.2-0.8,2.4-2.3,2.4c-1.6,0-2.3-1.2-2.3-2.4c0-1.2,0.8-2.4,2.3-2.4C56.4,68.5,57.1,69.6,57.1,70.9z
		 M52.8,70.9c0,1,0.7,2.1,2,2.1c1.3,0,2-1,2-2.1c0-1.1-0.7-2.1-2-2.1S52.8,69.8,52.8,70.9z"/>
	<path d="M63.6,69.4c-0.4-0.4-1-0.6-1.5-0.6c-1.4,0-2.1,1-2,2.1c0,1.1,0.7,2,2,2c0.5,0,1-0.2,1.4-0.5v-1.3h-1.6v-0.3h2v1.7
		c-0.5,0.5-1.1,0.7-1.7,0.7c-1.6,0-2.4-1.1-2.4-2.4c0-1.5,1-2.4,2.4-2.4c0.6,0,1.2,0.2,1.7,0.7L63.6,69.4z"/>
	<path d="M74.5,70.8c0,1.2-0.7,2.4-2.4,2.4c-0.5,0-1,0-1.6,0v-4.6c0.5,0,1,0,1.6,0C73.8,68.6,74.5,69.7,74.5,70.8z M71,68.9v4h1.2
		c1.4,0,2-1,2-2c0-1-0.7-1.9-2-1.9H71z"/>
	<path d="M77.7,70.7h2.7V71h-2.7v1.8h2.9v0.3h-3.3v-4.6h3.2v0.3h-2.8V70.7z"/>
	<path d="M87.6,68.6v4.3h2.6v0.3h-3v-4.6H87.6z"/>
	<path d="M97.2,70.9c0,1.2-0.8,2.4-2.3,2.4c-1.6,0-2.3-1.2-2.3-2.4c0-1.2,0.8-2.4,2.3-2.4C96.4,68.5,97.2,69.6,97.2,70.9z
		 M92.9,70.9c0,1,0.7,2.1,2,2.1c1.3,0,2-1,2-2.1c0-1.1-0.7-2.1-2-2.1S92.9,69.8,92.9,70.9z"/>
	<path d="M103.2,69.5c-0.3-0.5-0.9-0.6-1.4-0.6c-0.5,0-1.4,0.2-1.4,0.9c0,0.6,0.6,0.7,1.4,0.9c0.9,0.2,1.8,0.3,1.8,1.3
		c0,1-1.1,1.3-1.8,1.3c-0.7,0-1.5-0.3-1.9-1l0.3-0.2c0.3,0.6,1,0.8,1.6,0.8s1.5-0.2,1.5-1c0-0.7-0.8-0.8-1.5-1
		c-0.8-0.2-1.7-0.3-1.7-1.2c0-1,1-1.3,1.8-1.3c0.7,0,1.2,0.1,1.7,0.8L103.2,69.5z"/>
	<path d="M110.5,71.6v1.6h-0.4v-4.6c0.7,0,1.4,0,2,0c2,0,2,3,0,3H110.5z M110.5,68.9v2.4h1.7c1.5,0,1.5-2.4,0-2.4H110.5z"/>
	<path d="M120.2,73.2h-0.5l-1.6-1.8h-1.3v1.8h-0.4v-4.6c0.7,0,1.4,0,2,0c1,0,1.5,0.7,1.5,1.4c0,0.8-0.5,1.4-1.5,1.4L120.2,73.2z
		 M116.8,71.1h1.6c0.8,0,1.2-0.5,1.2-1.1c0-0.5-0.4-1.1-1.1-1.1h-1.7V71.1z"/>
	<path d="M127.2,70.9c0,1.2-0.8,2.4-2.3,2.4c-1.6,0-2.3-1.2-2.3-2.4c0-1.2,0.8-2.4,2.3-2.4C126.5,68.5,127.3,69.6,127.2,70.9z
		 M122.9,70.9c0,1,0.7,2.1,2,2.1c1.3,0,2-1,2-2.1c0-1.1-0.7-2.1-2-2.1S122.9,69.8,122.9,70.9z"/>
	<path d="M131.2,71.3l-1.8-2.8v0h0.4l1.6,2.4l1.6-2.4h0.4v0l-1.8,2.8v1.9h-0.4V71.3z"/>
	<path d="M136.3,70.7h2.7V71h-2.7v1.8h2.9v0.3H136v-4.6h3.2v0.3h-2.8V70.7z"/>
	<path d="M145.9,72.6c-0.5,0.5-1.1,0.7-1.7,0.7c-1.6,0-2.4-1.1-2.4-2.3c0-1.2,0.8-2.4,2.4-2.4c0.6,0,1.2,0.2,1.7,0.7l-0.2,0.2
		c-0.4-0.4-0.9-0.6-1.4-0.6c-1.4,0-2,1-2,2.1c0,1.1,0.7,2,2,2c0.5,0,1.1-0.2,1.5-0.6L145.9,72.6z"/>
	<path d="M149.9,68.9h-1.7v-0.3h3.7v0.3h-1.7v4.3h-0.4V68.9z"/>
	<path d="M159.1,70.9c0,1.2-0.8,2.4-2.3,2.4c-1.6,0-2.3-1.2-2.3-2.4c0-1.2,0.8-2.4,2.3-2.4C158.3,68.5,159.1,69.6,159.1,70.9z
		 M154.8,70.9c0,1,0.7,2.1,2,2.1c1.3,0,2-1,2-2.1c0-1.1-0.7-2.1-2-2.1S154.8,69.8,154.8,70.9z"/>
	<path d="M165.1,69.5c-0.3-0.5-0.9-0.6-1.4-0.6c-0.5,0-1.4,0.2-1.4,0.9c0,0.6,0.6,0.7,1.4,0.9c0.9,0.2,1.8,0.3,1.8,1.3
		c0,1-1.1,1.3-1.8,1.3c-0.7,0-1.5-0.3-1.9-1l0.3-0.2c0.3,0.6,1,0.8,1.6,0.8s1.5-0.2,1.5-1c0-0.7-0.8-0.8-1.5-1
		c-0.8-0.2-1.7-0.3-1.7-1.2c0-1,1-1.3,1.8-1.3c0.7,0,1.2,0.1,1.7,0.8L165.1,69.5z"/>
	<path d="M176,70.8c0,1.2-0.7,2.4-2.4,2.4c-0.5,0-1,0-1.6,0v-4.6c0.5,0,1,0,1.6,0C175.2,68.6,175.9,69.7,176,70.8z M172.4,68.9v4
		h1.2c1.4,0,2-1,2-2c0-1-0.7-1.9-2-1.9H172.4z"/>
	<path d="M179.1,70.7h2.7V71h-2.7v1.8h2.9v0.3h-3.3v-4.6h3.2v0.3h-2.8V70.7z"/>
	<path d="M188.7,72.6c-0.5,0.5-1.1,0.7-1.7,0.7c-1.6,0-2.4-1.1-2.4-2.3c0-1.2,0.8-2.4,2.4-2.4c0.6,0,1.2,0.2,1.7,0.7l-0.2,0.2
		c-0.4-0.4-0.9-0.6-1.4-0.6c-1.4,0-2,1-2,2.1c0,1.1,0.7,2,2,2c0.5,0,1.1-0.2,1.5-0.6L188.7,72.6z"/>
	<path d="M196,70.9c0,1.2-0.8,2.4-2.3,2.4c-1.6,0-2.3-1.2-2.3-2.4c0-1.2,0.8-2.4,2.3-2.4C195.2,68.5,196,69.6,196,70.9z M191.6,70.9
		c0,1,0.7,2.1,2,2.1c1.3,0,2-1,2-2.1c0-1.1-0.7-2.1-2-2.1S191.6,69.8,191.6,70.9z"/>
</g>
</svg>
