<?xml version="1.0" encoding="utf-8"?>
<!-- Generator: Adobe Illustrator 21.0.0, SVG Export Plug-In . SVG Version: 6.00 Build 0)  -->
<svg version="1.1" id="Capa_1" xmlns="http://www.w3.org/2000/svg" xmlns:xlink="http://www.w3.org/1999/xlink" x="0px" y="0px"
	 viewBox="0 0 800 800" style="enable-background:new 0 0 800 800;" xml:space="preserve">
<style type="text/css">
	.st0{fill:#B3D2E8;}
	.st1{clip-path:url(#SVGID_2_);}
	.st2{fill:#800000018000000180000001;}
</style>
<circle class="st0" cx="400" cy="400" r="400"/>
<g>
	<defs>
		<circle id="SVGID_1_" cx="400" cy="400" r="400"/>
	</defs>
	<clipPath id="SVGID_2_">
		<use xlink:href="#SVGID_1_"  style="overflow:visible;"/>
	</clipPath>
	<g class="st1">
		<path class="st2" d="M612,397.2L506.3,316v63.1c-1.8-0.5-3.7-0.8-5.7-0.9H370.4c-11.5,0-20.8,9.3-20.8,20.8
			c0,11.5,9.3,20.8,20.8,20.8h130.2c1.9,0,3.8-0.3,5.7-0.9v59.4L612,397.2L612,397.2z M459.1,217.9H245.9v364.2h213.2V464.6h-37.7
			V537H283.6V263h137.8v78h37.7V217.9L459.1,217.9z"/>
	</g>
	<use xlink:href="#SVGID_1_"  style="overflow:visible;fill:none;stroke:#FFFFFF;stroke-miterlimit:10;"/>
</g>
</svg>
