<?xml version="1.0" encoding="utf-8"?>
<!-- Generator: Adobe Illustrator 22.1.0, SVG Export Plug-In . SVG Version: 6.00 Build 0)  -->
<svg version="1.1" id="Capa_1" xmlns="http://www.w3.org/2000/svg" xmlns:xlink="http://www.w3.org/1999/xlink" x="0px" y="0px"
	 viewBox="0 0 317 135" style="enable-background:new 0 0 317 135;" xml:space="preserve">
<style type="text/css">
	.st0{fill:#FFFFFF;}
	.st1{fill:#BDC6C2;}
</style>
<g>
	<path class="st0" d="M92.7,112.1c2.2,0,3.9,0.6,5.2,1.8c1.3,1.2,1.9,2.9,1.9,4.9V131H18.3v-6.7c0-1.4,0.3-2.8,0.9-4.3
		c0.6-1.5,1.5-2.9,2.8-4.1L58,79.7c3-3.1,5.7-6,8.1-8.8c2.4-2.8,4.4-5.6,6-8.3c1.6-2.7,2.8-5.5,3.7-8.3c0.8-2.8,1.3-5.8,1.3-8.9
		c0-2.8-0.4-5.4-1.2-7.5c-0.8-2.2-2-4-3.5-5.5c-1.5-1.5-3.3-2.6-5.4-3.3c-2.1-0.7-4.5-1.1-7.1-1.1c-2.4,0-4.6,0.3-6.7,1
		c-2.1,0.7-3.9,1.6-5.5,2.9c-1.6,1.2-2.9,2.7-4,4.3c-1.1,1.6-1.9,3.5-2.5,5.4c-0.9,2.5-2.1,4.2-3.6,5s-3.6,1-6.4,0.6l-10.7-1.9
		c0.8-5.7,2.4-10.7,4.8-15c2.4-4.3,5.3-7.9,8.8-10.8c3.5-2.9,7.6-5,12.2-6.5c4.6-1.5,9.5-2.2,14.7-2.2c5.5,0,10.5,0.8,15,2.4
		c4.5,1.6,8.4,3.9,11.7,6.9c3.2,3,5.8,6.5,7.6,10.7c1.8,4.2,2.7,8.8,2.7,13.9c0,4.4-0.6,8.4-1.9,12.2c-1.3,3.7-3,7.3-5.2,10.7
		c-2.2,3.4-4.7,6.7-7.6,9.9c-2.9,3.2-5.9,6.4-9.1,9.7l-26.8,27.4c2.6-0.8,5.1-1.4,7.7-1.8c2.5-0.4,5-0.6,7.3-0.6H92.7z"/>
	<path class="st0" d="M209.1,131h-19.6c-1.5,0-2.7-0.4-3.6-1.2c-0.9-0.8-1.7-1.6-2.3-2.6l-17.8-29.3c-0.3,0.9-0.6,1.8-0.9,2.6
		c-0.4,0.8-0.8,1.6-1.2,2.3l-15.8,24.4c-0.6,0.9-1.3,1.8-2.2,2.6c-0.9,0.8-2,1.2-3.3,1.2h-18.2l28.9-43.5l-27.8-40.8H145
		c1.5,0,2.6,0.2,3.3,0.6c0.7,0.4,1.3,1.1,1.9,2l17.7,28.1c0.6-1.9,1.5-3.7,2.5-5.5l14.2-22.2c1.2-2,2.8-3,4.7-3h18.6l-27.7,39.9
		L209.1,131z"/>
	<path class="st0" d="M311,115.8V131h-65.7v-15.2h24.1V46.5c0-2.7,0.1-5.6,0.2-8.5l-17.1,14.3c-1,0.8-2,1.2-2.9,1.4
		c-1,0.2-1.9,0.2-2.7,0c-0.8-0.2-1.6-0.5-2.3-0.9c-0.7-0.4-1.2-0.9-1.5-1.4l-6.4-8.8L273,12h16.7v103.8H311z"/>
</g>
<g>
	<path class="st1" d="M84.7,107.1c2.2,0,3.9,0.6,5.2,1.8c1.3,1.2,1.9,2.9,1.9,4.9V126H10.3v-6.7c0-1.4,0.3-2.8,0.9-4.3
		c0.6-1.5,1.5-2.9,2.8-4.1L50,74.7c3-3.1,5.7-6,8.1-8.8c2.4-2.8,4.4-5.6,6-8.3c1.6-2.7,2.8-5.5,3.7-8.3c0.8-2.8,1.3-5.8,1.3-8.9
		c0-2.8-0.4-5.4-1.2-7.5c-0.8-2.2-2-4-3.5-5.5c-1.5-1.5-3.3-2.6-5.4-3.3c-2.1-0.7-4.5-1.1-7.1-1.1c-2.4,0-4.6,0.3-6.7,1
		c-2.1,0.7-3.9,1.6-5.5,2.9c-1.6,1.2-2.9,2.7-4,4.3c-1.1,1.6-1.9,3.5-2.5,5.4c-0.9,2.5-2.1,4.2-3.6,5s-3.6,1-6.4,0.6l-10.7-1.9
		c0.8-5.7,2.4-10.7,4.8-15c2.4-4.3,5.3-7.9,8.8-10.8c3.5-2.9,7.6-5,12.2-6.5c4.6-1.5,9.5-2.2,14.7-2.2c5.5,0,10.5,0.8,15,2.4
		c4.5,1.6,8.4,3.9,11.7,6.9c3.2,3,5.8,6.5,7.6,10.7c1.8,4.2,2.7,8.8,2.7,13.9c0,4.4-0.6,8.4-1.9,12.2c-1.3,3.7-3,7.3-5.2,10.7
		c-2.2,3.4-4.7,6.7-7.6,9.9c-2.9,3.2-5.9,6.4-9.1,9.7l-26.8,27.4c2.6-0.8,5.1-1.4,7.7-1.8c2.5-0.4,5-0.6,7.3-0.6H84.7z"/>
	<path class="st1" d="M201.1,126h-19.6c-1.5,0-2.7-0.4-3.6-1.2c-0.9-0.8-1.7-1.6-2.3-2.6l-17.8-29.3c-0.3,0.9-0.6,1.8-0.9,2.6
		c-0.4,0.8-0.8,1.6-1.2,2.3l-15.8,24.4c-0.6,0.9-1.3,1.8-2.2,2.6c-0.9,0.8-2,1.2-3.3,1.2h-18.2l28.9-43.5l-27.8-40.8H137
		c1.5,0,2.6,0.2,3.3,0.6c0.7,0.4,1.3,1.1,1.9,2l17.7,28.1c0.6-1.9,1.5-3.7,2.5-5.5l14.2-22.2c1.2-2,2.8-3,4.7-3h18.6l-27.7,39.9
		L201.1,126z"/>
	<path class="st1" d="M303,110.8V126h-65.7v-15.2h24.1V41.5c0-2.7,0.1-5.6,0.2-8.5l-17.1,14.3c-1,0.8-2,1.2-2.9,1.4
		c-1,0.2-1.9,0.2-2.7,0c-0.8-0.2-1.6-0.5-2.3-0.9c-0.7-0.4-1.2-0.9-1.5-1.4l-6.4-8.8L265,7h16.7v103.8H303z"/>
</g>
</svg>
