<?xml version="1.0" encoding="utf-8"?>
<!-- Generator: Adobe Illustrator 22.1.0, SVG Export Plug-In . SVG Version: 6.00 Build 0)  -->
<svg version="1.1" id="Capa_1" xmlns="http://www.w3.org/2000/svg" xmlns:xlink="http://www.w3.org/1999/xlink" x="0px" y="0px"
	 viewBox="0 0 266 274" style="enable-background:new 0 0 266 274;" xml:space="preserve">
<style type="text/css">
	.st0{fill:none;stroke:#262626;stroke-miterlimit:10;}
	.st1{fill:#333333;}
</style>
<g>
	<g>
		<rect x="77.5" y="141.8" class="st0" width="110.9" height="36.2"/>
	</g>
	<g>
		<path class="st0" d="M93.7,141.8c0,0,0-10.5,0-21.8s15.7-12,15.7,0"/>
	</g>
	<g>
		<circle class="st0" cx="170.7" cy="88.4" r="4.7"/>
	</g>
	<g>
		<circle class="st0" cx="155.7" cy="68.3" r="3.7"/>
	</g>
	<g>
		<circle class="st0" cx="178.3" cy="57.8" r="2.7"/>
	</g>
	<g>
		<path class="st1" d="M95.4,215.5v10.3h1.1c0.1,0,0.2,0,0.2,0.1s0.1,0.1,0.1,0.2v0.5h-2.4v-11.8h2.4v0.5c0,0.1,0,0.2-0.1,0.2
			s-0.1,0.1-0.2,0.1h-1.1V215.5z"/>
		<path class="st1" d="M112.5,215.3c0.6,0,1.1,0.1,1.5,0.2c0.4,0.1,0.8,0.3,1,0.5c0.3,0.2,0.5,0.5,0.6,0.8s0.2,0.6,0.2,1
			c0,0.2,0,0.5-0.1,0.7s-0.2,0.4-0.3,0.6c-0.1,0.2-0.3,0.3-0.5,0.5c-0.2,0.1-0.5,0.3-0.8,0.4c0.7,0.1,1.2,0.4,1.5,0.7
			c0.3,0.4,0.5,0.8,0.5,1.4c0,0.4-0.1,0.8-0.2,1.1s-0.4,0.6-0.6,0.8c-0.3,0.2-0.6,0.4-1,0.5s-0.9,0.2-1.4,0.2h-3.3v-9.3L112.5,215.3
			L112.5,215.3z M110.8,216.3v3.2h1.7c0.4,0,0.7,0,0.9-0.1s0.5-0.2,0.6-0.3c0.2-0.1,0.3-0.3,0.4-0.5s0.1-0.4,0.1-0.6
			c0-0.6-0.2-1-0.5-1.2c-0.3-0.3-0.8-0.4-1.5-0.4L110.8,216.3L110.8,216.3z M112.8,223.7c0.4,0,0.7,0,0.9-0.1
			c0.3-0.1,0.5-0.2,0.6-0.3c0.2-0.2,0.3-0.3,0.4-0.5s0.1-0.4,0.1-0.7c0-0.5-0.2-0.9-0.5-1.1s-0.9-0.4-1.5-0.4h-2v3.2L112.8,223.7
			L112.8,223.7z"/>
		<path class="st1" d="M129.3,224.7h-1c-0.1,0-0.2,0-0.3-0.1c-0.1-0.1-0.1-0.1-0.2-0.2l-0.9-2.3h-4.2l-0.9,2.3
			c0,0.1-0.1,0.1-0.1,0.2s-0.2,0.1-0.3,0.1h-1l3.7-9.3h1.3L129.3,224.7z M126.6,221.2l-1.5-3.8c0-0.1-0.1-0.2-0.1-0.4
			s-0.1-0.3-0.1-0.5c-0.1,0.4-0.2,0.6-0.3,0.9l-1.5,3.8H126.6z"/>
		<path class="st1" d="M141.9,215.3v9.3h-0.6c-0.1,0-0.2,0-0.3-0.1c-0.1,0-0.1-0.1-0.2-0.2l-5.4-7c0,0.1,0,0.2,0,0.3s0,0.2,0,0.3
			v6.6h-1.1v-9.3h0.6c0.1,0,0.1,0,0.1,0h0.1c0,0,0.1,0,0.1,0.1l0.1,0.1l5.4,7c0-0.1,0-0.2,0-0.3s0-0.2,0-0.3v-6.6L141.9,215.3
			L141.9,215.3z M139.1,213.9c0.1,0,0.2,0,0.3-0.1c0.1,0,0.1-0.1,0.2-0.1c0.1-0.1,0.1-0.1,0.1-0.2c0-0.1,0-0.2,0-0.2h0.7
			c0,0.2,0,0.4-0.1,0.5c-0.1,0.2-0.1,0.3-0.2,0.5c-0.1,0.1-0.2,0.2-0.4,0.3c-0.1,0.1-0.3,0.1-0.5,0.1s-0.4,0-0.5-0.1
			c-0.2-0.1-0.3-0.2-0.4-0.2s-0.3-0.2-0.4-0.2c-0.1-0.1-0.2-0.1-0.4-0.1c-0.1,0-0.2,0-0.3,0.1s-0.1,0.1-0.2,0.2
			c-0.1,0.1-0.1,0.1-0.1,0.2c0,0.1,0,0.2,0,0.2h-0.7c0-0.2,0-0.4,0.1-0.5c0.1-0.2,0.1-0.3,0.2-0.5c0.1-0.1,0.2-0.2,0.4-0.3
			s0.3-0.1,0.5-0.1s0.4,0,0.5,0.1c0.2,0.1,0.3,0.2,0.4,0.2s0.3,0.2,0.4,0.2C138.8,213.8,139,213.9,139.1,213.9z"/>
		<path class="st1" d="M156.8,220c0,0.7-0.1,1.3-0.3,1.9c-0.2,0.6-0.5,1.1-0.9,1.5s-0.9,0.7-1.5,1c-0.6,0.2-1.2,0.3-1.9,0.3
			s-1.3-0.1-1.9-0.3c-0.6-0.2-1-0.6-1.4-1s-0.7-0.9-0.9-1.5s-0.3-1.2-0.3-1.9s0.1-1.3,0.3-1.9c0.2-0.6,0.5-1.1,0.9-1.5
			s0.9-0.8,1.4-1c0.6-0.2,1.2-0.4,1.9-0.4s1.3,0.1,1.9,0.4s1,0.6,1.5,1c0.4,0.4,0.7,0.9,0.9,1.5C156.7,218.7,156.8,219.3,156.8,220z
			 M155.5,220c0-0.6-0.1-1.1-0.2-1.5c-0.2-0.5-0.4-0.8-0.7-1.2c-0.3-0.3-0.6-0.6-1-0.7c-0.4-0.2-0.9-0.3-1.4-0.3s-1,0.1-1.4,0.3
			s-0.8,0.4-1,0.7c-0.3,0.3-0.5,0.7-0.7,1.2s-0.2,1-0.2,1.5s0.1,1.1,0.2,1.5c0.2,0.5,0.4,0.8,0.7,1.2s0.6,0.6,1,0.7
			c0.4,0.2,0.9,0.3,1.4,0.3s1-0.1,1.4-0.3s0.8-0.4,1-0.7s0.5-0.7,0.7-1.2C155.5,221.1,155.5,220.6,155.5,220z"/>
		<path class="st1" d="M171.4,226.5H169V226c0-0.1,0-0.2,0.1-0.2s0.1-0.1,0.2-0.1h1.1v-10.3h-1.1c-0.1,0-0.2,0-0.2-0.1
			s-0.1-0.1-0.1-0.2v-0.5h2.4V226.5z"/>
	</g>
</g>
</svg>
