<?xml version="1.0" encoding="utf-8"?>
<!-- Generator: Adobe Illustrator 22.1.0, SVG Export Plug-In . SVG Version: 6.00 Build 0)  -->
<svg version="1.1" id="Capa_1" xmlns="http://www.w3.org/2000/svg" xmlns:xlink="http://www.w3.org/1999/xlink" x="0px" y="0px"
	 viewBox="0 0 254.3 121.2" style="enable-background:new 0 0 254.3 121.2;" xml:space="preserve">
<style type="text/css">
	.st0{enable-background:new    ;}
	.st1{fill:#FFFFFF;}
	.st2{fill:#BDC6C2;}
</style>
<g>
	<g class="st0">
		<path class="st1" d="M61.1,105.4V79.7h18.5v4.7H66v7h12.9v4.5H66v9.5H61.1z"/>
		<path class="st1" d="M116.8,105.4H111l-7.5-8.6h-4.7v8.6H94V79.6c4.1,0,8.2,0,12.3,0c6.1,0,9.3,4.1,9.3,8.5c0,3.5-1.6,7.1-6.5,8.1
			l7.8,8.8V105.4z M98.8,84.1v8.2h7.4c3.1,0,4.4-2.1,4.4-4.1c0-2.1-1.4-4.1-4.4-4.1H98.8z"/>
		<path class="st1" d="M129.8,105.4V79.6h4.8v25.8H129.8z"/>
		<path class="st1" d="M172.8,92.3c0.1,6.5-3.9,13.1-12.9,13.1c-3.2,0-7,0-10.1,0V79.6c3.2,0,7,0,10.1,0
			C168.7,79.6,172.7,85.9,172.8,92.3z M154.6,100.7h5.3c5.8,0,8.2-4.3,8.1-8.5c-0.1-4-2.5-8-8.1-8h-5.3V100.7z"/>
		<path class="st1" d="M205.2,100.5h-13.5l-2.2,4.9h-5.3l11.6-25.8h5.3l11.6,25.8h-5.3L205.2,100.5z M198.5,85l-4.8,11h9.6L198.5,85
			z"/>
		<path class="st1" d="M232.5,90.3l6.8-10.6h5.8v0.2l-10.3,14.9v10.6h-4.9V94.7l-9.9-14.9v-0.2h5.8L232.5,90.3z"/>
	</g>
	<g class="st0">
		<path class="st2" d="M27.3,59.6c0,1.2-0.4,2.9-1.1,5c-0.7,2.1-1.6,4.2-2.8,6.2s-2.4,3.8-3.9,5.3s-2.9,2.2-4.4,2.2
			c-0.4,0-0.7,0-1-0.1c-0.3-0.1-0.7-0.1-1-0.2c-0.2,0.1-0.3,0.3-0.3,0.6c-0.1,0.3-0.2,0.6-0.3,0.7l-0.3,0.2l-0.3-0.1
			c0-0.3,0-0.5,0.2-0.7c0.1-0.2,0.2-0.4,0.2-0.7V78c-0.3-0.2-0.5-0.3-0.7-0.5c-0.2-0.2-0.5-0.3-0.9-0.4c-0.1,0.1-0.2,0.3-0.2,0.5
			c0,0.2,0,0.4,0,0.5c0,0.4,0,0.7,0.2,0.8l0.4,0.3c0.1,0,0.2,0,0.3,0.1c0.1,0,0.2,0.1,0.3,0.2c-0.1,0.4-0.3,0.6-0.5,0.7
			c-1.6-0.4-2.6-1-3.1-2c-0.5-1-0.7-2.2-0.7-3.7c0-1.6,0.1-3.1,0.2-4.7C7.7,68.1,7.8,66.6,8,65c0.2-1.8,0.5-3.7,1-5.7
			c0.5-2,1-3.9,1.7-5.9c0.7-1.9,1.4-3.8,2.2-5.7c0.8-1.8,1.6-3.6,2.5-5.2c0.5-1,1.1-2.1,1.9-3.4c0.8-1.3,1.6-2.7,2.5-4
			c0.9-1.3,1.8-2.6,2.7-3.8c0.9-1.2,1.8-2.1,2.7-2.8c0.4-0.3,0.7-0.6,1.1-0.8c0.4-0.3,0.7-0.5,1.1-0.8c0.6-0.5,1.4-1,2.5-1.6
			c1-0.6,2-0.8,2.8-0.8c0.3,0,0.6,0.1,1.1,0.2c0.5,0.1,0.9,0.2,1.4,0.4c0.5,0.2,0.9,0.4,1.2,0.6c0.4,0.3,0.5,0.5,0.5,0.8
			c0,0.2-0.1,0.5-0.3,1.1c-0.2,0.6-0.5,1.1-0.8,1.7c-0.3,0.6-0.6,1.2-0.8,1.7c-0.3,0.5-0.4,0.9-0.5,1c-1.6,3.4-3.4,6.7-5.4,9.8
			c-2,3.1-4.2,6.1-6.6,9c-0.9,1.2-2,2.3-3.2,3.3c-1.2,1-2.4,2-3.6,2.8c-0.3,0.2-0.5,0.4-0.6,0.6c-0.2,0.2-0.3,0.5-0.4,0.8
			c-0.3,0.9-0.7,2.1-1.1,3.6c-0.4,1.5-0.8,3-1.2,4.6c-0.4,1.6-0.8,3.1-1.1,4.5c-0.3,1.4-0.5,2.5-0.5,3.3v0.8l0.1,0.1
			c0.2,0,0.3-0.1,0.5-0.4c0.2-0.3,0.3-0.5,0.5-0.8s0.3-0.6,0.5-0.9c0.2-0.3,0.3-0.5,0.5-0.7l0.1,0.2c0.1,0,0.2-0.2,0.4-0.6
			s0.3-0.7,0.5-1.1c0.2-0.4,0.3-0.8,0.4-1.2c0.1-0.4,0.2-0.6,0.2-0.8c-0.4,0.5-0.6,1-0.7,1.6c-0.1,0.6-0.4,1.1-0.7,1.5
			c0.4-1,0.7-2,1.1-3c0.4-1,0.8-2,1.3-2.9c0.2-0.4,0.4-0.7,0.6-1c0.2-0.3,0.3-0.7,0.4-1c-0.2,0.1-0.3,0.3-0.5,0.7
			c-0.2,0.4-0.4,0.7-0.6,1.1c-0.2,0.4-0.4,0.8-0.6,1.2c-0.2,0.4-0.3,0.7-0.5,0.9c0-0.6,0.4-1.6,1.1-3c0.7-1.4,1.6-2.7,2.6-4.1
			c1-1.4,2-2.6,3.1-3.7c1.1-1.1,2-1.6,2.7-1.6c1.4,0,2.3,0.4,2.9,1.1C27,57.4,27.3,58.4,27.3,59.6z M8,74.3c0-3.2,0.3-6.2,0.9-9
			c0.6-2.9,1.2-5.8,1.9-8.8c-0.1,0.1-0.2,0.3-0.3,0.6c-1.8,6.2-2.7,12.5-2.7,19c0,0.5,0.1,0.8,0.3,1.1v0.2l0.1-0.1L8,77.1
			c0-0.5,0-0.9,0-1.4C8,75.3,8,74.8,8,74.3z M8.3,74.1v-0.7C8.4,73.7,8.4,73.9,8.3,74.1z M8.5,71.9l-0.1,0.2c0,0.1,0,0.1,0.1,0.2
			V71.9z M8.7,70.7L8.7,70.7l-0.1,0.2L8.7,70.7z M8.8,69.8c0,0,0-0.1-0.1-0.2L8.8,69.8L8.8,69.8z M9,67.7L9,67.7L9,67.8H9V67.7z
			 M9.3,75.5c0.1-0.2,0.1-0.4,0.1-0.6c0-0.2,0-0.4,0-0.6c-0.1,0.1-0.1,0.3-0.1,0.6C9.3,75.3,9.3,75.4,9.3,75.5z M9.4,65.3L9.4,65.3
			L9.4,65.3L9.4,65.3z M9.6,72.4L9.6,72.4l-0.1,0.2h0.1V72.4z M9.8,71.5l-0.1,0.2l0.1,0.1V71.5z M9.9,70.9c0-0.1,0-0.2-0.1-0.2
			L9.9,70.9L9.9,70.9z M10,69.9L10,69.9C9.9,69.9,10,69.9,10,69.9C10,69.9,10,70,10,69.9L10,69.9z M10.1,69.3c0,0,0-0.1,0.1-0.2
			h-0.1V69.3z M12,76.5C12,76.5,12,76.5,12,76.5v-0.2h-0.1C11.9,76.4,11.9,76.5,12,76.5z M12.5,76.8c0.1-0.2,0.2-0.4,0.2-0.6v-0.2
			l-0.4,0.2l-0.1,0.5C12.2,76.7,12.3,76.8,12.5,76.8L12.5,76.8z M13.3,76.7c0.7,0,1.4-0.4,2.2-1.1s1.5-1.5,2.2-2.4
			c0.7-0.9,1.3-1.8,1.8-2.8c0.5-0.9,0.9-1.7,1.2-2.2c0,0,0.1-0.1,0.1-0.2c0,0,0-0.1-0.1-0.2c-0.1,0-0.4,0.3-1.1,1
			c-0.7,0.7-1.5,1.4-2.3,2.2c-0.9,0.8-1.6,1.6-2.3,2.3c-0.7,0.8-1.1,1.2-1.1,1.4l-0.4,1.5V76.7z M13.6,71.6L13.6,71.6l0.1-0.2
			L13.6,71.6z M15.2,66.8c-0.2,0.3-0.3,0.6-0.6,1.1c-0.2,0.5-0.4,0.8-0.4,1l0.2-0.6c0.2-0.2,0.3-0.4,0.4-0.7
			C15,67.3,15.1,67,15.2,66.8z M15.2,71.3c0.3,0,0.5-0.2,0.9-0.6c0.3-0.4,0.6-0.7,0.7-0.9c0.3-0.3,0.5-0.4,0.8-0.5
			c0.3-0.1,0.6-0.2,0.8-0.5c0.5-0.6,1-1.1,1.5-1.5c0.5-0.5,1-0.9,1.6-1.4c0.3-0.3,0.6-0.7,0.9-1.5c0.3-0.7,0.6-1.5,0.9-2.4
			c0.3-0.9,0.5-1.7,0.7-2.4c0.2-0.8,0.3-1.3,0.3-1.7v-0.3c-0.5,0.1-1.2,0.7-2,1.8c-0.9,1.1-1.7,2.3-2.6,3.6
			c-0.9,1.3-1.7,2.6-2.3,3.9c-0.7,1.2-1.1,2.1-1.3,2.5c-0.1,0.3-0.2,0.6-0.3,0.9C15.4,70.8,15.3,71.1,15.2,71.3z M16.8,62.8
			c-0.2,0.2-0.3,0.5-0.5,0.8s-0.2,0.5-0.2,0.5c0.2-0.2,0.4-0.5,0.5-0.9h0.1C16.7,63.1,16.7,62.9,16.8,62.8z M16.6,53.3
			c-0.1,0.1-0.1,0.1-0.1,0.2c0,0.1,0,0.2,0.1,0.2c0.7-0.4,1.2-0.9,1.7-1.6c0.5-0.6,1-1.2,1.6-1.6l0.1,0.1c0.1-0.1,0.3-0.3,0.6-0.7
			c0.3-0.4,0.5-0.6,0.6-0.7c0.1-0.1,0.2-0.2,0.3-0.2c0.1,0,0.2-0.2,0.2-0.5c0.3-0.2,0.5-0.4,0.5-0.6l-0.5,0.4c0.3-0.7,0.7-1.4,1.2-2
			c0.6-0.7,1.1-1.3,1.5-2c0.4-0.7,0.8-1.4,1.2-2.2c0.4-0.7,0.8-1.5,1.2-2.2c0.9-1.8,1.8-3.5,2.5-5.2c0.8-1.7,1.5-3.5,2.2-5.4
			l-0.1-0.2c-0.2,0-0.4,0.1-0.6,0.3c-1.3,1.1-2.7,2.6-4,4.5s-2.7,4.1-4,6.3c-1.3,2.3-2.5,4.6-3.6,6.9C18.3,49.5,17.4,51.5,16.6,53.3
			z M17.1,62.5l-0.2,0.2L17.1,62.5L17.1,62.5L17.1,62.5z M17.4,62L17.4,62L17.4,62L17.4,62z M22.2,48.6L22.2,48.6L22.2,48.6
			L22.2,48.6z M22.6,47.4c-0.2,0.1-0.3,0.3-0.4,0.5C22.5,47.8,22.6,47.6,22.6,47.4z M22.2,48.6L22.2,48.6L22.2,48.6L22.2,48.6z
			 M23,46.9c-0.2,0.1-0.3,0.2-0.4,0.5C22.8,47.3,23,47.1,23,46.9z M22.7,48L22.7,48L22.7,48L22.7,48z M23.3,46.4
			c-0.2,0.1-0.3,0.3-0.4,0.5C23.2,46.7,23.3,46.5,23.3,46.4z M23.1,47.4C23.1,47.4,23.1,47.5,23.1,47.4C23,47.5,23,47.5,23,47.5h0.1
			V47.4z M23.7,45.9c-0.2,0.1-0.3,0.3-0.4,0.5C23.6,46.1,23.7,46,23.7,45.9z M23.5,46.9C23.4,46.9,23.4,47,23.5,46.9L23.5,46.9
			L23.5,46.9z M23.9,62.1c0.2-0.7,0.3-1.4,0.5-2c0.2-0.7,0.3-1.3,0.3-2v-0.5l-0.2-0.2c-0.1,0.3-0.1,0.5-0.1,0.8c0,0.3,0,0.5,0,0.8
			l-0.8,3.3h0.1L23.9,62.1z M24.7,44.4c-0.5,0.5-0.8,0.9-1,1.4C24.2,45.5,24.6,45,24.7,44.4L24.7,44.4c0-0.1,0-0.1,0-0.1
			C24.6,44.3,24.7,44.4,24.7,44.4z M25.4,43.4C25.1,43.5,25,43.7,25,44c0.2-0.1,0.3-0.3,0.3-0.5c0.1-0.2,0.2-0.4,0.3-0.5
			c0.2,0,0.3-0.3,0.4-0.6c-0.2,0.1-0.3,0.3-0.3,0.5C25.6,43,25.5,43.2,25.4,43.4z M25.1,57.8C25,58,25,58.2,25,58.4
			c0,0.2,0,0.4,0,0.6h0.1V57.8z M25.7,58.9C25.7,58.8,25.7,58.8,25.7,58.9c0.1-0.1,0.1-0.1,0.1-0.2l-0.2-0.2
			C25.7,58.6,25.7,58.7,25.7,58.9z M26,59.6L26,59.6L25.9,60H26V59.6z M26.4,41.7c-0.3,0.2-0.4,0.4-0.4,0.6
			C26.1,42.3,26.3,42.1,26.4,41.7z M26.7,41.1c-0.2,0.1-0.3,0.3-0.4,0.6c0.1-0.1,0.2-0.2,0.2-0.3C26.6,41.3,26.6,41.2,26.7,41.1z
			 M27.3,40.2c-0.2,0.1-0.3,0.2-0.3,0.4c-0.1,0.2-0.1,0.3-0.2,0.5l0.2-0.2v-0.1c0.1-0.1,0.2-0.3,0.3-0.5c0.1-0.2,0.2-0.4,0.3-0.5
			L27.3,40.2z M27.8,39.1c-0.2,0.2-0.3,0.4-0.3,0.6c0,0,0-0.1,0.1-0.2C27.6,39.5,27.7,39.3,27.8,39.1z M30.8,33.2L30.8,33.2
			l-0.2,0.2L30.8,33.2z M30.8,32.9C30.8,32.9,30.8,32.8,30.8,32.9c0.1-0.1,0.1-0.1,0.1-0.2C30.9,32.8,30.9,32.8,30.8,32.9
			C30.8,32.8,30.8,32.9,30.8,32.9z M31.1,32.5c0-0.1,0.1-0.2,0.2-0.3c0-0.1,0.1-0.2,0.1-0.3C31.1,32,31.1,32.2,31.1,32.5z
			 M31.8,30.5c-0.2,0.2-0.3,0.4-0.3,0.6c-0.1,0.3-0.1,0.5-0.2,0.7c0.2-0.3,0.3-0.6,0.4-0.9c0.1-0.3,0.2-0.6,0.3-0.9
			C32,30.2,31.9,30.3,31.8,30.5L31.8,30.5z"/>
		<path class="st2" d="M46.7,56.1L46.7,56.1c-0.3,0.5-0.6,0.9-0.8,1.4c-0.3,0.5-0.5,0.9-0.8,1.4l0.1,0.1c0.2-0.4,0.4-0.8,0.7-1.3
			c0.3-0.5,0.5-0.9,0.8-1.3c-0.1,0.8-0.5,1.9-1.1,3.4c-0.7,1.5-1.4,3.1-2.2,4.7c-0.8,1.6-1.6,3.2-2.4,4.7c-0.8,1.5-1.3,2.5-1.6,3.3
			c-0.3,0.5-0.7,1.4-1.4,2.9c-0.7,1.5-1.4,3-2.2,4.5c-0.8,1.6-1.6,3-2.3,4.2c-0.8,1.2-1.3,1.8-1.7,1.8c-0.5,0-1-0.2-1.6-0.5
			c-0.7-0.4-1.3-0.7-1.7-1.1c-0.5-0.4-0.8-0.7-1.1-1.2c-0.3-0.4-0.4-0.9-0.5-1.5c-0.1-0.6-0.2-1.3-0.2-2.1c0-2.4,0.3-4.7,0.9-7.1
			c0.6-2.4,1.2-4.7,1.9-7c0.3-0.9,0.7-2.2,1.5-4.1c0.7-1.8,1.6-3.9,2.6-6.1c1-2.2,2.1-4.6,3.3-7s2.4-4.6,3.7-6.6
			c1.2-2,2.4-3.6,3.6-4.9s2.1-1.9,3-1.9c0.1,0,0.3,0,0.6,0.1c0.3,0.1,0.6,0.1,0.9,0.2c0.3,0.1,0.6,0.2,0.8,0.3
			c0.3,0.1,0.4,0.2,0.4,0.2c0.2,0,0.3,0,0.5,0.1c0.2,0.1,0.2,0.3,0.2,0.5c0,0.3-0.1,0.4-0.2,0.5c0.2,0.3,0.4,0.6,0.5,0.8
			c0.1,0.2,0.2,0.5,0.2,0.9c0,1.3-0.3,2.7-0.9,4c-0.6,1.4-1.4,2.8-2.2,4.1c-0.9,1.3-1.8,2.6-2.8,3.8c-1,1.2-1.9,2.3-2.7,3.3
			c-0.6,0.7-1.3,1.4-2.1,2.1c-0.8,0.7-1.4,1.5-1.8,2.3c-0.8,1.5-1.6,3.3-2.4,5.4c-0.9,2.1-1.7,4.3-2.4,6.6c-0.7,2.3-1.4,4.5-1.9,6.7
			c-0.5,2.2-0.8,4.1-0.8,5.7v0.8l0.2-0.2c0.7-1.1,1.4-2.3,1.9-3.4c0.6-1.2,1.1-2.4,1.7-3.5c0.5-1.1,1.3-2.6,2.3-4.5
			c1-1.9,2.2-4,3.4-6.1s2.4-4.1,3.6-6c1.2-1.9,2.1-3.3,2.8-4.2v0.2c-2.7,4.6-5.4,9.3-8.1,13.9c-2.6,4.6-5.2,9.3-7.6,14.2
			c0.6-0.6,1.2-1.5,1.7-2.8c0.6-1.2,1-2.3,1.4-3.1c1.9-3.8,3.9-7.5,6.1-11c2.1-3.6,4.3-7.2,6.4-10.8V56.1z M27.3,79.9
			c0-2.4,0.4-5,1.1-7.8c0.7-2.8,1.4-5.3,2.2-7.6c0.2-0.5,0.3-1,0.6-1.5c0.2-0.5,0.4-1,0.4-1.5c-0.5,0.9-1,2.1-1.5,3.8
			c-0.5,1.7-1,3.5-1.4,5.3c-0.4,1.8-0.8,3.6-1.1,5.3c-0.3,1.7-0.4,3.1-0.4,4c0,0.8,0.1,1.5,0.4,2c-0.1-0.3-0.2-0.6-0.2-1.1
			C27.3,80.4,27.3,80.1,27.3,79.9z M28.2,76.8c0.1-0.2,0.2-0.3,0.2-0.5c0-0.2,0-0.3,0-0.5l-0.1-0.1c0,0.6-0.1,1.2-0.2,1.8
			c-0.2,0.6-0.2,1.2-0.2,1.8c0,0.3,0,0.6,0,0.9c0,0.3,0,0.6,0,0.9c0-0.7,0.1-1.4,0.2-2.2C28.1,78.2,28.2,77.5,28.2,76.8z M29,81.6
			c0-0.9,0.1-1.7,0.2-2.5c0.1-0.8,0.2-1.6,0.3-2.4c-0.4,1.4-0.6,2.8-0.6,4.2C28.9,81.3,29,81.5,29,81.6z M39.8,54.5
			c0.6-0.6,1.3-1.3,2-2.2c0.8-0.9,1.5-1.8,2.3-2.8c0.8-1,1.5-2.1,2.3-3.2c0.7-1.1,1.4-2.2,1.9-3.3c0,0.1,0,0.2,0,0.2
			c0,0.1,0,0.1,0,0.2l0.1,0.1c0.4-0.9,0.7-1.7,1.1-2.4c0.4-0.8,0.6-1.6,0.6-2.6c0-0.1,0-0.2,0-0.3c0-0.1,0-0.2,0-0.3h-0.1
			c0,1-0.1,1.8-0.2,2.3c-0.2,0.5-0.4,1-0.6,1.4c0.5-1.1,0.7-2.1,0.7-3.1c0-0.3,0-0.5-0.1-0.6c0,0.3,0,0.6,0,0.9
			c0,0.3-0.1,0.6-0.1,0.9c-0.1,0.4-0.2,0.9-0.6,1.7c-0.3,0.8-0.7,1.6-1.2,2.5c-0.5,0.9-0.9,1.6-1.3,2.3c-0.4,0.7-0.8,1.2-1.1,1.4
			c0.4-0.7,0.8-1.3,1.2-2c0.5-0.7,0.9-1.4,1.4-2.2c0.4-0.8,0.8-1.5,1.1-2.3c0.3-0.8,0.4-1.6,0.4-2.3v-0.5c-0.1,0.3-0.2,0.6-0.2,0.9
			c0,0.3-0.1,0.6-0.2,0.9c0-0.3,0-0.6,0.1-0.8c0.1-0.3,0.1-0.5,0-0.8c0,0.9-0.1,1.6-0.4,2.2c-0.3,0.6-0.6,1.2-0.9,1.9
			c0.3-0.6,0.5-1.1,0.7-1.7c0.2-0.6,0.3-1.2,0.3-1.7v-0.2c-0.1,0.1-0.2,0.4-0.3,0.8c-0.1,0.4-0.2,0.8-0.3,1c0-0.2,0.1-0.4,0.1-0.6
			c0-0.2,0-0.3,0.2-0.5h-0.1c-0.3,0.5-0.8,1.2-1.6,2.4s-1.5,2.3-2.3,3.6c-0.8,1.3-1.4,2.4-2,3.5c-0.6,1.1-0.9,1.8-1,2.1l-0.1,0.1
			c-0.1,0.3-0.2,0.5-0.4,0.6c-0.1,0.3-0.2,0.5-0.3,0.8c-0.1,0.3-0.3,0.5-0.4,0.8l0.1,0.1c0.7-0.8,1.3-1.5,1.9-2.3
			c0.6-0.8,1.2-1.5,1.9-2.2L44.2,49c-0.3,0.3-0.6,0.6-1,1.1c-0.4,0.5-0.9,1-1.3,1.6s-0.9,1.1-1.2,1.6c-0.4,0.5-0.6,0.8-0.8,1.1V54.5
			z M46.7,44.7c0.1-0.4,0.3-0.8,0.5-1.2c0.2-0.4,0.4-0.7,0.7-1.1L46.7,44.7z M49,41.5c-0.1,0.5-0.3,1-0.7,1.5
			C48.5,42.4,48.8,41.9,49,41.5z M50.3,39.1L50.3,39.1l0.1-0.3h-0.1V39.1z"/>
		<path class="st2" d="M66.4,56.5c-0.1,0.4-0.3,1.1-0.6,2c-0.3,0.9-0.7,1.9-1.2,3c-0.5,1.1-1.1,2.3-1.7,3.4c-0.6,1.2-1.3,2.3-2,3.2
			c-0.7,1-1.4,1.8-2.1,2.4c-0.7,0.6-1.4,0.9-2.1,0.9c-0.4,0-0.8-0.1-1.3-0.3c-0.5-0.2-1-0.5-1.4-0.8c-0.5-0.3-0.9-0.7-1.2-1.1
			c-0.3-0.4-0.5-0.9-0.5-1.3c0-1.1,0.1-2.3,0.2-3.4c0.2-1.2,0.4-2.3,0.6-3.4c0.1-0.2,0.1-0.3,0.2-0.5c0.1-0.2,0.1-0.3,0.1-0.5V60
			c-0.4,0.4-0.9,1-1.4,1.7c-0.6,0.7-1.2,1.5-1.8,2.2c-0.6,0.7-1.3,1.4-1.9,1.9c-0.6,0.6-1.2,0.8-1.7,0.8c-1.2-0.5-2.1-1-2.7-1.6
			c-0.6-0.6-0.9-1.5-0.9-3c0-1.1,0.3-2.2,0.8-3.4c0.5-1.2,1.2-2.3,2-3.3s1.8-1.8,2.8-2.5c1.1-0.7,2.1-1,3.3-1c0.7,0,1.5,0.1,2.2,0.3
			c0.8,0.2,1.5,0.4,2.2,0.6c0.1-0.2,0.2-0.3,0.4-0.5c0.2-0.2,0.3-0.2,0.5-0.2c0.2,0,0.4,0,0.5,0.1l0.1,0.2c0,0.1,0.2,0.1,0.3,0.1
			c0,0,0.1,0,0.2-0.1l0.2,0.2c0.3,0,0.5,0,0.6-0.1l0.5,0.3c0.3-0.1,0.4,0,0.5,0.3c0.1,0.3,0.1,0.5,0.1,0.6c0,0.3-0.1,0.7-0.3,1.2
			c-0.2,0.5-0.4,1-0.6,1.6c-0.3,0.6-0.5,1.1-0.7,1.5c-0.2,0.5-0.4,0.8-0.4,1c-0.2,0.4-0.4,1.1-0.6,2C57.1,62,56.8,63,56.5,64
			c-0.3,1-0.5,2-0.7,3c-0.2,1-0.3,1.7-0.3,2.1c0,0.1,0,0.2,0,0.2c0,0,0,0.1,0,0.2c0.3,0,0.7-0.4,1.3-1c0.6-0.6,1.2-1.3,1.8-2.2
			c0.7-0.9,1.3-1.9,2.1-2.9c0.7-1.1,1.4-2.1,2-3.1c0.6-1,1.2-1.9,1.7-2.7c0.5-0.8,0.8-1.3,0.9-1.7l0.1,0.1c-0.6,1-1.1,2-1.6,3
			c-0.5,1-1.1,2-1.8,2.9l0.1,0.1c0-0.2,0.2-0.5,0.6-1c0.3-0.5,0.7-1,1.1-1.6c0.4-0.6,0.8-1.2,1.1-1.8c0.4-0.6,0.6-1.1,0.7-1.5
			l0.2,0.2c-0.5,0.9-0.9,1.6-1.2,2.2c-0.3,0.5-0.5,1-0.8,1.5c-0.2,0.5-0.3,0.7-0.3,0.8c0.1,0,0.3-0.3,0.5-0.6
			c0.2-0.4,0.4-0.7,0.6-1.2c0.2-0.4,0.4-0.8,0.6-1.3c0.2-0.4,0.4-0.7,0.6-0.9l0.2-0.4L66.4,56.5c-0.2,0.1-0.4,0.5-0.7,1.2
			c-0.3,0.6-0.5,1-0.5,1.2v0.1L66.4,56.5z M43.6,62.8c0-1.2,0.2-2.4,0.6-3.6l-0.1,0.1c-0.5,1.2-0.7,2.3-0.7,3.5
			c0,0.5,0.1,0.9,0.2,1.2C43.7,63.7,43.6,63.3,43.6,62.8z M44.1,63.3c0-0.3,0-0.5,0-0.6s0-0.4,0.1-0.6c-0.1,0.2-0.1,0.3-0.1,0.4
			c0,0.1,0,0.3,0,0.4C44,63,44,63.2,44.1,63.3z M45.1,64.2c0-0.3,0.1-0.5,0.1-0.8c0-0.3,0-0.5,0-0.8c-0.1,0.5-0.2,0.9-0.2,1.1V64.2z
			 M55.4,54.1c-0.9,0-1.9,0.3-2.9,1c-1,0.7-2,1.6-2.9,2.7c-0.9,1.1-1.6,2.2-2.2,3.4c-0.6,1.2-0.9,2.2-0.9,3v0.4
			c0.3-0.1,0.6-0.3,0.9-0.7V64c-0.1,0.1-0.3,0.2-0.5,0.4c-0.2,0.2-0.3,0.3-0.3,0.5c0.3-0.1,0.5-0.2,0.6-0.4c0.2-0.2,0.3-0.3,0.5-0.5
			c-0.2,0.4-0.4,0.6-0.6,0.7L47.2,65c0.5-0.5,1-1,1.5-1.5c0.5-0.5,1-1,1.4-1.6c-0.1,0.2-0.3,0.5-0.6,0.9c-0.3,0.4-0.6,0.7-0.7,0.9
			l0.1,0.1c0.2-0.2,0.6-0.6,1.2-1.3c0.6-0.7,1.2-1.3,1.8-2.1c0.6-0.7,1.2-1.4,1.7-2.1c0.5-0.7,0.8-1.1,0.8-1.3
			c-0.5,0.6-1,1.2-1.4,1.8c-0.5,0.6-1,1.2-1.5,1.7c0-0.2,0.2-0.4,0.5-0.7c0.3-0.3,0.5-0.7,0.8-1c0.3-0.4,0.6-0.7,0.8-1
			c0.3-0.3,0.5-0.6,0.6-0.7c0.4-0.5,0.7-1,0.8-1.5C55,55.2,55.2,54.7,55.4,54.1L55.4,54.1z M52.7,68.4c0.1-1.6,0.3-3.2,0.6-4.8
			c0.3-1.6,0.7-3.2,1.1-4.7l-0.1-0.1c-0.1,0.3-0.3,0.8-0.5,1.7c-0.2,0.9-0.4,1.8-0.6,2.8c-0.2,1-0.4,1.9-0.6,2.8s-0.2,1.3-0.2,1.5
			C52.5,67.8,52.6,68.1,52.7,68.4z M53.1,68.1c0-0.3,0.1-0.5,0.1-0.8c0-0.3,0-0.5,0-0.8v-0.1C53.1,66.7,53,67,53,67.4L53.1,68.1z
			 M54.1,68.3c0.1-0.4,0.2-0.7,0.2-0.8v-0.2c-0.1,0.2-0.1,0.3-0.1,0.4c0,0.1,0,0.3,0,0.4V68.3z"/>
		<path class="st2" d="M74.9,59.8c0.4-0.6,0.6-1.1,0.9-1.7c0.2-0.6,0.5-1.1,0.9-1.7l0.1-0.1c-0.3,0.9-0.6,2-1.1,3.2
			c-0.5,1.2-1,2.5-1.7,3.7c-0.7,1.2-1.3,2.4-2,3.6c-0.7,1.1-1.3,2-1.9,2.7c-0.2,0.2-0.4,0.4-0.7,0.5c-0.3,0.1-0.6,0.2-0.9,0.2
			c-0.4,0-0.7-0.1-1.1-0.2c-0.4-0.1-0.7-0.3-1-0.4c-1-0.5-1.8-1-2.3-1.6c-0.5-0.6-0.8-1.5-0.8-2.7c0-0.8,0.1-1.9,0.2-3.3
			c0.1-1.4,0.4-2.7,0.8-4c0.4-1.3,1-2.4,1.7-3.4c0.7-1,1.7-1.4,2.9-1.4c0.3,0,0.7,0,1.1,0.1c0.4,0.1,0.8,0.2,1.2,0.3
			c0.4,0.2,0.8,0.4,1.1,0.6c0.3,0.3,0.5,0.5,0.6,0.8c0,0.2-0.1,0.3-0.2,0.5c-0.2,0.2-0.3,0.3-0.5,0.3s-0.3,0-0.5-0.2l-0.1-0.2
			l-0.2,0.1l0.1-0.5h-0.1l-0.2,0.4L71,55.2l-0.1,0.2l-0.1-0.3l-0.1,0.4l-0.2-0.4c-0.8,0.3-1.4,0.9-2,1.9c-0.6,1-1,2-1.3,3.1
			c-0.3,1.1-0.6,2.3-0.7,3.4s-0.2,2.1-0.2,2.7c0,0.1,0,0.3,0,0.5c0,0.3,0.1,0.5,0.1,0.8c0,0.3,0.1,0.5,0.2,0.7
			c0.1,0.2,0.2,0.3,0.3,0.3c0.7,0,1.5-0.6,2.4-1.8c1-1.2,1.9-2.6,2.9-4.2c1-1.6,1.8-3.1,2.6-4.6c0.8-1.5,1.3-2.6,1.7-3.2v0.3
			c-1.4,2.9-3,5.7-4.7,8.5c-0.4,0.7-0.9,1.4-1.6,2.1c-0.6,0.7-1.1,1.4-1.4,1.9h0.1c0.6-0.4,1.2-1.1,1.9-2.2c0.7-1,1.5-2.2,2.2-3.4
			c0.7-1.3,1.4-2.5,2-3.7c0.6-1.2,1.1-2.1,1.6-2.8v0.7h-0.1c-0.3,0.6-0.6,1.1-0.9,1.7C75.4,58.6,75.1,59.2,74.9,59.8z M63.8,63
			c-0.1,0.2-0.2,0.5-0.2,0.8c0,0.3,0,0.6,0,0.8c0,0.4,0,0.8,0.1,1.3c0,0.5,0.2,0.9,0.3,1.2c-0.2-0.9-0.2-1.8-0.2-2.8
			c0-0.3,0-0.5,0-0.7C63.8,63.5,63.8,63.2,63.8,63z M64.2,66c-0.1-0.6-0.1-1.1,0-1.7c0-0.6,0.1-1.2,0.2-1.8
			c-0.1,0.4-0.2,0.8-0.2,1.2c0,0.5,0,0.9,0,1.2c0,0.2,0,0.4,0,0.6C64.1,65.7,64.1,65.9,64.2,66z M64.8,64.6c0.1-0.2,0.1-0.3,0.1-0.5
			c0-0.2,0-0.3,0-0.5c-0.1,0.2-0.2,0.3-0.2,0.5C64.8,64.3,64.8,64.4,64.8,64.6z M65.1,66.3c-0.1-0.5-0.1-1,0-1.5
			c0-0.5,0.1-1,0.2-1.5c-0.2,0.6-0.2,1.2-0.2,1.9C65.1,65.7,65.1,66.1,65.1,66.3z M69.4,67.8c0.2-0.1,0.4-0.3,0.6-0.6
			c0.3-0.3,0.5-0.6,0.8-0.9c0.3-0.4,0.5-0.7,0.7-1c0.2-0.3,0.4-0.6,0.5-0.7c-0.1,0.1-0.3,0.3-0.5,0.6c-0.3,0.3-0.5,0.6-0.8,0.9
			c-0.3,0.3-0.5,0.7-0.8,1C69.7,67.4,69.5,67.7,69.4,67.8z M72.1,64.3c0.5-0.4,0.7-0.7,0.8-1.1c-0.1,0.2-0.2,0.4-0.3,0.6
			C72.4,64,72.3,64.1,72.1,64.3z"/>
		<path class="st2" d="M75.6,71c1.4-2.7,2.9-5.4,4.5-8c1.6-2.6,3.6-4.8,6.1-6.7c0.3,0,0.5-0.2,0.8-0.5l-0.1-0.1
			c-0.9,0.4-1.7,0.9-2.5,1.6c-0.8,0.7-1.5,1.5-2.2,2.3c0.9-1.1,1.8-2.1,2.8-2.9c1-0.8,1.8-1.2,2.5-1.2c0.4,0,0.7,0.1,0.9,0.3
			c0.2,0.2,0.4,0.3,0.7,0.3c0.3,0.3,0.5,0.5,0.7,0.8c0.2,0.3,0.3,0.6,0.3,1c0,0.6-0.1,1.2-0.4,2c-0.3,0.9-0.5,1.8-0.8,2.7
			c-0.3,0.9-0.7,1.8-1.2,2.6c-1.2,1.8-2.6,3.4-4.3,4.8c-1.7,1.4-3.4,2.6-5.3,3.7l-0.1,0.2c1.2,0,2.4-0.2,3.6-0.7
			c1.2-0.5,2.4-1.1,3.6-1.9c1.2-0.8,2.3-1.7,3.4-2.7s2-2,2.9-3c-0.2,0.3-0.4,0.5-0.6,0.7c-0.2,0.2-0.4,0.4-0.6,0.6
			c-0.7,0.8-1.5,1.5-2.3,2.1c-0.8,0.7-1.6,1.4-2.3,2.2c-0.4-0.1-0.7,0.1-0.9,0.5v0.1c0.6-0.2,1.4-0.8,2.5-1.7c1.1-0.9,2.1-2,3.2-3.2
			c1.1-1.2,2.1-2.3,3.1-3.5c1-1.1,1.6-2,2-2.5c0.4-0.6,0.8-1.3,1.3-2c0.5-0.8,1-1.4,1.5-1.8c-0.1,0.3-0.4,0.9-1.1,1.8
			c-0.7,1-1.5,2-2.3,3.1c-0.9,1.1-1.7,2.1-2.5,3.1c-0.8,1-1.3,1.6-1.6,1.9c-0.3,0.3-0.7,0.7-1.2,1.1c-0.5,0.5-1,0.9-1.6,1.4
			c-0.5,0.5-1,0.9-1.5,1.4c-0.5,0.4-0.8,0.8-0.9,1c0.9-0.7,1.8-1.4,2.5-2.1c0.8-0.8,1.6-1.5,2.5-2.1c0-0.4,0.2-0.5,0.5-0.5
			c0.2-0.4,0.5-0.8,0.9-1.2c0.4-0.5,0.8-1,1.3-1.5s0.9-1,1.3-1.6c0.4-0.5,0.8-1,1.1-1.4c0.4-0.6,0.8-1.2,1.2-1.9
			c0.4-0.7,0.9-1.3,1.5-1.8l0.2-0.5h0.2c-0.2,0.4-0.5,0.8-0.8,1.1c-0.3,0.4-0.6,0.7-0.9,1.1c-0.8,1.1-1.6,2.2-2.3,3.3
			c-0.8,1.1-1.6,2.1-2.4,3.1c2.4-2.7,4.5-5.5,6.4-8.4h0.5l0.1,0.3c0.2,0,0.3,0.1,0.4,0.2c-0.6,0.6-1.2,1.3-1.7,2.1
			c-0.6,0.9-1.1,1.6-1.6,2.3c-0.8,1.1-1.7,2.3-2.8,3.6c-1.1,1.3-2.2,2.5-3.4,3.7c-1.2,1.2-2.4,2.3-3.7,3.3c-1.3,1-2.6,1.8-3.9,2.3
			c-0.4,0.2-0.8,0.3-1.3,0.3c-0.5,0.1-0.9,0.2-1.3,0.3c-0.6-0.1-1-0.2-1.3-0.2c-0.3,0-0.5-0.1-0.7-0.2c-0.2-0.1-0.4-0.2-0.6-0.3
			S77,75,76.5,74.8c-0.2,0-0.4,0.4-0.7,1.1c-0.3,0.7-0.7,1.6-1,2.5c-0.4,1-0.7,1.9-1,2.7c-0.3,0.9-0.5,1.4-0.7,1.7
			c0,0.2-0.1,0.4-0.2,0.8c-0.1,0.4-0.3,0.8-0.4,1.3c-0.2,0.5-0.3,0.9-0.5,1.4c-0.2,0.4-0.3,0.7-0.3,0.9c-0.3,0.2-0.3,0.3-0.2,0.6
			c0.1,0.2,0,0.4-0.4,0.6l-0.3-0.3l-0.2-0.3c-0.2-0.1-0.3-0.2-0.4-0.3c-0.1-0.1-0.2-0.2-0.3-0.3l-0.2,0.1c0.2-0.9,0.3-1.7,0.3-2.5
			c0.1-0.8,0.1-1.7,0.2-2.5l-0.7,4.8c-0.1-0.1-0.2-0.2-0.2-0.4c0-1,0.1-1.9,0.2-2.8c0.1-0.9,0.2-1.9,0.3-2.8c0.1-1.3,0.3-2.7,0.5-4
			c0.2-1.4,0.5-2.7,0.8-3.9c0.5-1.6,0.8-3.3,1.2-4.9c0.3-1.7,0.8-3.3,1.3-4.9c1.5-4.3,3.1-8.5,4.8-12.5c1.7-4,3.7-8,6-11.9
			c0.3-0.5,0.6-1,1.1-1.8c0.5-0.7,1-1.5,1.6-2.2c0.6-0.8,1.1-1.4,1.7-2c0.6-0.6,1.1-1,1.6-1.1c0.1,0.1,0.2,0.2,0.4,0.2
			s0.3,0.1,0.4,0.2h0.2c0.2-0.2,0.3-0.2,0.5-0.2c0.3,0,0.6,0.2,0.9,0.6c0.3,0.1,0.5,0.2,0.9,0.4c0.3,0.2,0.5,0.4,0.5,0.7
			c0,0.1-0.1,0.3-0.2,0.6c-0.1,0.3-0.2,0.5-0.3,0.6c-0.4,1.4-1.1,2.8-2.2,4.2c-1.1,1.4-2.1,2.7-2.9,3.9c-0.5,0.7-1,1.3-1.6,1.9
			c-0.6,0.6-1.1,1.2-1.5,2c-1.6,3.1-3.1,6.3-4.4,9.4c-1.3,3.1-2.6,6.3-3.9,9.6c-0.1,0.3-0.2,0.7-0.4,1.4c-0.2,0.7-0.3,1.1-0.4,1.2
			h0.1c0.4-0.4,0.8-0.9,1.1-1.6c0.3-0.7,0.6-1.2,0.9-1.7c0.3-0.5,0.8-1.2,1.4-2.2c0.7-0.9,1.4-1.9,2.1-2.8c-1.3,1.6-2.5,3.4-3.6,5.4
			c-1.1,2-2,3.7-2.6,5.1L75.6,71z M72.4,70.6c-0.5,1.9-0.8,3.9-1.1,5.8c0.1-0.5,0.2-0.9,0.3-1.4c0.1-0.5,0.2-0.9,0.3-1.4
			c0.1-0.5,0.2-0.9,0.3-1.4C72.2,71.7,72.3,71.2,72.4,70.6z M72.1,74.8L72.1,74.8l-0.2,0.3l0.1,0.2L72.1,74.8z M72.2,73.9L72.2,73.9
			l-0.3,0.5l0.1,0.1L72.2,73.9z M72.5,83.7c0.1-0.4,0.2-0.8,0.3-1.1h-0.1C72.6,82.9,72.5,83.3,72.5,83.7L72.5,83.7z M72.5,70.4
			c0.2-0.6,0.3-1.1,0.5-1.6l-0.2-0.2L72.5,70.4z M72.9,68.7c0.3-0.7,0.5-1.6,0.8-2.7c0.3-1.1,0.6-2.2,1-3.4
			c-0.6,1.7-1.1,3.4-1.6,5.2L72.9,68.7z M73,70.7c0-0.2,0-0.3,0.1-0.5c0.1-0.2,0.1-0.3,0.2-0.5h-0.1c0,0.2-0.1,0.3-0.2,0.5
			C73,70.4,72.9,70.6,73,70.7L73,70.7z M73,81.9c0.1-0.1,0.2-0.3,0.3-0.6l-0.1-0.1L73,81.9z M73.2,69.5c0.1-0.3,0.2-0.5,0.2-0.8
			c0.1-0.3,0.1-0.6,0.2-0.9C73.5,68.7,73.3,69.3,73.2,69.5L73.2,69.5z M73.6,79c0.3-0.7,0.5-1.4,0.9-2.2c0.3-0.8,0.6-1.5,0.7-2.3
			c-0.4,0.7-0.7,1.4-1,2.2C73.9,77.5,73.7,78.3,73.6,79L73.6,79z M73.6,80.6c0-0.1,0-0.3,0.1-0.5c-0.1,0.1-0.2,0.2-0.2,0.3
			L73.6,80.6L73.6,80.6z M74,71.2L74,71.2l-0.3,0.9h0.1L74,71.2z M74.1,70.6c0.1-0.5,0.3-1,0.5-1.5c0.2-0.5,0.3-0.9,0.5-1.5
			c0.2-0.5,0.3-1,0.5-1.6c-0.3,0.8-0.5,1.5-0.8,2.3C74.4,69.1,74.2,69.9,74.1,70.6L74.1,70.6z M74.9,74.6c-0.1,0.4-0.2,0.7-0.4,1
			c-0.2,0.3-0.3,0.7-0.4,1.1l0.9-2.1H74.9z M74.4,67.8c0-0.3,0.1-0.5,0.2-0.7c0-0.2,0.1-0.5,0.2-0.7C74.6,66.9,74.4,67.4,74.4,67.8
			L74.4,67.8z M75.4,64.9c0.1-0.1,0.2-0.2,0.2-0.3s0-0.2,0.2-0.3h-0.1c-0.1,0.1-0.2,0.2-0.2,0.3C75.4,64.7,75.3,64.8,75.4,64.9
			L75.4,64.9z M75.4,71.8c0,0.1,0,0.2,0,0.3c0,0.1,0,0.1,0,0.2c0,0,0.2-0.2,0.3-0.5l0.2-0.3l-0.5,1.1c0.2-0.2,0.4-0.6,0.6-1.1
			c0.3-0.5,0.5-1.1,0.8-1.7c0.3-0.6,0.6-1.2,0.8-1.7c0.3-0.6,0.5-1,0.7-1.4c1.2-2.1,2.4-4.1,3.8-5.9c1.4-1.9,3.1-3.5,5.1-4.8
			L86.8,56c-0.3,0.3-0.6,0.6-1,0.8c-0.4,0.2-0.8,0.5-1.1,0.7c-0.5,0.4-0.9,0.9-1.3,1.4c-0.4,0.5-0.8,1-1.2,1.5
			c-0.7,0.9-1.2,1.7-1.7,2.4c-0.5,0.8-1,1.5-1.4,2.2c0.1-0.2,0.2-0.3,0.3-0.4c0.1-0.1,0.2-0.3,0.2-0.5v0.2c-0.6,0.9-1.1,1.7-1.6,2.5
			c-0.5,0.8-0.9,1.6-1.3,2.5l0.4-0.8c-0.3,0.6-0.5,1.1-0.8,1.6C76,70.7,75.7,71.3,75.4,71.8z M75.7,72.8c0-0.2,0.1-0.3,0.2-0.5
			c0-0.2,0.1-0.4,0.2-0.7C75.9,72,75.8,72.4,75.7,72.8L75.7,72.8z M76.1,63.5c-0.1,0.3-0.1,0.6-0.2,0.9c-0.1,0.3-0.1,0.6-0.2,0.9
			c0.3-0.9,0.4-1.4,0.5-1.5c0.2-0.4,0.4-0.9,0.6-1.6c0.3-0.7,0.5-1.4,0.8-2.3c0.3-0.9,0.6-1.8,1-2.7c0.4-1,0.7-1.9,1.1-2.7
			c-0.2,0.4-0.3,0.7-0.5,1c-0.2,0.3-0.3,0.6-0.4,0.9c-0.3,0.6-0.5,1.1-0.6,1.7c-0.2,0.6-0.4,1.2-0.6,1.7c0,0.1-0.1,0.3-0.2,0.6
			c-0.1,0.4-0.3,0.7-0.5,1.2c-0.2,0.4-0.3,0.8-0.5,1.2C76.3,63.2,76.2,63.5,76.1,63.5z M76.8,69.3c-0.2,0.4-0.3,0.8-0.5,1.1
			c-0.2,0.4-0.3,0.7-0.5,1.1L76.8,69.3z M76,63C76,63,75.9,63.1,76,63c-0.1,0.1-0.1,0.1-0.1,0.2C75.9,63.1,75.9,63.1,76,63
			C75.9,63.1,76,63,76,63z M76.3,72.2c0.6-2,1.5-3.8,2.5-5.2c1.1-1.5,2.1-3.1,3.1-4.8c-1.2,1.6-2.3,3.3-3.3,5
			c-1,1.7-1.9,3.5-2.6,5.4H76L76.3,72.2z M76.3,60c0-0.2,0.1-0.4,0.2-0.8l-0.5,1.3L76.3,60z M77.7,54.5c-0.1,0.1-0.2,0.2-0.4,0.6
			s-0.3,0.7-0.5,1.1c-0.2,0.4-0.3,0.8-0.4,1.2c-0.1,0.4-0.2,0.7-0.3,0.8c0.5-1.3,0.9-2.3,1.3-3c0-0.1,0-0.2,0.1-0.4
			C77.6,54.7,77.6,54.6,77.7,54.5z M77.1,73.2c0.3-0.2,0.6-0.4,0.9-0.6c0.3-0.2,0.6-0.4,0.8-0.6c-0.2,0-0.5,0.2-1,0.5
			C77.3,72.8,77.1,73.1,77.1,73.2z M77.2,72.7c0.2,0,0.4-0.2,0.8-0.5c0.4-0.3,0.8-0.6,1.2-0.9c0.4-0.4,0.8-0.7,1.2-1
			s0.6-0.5,0.7-0.6c-0.4,0.2-0.8,0.4-1.2,0.7c-0.4,0.3-0.7,0.6-1,0.9c-0.1,0-0.1,0-0.1,0s0,0-0.1,0c0.6-0.5,1.3-1,2-1.8
			c0.8-0.7,1.5-1.5,2.2-2.3c0.7-0.8,1.3-1.6,1.9-2.2c0.6-0.7,1-1.2,1.2-1.6c0.4-0.6,0.6-1.1,0.9-1.7c0.2-0.6,0.5-1.1,0.7-1.7
			c0.2-0.5,0.3-1,0.4-1.5c0-0.5,0.2-1,0.4-1.4h-0.1l-0.2,0.6c-0.2,0.5-0.4,0.9-0.5,1.4c-0.1,0.5-0.3,1-0.4,1.4
			c-0.6,1.6-1.5,3.2-2.8,4.8c-1.3,1.6-2.6,2.9-3.9,4c-0.1,0.1-0.3,0.3-0.6,0.5c-0.3,0.3-0.7,0.5-1,0.8c-0.4,0.3-0.7,0.5-1,0.8
			c-0.3,0.3-0.5,0.4-0.5,0.5c0.1,0,0.3,0,0.5-0.2C77.6,72.2,77.3,72.4,77.2,72.7z M77.2,59.4L77.2,59.4l-0.1,0.2l0.1,0.1V59.4z
			 M78.7,53.4c-0.1,0.4-0.2,0.7-0.3,1c-0.1,0.3-0.3,0.6-0.5,0.9c-0.1,0.1-0.1,0.3-0.2,0.5c-0.1,0.2-0.1,0.5-0.2,0.8
			c0.2-0.3,0.3-0.5,0.3-0.8c0-0.3,0.2-0.5,0.4-0.7c0-0.1,0.2-0.4,0.3-0.8c0.2-0.4,0.2-0.7,0.2-0.8V53.4z M77.5,58.5v0.2V58.5
			L77.5,58.5z M87.9,57.3c-0.5,0.2-1,0.6-1.5,1.1c-0.5,0.5-0.9,1-1.2,1.4c-1,1.2-1.8,2.2-2.5,3c-0.7,0.9-1.2,1.7-1.8,2.5
			c-0.5,0.8-1,1.7-1.6,2.6c-0.5,0.9-1.1,2.1-1.7,3.4l0.1,0.1c0.1-0.2,0.3-0.3,0.5-0.4c0.2,0,0.4-0.2,0.5-0.4
			c0.8-0.6,1.6-1.4,2.6-2.3c1-0.9,1.9-1.9,2.8-3c0.9-1.1,1.7-2.1,2.3-3.3c0.7-1.1,1.1-2.2,1.2-3.2c0-0.3,0.1-0.5,0.2-0.8
			c0-0.3,0.1-0.5,0.2-0.8L87.9,57.3z M85.3,57.9c-0.5,0.3-1,0.7-1.6,1.4c-0.6,0.7-1.3,1.5-2,2.5c-0.7,1-1.4,2-2,3.1
			c-0.7,1.1-1.3,2.2-1.8,3.2c0.5-0.9,1.1-1.9,1.7-2.8c0.6-1,1.3-1.9,1.9-2.8c0.7-0.9,1.3-1.7,1.9-2.4c0.6-0.7,1.1-1.3,1.6-1.7
			L85.3,57.9z M78.8,71.4c-0.2,0.1-0.4,0.2-0.8,0.5L78.8,71.4z M80.4,48.4c-0.1,0.1-0.2,0.2-0.2,0.3L80.4,48.4z M88.8,33.7
			c-0.3,0.4-0.6,0.8-0.9,1.2c-0.4,0.4-0.7,0.8-0.9,1.2c-0.3,0.4-0.7,1.2-1.4,2.3c-0.7,1.2-1.4,2.4-2.1,3.6c-0.7,1.3-1.4,2.4-2,3.6
			c-0.6,1.1-0.9,1.8-1,2.2v0.1c0.4-0.4,0.6-0.7,0.7-1.1c0.1-0.4,0.3-0.8,0.5-1.2c0.6-1.1,1.1-2.1,1.8-3.2c0.6-1.1,1.2-2.1,1.9-3.2
			c0.2-0.3,0.4-0.7,0.8-1.2c0.4-0.6,0.7-1.1,1.1-1.7c0.4-0.6,0.7-1.1,1.1-1.6C88.6,34.2,88.8,33.9,88.8,33.7L88.8,33.7z M80.6,52.4
			l0.2-0.5L80.7,52L80.6,52.4z M81.4,50.6c-0.1,0.2-0.2,0.4-0.2,0.5c0.2-0.3,0.3-0.5,0.5-0.7h-0.1L81.4,50.6z M82.1,62l0.2-0.2
			l0.1-0.2L82.1,62z M84.1,66.7c0.9-0.9,1.7-1.9,2.4-3.1c0.7-1.2,1.2-2.4,1.6-3.6c-0.1,0.3-0.2,0.6-0.4,0.9
			c-0.2,0.3-0.3,0.5-0.4,0.8c-0.7,1.4-1.5,2.7-2.4,3.9c-0.3,0.4-0.6,0.8-1,1.1c-0.4,0.4-0.7,0.7-0.9,1.1l0.1,0.1l0.2-0.1
			C83.5,67.4,83.8,67,84.1,66.7z M86.1,65.2c1.2-1.7,2-3.4,2.4-5.2c0,0.1,0,0.1,0,0.1c0,0,0,0,0,0.1c-0.1,0.4-0.3,0.8-0.5,1.3
			c-0.2,0.5-0.5,0.9-0.7,1.4c-0.3,0.5-0.5,0.9-0.7,1.3C86.3,64.6,86.2,64.9,86.1,65.2z M86.5,63.9c0.1-0.1,0.2-0.2,0.2-0.3
			c0-0.1,0.1-0.2,0.2-0.3c-0.1,0.1-0.2,0.2-0.2,0.3C86.7,63.7,86.6,63.8,86.5,63.9z M86.7,64.6c0.6-0.7,1.1-1.7,1.6-2.9
			c0.5-1.2,0.8-2.3,0.8-3.2c-0.2,1.1-0.5,2.2-0.9,3.2C87.8,62.8,87.3,63.7,86.7,64.6z M87.1,62.6c0.1-0.2,0.2-0.4,0.4-0.7
			c0.2-0.3,0.3-0.6,0.5-1c0.2-0.4,0.3-0.7,0.4-1.1c0.1-0.4,0.2-0.6,0.2-0.8c-0.2,0.6-0.4,1.2-0.6,1.8C87.6,61.5,87.3,62,87.1,62.6z
			 M88.2,59.7c-0.1,0.1-0.1,0.1-0.1,0.2C88.1,59.9,88.2,59.8,88.2,59.7z M88.2,59.7c0-0.1,0-0.2,0-0.2c0,0,0-0.1,0-0.2
			c0,0.1,0,0.2,0,0.2C88.2,59.6,88.2,59.6,88.2,59.7z M88.7,57.3c-0.1,0.3-0.2,0.5-0.2,0.8c0,0.3-0.1,0.6-0.1,0.9
			c0,0.2,0,0.3-0.1,0.3c0.1-0.2,0.2-0.4,0.2-0.6c0-0.2,0.1-0.4,0.1-0.6c0-0.1,0-0.2,0-0.2c0,0,0-0.1,0-0.2V57.3z M91.5,36
			c0,0.1-0.1,0.2-0.2,0.2c-0.1,0.1-0.2,0.1-0.3,0.2c-0.3,0.3-0.5,0.6-0.6,1.1c-0.2,0.5-0.4,0.9-0.6,1.2l0.1-0.1
			c-0.4,0.5-0.8,1.2-1.2,2c0.2-0.2,0.4-0.4,0.7-0.8c0.3-0.4,0.7-0.9,1.1-1.4c0.4-0.6,0.7-1.1,1.1-1.7c0.4-0.6,0.7-1.1,0.9-1.6
			c-0.2,0.5-0.4,1-0.7,1.5c-0.3,0.5-0.6,1-0.9,1.6c0.5-0.7,1-1.3,1.4-2c0.4-0.7,0.7-1.4,0.9-2.3l0.1-0.1v-0.1c0-0.1,0-0.2-0.1-0.2
			c-0.1,0.2-0.1,0.3-0.1,0.5c0,0.2-0.1,0.3-0.2,0.4c0.1-0.3,0.2-0.5,0.2-0.6l-0.1-0.1l-0.2,0.2c-0.3,0.6-0.5,1.2-0.8,1.7
			c-0.3,0.5-0.6,1-0.9,1.4c0.3-0.5,0.6-1,0.8-1.5c0.3-0.5,0.4-0.9,0.5-1.2l-0.2,0.2c0,0.1-0.1,0.3-0.3,0.8
			C91.7,35.7,91.5,36,91.5,36z M89,40.9l0.1-0.2L88.8,41L89,40.9z M90.6,68.2l-0.3,0.3l0.2,0.1L90.6,68.2z M91.9,65.3
			c-0.1,0.1-0.1,0.1-0.1,0.2c0,0.1-0.1,0.1-0.2,0.2c0.1,0,0.2-0.1,0.2-0.2C91.8,65.4,91.9,65.3,91.9,65.3z M91.9,65.3
			c0.4-0.4,0.7-0.8,1-1.2c0.3-0.4,0.6-0.7,0.8-1.1c-0.3,0.4-0.5,0.8-0.8,1.1c-0.3,0.4-0.5,0.7-0.8,0.9L91.9,65.3z M92.8,34.4
			L92.8,34.4l-0.3,0.7L92.8,34.4z M93.6,65.3c0,0.1,0,0.1-0.1,0.2h0.1V65.3z M93.8,63c0.1-0.1,0.2-0.2,0.3-0.4s0.2-0.3,0.3-0.4
			L93.8,63z M94.1,64.8h-0.2c-0.1,0.1-0.2,0.2-0.2,0.2L94.1,64.8z M94.4,64.3c0.1-0.1,0.2-0.2,0.3-0.4c0.1-0.2,0.2-0.3,0.3-0.5
			l-0.8,0.8H94.4z M97.2,58.2c-0.3,0.4-0.7,0.9-1.1,1.5c-0.4,0.6-0.7,1-0.7,1.2c-0.3,0.2-0.5,0.5-0.8,0.9c0.5-0.7,0.9-1.4,1.3-2
			C96.3,59.1,96.8,58.6,97.2,58.2z M99.1,57.8c-0.5,0.5-0.9,1-1.2,1.5c-0.4,0.6-0.7,1.1-1.1,1.7c0.4-0.6,0.8-1.1,1.2-1.6
			c0.4-0.5,0.8-1,1.3-1.5L99.1,57.8L99.1,57.8z"/>
	</g>
</g>
</svg>
