<?xml version="1.0" encoding="utf-8"?>
<!-- Generator: Adobe Illustrator 22.1.0, SVG Export Plug-In . SVG Version: 6.00 Build 0)  -->
<svg version="1.1" id="Capa_1" xmlns="http://www.w3.org/2000/svg" xmlns:xlink="http://www.w3.org/1999/xlink" x="0px" y="0px"
	 viewBox="0 0 266 274" style="enable-background:new 0 0 266 274;" xml:space="preserve">
<style type="text/css">
	.st0{fill:#262626;}
	.st1{fill:#333333;}
</style>
<g>
	<g>
		<path class="st0" d="M114.1,117.3h-1v-10.9c0-2.5-1.8-3.9-3.5-3.9c-0.9,0-1.7,0.3-2.3,0.9c-0.7,0.7-1,1.7-1,2.9h-1
			c0-1.5,0.5-2.8,1.3-3.7c0.8-0.8,1.8-1.2,3-1.2c2.2,0,4.5,1.7,4.5,4.9V117.3z"/>
	</g>
	<g>
		<path class="st0" d="M176.7,178.4H92.3v-61.6h84.4L176.7,178.4L176.7,178.4z M93.3,177.4h82.4v-59.6H93.3V177.4z"/>
	</g>
	<g>
		<rect x="134" y="117.3" class="st0" width="1" height="60.6"/>
	</g>
	<g>
		<rect x="134.5" y="149.7" class="st0" width="41.7" height="1"/>
	</g>
	<g>
		<rect x="151.2" y="155.7" class="st0" width="8.3" height="1"/>
	</g>
	<g>
		<rect x="128" y="123.3" class="st0" width="1" height="8.3"/>
	</g>
	<g>
		<rect x="134.5" y="133.2" class="st0" width="41.7" height="1"/>
	</g>
	<g>
		<path class="st1" d="M87.2,215.6v10h0.9c0.1,0,0.2,0,0.3,0.1s0.1,0.2,0.1,0.3v0.6h-2.7v-12.1h2.7v0.6c0,0.1,0,0.2-0.1,0.3
			s-0.2,0.1-0.3,0.1L87.2,215.6L87.2,215.6z"/>
		<path class="st1" d="M107.7,222.7c0.1,0,0.1,0,0.2,0.1l0.5,0.5c-0.4,0.4-0.8,0.8-1.4,1c-0.5,0.2-1.2,0.4-2,0.4
			c-0.7,0-1.3-0.1-1.8-0.3s-1-0.6-1.4-1s-0.7-0.9-0.9-1.5c-0.2-0.6-0.3-1.2-0.3-1.9s0.1-1.3,0.3-1.9c0.2-0.6,0.5-1.1,0.9-1.5
			s0.9-0.7,1.4-1c0.6-0.2,1.2-0.3,1.9-0.3c0.7,0,1.2,0.1,1.8,0.3c0.5,0.2,1,0.5,1.3,0.9l-0.4,0.6l-0.1,0.1c0,0-0.1,0-0.2,0
			s-0.2,0-0.3-0.1s-0.3-0.2-0.4-0.3s-0.4-0.2-0.7-0.3c-0.3-0.1-0.6-0.1-1-0.1c-0.5,0-0.9,0.1-1.3,0.3s-0.7,0.4-1,0.7
			s-0.5,0.7-0.7,1.2s-0.2,1-0.2,1.5c0,0.6,0.1,1.1,0.3,1.6c0.2,0.5,0.4,0.8,0.7,1.2c0.3,0.3,0.6,0.6,1,0.7c0.4,0.2,0.8,0.2,1.3,0.2
			c0.3,0,0.5,0,0.8,0c0.2,0,0.4-0.1,0.6-0.2c0.2-0.1,0.4-0.2,0.5-0.3c0.2-0.1,0.3-0.2,0.5-0.4C107.6,222.8,107.6,222.7,107.7,222.7z
			"/>
		<path class="st1" d="M122.2,220c0,0.7-0.1,1.3-0.3,1.9c-0.2,0.6-0.5,1.1-0.9,1.5s-0.9,0.7-1.5,1c-0.6,0.2-1.2,0.3-1.9,0.3
			c-0.7,0-1.3-0.1-1.9-0.3s-1-0.6-1.4-1s-0.7-0.9-0.9-1.5c-0.2-0.6-0.3-1.2-0.3-1.9s0.1-1.3,0.3-1.9c0.2-0.6,0.5-1.1,0.9-1.5
			s0.9-0.8,1.4-1c0.6-0.2,1.2-0.4,1.9-0.4c0.7,0,1.3,0.1,1.9,0.4s1,0.6,1.5,1c0.4,0.4,0.7,0.9,0.9,1.5
			C122.1,218.7,122.2,219.3,122.2,220z M120.9,220c0-0.6-0.1-1.1-0.2-1.5c-0.2-0.5-0.4-0.8-0.7-1.2c-0.3-0.3-0.6-0.6-1-0.7
			c-0.4-0.2-0.9-0.3-1.4-0.3s-1,0.1-1.4,0.3s-0.8,0.4-1,0.7c-0.3,0.3-0.5,0.7-0.7,1.2s-0.2,1-0.2,1.5s0.1,1.1,0.2,1.5
			c0.2,0.5,0.4,0.8,0.7,1.2s0.6,0.6,1,0.7c0.4,0.2,0.9,0.3,1.4,0.3s1-0.1,1.4-0.3s0.8-0.4,1-0.7s0.5-0.7,0.7-1.2
			C120.8,221.1,120.9,220.6,120.9,220z"/>
		<path class="st1" d="M134.4,222.7c0.1,0,0.1,0,0.2,0.1l0.5,0.5c-0.4,0.4-0.8,0.8-1.4,1c-0.5,0.2-1.2,0.4-2,0.4
			c-0.7,0-1.3-0.1-1.8-0.3s-1-0.6-1.4-1s-0.7-0.9-0.9-1.5c-0.2-0.6-0.3-1.2-0.3-1.9s0.1-1.3,0.3-1.9c0.2-0.6,0.5-1.1,0.9-1.5
			s0.9-0.7,1.4-1c0.6-0.2,1.2-0.3,1.9-0.3s1.2,0.1,1.8,0.3c0.5,0.2,1,0.5,1.3,0.9l-0.4,0.6l-0.1,0.1c0,0-0.1,0-0.2,0
			c-0.1,0-0.2,0-0.3-0.1s-0.3-0.2-0.4-0.3s-0.4-0.2-0.7-0.3s-0.6-0.1-1-0.1c-0.5,0-0.9,0.1-1.3,0.3c-0.4,0.2-0.7,0.4-1,0.7
			s-0.5,0.7-0.7,1.2s-0.2,1-0.2,1.5c0,0.6,0.1,1.1,0.3,1.6s0.4,0.8,0.7,1.2c0.3,0.3,0.6,0.6,1,0.7c0.4,0.2,0.8,0.2,1.3,0.2
			c0.3,0,0.5,0,0.8,0c0.2,0,0.4-0.1,0.6-0.2c0.2-0.1,0.4-0.2,0.5-0.3c0.2-0.1,0.3-0.2,0.5-0.4C134.3,222.8,134.3,222.7,134.4,222.7z
			"/>
		<path class="st1" d="M141.7,224.7h-1.3v-9.3h1.3V224.7z"/>
		<path class="st1" d="M155.5,215.3v9.3h-0.6c-0.1,0-0.2,0-0.3-0.1c-0.1,0-0.1-0.1-0.2-0.2l-5.4-7c0,0.1,0,0.2,0,0.3s0,0.2,0,0.3
			v6.6h-1v-9.3h0.6c0.1,0,0.1,0,0.1,0h0.1c0,0,0.1,0,0.1,0.1l0.1,0.1l5.4,7c0-0.1,0-0.2,0-0.3s0-0.2,0-0.3v-6.6L155.5,215.3
			L155.5,215.3z"/>
		<path class="st1" d="M169.4,224.7h-1c-0.1,0-0.2,0-0.3-0.1s-0.1-0.1-0.2-0.2l-0.9-2.3h-4.2l-0.9,2.3c0,0.1-0.1,0.1-0.1,0.2
			s-0.2,0.1-0.3,0.1h-1l3.7-9.3h1.3L169.4,224.7z M166.8,221.2l-1.5-3.8c0-0.1-0.1-0.2-0.1-0.4s-0.1-0.3-0.1-0.5
			c-0.1,0.4-0.2,0.6-0.3,0.9l-1.5,3.8H166.8z"/>
		<path class="st1" d="M183.1,226.7h-2.7V226c0-0.1,0-0.2,0.1-0.3s0.2-0.1,0.3-0.1h0.9v-10h-0.9c-0.1,0-0.2,0-0.3-0.1
			s-0.1-0.2-0.1-0.3v-0.6h2.7V226.7z"/>
	</g>
	<g>
		<path class="st0" d="M164.7,79.1H146V56.4h18.7V79.1z M147,78.1h16.7V57.4H147V78.1z"/>
	</g>
	<g>
		<path class="st0" d="M176.3,89.6h-41.9V78.1h41.9L176.3,89.6L176.3,89.6z M135.4,88.6h39.9V79h-39.9V88.6z"/>
	</g>
</g>
</svg>
