<?xml version="1.0" encoding="utf-8"?>
<!-- Generator: Adobe Illustrator 22.1.0, SVG Export Plug-In . SVG Version: 6.00 Build 0)  -->
<svg version="1.1" id="Capa_1" xmlns="http://www.w3.org/2000/svg" xmlns:xlink="http://www.w3.org/1999/xlink" x="0px" y="0px"
	 viewBox="0 0 266 274" style="enable-background:new 0 0 266 274;" xml:space="preserve">
<style type="text/css">
	.st0{fill:none;stroke:#262626;stroke-miterlimit:10;}
	.st1{fill:#333333;}
</style>
<g>
	<g>
		<g>
			<line class="st0" x1="74.5" y1="127.2" x2="191.9" y2="127.2"/>
		</g>
		<g>
			<line class="st0" x1="167.9" y1="127.2" x2="167.9" y2="177.9"/>
		</g>
		<g>
			<line class="st0" x1="98.5" y1="127.2" x2="98.5" y2="177.9"/>
		</g>
	</g>
	<g>
		<path class="st1" d="M75.1,215.5v10.3h1.1c0.1,0,0.2,0,0.2,0.1s0.1,0.1,0.1,0.2v0.5h-2.4v-11.8h2.4v0.5c0,0.1,0,0.2-0.1,0.2
			s-0.1,0.1-0.2,0.1h-1.1V215.5z"/>
		<path class="st1" d="M95.8,222.7c0.1,0,0.1,0,0.2,0.1l0.5,0.5c-0.4,0.4-0.8,0.8-1.4,1c-0.5,0.2-1.2,0.4-2,0.4
			c-0.7,0-1.3-0.1-1.8-0.3s-1-0.6-1.4-1s-0.7-0.9-0.9-1.5c-0.2-0.6-0.3-1.2-0.3-1.9s0.1-1.3,0.3-1.9c0.2-0.6,0.5-1.1,0.9-1.5
			s0.9-0.7,1.4-1c0.6-0.2,1.2-0.3,1.9-0.3c0.7,0,1.2,0.1,1.8,0.3c0.5,0.2,1,0.5,1.3,0.9l-0.4,0.6l-0.1,0.1c0,0-0.1,0-0.2,0
			s-0.2,0-0.3-0.1s-0.3-0.2-0.4-0.3s-0.4-0.2-0.7-0.3c-0.3-0.1-0.6-0.1-1-0.1c-0.5,0-0.9,0.1-1.3,0.3s-0.7,0.4-1,0.7
			s-0.5,0.7-0.7,1.2s-0.2,1-0.2,1.5c0,0.6,0.1,1.1,0.3,1.6c0.2,0.5,0.4,0.8,0.7,1.2c0.3,0.3,0.6,0.6,1,0.7c0.4,0.2,0.8,0.2,1.3,0.2
			c0.3,0,0.5,0,0.8,0c0.2,0,0.4-0.1,0.6-0.2c0.2-0.1,0.4-0.2,0.5-0.3c0.2-0.1,0.3-0.2,0.5-0.4C95.6,222.8,95.7,222.7,95.8,222.7z"/>
		<path class="st1" d="M110.2,220c0,0.7-0.1,1.3-0.3,1.9c-0.2,0.6-0.5,1.1-0.9,1.5s-0.9,0.7-1.5,1c-0.6,0.2-1.2,0.3-1.9,0.3
			c-0.7,0-1.3-0.1-1.9-0.3s-1-0.6-1.4-1s-0.7-0.9-0.9-1.5c-0.2-0.6-0.3-1.2-0.3-1.9s0.1-1.3,0.3-1.9c0.2-0.6,0.5-1.1,0.9-1.5
			s0.9-0.8,1.4-1c0.6-0.2,1.2-0.4,1.9-0.4c0.7,0,1.3,0.1,1.9,0.4s1,0.6,1.5,1c0.4,0.4,0.7,0.9,0.9,1.5
			C110.1,218.7,110.2,219.3,110.2,220z M108.9,220c0-0.6-0.1-1.1-0.2-1.5c-0.2-0.5-0.4-0.8-0.7-1.2c-0.3-0.3-0.6-0.6-1-0.7
			c-0.4-0.2-0.9-0.3-1.4-0.3s-1,0.1-1.4,0.3s-0.8,0.4-1,0.7c-0.3,0.3-0.5,0.7-0.7,1.2s-0.2,1-0.2,1.5s0.1,1.1,0.2,1.5
			c0.2,0.5,0.4,0.8,0.7,1.2s0.6,0.6,1,0.7c0.4,0.2,0.9,0.3,1.4,0.3s1-0.1,1.4-0.3s0.8-0.4,1-0.7s0.5-0.7,0.7-1.2
			C108.8,221.1,108.9,220.6,108.9,220z"/>
		<path class="st1" d="M125.6,215.3v9.3h-1.1v-6.8c0-0.1,0-0.2,0-0.3s0-0.2,0-0.3l-3.2,5.8c-0.1,0.2-0.3,0.3-0.5,0.3h-0.2
			c-0.2,0-0.4-0.1-0.5-0.3l-3.3-5.8c0,0.2,0,0.4,0,0.6v6.8h-1.1v-9.3h0.9c0.1,0,0.2,0,0.3,0s0.1,0.1,0.2,0.2l3.2,5.7
			c0.1,0.1,0.1,0.2,0.2,0.3c0,0.1,0.1,0.2,0.1,0.3c0-0.1,0.1-0.2,0.1-0.3s0.1-0.2,0.2-0.3l3.2-5.7c0.1-0.1,0.1-0.2,0.2-0.2
			s0.2,0,0.3,0H125.6z"/>
		<path class="st1" d="M137.6,223.6v1h-5.7v-9.3h5.7v1h-4.5v3.1h3.6v1h-3.6v3.2H137.6z"/>
		<path class="st1" d="M151.4,220c0,0.7-0.1,1.3-0.3,1.9c-0.2,0.6-0.5,1.1-0.9,1.5s-0.9,0.7-1.5,0.9s-1.2,0.3-1.9,0.3h-3.5v-9.3h3.5
			c0.7,0,1.3,0.1,1.9,0.3c0.6,0.2,1,0.5,1.5,0.9c0.4,0.4,0.7,0.9,0.9,1.5C151.3,218.7,151.4,219.3,151.4,220z M150.1,220
			c0-0.6-0.1-1.1-0.2-1.5c-0.2-0.4-0.4-0.8-0.7-1.1s-0.6-0.6-1-0.7c-0.4-0.2-0.9-0.2-1.4-0.2h-2.2v7.3h2.2c0.5,0,1-0.1,1.4-0.2
			c0.4-0.2,0.8-0.4,1-0.7c0.3-0.3,0.5-0.7,0.7-1.1C150,221.1,150.1,220.6,150.1,220z"/>
		<path class="st1" d="M165.7,220c0,0.7-0.1,1.3-0.3,1.9c-0.2,0.6-0.5,1.1-0.9,1.5s-0.9,0.7-1.5,1c-0.6,0.2-1.2,0.3-1.9,0.3
			s-1.3-0.1-1.9-0.3c-0.6-0.2-1-0.6-1.4-1s-0.7-0.9-0.9-1.5s-0.3-1.2-0.3-1.9s0.1-1.3,0.3-1.9c0.2-0.6,0.5-1.1,0.9-1.5
			s0.9-0.8,1.4-1c0.6-0.2,1.2-0.4,1.9-0.4s1.3,0.1,1.9,0.4s1,0.6,1.5,1c0.4,0.4,0.7,0.9,0.9,1.5C165.6,218.7,165.7,219.3,165.7,220z
			 M164.4,220c0-0.6-0.1-1.1-0.2-1.5c-0.2-0.5-0.4-0.8-0.7-1.2c-0.3-0.3-0.6-0.6-1-0.7c-0.4-0.2-0.9-0.3-1.4-0.3s-1,0.1-1.4,0.3
			s-0.8,0.4-1,0.7c-0.3,0.3-0.5,0.7-0.7,1.2s-0.2,1-0.2,1.5s0.1,1.1,0.2,1.5c0.2,0.5,0.4,0.8,0.7,1.2s0.6,0.6,1,0.7
			c0.4,0.2,0.9,0.3,1.4,0.3s1-0.1,1.4-0.3s0.8-0.4,1-0.7s0.5-0.7,0.7-1.2C164.3,221.1,164.4,220.6,164.4,220z"/>
		<path class="st1" d="M178.3,224.7h-1.1c-0.2,0-0.4-0.1-0.5-0.3l-2.4-3.3c-0.1-0.1-0.2-0.2-0.2-0.2c-0.1,0-0.2-0.1-0.4-0.1h-1v3.9
			h-1.3v-9.3h2.6c0.6,0,1.1,0.1,1.5,0.2c0.4,0.1,0.8,0.3,1.1,0.5s0.5,0.5,0.6,0.8s0.2,0.7,0.2,1.1c0,0.3-0.1,0.6-0.2,0.9
			c-0.1,0.3-0.3,0.5-0.5,0.8c-0.2,0.2-0.4,0.4-0.7,0.6s-0.6,0.3-1,0.4c0.2,0.1,0.3,0.2,0.4,0.4L178.3,224.7z M174,219.9
			c0.4,0,0.7,0,1-0.1s0.5-0.2,0.7-0.4s0.3-0.4,0.4-0.6c0.1-0.2,0.1-0.5,0.1-0.7c0-0.6-0.2-1-0.5-1.3c-0.4-0.3-0.9-0.4-1.6-0.4h-1.4
			v3.5H174z"/>
		<path class="st1" d="M192.3,226.5h-2.4V226c0-0.1,0-0.2,0.1-0.2s0.1-0.1,0.2-0.1h1.1v-10.3h-1.1c-0.1,0-0.2,0-0.2-0.1
			s-0.1-0.1-0.1-0.2v-0.5h2.4V226.5z"/>
	</g>
	<g>
		<line class="st0" x1="133.2" y1="55.1" x2="133.2" y2="88.3"/>
	</g>
	<g>
		<line class="st0" x1="125.2" y1="88.3" x2="141.2" y2="88.3"/>
	</g>
	<g>
		<g>
			<line class="st0" x1="133.2" y1="101.4" x2="133.2" y2="96.3"/>
		</g>
		<g>
			<line class="st0" x1="142.6" y1="98.2" x2="139" y2="94.5"/>
		</g>
		<g>
			<line class="st0" x1="123.8" y1="98.2" x2="127.4" y2="94.5"/>
		</g>
	</g>
</g>
</svg>
