<?xml version="1.0" encoding="utf-8"?>
<!-- Generator: Adobe Illustrator 22.1.0, SVG Export Plug-In . SVG Version: 6.00 Build 0)  -->
<svg version="1.1" id="Capa_1" xmlns="http://www.w3.org/2000/svg" xmlns:xlink="http://www.w3.org/1999/xlink" x="0px" y="0px"
	 viewBox="0 0 254.3 54.5" style="enable-background:new 0 0 254.3 54.5;" xml:space="preserve">
<style type="text/css">
	.st0{fill:#BDC6C2;}
	.st1{fill:#FFFFFF;}
</style>
<g>
	<path class="st0" d="M28.2,1.4v45.7h3.9v2.1h-4.4c-1.4,0-2.8,0-4,0.1l-4,0.3h-1v-4.2h-0.1c-1.5,3.1-3.8,4.7-7,4.7
		c-3.1,0-5.8-1.5-8.1-4.5S0,39,0,34.6c0-4.2,1.2-7.7,3.5-10.5s5.1-4.2,8.2-4.2c2.6,0,5,1.2,7,3.6V4.2H13V2.1h5
		c1.1,0,3.1-0.1,5.8-0.3C26.5,1.5,28,1.4,28.2,1.4z M18.7,38.3v-7.6c0-2.9-0.5-5.1-1.6-6.5s-2.2-2.1-3.4-2.1c-0.9,0-1.6,0.5-2.1,1.5
		s-0.7,3.1-0.7,6.1v10.6c0,2.9,0.2,4.9,0.5,5.9c0.4,1,1,1.5,2,1.5s2.1-0.7,3.4-2C18,44.4,18.7,41.9,18.7,38.3z"/>
	<path class="st0" d="M66.6,39.9h1.9c-0.4,3.2-1.8,5.7-4.2,7.5s-5.2,2.7-8.3,2.7c-4.3,0-7.9-1.4-11-4.3s-4.6-6.3-4.6-10.4
		s1.6-7.7,4.7-10.8C48.2,21.5,52,20,56.5,20c3.1,0,5.8,0.7,8,2.2c2.2,1.5,3.4,3.4,3.4,5.8c0,1.3-0.5,2.4-1.4,3.3
		c-0.9,0.9-2.1,1.4-3.6,1.4c-1.3,0-2.5-0.4-3.4-1.3c-0.9-0.9-1.4-2-1.4-3.3c0-1.8,0.6-3,1.9-3.6c0.5-0.3,0.7-0.6,0.7-1
		s-0.4-0.7-1.2-1s-1.7-0.4-2.7-0.4c-1.8,0-3.1,0.6-4,1.9s-1.4,4.6-1.4,10c0,5.6,0.3,9.3,0.9,11.1c0.6,1.8,2.2,2.7,4.9,2.7
		C62,47.7,65.1,45.1,66.6,39.9z"/>
	<path class="st0" d="M91.9,50.1c-4.7,0-8.5-1.5-11.3-4.5s-4.2-6.5-4.2-10.5s1.4-7.6,4.3-10.6S87.3,20,91.9,20
		c4.7,0,8.4,1.5,11.3,4.5s4.3,6.5,4.3,10.6s-1.4,7.6-4.3,10.6C100.3,48.7,96.6,50.1,91.9,50.1z M91.9,21.8c-1.2,0-2.2,0.3-3,0.9
		s-1.2,1.5-1.4,2.7s-0.2,4.4-0.2,9.6c0,5,0.1,8.1,0.2,9.3c0.2,1.1,0.6,2.1,1.4,2.8c0.8,0.7,1.9,1.1,3.2,1.1c1.1,0,2-0.3,2.8-0.9
		s1.3-1.7,1.5-3.4c0.2-1.6,0.2-4.4,0.2-8.3c0-6.1-0.2-9.9-0.7-11.5C95.5,22.6,94.1,21.8,91.9,21.8z"/>
</g>
<g>
	<path class="st1" d="M143.3,49.9V34c0-3.9-2-7.4-6.1-7.4c-4,0-6.3,3.5-6.3,7.4v15.8h-7.3V20.2h6.8l0.5,3.6c1.6-3,5-4.1,7.8-4.1
		c3.5,0,7.1,1.4,8.8,5.5c2.6-4.2,6.1-5.4,9.9-5.4c8.4,0,12.5,5.2,12.5,14v16h-7.3v-16c0-3.9-1.6-7.2-5.6-7.2s-6.4,3.4-6.4,7.3v15.8
		h-7.3L143.3,49.9L143.3,49.9z"/>
	<path class="st1" d="M191.3,12c0,5.7-8.6,5.7-8.6,0S191.3,6.3,191.3,12z M183.4,20.2v29.7h7.3V20.2H183.4z"/>
	<path class="st1" d="M234,7.9v41.9h-6.8l-0.5-4.1c-2.3,3.5-5.9,4.7-9.5,4.7c-8.7,0-15.2-5.8-15.2-15.5c0-10.2,6.4-15.5,15.1-15.5
		c3.1,0,8,1.7,9.7,4.7V7.9H234z M209.2,35.1c0,5.2,3.7,8.7,8.4,8.7c4.6,0,8.6-3.4,8.6-8.7c0-5.2-4-8.6-8.6-8.6
		C212.9,26.4,209.2,29.7,209.2,35.1z"/>
	<path class="st1" d="M254.3,12c0,5.7-8.6,5.7-8.6,0S254.3,6.3,254.3,12z M246.4,20.2v29.7h7.3V20.2H246.4z"/>
</g>
</svg>
