<?xml version="1.0" encoding="utf-8"?>
<!-- Generator: Adobe Illustrator 22.1.0, SVG Export Plug-In . SVG Version: 6.00 Build 0)  -->
<svg version="1.1" id="Capa_1" xmlns="http://www.w3.org/2000/svg" xmlns:xlink="http://www.w3.org/1999/xlink" x="0px" y="0px"
	 viewBox="0 0 266 274" style="enable-background:new 0 0 266 274;" xml:space="preserve">
<style type="text/css">
	.st0{fill:none;stroke:#262626;stroke-miterlimit:10;}
	.st1{fill:#333333;}
</style>
<g>
	<g>
		<line class="st0" x1="159.9" y1="144.5" x2="168.2" y2="144.5"/>
	</g>
	<g>
		<polyline class="st0" points="85.2,177.9 85.2,127.2 180.3,127.2 180.3,177.9 		"/>
	</g>
	<g>
		<line class="st0" x1="85.2" y1="138.5" x2="180.3" y2="138.5"/>
	</g>
	<g>
		<line class="st0" x1="147.6" y1="150.6" x2="180.3" y2="150.6"/>
	</g>
	<g>
		<polyline class="st0" points="147.6,138.5 147.6,150.6 180.3,150.6 		"/>
	</g>
	<g>
		<path class="st1" d="M71.6,215.5v10.3h1.1c0.1,0,0.2,0,0.2,0.1s0.1,0.1,0.1,0.2v0.5h-2.4v-11.8H73v0.5c0,0.1,0,0.2-0.1,0.2
			s-0.1,0.1-0.2,0.1h-1.1V215.5z"/>
		<path class="st1" d="M93.8,220c0,0.7-0.1,1.3-0.3,1.9c-0.2,0.6-0.5,1.1-0.9,1.5s-0.9,0.7-1.5,0.9s-1.2,0.3-1.9,0.3h-3.5v-9.3h3.5
			c0.7,0,1.3,0.1,1.9,0.3s1,0.5,1.5,0.9c0.4,0.4,0.7,0.9,0.9,1.5C93.7,218.7,93.8,219.3,93.8,220z M92.5,220c0-0.6-0.1-1.1-0.2-1.5
			c-0.2-0.4-0.4-0.8-0.7-1.1c-0.3-0.3-0.6-0.6-1-0.7c-0.4-0.2-0.9-0.2-1.4-0.2H87v7.3h2.2c0.5,0,1-0.1,1.4-0.2
			c0.4-0.2,0.8-0.4,1-0.7c0.3-0.3,0.5-0.7,0.7-1.1C92.4,221.1,92.5,220.6,92.5,220z"/>
		<path class="st1" d="M105.2,223.6v1h-5.7v-9.3h5.7v1h-4.5v3.1h3.6v1h-3.6v3.2H105.2z"/>
		<path class="st1" d="M115.7,216.8c0,0.1-0.1,0.1-0.1,0.1s-0.1,0-0.2,0s-0.2,0-0.3-0.1c-0.1-0.1-0.2-0.2-0.4-0.2
			c-0.1-0.1-0.3-0.2-0.5-0.2c-0.2-0.1-0.5-0.1-0.8-0.1s-0.5,0-0.7,0.1s-0.4,0.2-0.5,0.3s-0.3,0.3-0.3,0.5s-0.1,0.4-0.1,0.6
			c0,0.3,0.1,0.5,0.2,0.6c0.1,0.2,0.3,0.3,0.5,0.4s0.4,0.2,0.7,0.3c0.3,0.1,0.5,0.2,0.8,0.3s0.6,0.2,0.8,0.3s0.5,0.3,0.7,0.5
			s0.4,0.4,0.5,0.7s0.2,0.6,0.2,1s-0.1,0.8-0.2,1.1c-0.1,0.4-0.3,0.7-0.6,0.9s-0.6,0.5-1,0.6c-0.4,0.2-0.8,0.2-1.3,0.2
			c-0.6,0-1.2-0.1-1.7-0.3s-0.9-0.5-1.3-0.9l0.4-0.6l0.1-0.1c0,0,0.1,0,0.2,0s0.1,0,0.2,0.1c0.1,0,0.2,0.1,0.2,0.2
			c0.1,0.1,0.2,0.1,0.3,0.2c0.1,0.1,0.3,0.2,0.4,0.2c0.1,0.1,0.3,0.1,0.5,0.2c0.2,0,0.4,0.1,0.6,0.1c0.3,0,0.6,0,0.8-0.1
			s0.4-0.2,0.6-0.3c0.2-0.2,0.3-0.3,0.4-0.5s0.1-0.4,0.1-0.7s-0.1-0.5-0.2-0.7s-0.3-0.3-0.5-0.5c-0.2-0.1-0.4-0.2-0.7-0.3
			c-0.3-0.1-0.5-0.2-0.8-0.3s-0.6-0.2-0.8-0.3s-0.5-0.3-0.7-0.5s-0.4-0.4-0.5-0.7s-0.2-0.6-0.2-1c0-0.3,0.1-0.6,0.2-1
			c0.1-0.3,0.3-0.6,0.6-0.8s0.5-0.4,0.9-0.6c0.4-0.1,0.8-0.2,1.2-0.2c0.5,0,1,0.1,1.4,0.2s0.8,0.4,1.1,0.7L115.7,216.8z"/>
		<path class="st1" d="M124.6,215.3c0.6,0,1.1,0.1,1.5,0.2c0.4,0.1,0.8,0.3,1.1,0.6c0.3,0.3,0.5,0.6,0.6,0.9s0.2,0.8,0.2,1.2
			s-0.1,0.8-0.2,1.2c-0.2,0.4-0.4,0.7-0.7,0.9s-0.7,0.5-1.1,0.6s-0.9,0.2-1.5,0.2H123v3.5h-1.3v-9.3L124.6,215.3L124.6,215.3z
			 M124.6,220.2c0.4,0,0.7,0,1-0.1s0.5-0.2,0.7-0.4s0.3-0.4,0.4-0.6c0.1-0.2,0.1-0.5,0.1-0.8c0-0.6-0.2-1.1-0.5-1.4
			c-0.4-0.3-0.9-0.5-1.7-0.5h-1.5v3.8H124.6z"/>
		<path class="st1" d="M140.5,224.7h-1c-0.1,0-0.2,0-0.3-0.1s-0.1-0.1-0.2-0.2l-0.9-2.3H134l-0.9,2.3c0,0.1-0.1,0.1-0.1,0.2
			s-0.2,0.1-0.3,0.1h-1l3.7-9.3h1.3L140.5,224.7z M137.9,221.2l-1.5-3.8c0-0.1-0.1-0.2-0.1-0.4s-0.1-0.3-0.1-0.5
			c-0.1,0.4-0.2,0.6-0.3,0.9l-1.5,3.8H137.9z"/>
		<path class="st1" d="M151.9,222.7c0.1,0,0.1,0,0.2,0.1l0.5,0.5c-0.4,0.4-0.8,0.8-1.4,1c-0.5,0.2-1.2,0.4-2,0.4
			c-0.7,0-1.3-0.1-1.8-0.3s-1-0.6-1.4-1s-0.7-0.9-0.9-1.5s-0.3-1.2-0.3-1.9s0.1-1.3,0.3-1.9c0.2-0.6,0.5-1.1,0.9-1.5s0.9-0.7,1.4-1
			c0.6-0.2,1.2-0.3,1.9-0.3s1.2,0.1,1.8,0.3c0.5,0.2,1,0.5,1.3,0.9L152,217l-0.1,0.1c0,0-0.1,0-0.2,0c-0.1,0-0.2,0-0.3-0.1
			s-0.3-0.2-0.4-0.3s-0.4-0.2-0.7-0.3s-0.6-0.1-1-0.1c-0.5,0-0.9,0.1-1.3,0.3c-0.4,0.2-0.7,0.4-1,0.7s-0.5,0.7-0.7,1.2
			s-0.2,1-0.2,1.5c0,0.6,0.1,1.1,0.3,1.6s0.4,0.8,0.7,1.2c0.3,0.3,0.6,0.6,1,0.7c0.4,0.2,0.8,0.2,1.3,0.2c0.3,0,0.5,0,0.8,0
			c0.2,0,0.4-0.1,0.6-0.2c0.2-0.1,0.4-0.2,0.5-0.3C151.5,223.1,151.6,223,151.9,222.7C151.8,222.8,151.8,222.7,151.9,222.7z"/>
		<path class="st1" d="M165.5,215.3v9.3h-1.3v-4.2h-5v4.2h-1.3v-9.3h1.3v4.2h5v-4.2H165.5z"/>
		<path class="st1" d="M180.4,220c0,0.7-0.1,1.3-0.3,1.9c-0.2,0.6-0.5,1.1-0.9,1.5s-0.9,0.7-1.5,1c-0.6,0.2-1.2,0.3-1.9,0.3
			s-1.3-0.1-1.9-0.3c-0.6-0.2-1-0.6-1.4-1s-0.7-0.9-0.9-1.5s-0.3-1.2-0.3-1.9s0.1-1.3,0.3-1.9c0.2-0.6,0.5-1.1,0.9-1.5
			s0.9-0.8,1.4-1c0.6-0.2,1.2-0.4,1.9-0.4s1.3,0.1,1.9,0.4s1,0.6,1.5,1c0.4,0.4,0.7,0.9,0.9,1.5C180.3,218.7,180.4,219.3,180.4,220z
			 M179.1,220c0-0.6-0.1-1.1-0.2-1.5c-0.2-0.5-0.4-0.8-0.7-1.2c-0.3-0.3-0.6-0.6-1-0.7c-0.4-0.2-0.9-0.3-1.4-0.3s-1,0.1-1.4,0.3
			s-0.8,0.4-1,0.7c-0.3,0.3-0.5,0.7-0.7,1.2s-0.2,1-0.2,1.5s0.1,1.1,0.2,1.5c0.2,0.5,0.4,0.8,0.7,1.2s0.6,0.6,1,0.7
			c0.4,0.2,0.9,0.3,1.4,0.3s1-0.1,1.4-0.3s0.8-0.4,1-0.7s0.5-0.7,0.7-1.2C179,221.1,179.1,220.6,179.1,220z"/>
		<path class="st1" d="M194.9,226.5h-2.4V226c0-0.1,0-0.2,0.1-0.2s0.1-0.1,0.2-0.1h1.1v-10.3h-1.1c-0.1,0-0.2,0-0.2-0.1
			s-0.1-0.1-0.1-0.2v-0.5h2.4V226.5z"/>
	</g>
	<g>
		<rect x="94.2" y="55.1" class="st0" width="48.4" height="27.5"/>
	</g>
	<g>
		<line class="st0" x1="103.9" y1="55.1" x2="103.9" y2="82.5"/>
	</g>
	<g>
		<line class="st0" x1="142.6" y1="55.1" x2="142.6" y2="82.5"/>
	</g>
	<g>
		<line class="st0" x1="113.6" y1="55.1" x2="113.6" y2="82.5"/>
	</g>
	<g>
		<line class="st0" x1="123.2" y1="55.1" x2="123.2" y2="82.5"/>
	</g>
	<g>
		<line class="st0" x1="132.9" y1="55.1" x2="132.9" y2="82.5"/>
	</g>
	<g>
		<line class="st0" x1="94.2" y1="82.5" x2="142.6" y2="82.5"/>
	</g>
	<g>
		<line class="st0" x1="94.2" y1="73.4" x2="142.6" y2="73.4"/>
	</g>
	<g>
		<line class="st0" x1="94.2" y1="64.2" x2="142.6" y2="64.2"/>
	</g>
</g>
</svg>
