<?xml version="1.0" encoding="utf-8"?>
<!-- Generator: Adobe Illustrator 22.1.0, SVG Export Plug-In . SVG Version: 6.00 Build 0)  -->
<svg version="1.1" id="Capa_1" xmlns="http://www.w3.org/2000/svg" xmlns:xlink="http://www.w3.org/1999/xlink" x="0px" y="0px"
	 viewBox="0 0 266 274" style="enable-background:new 0 0 266 274;" xml:space="preserve">
<style type="text/css">
	.st0{fill:none;stroke:#262626;stroke-miterlimit:10;}
	.st1{fill:#333333;}
</style>
<g>
	<g>
		<g>
			<line class="st0" x1="84.2" y1="147.6" x2="101.9" y2="147.6"/>
		</g>
		<g>
			<line class="st0" x1="74.4" y1="119.9" x2="74.4" y2="177.9"/>
		</g>
		<g>
			<line class="st0" x1="190.3" y1="140.9" x2="190.3" y2="177.9"/>
		</g>
		<g>
			<line class="st0" x1="190.3" y1="156.6" x2="74.4" y2="156.6"/>
		</g>
	</g>
	<g>
		<path class="st1" d="M59.8,215.5v10.3h1.1c0.1,0,0.2,0,0.2,0.1s0.1,0.1,0.1,0.2v0.5h-2.4v-11.8h2.4v0.5c0,0.1,0,0.2-0.1,0.2
			s-0.1,0.1-0.2,0.1h-1.1V215.5z"/>
		<path class="st1" d="M82,220c0,0.7-0.1,1.3-0.3,1.9c-0.2,0.6-0.5,1.1-0.9,1.5s-0.9,0.7-1.5,0.9s-1.2,0.3-1.9,0.3H74v-9.3h3.5
			c0.7,0,1.3,0.1,1.9,0.3s1,0.5,1.5,0.9s0.7,0.9,0.9,1.5C81.9,218.7,82,219.3,82,220z M80.7,220c0-0.6-0.1-1.1-0.2-1.5
			c-0.2-0.4-0.4-0.8-0.7-1.1s-0.6-0.6-1-0.7c-0.4-0.2-0.9-0.2-1.4-0.2h-2.2v7.3h2.2c0.5,0,1-0.1,1.4-0.2c0.4-0.2,0.8-0.4,1-0.7
			c0.3-0.3,0.5-0.7,0.7-1.1C80.7,221.1,80.7,220.6,80.7,220z"/>
		<path class="st1" d="M96.3,220c0,0.7-0.1,1.3-0.3,1.9c-0.2,0.6-0.5,1.1-0.9,1.5s-0.9,0.7-1.5,1c-0.6,0.2-1.2,0.3-1.9,0.3
			c-0.7,0-1.3-0.1-1.9-0.3s-1-0.6-1.5-1c-0.4-0.4-0.7-0.9-0.9-1.5c-0.2-0.6-0.3-1.2-0.3-1.9s0.1-1.3,0.3-1.9
			c0.2-0.6,0.5-1.1,0.9-1.5s0.9-0.8,1.5-1s1.2-0.4,1.9-0.4c0.7,0,1.3,0.1,1.9,0.4s1,0.6,1.5,1c0.4,0.4,0.7,0.9,0.9,1.5
			C96.2,218.7,96.3,219.3,96.3,220z M95.1,220c0-0.6-0.1-1.1-0.2-1.5s-0.4-0.8-0.7-1.2c-0.3-0.3-0.6-0.6-1-0.7
			c-0.4-0.2-0.9-0.3-1.4-0.3s-1,0.1-1.4,0.3s-0.8,0.4-1,0.7c-0.3,0.3-0.5,0.7-0.7,1.2s-0.2,1-0.2,1.5s0.1,1.1,0.2,1.5
			s0.4,0.8,0.7,1.2s0.6,0.6,1,0.7c0.4,0.2,0.9,0.3,1.4,0.3s1-0.1,1.4-0.3s0.8-0.4,1-0.7s0.5-0.7,0.7-1.2S95.1,220.6,95.1,220z"/>
		<path class="st1" d="M108.9,224.7h-1.1c-0.2,0-0.4-0.1-0.5-0.3l-2.4-3.3c-0.1-0.1-0.2-0.2-0.2-0.2c-0.1,0-0.2-0.1-0.4-0.1h-1v3.9
			H102v-9.3h2.6c0.6,0,1.1,0.1,1.5,0.2s0.8,0.3,1.1,0.5c0.3,0.2,0.5,0.5,0.6,0.8s0.2,0.7,0.2,1.1c0,0.3-0.1,0.6-0.2,0.9
			c-0.1,0.3-0.3,0.5-0.5,0.8c-0.2,0.2-0.4,0.4-0.7,0.6c-0.3,0.2-0.6,0.3-1,0.4c0.2,0.1,0.3,0.2,0.4,0.4L108.9,224.7z M104.6,219.9
			c0.4,0,0.7,0,1-0.1s0.5-0.2,0.7-0.4s0.3-0.4,0.4-0.6c0.1-0.2,0.1-0.5,0.1-0.7c0-0.6-0.2-1-0.5-1.3c-0.4-0.3-0.9-0.4-1.6-0.4h-1.4
			v3.5H104.6z"/>
		<path class="st1" d="M123.8,215.3v9.3h-1.1v-6.8c0-0.1,0-0.2,0-0.3s0-0.2,0-0.3l-3.2,5.8c-0.1,0.2-0.3,0.3-0.5,0.3h-0.2
			c-0.2,0-0.4-0.1-0.5-0.3l-3.3-5.8c0,0.2,0,0.4,0,0.6v6.8h-1.1v-9.3h0.9c0.1,0,0.2,0,0.3,0s0.1,0.1,0.2,0.2l3.2,5.7
			c0.1,0.1,0.1,0.2,0.2,0.3c0,0.1,0.1,0.2,0.1,0.3c0-0.1,0.1-0.2,0.1-0.3s0.1-0.2,0.2-0.3l3.2-5.7c0.1-0.1,0.1-0.2,0.2-0.2
			s0.2,0,0.3,0H123.8z"/>
		<path class="st1" d="M131.3,224.7H130v-9.3h1.3V224.7z"/>
		<path class="st1" d="M143.9,216.4h-3v8.3h-1.3v-8.3h-3v-1.1h7.3V216.4z"/>
		<path class="st1" d="M157.4,220c0,0.7-0.1,1.3-0.3,1.9c-0.2,0.6-0.5,1.1-0.9,1.5s-0.9,0.7-1.5,1c-0.6,0.2-1.2,0.3-1.9,0.3
			s-1.3-0.1-1.9-0.3c-0.6-0.2-1-0.6-1.5-1c-0.4-0.4-0.7-0.9-0.9-1.5s-0.3-1.2-0.3-1.9s0.1-1.3,0.3-1.9c0.2-0.6,0.5-1.1,0.9-1.5
			s0.9-0.8,1.5-1s1.2-0.4,1.9-0.4s1.3,0.1,1.9,0.4s1,0.6,1.5,1c0.4,0.4,0.7,0.9,0.9,1.5C157.3,218.7,157.4,219.3,157.4,220z
			 M156.1,220c0-0.6-0.1-1.1-0.2-1.5s-0.4-0.8-0.7-1.2c-0.3-0.3-0.6-0.6-1-0.7c-0.4-0.2-0.9-0.3-1.4-0.3s-1,0.1-1.4,0.3
			s-0.8,0.4-1,0.7c-0.3,0.3-0.5,0.7-0.7,1.2s-0.2,1-0.2,1.5s0.1,1.1,0.2,1.5s0.4,0.8,0.7,1.2s0.6,0.6,1,0.7c0.4,0.2,0.9,0.3,1.4,0.3
			s1-0.1,1.4-0.3s0.8-0.4,1-0.7s0.5-0.7,0.7-1.2S156.1,220.6,156.1,220z"/>
		<path class="st1" d="M170,224.7h-1.1c-0.2,0-0.4-0.1-0.5-0.3l-2.4-3.3c-0.1-0.1-0.2-0.2-0.2-0.2c-0.1,0-0.2-0.1-0.4-0.1h-1v3.9
			h-1.3v-9.3h2.6c0.6,0,1.1,0.1,1.5,0.2c0.4,0.1,0.8,0.3,1.1,0.5s0.5,0.5,0.6,0.8s0.2,0.7,0.2,1.1c0,0.3-0.1,0.6-0.2,0.9
			c-0.1,0.3-0.3,0.5-0.5,0.8c-0.2,0.2-0.4,0.4-0.7,0.6c-0.3,0.2-0.6,0.3-1,0.4c0.2,0.1,0.3,0.2,0.4,0.4L170,224.7z M165.6,219.9
			c0.4,0,0.7,0,1-0.1s0.5-0.2,0.7-0.4s0.3-0.4,0.4-0.6c0.1-0.2,0.1-0.5,0.1-0.7c0-0.6-0.2-1-0.5-1.3s-0.9-0.4-1.6-0.4h-1.4v3.5
			H165.6z"/>
		<path class="st1" d="M176.4,224.7h-1.3v-9.3h1.3V224.7z"/>
		<path class="st1" d="M191.3,220c0,0.7-0.1,1.3-0.3,1.9c-0.2,0.6-0.5,1.1-0.9,1.5s-0.9,0.7-1.5,1c-0.6,0.2-1.2,0.3-1.9,0.3
			s-1.3-0.1-1.9-0.3c-0.6-0.2-1-0.6-1.4-1s-0.7-0.9-0.9-1.5s-0.3-1.2-0.3-1.9s0.1-1.3,0.3-1.9c0.2-0.6,0.5-1.1,0.9-1.5
			s0.9-0.8,1.4-1s1.2-0.4,1.9-0.4s1.3,0.1,1.9,0.4s1,0.6,1.5,1c0.4,0.4,0.7,0.9,0.9,1.5C191.1,218.7,191.3,219.3,191.3,220z
			 M190,220c0-0.6-0.1-1.1-0.2-1.5c-0.2-0.5-0.4-0.8-0.7-1.2c-0.3-0.3-0.6-0.6-1-0.7c-0.4-0.2-0.9-0.3-1.4-0.3s-1,0.1-1.4,0.3
			s-0.8,0.4-1,0.7c-0.3,0.3-0.5,0.7-0.7,1.2s-0.2,1-0.2,1.5s0.1,1.1,0.2,1.5c0.2,0.5,0.4,0.8,0.7,1.2s0.6,0.6,1,0.7
			c0.4,0.2,0.9,0.3,1.4,0.3s1-0.1,1.4-0.3s0.8-0.4,1-0.7s0.5-0.7,0.7-1.2C189.9,221.1,190,220.6,190,220z"/>
		<path class="st1" d="M205.8,226.5h-2.4V226c0-0.1,0-0.2,0.1-0.2s0.1-0.1,0.2-0.1h1.1v-10.3h-1.1c-0.1,0-0.2,0-0.2-0.1
			s-0.1-0.1-0.1-0.2v-0.5h2.4V226.5z"/>
	</g>
	<g>
		<g>
			<rect x="139.5" y="55.1" class="st0" width="17.5" height="22.7"/>
		</g>
		<g>
			<rect x="162.4" y="64.9" class="st0" width="8.7" height="12.9"/>
		</g>
	</g>
	<g>
		<line class="st0" x1="132.8" y1="77.8" x2="177.9" y2="77.8"/>
	</g>
</g>
</svg>
