<?xml version="1.0" encoding="utf-8"?>
<!-- Generator: Adobe Illustrator 22.1.0, SVG Export Plug-In . SVG Version: 6.00 Build 0)  -->
<svg version="1.1" id="Capa_1" xmlns="http://www.w3.org/2000/svg" xmlns:xlink="http://www.w3.org/1999/xlink" x="0px" y="0px"
	 viewBox="0 0 266 274" style="enable-background:new 0 0 266 274;" xml:space="preserve">
<style type="text/css">
	.st0{fill:#333333;}
	.st1{fill:none;stroke:#262626;stroke-miterlimit:10;}
</style>
<g>
	<g>
		<path class="st0" d="M75.8,217.5v10.3h1.1c0.1,0,0.2,0,0.2,0.1s0.1,0.1,0.1,0.2v0.5h-2.4v-11.8h2.4v0.5c0,0.1,0,0.2-0.1,0.2
			s-0.1,0.1-0.2,0.1h-1.1V217.5z"/>
		<path class="st0" d="M95.7,225.6v1H90v-9.3h5.7v1h-4.5v3.1h3.6v1h-3.6v3.2H95.7z"/>
		<path class="st0" d="M108.9,217.3v9.3h-0.6c-0.1,0-0.2,0-0.3-0.1s-0.1-0.1-0.2-0.2l-5.4-7c0,0.1,0,0.2,0,0.3s0,0.2,0,0.3v6.6h-1.1
			v-9.3h0.7c0.1,0,0.1,0,0.1,0h0.1c0,0,0.1,0,0.1,0.1l0.1,0.1l5.4,7c0-0.1,0-0.2,0-0.3s0-0.2,0-0.3v-6.6L108.9,217.3L108.9,217.3z"
			/>
		<path class="st0" d="M121.5,218.4h-3v8.3h-1.3v-8.3h-3v-1.1h7.3V218.4z"/>
		<path class="st0" d="M133.6,226.7h-1.1c-0.2,0-0.4-0.1-0.5-0.3l-2.4-3.3c-0.1-0.1-0.2-0.2-0.2-0.2c-0.1,0-0.2-0.1-0.4-0.1h-1v3.9
			h-1.3v-9.3h2.6c0.6,0,1.1,0.1,1.5,0.2c0.4,0.1,0.8,0.3,1.1,0.5s0.5,0.5,0.6,0.8s0.2,0.7,0.2,1.1c0,0.3-0.1,0.6-0.2,0.9
			c-0.1,0.3-0.3,0.5-0.5,0.8c-0.2,0.2-0.4,0.4-0.7,0.6c-0.3,0.2-0.6,0.3-1,0.4c0.2,0.1,0.3,0.2,0.4,0.4L133.6,226.7z M129.3,221.9
			c0.4,0,0.7,0,1-0.1s0.5-0.2,0.7-0.4s0.3-0.4,0.4-0.6c0.1-0.2,0.1-0.5,0.1-0.7c0-0.6-0.2-1-0.5-1.3s-0.9-0.4-1.6-0.4H128v3.5H129.3
			z"/>
		<path class="st0" d="M146.4,226.7h-1c-0.1,0-0.2,0-0.3-0.1s-0.1-0.1-0.2-0.2l-0.9-2.3h-4.2l-0.9,2.3c0,0.1-0.1,0.1-0.1,0.2
			c-0.1,0.1-0.2,0.1-0.3,0.1h-1l3.7-9.3h1.3L146.4,226.7z M143.7,223.2l-1.5-3.8c0-0.1-0.1-0.2-0.1-0.4s-0.1-0.3-0.1-0.5
			c-0.1,0.4-0.2,0.6-0.3,0.9l-1.5,3.8H143.7z"/>
		<path class="st0" d="M159.6,222c0,0.7-0.1,1.3-0.3,1.9s-0.5,1.1-0.9,1.5s-0.9,0.7-1.5,0.9s-1.2,0.3-1.9,0.3h-3.5v-9.3h3.5
			c0.7,0,1.3,0.1,1.9,0.3s1,0.5,1.5,0.9c0.4,0.4,0.7,0.9,0.9,1.5S159.6,221.3,159.6,222z M158.3,222c0-0.6-0.1-1.1-0.2-1.5
			c-0.2-0.4-0.4-0.8-0.7-1.1s-0.6-0.6-1-0.7c-0.4-0.2-0.9-0.2-1.4-0.2h-2.2v7.3h2.2c0.5,0,1-0.1,1.4-0.2c0.4-0.2,0.8-0.4,1-0.7
			c0.3-0.3,0.5-0.7,0.7-1.1C158.2,223.1,158.3,222.6,158.3,222z"/>
		<path class="st0" d="M172.6,226.7h-1c-0.1,0-0.2,0-0.3-0.1s-0.1-0.1-0.2-0.2l-0.9-2.3H166l-0.9,2.3c0,0.1-0.1,0.1-0.1,0.2
			c-0.1,0.1-0.2,0.1-0.3,0.1h-1l3.7-9.3h1.3L172.6,226.7z M170,223.2l-1.5-3.8c0-0.1-0.1-0.2-0.1-0.4s-0.1-0.3-0.1-0.5
			c-0.1,0.4-0.2,0.6-0.3,0.9l-1.5,3.8H170z"/>
		<path class="st0" d="M186.1,228.5h-2.4V228c0-0.1,0-0.2,0.1-0.2s0.1-0.1,0.2-0.1h1.1v-10.3H184c-0.1,0-0.2,0-0.2-0.1
			s-0.1-0.1-0.1-0.2v-0.5h2.4V228.5z"/>
	</g>
	<g>
		<g>
			<line class="st1" x1="169.5" y1="179.9" x2="161.2" y2="179.9"/>
		</g>
		<g>
			<line class="st1" x1="134.8" y1="128" x2="126.6" y2="128"/>
		</g>
		<g>
			<rect x="91.3" y="57.3" class="st1" width="49.5" height="122.7"/>
		</g>
		<g>
			<line class="st1" x1="165.3" y1="179.9" x2="165.3" y2="79.7"/>
		</g>
		<g>
			<line class="st1" x1="165.3" y1="97" x2="173.8" y2="89"/>
		</g>
		<g>
			<line class="st1" x1="165.3" y1="113.7" x2="173.8" y2="105.7"/>
		</g>
		<g>
			<line class="st1" x1="157.3" y1="97.1" x2="165.3" y2="105.6"/>
		</g>
		<g>
			<line class="st1" x1="157.3" y1="113.8" x2="165.3" y2="122.3"/>
		</g>
	</g>
</g>
</svg>
