<?xml version="1.0" encoding="utf-8"?>
<!-- Generator: Adobe Illustrator 22.1.0, SVG Export Plug-In . SVG Version: 6.00 Build 0)  -->
<svg version="1.1" id="Capa_1" xmlns="http://www.w3.org/2000/svg" xmlns:xlink="http://www.w3.org/1999/xlink" x="0px" y="0px"
	 viewBox="0 0 266 274" style="enable-background:new 0 0 266 274;" xml:space="preserve">
<style type="text/css">
	.st0{fill:#333333;}
	.st1{fill:none;stroke:#262626;stroke-miterlimit:10;}
</style>
<g>
	<g>
		<path class="st0" d="M78.6,215.5v10.3h1.1c0.1,0,0.2,0,0.2,0.1s0.1,0.1,0.1,0.2v0.5h-2.4v-11.8H80v0.5c0,0.1,0,0.2-0.1,0.2
			s-0.1,0.1-0.2,0.1h-1.1V215.5z"/>
		<path class="st0" d="M94,224.7h-1.3v-9.3H94V224.7z"/>
		<path class="st0" d="M107.8,215.3v9.3h-0.6c-0.1,0-0.2,0-0.3-0.1c-0.1,0-0.1-0.1-0.2-0.2l-5.4-7c0,0.1,0,0.2,0,0.3s0,0.2,0,0.3
			v6.6h-1.1v-9.3h0.6c0.1,0,0.1,0,0.1,0h0.1c0,0,0.1,0,0.1,0.1l0.1,0.1l5.4,7c0-0.1,0-0.2,0-0.3s0-0.2,0-0.3v-6.6L107.8,215.3
			L107.8,215.3z"/>
		<path class="st0" d="M115.4,216.4v3.3h3.8v1h-3.8v4h-1.3v-9.3h5.7v1H115.4z"/>
		<path class="st0" d="M132.2,224.7h-1c-0.1,0-0.2,0-0.3-0.1s-0.1-0.1-0.2-0.2l-0.9-2.3h-4.2l-0.9,2.3c0,0.1-0.1,0.1-0.1,0.2
			s-0.2,0.1-0.3,0.1h-1l3.7-9.3h1.3L132.2,224.7z M129.6,221.2l-1.5-3.8c0-0.1-0.1-0.2-0.1-0.4s-0.1-0.3-0.1-0.5
			c-0.1,0.4-0.2,0.6-0.3,0.9l-1.5,3.8H129.6z"/>
		<path class="st0" d="M144.9,215.3v9.3h-0.6c-0.1,0-0.2,0-0.3-0.1c-0.1,0-0.1-0.1-0.2-0.2l-5.4-7c0,0.1,0,0.2,0,0.3s0,0.2,0,0.3
			v6.6h-1.1v-9.3h0.6c0.1,0,0.1,0,0.1,0h0.1c0,0,0.1,0,0.1,0.1l0.1,0.1l5.4,7c0-0.1,0-0.2,0-0.3s0-0.2,0-0.3v-6.6L144.9,215.3
			L144.9,215.3z"/>
		<path class="st0" d="M157.4,216.4h-3v8.3h-1.3v-8.3h-3v-1.1h7.3V216.4z"/>
		<path class="st0" d="M164,224.7h-1.3v-9.3h1.3V224.7z"/>
		<path class="st0" d="M175.5,223.6v1.1h-5.3v-9.3h1.3v8.3h4V223.6z"/>
		<path class="st0" d="M189.3,226.5h-2.4V226c0-0.1,0-0.2,0.1-0.2s0.1-0.1,0.2-0.1h1.1v-10.3h-1.1c-0.1,0-0.2,0-0.2-0.1
			s-0.1-0.1-0.1-0.2v-0.5h2.4V226.5z"/>
	</g>
	<g>
		<g>
			<g>
				<line class="st1" x1="99.3" y1="118.3" x2="99.3" y2="177.9"/>
			</g>
			<g>
				<line class="st1" x1="167.6" y1="118.3" x2="167.6" y2="177.9"/>
			</g>
			<g>
				<line class="st1" x1="154" y1="134.6" x2="154" y2="167.3"/>
			</g>
			<g>
				<line class="st1" x1="140.3" y1="134.6" x2="140.3" y2="167.3"/>
			</g>
			<g>
				<line class="st1" x1="126.6" y1="134.6" x2="126.6" y2="167.3"/>
			</g>
			<g>
				<line class="st1" x1="113" y1="134.6" x2="113" y2="167.3"/>
			</g>
			<g>
				<line class="st1" x1="167.6" y1="167.3" x2="99.3" y2="167.3"/>
			</g>
			<g>
				<line class="st1" x1="167.6" y1="134.6" x2="99.3" y2="134.6"/>
			</g>
		</g>
		<g>
			<polyline class="st1" points="129.7,58.8 133.5,67.9 137.4,58.8 			"/>
		</g>
		<g>
			<polyline class="st1" points="116.1,57.7 118.8,67.2 123.8,58.6 			"/>
		</g>
		<g>
			<polyline class="st1" points="151,57.7 148.3,67.2 143.3,58.6 			"/>
		</g>
		<g>
			<path class="st1" d="M99.4,55.1c18.5,5.4,54.4,4.6,68.3,0"/>
		</g>
	</g>
</g>
</svg>
