<?xml version="1.0" encoding="utf-8"?>
<!-- Generator: Adobe Illustrator 22.1.0, SVG Export Plug-In . SVG Version: 6.00 Build 0)  -->
<svg version="1.1" id="Capa_1" xmlns="http://www.w3.org/2000/svg" xmlns:xlink="http://www.w3.org/1999/xlink" x="0px" y="0px"
	 viewBox="0 0 196.3 115.7" style="enable-background:new 0 0 196.3 115.7;" xml:space="preserve">
<style type="text/css">
	.st0{fill:#BDC6C2;}
	.st1{fill:#FFFFFF;}
</style>
<g>
	<g>
		<path class="st0" d="M63.6,74.7c-0.1,0.6-0.5,1.5-1.1,2.6c-0.7,1.2-1.5,2.3-2.4,3.6c-0.9,1.2-1.8,2.4-2.7,3.5s-1.5,2-1.9,2.6
			c-0.1,0.1-0.2,0.4-0.3,0.8c-0.2,0.4-0.3,0.9-0.5,1.4s-0.3,1-0.4,1.5c-0.1,0.5-0.2,0.8-0.3,1.1c-0.1,0.4-0.3,0.9-0.5,1.5
			s-0.4,1.1-0.7,1.6s-0.6,1-0.9,1.4c-0.4,0.4-0.8,0.6-1.4,0.7c-0.1,0-0.3,0.1-0.5,0c-0.3,0-0.5-0.1-0.7-0.1
			c-0.2-0.1-0.4-0.2-0.6-0.3c-0.2-0.1-0.3-0.2-0.3-0.3c-0.1-0.6-0.1-1.3,0.3-2c0.3-0.7,0.7-1.4,1.1-2.2s0.9-1.4,1.5-2.1
			c0.5-0.7,0.9-1.3,1.2-1.8c0.1-0.1,0.3-0.6,0.4-1.3c0.1-0.7,0.3-1.6,0.5-2.5c0.2-1,0.5-2,0.7-3.1c0.3-1.1,0.4-2.2,0.7-3.2
			c0.2-1.1,0.4-2,0.6-2.8c0.1-0.9,0.3-1.5,0.4-1.9v-0.1l-0.1,0.1c-0.3,0.6-0.7,1.4-1,2.4c-0.4,1-0.8,2-1.2,3.1c-0.5,1-0.8,2-1.3,3
			c-0.4,0.9-0.8,1.7-1.2,2.1c-0.2,0.2-0.4,0.5-0.5,0.5c-0.1,0.1-0.3,0.2-0.6,0.2c-0.1,0-0.3,0-0.5-0.1c-0.3,0-0.4-0.1-0.5-0.2
			c-0.4-0.1-0.7-0.2-0.9-0.3s-0.4-0.2-0.5-0.4c-0.1-0.2-0.3-0.3-0.3-0.6s-0.2-0.5-0.3-1c-0.1-0.3-0.1-0.6-0.1-1s-0.1-0.8-0.1-1.2
			s0.1-0.9,0.1-1.2c0.1-0.4,0.2-0.7,0.4-0.9c0-0.1,0-0.3,0.2-0.4l0.1,0.2v-0.1l0.3,0.1l0.2-0.1l0.1,0.3l0.1-0.2l0.1,0.2l0.1-0.2
			l0.3,0.1l0.1-0.1c0.2,0.1,0.3,0.2,0.4,0.4c0.2,0.8,0.2,1.6,0.1,2.4c-0.1,0.9-0.1,1.6,0.1,2.3l0.1,0.3c0.3-0.3,0.5-0.7,0.7-1.1
			c0.2-0.3,0.4-0.7,0.6-1.2c0.1-0.3,0.3-0.6,0.5-1c0.1-0.3,0.3-0.6,0.6-1l-1.3,2.8h0.1c0.2-0.2,0.4-0.5,0.6-0.8
			c0.1-0.3,0.3-0.6,0.4-0.9c0.1-0.3,0.3-0.6,0.4-0.9s0.3-0.6,0.5-0.9c-0.1,0.2-0.1,0.5-0.2,0.7c-0.1,0.3-0.3,0.6-0.5,0.9
			c-0.1,0.3-0.3,0.6-0.5,0.9c-0.1,0.3-0.3,0.5-0.3,0.8c0.5-0.7,0.9-1.5,1.1-2.4c0.3-0.9,0.7-1.7,1.1-2.4c-0.2,0.5-0.4,1-0.6,1.5
			c-0.3,0.5-0.5,1-0.6,1.5h0.1c0.2-0.5,0.5-0.9,0.7-1.4c0.3-0.4,0.5-0.9,0.7-1.4l1.5-3.4c0.3-0.5,0.5-1.1,0.7-1.6
			c0.3-0.5,0.5-1,0.5-1.7c0.1-0.2,0.1-0.4,0.1-0.7c0-0.3,0.1-0.6,0.1-0.9s0.1-0.6,0.2-0.9c0-0.3,0.2-0.5,0.3-0.6l0.1,0.2h0.1
			l0.1-0.2l0.2,0.1l0.3-0.1l0.1,0.2l0.3-0.2c0,0,0.1,0.1,0.3,0.1c0.1,0,0.2,0.1,0.2,0.1s0.1,0.2,0.1,0.3c0.1,0.5,0,1.6-0.1,3
			c-0.2,1.4-0.4,3-0.8,4.7c-0.3,1.7-0.6,3.2-0.9,4.7c-0.3,1.5-0.5,2.6-0.6,3.1l0.1,0.1c0.3-0.3,0.8-0.8,1.3-1.5s1.1-1.4,1.6-2.3
			c0.6-0.8,1.1-1.6,1.6-2.4s0.9-1.4,1.2-1.8v0.1c-0.1,0.3-0.3,0.5-0.4,0.7c-0.1,0.2-0.3,0.5-0.4,0.7l0.2-0.2
			c0.1-0.2,0.2-0.4,0.3-0.6s0.3-0.4,0.4-0.7l0.1,0.4c-0.1,0.3-0.3,0.6-0.3,0.8c-0.1,0.3-0.3,0.5-0.5,0.9c0.1,0,0.2-0.1,0.3-0.3
			c0.1-0.2,0.2-0.4,0.3-0.6s0.3-0.4,0.3-0.6c0.1-0.2,0.2-0.3,0.3-0.4c-0.1,0.2-0.1,0.4-0.2,0.5v0.1c0.1-0.1,0.2-0.1,0.2-0.2
			c0.1,0,0.2-0.1,0.1-0.2c0-0.1,0.1-0.1,0.1-0.2l0.1-0.2l0.3-0.1l0.1,0.1L63.6,74.7L63.6,74.7z M48.6,96.4c-0.1-0.4-0.1-0.8,0-1.3
			c0.2-0.5,0.4-1,0.6-1.6c0.3-0.5,0.5-1,0.8-1.5c0.3-0.4,0.5-0.9,0.7-1.2l-0.1-0.1c-0.2,0.2-0.5,0.6-0.7,1.1c-0.3,0.4-0.6,1-0.8,1.5
			c-0.3,0.5-0.5,1-0.6,1.6c-0.2,0.5-0.2,1-0.1,1.2C48.5,96.3,48.5,96.3,48.6,96.4z M50.7,91.3c-0.2,0.3-0.4,0.7-0.7,1.1
			c-0.2,0.4-0.5,0.8-0.7,1.2c-0.2,0.4-0.4,0.8-0.5,1.3c-0.1,0.4-0.1,0.9,0,1.2v0.2c-0.1-0.3,0-0.5,0-0.8s0.2-0.6,0.2-0.7
			c0.1-0.2,0.1-0.4,0.2-0.8c0.1-0.3,0.2-0.7,0.5-1c0.2-0.3,0.3-0.6,0.5-0.9C50.4,91.7,50.6,91.5,50.7,91.3L50.7,91.3z M48.9,95.5
			c0,0.3-0.1,0.6,0,0.8V95.5z M49.2,96.3c0-0.5,0-0.9,0.1-1.3c0.1-0.5,0.2-0.9,0.4-1.3c-0.1,0.2-0.3,0.6-0.4,1.2
			c-0.2,0.6-0.2,1-0.1,1.2V96.3C49.1,96.1,49.2,96.2,49.2,96.3z M49.4,96.4c0.1-0.2,0-0.4,0-0.6s-0.1-0.4,0-0.6
			c-0.1,0.2,0,0.4-0.1,0.5c0,0.2,0,0.3,0,0.5L49.4,96.4L49.4,96.4z M46.9,82.2c0,0.1-0.1,0.2,0,0.4c0.1,0.3,0.2,0.5,0.3,0.8
			L46.9,82.2z M49.9,95.8c0.1,0,0.2-0.2,0.4-0.5s0.3-0.7,0.4-1.1c0.1-0.4,0.3-0.8,0.4-1.2s0.3-0.6,0.2-0.8c-0.2,0.1-0.4,0.4-0.5,0.7
			c-0.2,0.3-0.3,0.6-0.5,1c-0.1,0.4-0.2,0.7-0.3,1.1C50,95.3,50,95.6,49.9,95.8z M47.4,82.7c-0.1-0.3-0.1-0.5-0.1-0.7
			s-0.1-0.5-0.1-0.7c0,0.3-0.1,0.7,0,0.9C47.4,82.5,47.4,82.6,47.4,82.7z M48.1,81.2c0,0.3,0,0.6,0,0.8c-0.1,0.2,0,0.5,0,0.7
			l0.2,0.3L48.1,81.2z M47.3,77.7c0.1,0,0.2-0.1,0.1-0.3L47.3,77.7z M53.1,87c0-0.1,0-0.2,0.1-0.2L53.1,87L53.1,87z M53.4,85.9
			L53.4,85.9C53.3,85.9,53.3,85.9,53.4,85.9c-0.1,0.1-0.1,0.1-0.1,0.2v0.1L53.4,85.9z M53.5,85.4L53.5,85.4L53.5,85.4
			c-0.1,0.1-0.1,0.1-0.1,0.2l0,0L53.5,85.4z M53.6,84.9L53.6,84.9l-0.1,0.2h0.1V84.9z M53.6,84.7c0,0,0.1-0.1,0.1-0.2L53.6,84.7
			L53.6,84.7z M53.7,84.2L53.7,84.2l0.1-0.2L53.7,84.2z M53.8,83.7L53.8,83.7v0.2V83.7L53.8,83.7z M53.9,83.4
			C53.9,83.4,53.9,83.5,53.9,83.4L53.9,83.4L53.9,83.4z M54,83c0,0.1,0,0.2,0,0.3V83L54,83z M54.4,81.4L54.4,81.4
			c-0.1,0.1-0.1,0.3-0.2,0.7c0,0.4-0.1,0.6-0.1,0.7l0.1,0.1c0-0.1,0-0.3,0.1-0.5c0-0.3,0.1-0.5,0.1-0.6L54.4,81.4z M54.5,80.9
			L54.5,80.9c-0.1,0-0.1,0.1-0.1,0.2L54.5,80.9z M54.5,80.6c0-0.1,0-0.2,0-0.4V80.6L54.5,80.6z M56.3,71.5c-0.4,1.4-0.7,2.8-0.9,4.2
			s-0.5,2.8-0.7,4.3c0.1-0.5,0.2-1.2,0.3-2c0.2-0.9,0.3-1.8,0.5-2.6c0.2-0.9,0.3-1.7,0.5-2.4C56.1,72.3,56.2,71.8,56.3,71.5
			L56.3,71.5L56.3,71.5z"/>
	</g>
	<g>
		<path class="st0" d="M84,71.2L84,71.2c-0.1,0.3-0.2,0.7-0.4,1c-0.1,0.3-0.2,0.7-0.3,1l0.1,0.1c0-0.3,0.2-0.6,0.3-0.9
			c0.1-0.3,0.3-0.6,0.4-0.9c0,0.5,0,1.3-0.3,2.3c-0.3,1.1-0.5,2.2-0.8,3.4c-0.3,1.2-0.7,2.3-0.9,3.4c-0.3,1.1-0.6,1.8-0.7,2.3
			c-0.1,0.3-0.3,1-0.5,2.1c-0.3,1-0.6,2-0.9,3.2c-0.3,1.1-0.6,2.1-1,3c-0.3,0.9-0.7,1.4-0.9,1.4s-0.7,0-1.1-0.2
			c-0.5-0.2-0.9-0.3-1.3-0.5c-0.3-0.2-0.6-0.3-0.9-0.6s-0.4-0.6-0.6-0.9s-0.3-0.8-0.4-1.3c-0.3-1.5-0.4-3.1-0.4-4.7s0.2-3.2,0.4-4.8
			c0.1-0.6,0.2-1.5,0.5-2.8c0.2-1.3,0.6-2.8,0.9-4.3c0.3-1.6,0.8-3.3,1.3-5s1-3.3,1.5-4.7c0.6-1.4,1.1-2.7,1.7-3.6
			c0.6-1,1.1-1.5,1.7-1.7c0.1,0,0.2,0,0.4,0c0.2,0,0.4,0,0.6,0c0.2,0.1,0.4,0,0.6,0.1s0.3,0,0.3,0.1c0.1,0,0.2,0,0.3,0
			c0.1,0.1,0.2,0.1,0.2,0.2c0,0.2,0.1,0.3,0,0.4c0.1,0.2,0.3,0.3,0.4,0.4c0.1,0.1,0.2,0.3,0.2,0.6c0.2,0.8,0.2,1.8-0.1,2.8
			c-0.2,1-0.5,2-0.9,2.9c-0.4,1-0.8,2-1.3,2.9s-1,1.8-1.4,2.4c-0.3,0.5-0.6,1.1-1.1,1.6s-0.7,1.2-0.9,1.7c-0.3,1.1-0.6,2.3-0.8,3.8
			c-0.3,1.5-0.5,3-0.7,4.6c-0.2,1.5-0.3,3.1-0.3,4.6c-0.1,1.5,0.1,2.8,0.3,3.8l0.1,0.5l0.2-0.1c0.3-0.8,0.6-1.6,0.8-2.5
			c0.2-0.9,0.4-1.7,0.6-2.5s0.5-1.8,1-3.2c0.4-1.4,0.9-2.9,1.4-4.4s1-3,1.6-4.4c0.6-1.3,0.9-2.4,1.3-3.1v0.2
			c-1.2,3.3-2.3,6.8-3.4,10.1c-1.1,3.3-2.1,6.7-3.1,10.2c0.3-0.4,0.6-1.2,0.8-2c0.2-0.9,0.3-1.6,0.5-2.2c0.8-2.7,1.6-5.4,2.6-7.9
			c0.9-2.6,1.9-5.3,2.8-7.9l0,0L84,71.2z M74.5,89.2c-0.3-1.5-0.4-3.3-0.3-5.2s0.2-3.6,0.5-5.3c0-0.4,0.1-0.7,0.2-1.1s0.1-0.7,0.1-1
			c-0.3,0.6-0.4,1.5-0.5,2.7s-0.2,2.4-0.2,3.6s-0.1,2.5,0,3.6C74.2,87.7,74.3,88.6,74.5,89.2c0,0.6,0.2,1,0.5,1.3
			c-0.1-0.2-0.2-0.3-0.2-0.7C74.6,89.6,74.5,89.3,74.5,89.2z M74.6,87c0.1-0.1,0.1-0.2,0-0.4c0-0.1,0-0.2-0.1-0.4l-0.1-0.1
			c0.1,0.4,0.1,0.8,0.1,1.2c0,0.4,0,0.9,0.1,1.2c0,0.2,0.1,0.4,0.1,0.5c0,0.2,0.1,0.4,0.1,0.5c-0.1-0.5-0.2-0.9-0.2-1.5
			C74.8,88,74.7,87.6,74.6,87z M75.8,90.1c-0.1-0.5-0.2-1.1-0.2-1.6c0-0.6,0-1-0.1-1.6c-0.1,1,0,1.9,0.2,2.9
			C75.7,89.9,75.8,90,75.8,90.1z M79.3,71c0.3-0.4,0.6-1.1,1.1-1.7c0.3-0.6,0.8-1.4,1.2-2.1c0.4-0.7,0.7-1.6,1-2.4s0.6-1.6,0.7-2.4
			c0,0.1,0,0.1,0,0.2c0,0,0,0.1,0,0.2l0.1,0.1c0.2-0.6,0.2-1.2,0.4-1.7s0.1-1.2,0-1.8c0-0.1,0-0.2,0-0.2c0-0.1,0-0.2,0-0.2h-0.1
			c0.1,0.6,0.1,1.2,0.1,1.5c0,0.4-0.1,0.7-0.2,1c0.1-0.8,0.2-1.4,0.1-2.1c0-0.2-0.1-0.3-0.2-0.3c0,0.2,0.1,0.4,0.1,0.5
			c0,0.2,0.1,0.4,0,0.6c0.1,0.3-0.1,0.7-0.1,1.2s-0.2,1.2-0.4,1.8c-0.2,0.6-0.3,1.2-0.6,1.7c-0.2,0.5-0.4,0.8-0.5,1
			c0.2-0.5,0.4-1,0.5-1.5c0.2-0.5,0.5-1,0.6-1.6c0.2-0.5,0.3-1.1,0.4-1.7s0.1-1,0-1.6l-0.1-0.3c-0.1,0.2,0,0.4,0,0.7
			c0,0.2,0.1,0.5,0,0.7c0-0.2-0.1-0.4,0-0.6c0.1-0.2-0.1-0.4-0.1-0.5c0.1,0.5,0.1,1.1,0,1.5c-0.1,0.5-0.2,0.9-0.4,1.3
			c0.1-0.4,0.1-0.8,0.2-1.3c0-0.4,0-0.9-0.1-1.2v-0.1c-0.1,0.1,0,0.3-0.1,0.6c0,0.3,0,0.6-0.1,0.7c0-0.1,0-0.3,0-0.4
			c0-0.1,0-0.2,0-0.4h-0.1c-0.1,0.3-0.4,0.9-0.7,1.7c-0.3,0.8-0.7,1.7-1,2.6s-0.6,1.7-0.9,2.5c-0.2,0.8-0.4,1.3-0.4,1.5l-0.1,0.1
			c0.4,0.3,0.4,0.4,0.3,0.5c-0.1,0.2-0.1,0.4-0.1,0.5c-0.1,0.2-0.1,0.4-0.2,0.5l0.1,0.1c0.4-0.5,0.7-1.2,1-1.8
			c0.3-0.6,0.6-1.2,1-1.7l-0.1,0.2c-0.1,0.2-0.3,0.4-0.5,0.9c-0.2,0.3-0.4,0.7-0.7,1.2c-0.2,0.4-0.4,0.8-0.6,1.2
			c-0.2,0.3-0.3,0.6-0.3,0.8v0.1L79.3,71z M82.6,63.7c0-0.3,0.1-0.6,0.1-0.8c0-0.3,0.2-0.5,0.3-0.8L82.6,63.7z M83.6,61.3
			c0,0.3-0.1,0.7-0.3,1.1C83.5,62,83.5,61.7,83.6,61.3z M84.1,59.6L84.1,59.6l0.1-0.2h-0.1V59.6z"/>
	</g>
	<g>
		<path class="st0" d="M92.6,69.5L92.6,69.5c-0.1,0.3-0.2,0.7-0.4,1c-0.1,0.3-0.2,0.7-0.3,1l0.1,0.1c0-0.3,0.2-0.6,0.3-0.9
			c0.1-0.3,0.3-0.6,0.4-0.9c0,0.5,0,1.3-0.3,2.3c-0.3,1.1-0.5,2.2-0.8,3.4c-0.3,1.2-0.7,2.3-0.9,3.4c-0.3,1.1-0.6,1.8-0.7,2.3
			c-0.1,0.3-0.3,1-0.5,2.1c-0.3,1.1-0.5,2.1-0.9,3.3c-0.3,1.1-0.6,2.1-1,3c-0.3,0.9-0.7,1.4-0.9,1.4c-0.3,0.1-0.7,0-1.1-0.2
			c-0.5-0.2-0.9-0.3-1.3-0.5c-0.3-0.2-0.6-0.3-0.9-0.6c-0.2-0.2-0.4-0.6-0.6-0.9c-0.2-0.5-0.3-1-0.4-1.5c-0.3-1.5-0.4-3.1-0.4-4.7
			c0.1-1.6,0.2-3.2,0.4-4.8c0.1-0.6,0.2-1.5,0.5-2.8c0.2-1.3,0.6-2.8,0.9-4.3c0.3-1.6,0.8-3.3,1.3-5s1-3.3,1.5-4.7
			c0.6-1.4,1.1-2.7,1.7-3.6c0.6-1,1.1-1.5,1.7-1.7c0.1,0,0.2,0,0.4,0c0.2,0,0.4,0,0.6,0c0.2,0.1,0.4,0,0.6,0.1s0.3,0,0.3,0.1
			c0.1,0,0.2,0,0.3,0c0.1,0.1,0.2,0.1,0.2,0.2c0,0.2,0.1,0.3,0,0.4c0.1,0.2,0.3,0.3,0.4,0.4c0.1,0.1,0.2,0.3,0.2,0.6
			c0.2,0.8,0.2,1.8-0.1,2.8c-0.2,1-0.5,2-0.9,2.9c-0.4,1-0.8,2-1.3,2.9s-1,1.8-1.4,2.4c-0.3,0.5-0.6,1.1-1.1,1.6s-0.7,1.2-0.9,1.7
			c-0.3,1.1-0.6,2.3-0.8,3.8c-0.3,1.5-0.5,3-0.7,4.6c-0.2,1.5-0.3,3.1-0.3,4.6c-0.1,1.5,0.1,2.8,0.3,3.8l0.1,0.5l0.2-0.1
			c0.3-0.8,0.6-1.6,0.8-2.5s0.4-1.7,0.6-2.5s0.5-1.8,1-3.2c0.4-1.4,0.9-2.9,1.4-4.4s1-3,1.6-4.4c0.6-1.3,0.9-2.4,1.3-3.1v0.2
			c-1.2,3.3-2.3,6.8-3.4,10.1c-1.1,3.3-2.1,6.7-3.1,10.2c0.3-0.4,0.6-1.2,0.8-2s0.3-1.6,0.5-2.2c0.8-2.7,1.6-5.4,2.6-7.9
			c0.9-2.6,1.9-5.3,2.8-7.9v0.2L92.6,69.5z M83,87.5c-0.3-1.5-0.4-3.3-0.3-5.2c0.1-1.9,0.2-3.6,0.5-5.3c0-0.4,0.1-0.7,0.2-1.1
			s0.1-0.7,0.1-1c-0.3,0.6-0.4,1.5-0.5,2.7s-0.2,2.4-0.2,3.6s-0.1,2.5,0,3.6C82.7,86,82.8,86.9,83,87.5c0,0.6,0.2,1,0.5,1.3
			c-0.1-0.2-0.2-0.3-0.2-0.7C83.2,87.9,83,87.6,83,87.5z M83.2,85.3c0.1-0.1,0.1-0.2,0-0.4c0-0.1,0-0.2-0.1-0.4H83
			c0.1,0.4,0.1,0.8,0.1,1.2c0,0.4,0,0.9,0.1,1.2c0,0.2,0.1,0.4,0.1,0.5c0,0.2,0.1,0.4,0.1,0.5c-0.1-0.5-0.2-0.9-0.2-1.5
			C83.4,86.3,83.3,85.8,83.2,85.3z M84.4,88.4c-0.1-0.5-0.2-1.1-0.2-1.6s0-1-0.1-1.6c-0.1,1,0,1.9,0.2,2.9
			C84.3,88.2,84.4,88.3,84.4,88.4z M87.9,69.3c0.3-0.4,0.6-1.1,1.1-1.7c0.3-0.6,0.8-1.4,1.2-2.1c0.4-0.7,0.7-1.6,1-2.4
			s0.6-1.6,0.7-2.4c0,0.1,0,0.1,0,0.2c0,0,0,0.1,0,0.2l0.1,0.1c0.2-0.6,0.2-1.2,0.4-1.7c0.2-0.5,0.1-1.2,0-1.8c0-0.1,0-0.2,0-0.2
			c0-0.1,0-0.2,0-0.2h-0.1c0.1,0.6,0.1,1.2,0.1,1.5c0,0.4-0.1,0.7-0.2,1c0.1-0.8,0.2-1.4,0.1-2.1c0-0.2-0.1-0.3-0.2-0.3
			c0,0.2,0.1,0.4,0.1,0.5c0,0.2,0.1,0.4,0,0.6c0.1,0.3-0.1,0.7-0.1,1.2s-0.2,1.2-0.4,1.8s-0.3,1.2-0.6,1.7c-0.2,0.5-0.4,0.8-0.5,1
			c0.2-0.5,0.4-1,0.5-1.5c0.2-0.5,0.5-1,0.6-1.6c0.2-0.5,0.3-1.1,0.4-1.7c0.1-0.6,0.1-1,0-1.6L92,57.5c-0.1,0.2,0,0.4,0,0.7
			c0,0.2,0.1,0.5,0,0.7c0-0.2-0.1-0.4,0-0.6c0.1-0.2-0.1-0.4-0.1-0.5c0.1,0.5,0.1,1.1,0,1.5c-0.1,0.5-0.2,0.9-0.4,1.3
			c0.1-0.4,0.1-0.8,0.2-1.3c0-0.4,0-0.9-0.1-1.2V58c-0.1,0.1,0,0.3-0.1,0.6c0,0.3,0,0.6-0.1,0.7c0-0.1,0-0.3,0-0.4s0-0.2,0-0.4h-0.1
			c-0.1,0.3-0.4,0.9-0.7,1.7c-0.3,0.8-0.7,1.7-1,2.6c-0.3,0.9-0.6,1.7-0.9,2.5c-0.2,0.8-0.4,1.3-0.4,1.5l0.4,0.2
			c-0.1,0.2-0.1,0.3-0.2,0.4c-0.1,0.2-0.1,0.4-0.1,0.5c-0.1,0.2-0.1,0.4-0.2,0.5l0.1,0.1c0.4-0.5,0.7-1.2,1-1.8
			c0.3-0.6,0.6-1.2,1-1.7l-0.1,0.2c-0.1,0.2-0.3,0.4-0.5,0.9c-0.2,0.3-0.4,0.7-0.7,1.2c-0.2,0.4-0.4,0.8-0.6,1.2
			c-0.2,0.3-0.3,0.6-0.3,0.8v0.1L87.9,69.3z M91.2,62c0-0.3,0.1-0.6,0.1-0.8c0-0.3,0.2-0.5,0.3-0.8L91.2,62z M92.2,59.6
			c0,0.3-0.1,0.7-0.3,1.1C92.1,60.3,92.1,60,92.2,59.6z M92.7,57.9L92.7,57.9l0.1-0.2h-0.1V57.9z"/>
	</g>
	<g>
		<path class="st0" d="M105.1,65.2l-0.1,0.4c-0.2,0.7-0.7,1.7-1.2,3s-1.2,2.4-1.9,3.7c-0.7,1.2-1.5,2.3-2.4,3.2
			c-0.9,0.9-1.7,1.5-2.6,1.6c-0.4,0.1-0.7,0.1-1.1,0c-0.4,0-0.8-0.1-1.1-0.3c-0.6-0.3-1.1-0.4-1.6-0.6c-0.4-0.2-0.9-0.5-1.2-0.7
			c-0.3-0.3-0.6-0.6-0.8-1.2c-0.2-0.4-0.4-1.1-0.5-1.7c-0.1-0.4-0.2-0.8-0.1-1.2c0-0.5,0-0.9,0-1.2c0.1-0.2,0.3-0.5,0.3-0.8
			s0.2-0.6,0.3-0.8c0.1-0.3,0.3-0.5,0.5-0.8s0.6-0.4,1-0.5c0.1,0,0.3-0.1,0.5,0c0.3,0,0.6,0,0.9,0s0.6,0.1,0.8,0
			c0.3,0,0.4,0.1,0.4,0.1c0.1,0,0.3-0.1,0.4,0s0.2,0.1,0.2,0.1l0.1,0.3l-0.1,0.1c0.1,0.3,0.3,0.4,0.4,0.6s0.3,0.3,0.3,0.6
			c0.1,0.4,0.1,0.7,0,1.1c0,0.5-0.2,0.9-0.3,1.3c-0.2,0.4-0.4,0.8-0.7,1.1c-0.3,0.3-0.6,0.5-0.9,0.6c-0.2,0-0.3,0.1-0.5,0.1
			c-0.1,0-0.3,0.1-0.5,0.1l0.2,0.1c0,0.2,0.1,0.4,0.2,0.7c0.1,0.3,0.2,0.6,0.4,0.9c0.1,0.3,0.3,0.5,0.5,0.7s0.4,0.3,0.7,0.2
			c0.7-0.1,1.4-0.6,2.1-1.3s1.3-1.5,2-2.3c0.7-0.9,1.2-1.7,1.6-2.7c0.5-0.9,0.9-1.7,1.2-2.2c0.1-0.1,0.2-0.3,0.3-0.6
			c0.1-0.3,0.3-0.5,0.3-0.8c0.1-0.3,0.3-0.5,0.3-0.8c0.1-0.2,0.2-0.4,0.3-0.5c-0.4,0.9-0.8,1.8-1.2,2.8c-0.4,0.9-0.9,1.8-1.3,2.7
			c0.2-0.1,0.4-0.5,0.6-1.1s0.5-1,0.8-1.7c0.3-0.6,0.5-1.1,0.8-1.8c0.3-0.5,0.4-0.9,0.5-1.2l0.1-0.1l0.1,0.1c-0.3,0.4-0.5,1-0.8,1.7
			c-0.2,0.7-0.4,1.3-0.7,1.8v0.1c0.1,0,0.1-0.2,0.3-0.6c0.1-0.3,0.3-0.7,0.5-1.1s0.3-0.8,0.5-1.1c0.1-0.3,0.3-0.6,0.2-0.7h0.4
			l0.2-0.1l0.3,0.1L105.1,65.2z M92.3,58.6h0.4l0.2,0.1l0.2-0.1l0.1,0.2l0.2-0.1l0.1,0.1l0.2-0.1c0.1,0.1,0.2,0.1,0.2,0.2l0.1-0.2
			l0.3,0.2c0,0.2-0.1,0.6-0.4,1.2c-0.3,0.6-0.7,1.3-1.1,2s-0.8,1.3-1.2,1.8c-0.4,0.5-0.7,0.9-0.8,0.9c-0.1,0-0.1,0-0.2-0.1
			s-0.1-0.1-0.2-0.1l-0.3-0.1c0,0,0-0.1-0.1-0.1c0-0.1,0-0.1,0.1-0.2c0-0.1,0.1-0.1,0.1-0.2l-0.3,0.4L89.8,64l0.7-1.4v-0.2l-0.8,1.7
			v-0.2c0.1-0.1,0.1-0.2,0.1-0.4c0.1-0.2,0.2-0.4,0.3-0.5c0.1-0.2,0.1-0.4,0.2-0.5c0.2-0.7,0.6-1.4,1-2.2
			C91.4,59.9,91.8,59.2,92.3,58.6L92.3,58.6z M91.2,72.7c0.1,0.3,0.1,0.5,0.2,1s0.2,0.7,0.4,0.9c-0.2-0.3-0.2-0.7-0.3-1
			C91.4,73.2,91.4,73,91.2,72.7L91.2,72.7z M92,73.8c-0.1-0.4-0.1-0.6-0.2-1c-0.1-0.3-0.1-0.6-0.1-1c-0.1,0.2,0,0.4,0,0.6
			s0.1,0.4,0.1,0.5s0.1,0.3,0.1,0.5C91.9,73.5,91.9,73.6,92,73.8z M92.4,73.2L92.4,73.2v0.3h0.1L92.4,73.2z M92.8,73.9l-0.1-0.5
			C92.7,73.5,92.8,73.7,92.8,73.9z M92.6,71.9L92.6,71.9c-0.1,0.1,0,0.3,0,0.4s0.1,0.3,0.1,0.5L92.6,71.9z M93.8,72.8
			c0.5-0.5,0.8-1,0.9-1.8s0.1-1.4,0-2v-0.1v-0.1c-0.2,0.1-0.3,0.4-0.4,0.7c-0.1,0.3-0.2,0.7-0.3,1c0,0.4-0.1,0.7-0.2,1.1
			c0,0.4,0,0.7,0.1,0.9L93.8,72.8L93.8,72.8z M94.9,68.7c0.1,0.6,0.1,1.1,0.1,1.7c-0.1,0.5-0.2,1.1-0.2,1.6v0.1
			c0.2-0.4,0.4-0.9,0.3-1.6c0.1-0.7,0-1.1-0.1-1.6L94.9,68.7z M95.1,68.7c0.1,0.3,0.1,0.5,0.1,0.7c0.1,0.3,0,0.6,0.1,0.7
			c0-0.4,0.1-0.7,0-1C95.3,69,95.2,68.8,95.1,68.7z M95.5,69.5L95.5,69.5V69h-0.1L95.5,69.5z M95.6,69.1c0,0.2,0.1,0.3,0.1,0.5
			c0,0.1,0.1,0.3,0.1,0.5c0-0.2,0-0.3,0-0.5C95.8,69.4,95.7,69.3,95.6,69.1z M95.9,69.1c0,0.2,0.1,0.3,0.1,0.5
			c0,0.1,0.1,0.3,0.1,0.5c0-0.1,0.1-0.2,0-0.3c0-0.1,0-0.2-0.1-0.3C95.9,69.3,95.9,69.2,95.9,69.1z M102.5,68.8
			c-0.1,0.1-0.1,0.2-0.1,0.2c0,0.1-0.1,0.2-0.1,0.2v0.1L102.5,68.8z M104.3,65.5c0.1-0.1,0.1-0.2,0.1-0.3L104.3,65.5z"/>
	</g>
	<g>
		<path class="st0" d="M117.5,62.9c0.1,0.5,0,0.9-0.2,1.4s-0.5,1-0.7,1.6c-0.4,0.5-0.8,0.9-1.2,1.3c-0.4,0.4-0.8,0.5-1.3,0.6
			c-0.1,0-0.3,0-0.5-0.1c-0.3,0-0.5-0.1-0.8-0.2c-0.3,0-0.5-0.2-0.8-0.2c-0.2-0.1-0.4-0.1-0.5-0.1c0,0.1-0.1,0.6-0.2,1.3
			s-0.3,1.6-0.5,2.6s-0.4,2.1-0.8,3.3c-0.2,1.2-0.6,2.2-0.9,3.2s-0.6,1.8-0.8,2.4c-0.3,0.6-0.5,1-0.7,1.1c-0.1,0-0.2,0-0.4,0
			c-0.2-0.1-0.5-0.1-0.7-0.1c-0.3,0-0.5-0.1-0.7-0.2s-0.3-0.1-0.3-0.2c-0.1-0.2-0.3-0.5-0.4-0.9c-0.1-0.5-0.3-0.8-0.3-1.2
			s-0.3-0.9-0.4-1.3s-0.2-0.8-0.2-1c-0.2-1.1-0.5-2.3-0.7-3.3s-0.4-2.2-0.8-3.3c-0.2-0.9-0.5-1.8-0.9-2.6c-0.5-0.9-0.7-1.6-0.9-2.6
			c0-0.1-0.1-0.3-0.1-0.4s0.1-0.2,0.2-0.3c0.1,0,0.1,0.1,0.1,0.3l0.1,0.3c0-0.1,0-0.2-0.1-0.3c0-0.1,0-0.2,0-0.3l0.4,0.1
			c0.1-0.1,0.2-0.1,0.3-0.1l0.1-0.2c0.1,0.1,0.3,0.1,0.3,0.2c0.1,0.1,0.1,0.2,0.2,0.2c0.3-0.2,0.7,0.1,1,0.7s0.7,1.4,1,2.2
			s0.6,1.7,0.9,2.5s0.4,1.3,0.4,1.6c0.2,1.1,0.4,2.3,0.5,3.5s0.3,2.3,0.5,3.4l0.1,0.6c0.1-0.1,0.1-0.2,0.2-0.4
			c0.5-2.1,1-3.9,1.4-5.6c0.1-0.7,0.4-1.4,0.5-2.1s0.3-1.3,0.5-1.9s0.3-1,0.3-1.4c0.1-0.4,0.1-0.6,0.1-0.7c-0.1-0.4-0.2-0.7-0.4-1.1
			c-0.2-0.3-0.3-0.7-0.4-1.1c-0.1-0.5-0.1-1.2-0.1-2.2c0.1-1,0.2-2,0.3-3s0.5-1.9,0.9-2.7s0.9-1.3,1.5-1.4c0.3-0.1,0.7,0,1.1,0
			c0.5,0.1,0.7,0.2,0.8,0.6c0.1,0.6,0.1,1.4-0.1,2.4s-0.4,2-0.6,2.9c-0.3,1-0.5,1.9-0.7,2.8s-0.3,1.5-0.2,1.7c0,0.2,0.1,0.4,0.2,0.6
			c0.1,0.3,0.3,0.4,0.4,0.7c0.1,0.3,0.4,0.4,0.6,0.5s0.4,0.2,0.5,0.2c0.4-0.1,0.7-0.2,1-0.6c0.3-0.3,0.7-0.7,1-1.1s0.6-0.9,0.9-1.3
			C117.2,63.7,117.4,63.2,117.5,62.9L117.5,62.9z M105.9,80.2c-0.1-0.5-0.2-0.8-0.3-1.2c-0.1-0.5-0.3-0.8-0.3-1.2
			c-0.1-0.7-0.3-1.7-0.5-3c-0.3-1.3-0.5-2.5-0.8-3.8s-0.6-2.4-0.9-3.6c-0.3-1.1-0.7-1.8-0.9-2.4c0,0.1,0.1,0.4,0.2,0.6
			c0.2,0.3,0.2,0.5,0.3,0.7c0.3,0.8,0.6,1.7,0.8,2.5c0.3,0.8,0.4,1.7,0.6,2.5l0.3,1.7c0.1,0.3,0.2,0.8,0.3,1.5
			c0.1,0.7,0.3,1.4,0.4,2.3c0.2,0.8,0.3,1.4,0.4,2.2C105.6,79.7,105.8,80,105.9,80.2z M105.9,79.2c-0.2-0.9-0.4-1.8-0.5-2.8
			c-0.1-0.9-0.3-1.8-0.5-2.8l-0.6-3.3c0,0,0.1,0.4,0.1,1.1c0.1,0.6,0.2,1.5,0.4,2.3s0.3,1.5,0.4,2.4c0.1,0.7,0.2,1.2,0.3,1.4
			l0.3,1.6C105.8,79.1,105.8,79.1,105.9,79.2C105.9,79.1,105.9,79.2,105.9,79.2z M103.9,69.3L103.9,69.3v-0.4h-0.1L103.9,69.3z
			 M106,79.6c0-0.2-0.1-0.3-0.2-0.3L106,79.6L106,79.6z M104.1,70.2L104.1,70.2v-0.7H104L104.1,70.2z M105.9,77.4
			c0.1,0.3,0.1,0.5,0.1,0.6c0,0.2,0.1,0.5,0.1,0.6L105.9,77.4z M105.6,75L105.6,75v0.7h0.1L105.6,75z M105.4,73.8L105.4,73.8
			l0.1,0.7h0.1L105.4,73.8z M105.1,70.7C105.1,70.6,105.1,70.6,105.1,70.7c0-0.1-0.1-0.1-0.1-0.2c0.3,1.3,0.5,2.5,0.7,3.8
			s0.3,2.6,0.6,3.8c0.1,0.3,0.1,0.5,0.1,0.7s0.1,0.5,0.2,0.7c-0.2-1.2-0.4-2.3-0.5-3.5s-0.3-2.3-0.5-3.5L105.1,70.7L105.1,70.7z
			 M105.3,73.2L105.3,73.2l-0.1-0.8h-0.1L105.3,73.2z M104.9,70.1L104.9,70.1v-0.5h-0.1L104.9,70.1z M107.4,78.7
			c0.4-2.1,1-4.1,1.5-6c0.5-2,1.1-4.1,1.4-6.1v-0.2v0.2c0,0.1-0.1,0.5-0.3,1.1c-0.2,0.6-0.3,1.4-0.6,2.3c-0.2,0.9-0.5,1.9-0.7,2.9
			c-0.3,1-0.5,2-0.7,2.9s-0.3,1.6-0.5,2.2C107.4,78.4,107.4,78.7,107.4,78.7z M109,73.9c0.1-0.1,0.2-0.5,0.3-1.3s0.3-1.6,0.5-2.5
			s0.3-1.7,0.5-2.4s0.3-1.1,0.3-1.1c-0.2,1.2-0.5,2.5-0.8,3.6C109.5,71.4,109.3,72.6,109,73.9z M110.6,68.7L110.6,68.7l-0.1,0.2h0.1
			V68.7z M109.9,64.3c-0.2-0.8-0.3-1.7-0.2-2.7c0.1-1,0.2-1.9,0.3-2.7c-0.1,0.2-0.3,0.5-0.3,1c-0.1,0.5-0.1,1-0.1,1.5
			c0,0.6,0,1,0,1.6c0,0.5,0.1,0.8,0.1,1.1c0,0.2,0.1,0.4,0.2,0.7c0.1,0.3,0.2,0.5,0.3,0.6l0.1-0.1C110,65,110,64.6,109.9,64.3z
			 M110.7,68.2c0-0.1,0-0.1,0.1-0.2l-0.1-0.1V68.2L110.7,68.2z M110.4,64.8c-0.1-0.3-0.1-0.6-0.2-1s-0.1-0.7-0.1-1
			c-0.1,0.2,0,0.4,0,0.7c0,0.2,0.1,0.5,0.1,0.6C110.2,64.4,110.2,64.7,110.4,64.8z M110.8,67.2c-0.1,0-0.1,0.1,0,0.3V67.2z
			 M110.8,67.2c0.1-0.1,0.1-0.2,0-0.3h-0.1c0,0.1,0,0.1,0,0.1C110.8,67.1,110.8,67.1,110.8,67.2z M110,58.8l0.1-0.3H110V58.8z
			 M110.9,63.1c0-0.1-0.1-0.3,0-0.3h-0.1C110.8,62.9,110.9,63,110.9,63.1L110.9,63.1z M113.1,55.9c-0.1,0.2-0.1,0.7-0.2,1.4
			s-0.3,1.4-0.4,2.2c-0.1,0.7-0.3,1.4-0.4,2s-0.2,0.9-0.2,0.9l0.1-0.1c0.1-0.6,0.3-1.1,0.3-1.7c0.2-0.5,0.3-1.1,0.3-1.6
			c0.1-0.5,0.2-1,0.2-1.4C113,56.8,113.1,56.4,113.1,55.9L113.1,55.9z M112.1,60.7c0,0,0.1-0.2,0.2-0.6c0.1-0.4,0.1-0.7,0.1-0.8
			c0,0,0.1-0.2,0.1-0.4c0.1-0.2,0.1-0.5,0.1-0.8s0.1-0.5,0.1-0.8c0.1-0.2,0-0.4,0-0.4l0.1-0.2c-0.1,0-0.1,0.2-0.2,0.6
			c0,0.4-0.1,0.8-0.2,1.2s-0.2,0.9-0.2,1.3C112.1,60.3,112.1,60.5,112.1,60.7L112.1,60.7z M113.2,57.2L113.2,57.2
			C113.1,57.3,113.1,57.3,113.2,57.2c-0.1,0.1-0.1,0.1-0.1,0.2h0.1V57.2z M113.2,56.9c0.1-0.2,0.1-0.4,0.1-0.6c0.1-0.2,0-0.4,0-0.6
			v-0.1L113.2,56.9z"/>
	</g>
	<g>
		<path class="st0" d="M130.2,62.2c0,0.3,0,0.8-0.2,1.4c-0.1,0.7-0.2,1.4-0.4,2.2s-0.4,1.6-0.6,2.5c-0.3,0.9-0.5,1.6-0.9,2.3
			c-0.3,0.7-0.7,1.4-1.1,1.8c-0.4,0.5-0.8,0.8-1.2,0.9c-0.3,0.1-0.6,0-0.9,0c-0.4,0-0.7-0.1-1-0.3s-0.6-0.3-0.9-0.6
			c-0.2-0.2-0.4-0.5-0.5-0.9c-0.1-0.7-0.2-1.5-0.3-2.3c-0.1-0.8,0-1.6-0.1-2.2c0-0.1,0.1-0.2,0-0.4c0-0.1,0.1-0.2,0-0.4V66
			c-0.2,0.3-0.4,0.7-0.7,1.3c-0.3,0.5-0.5,1.1-0.9,1.7c-0.4,0.5-0.6,1.1-1,1.5c-0.4,0.5-0.7,0.7-1,0.8c-0.8-0.2-1.5-0.4-1.9-0.7
			c-0.5-0.3-0.8-0.9-1-1.8c-0.1-0.7-0.1-1.5,0.1-2.3c0.2-0.9,0.5-1.6,0.9-2.4c0.4-0.7,0.9-1.4,1.5-2s1.2-0.9,2-1
			c0.5-0.1,1-0.1,1.5-0.1c0.6,0,1,0.1,1.5,0.1c0.1-0.1,0.1-0.2,0.2-0.3s0.1-0.2,0.3-0.3c0.1,0,0.3-0.1,0.3,0l0.1,0.1
			c0,0,0.1,0.1,0.2,0.1c0,0,0.1,0,0.1-0.1l0.1,0.2c0.2,0,0.3-0.1,0.3-0.2l0.3,0.1c0.2-0.1,0.3-0.1,0.4,0.1c0.1,0.2,0.2,0.3,0.2,0.4
			c0,0.2,0,0.5,0,0.9s-0.1,0.7-0.3,1.1s-0.2,0.8-0.3,1.1c-0.1,0.3-0.2,0.6-0.1,0.7c0,0.3-0.1,0.8-0.2,1.4c-0.1,0.7-0.1,1.3-0.2,2
			s-0.1,1.4-0.1,2.1s0,1.1,0.1,1.4c0,0.1,0,0.1,0,0.1v0.1c0.2,0,0.4-0.4,0.7-0.8c0.3-0.4,0.5-1,0.9-1.7c0.3-0.6,0.7-1.4,1-2.2
			c0.3-0.8,0.6-1.5,1-2.3c0.4-0.8,0.6-1.4,0.7-1.9c0.2-0.6,0.4-1,0.4-1.2l0.1,0.1c-0.2,0.7-0.5,1.4-0.7,2.2
			c-0.2,0.7-0.5,1.4-0.8,2.1l0.1,0.1c0-0.1,0.1-0.3,0.2-0.7c0.1-0.4,0.3-0.8,0.5-1.2s0.4-0.8,0.5-1.3c0.2-0.4,0.2-0.8,0.3-1.1
			l0.2,0.1c-0.2,0.7-0.3,1.2-0.4,1.6s-0.2,0.7-0.3,1.1c-0.1,0.3-0.1,0.5-0.1,0.5c0.1,0,0.1-0.2,0.2-0.4c0-0.3,0.2-0.5,0.2-0.8
			c0-0.3,0.2-0.6,0.3-0.9c0.1-0.3,0.2-0.5,0.3-0.7v-0.3L130.2,62.2c-0.1,0.1-0.2,0.4-0.3,0.8c-0.1,0.5-0.2,0.7-0.2,0.8v0.1
			L130.2,62.2z M116.1,69.3c-0.2-0.8-0.2-1.6-0.1-2.4l-0.1,0.1c-0.1,0.8-0.1,1.6,0,2.4c0.1,0.3,0.2,0.5,0.3,0.8
			C116.3,69.9,116.1,69.7,116.1,69.3z M116.5,69.5c0-0.2-0.1-0.3-0.1-0.5c0-0.1-0.1-0.3,0-0.5c0,0.1-0.1,0.2,0,0.3
			c0,0.1,0,0.2,0.1,0.3C116.4,69.5,116.4,69.6,116.5,69.5z M117.2,70c0-0.2,0-0.4,0-0.6s-0.1-0.4-0.1-0.5c0,0.4,0,0.6,0.1,0.7V70z
			 M122.7,62.1c-0.6,0.1-1.2,0.4-1.8,1c-0.6,0.6-1.1,1.3-1.6,2.1c-0.4,0.8-0.7,1.6-1,2.5c-0.2,0.9-0.3,1.6-0.1,2.1l0.1,0.3
			c0.2-0.1,0.3-0.3,0.5-0.6v0.1c-0.1,0.1-0.1,0.2-0.2,0.3s-0.1,0.2-0.1,0.4c0.2-0.1,0.2-0.2,0.3-0.3c0.1-0.1,0.1-0.2,0.3-0.4
			c0,0.3-0.2,0.4-0.3,0.5v0.3c0.3-0.4,0.5-0.8,0.8-1.2c0.3-0.3,0.5-0.8,0.7-1.2c-0.1,0.1-0.1,0.4-0.3,0.7c-0.1,0.3-0.3,0.5-0.3,0.6
			l0.1,0.1c0.1-0.1,0.3-0.5,0.6-1c0.3-0.5,0.5-1,0.9-1.6c0.3-0.5,0.5-1,0.8-1.6c0.3-0.5,0.3-0.8,0.3-0.9c-0.3,0.4-0.5,0.9-0.7,1.4
			s-0.5,0.9-0.8,1.4c0-0.1,0-0.3,0.2-0.5c0.1-0.2,0.3-0.5,0.4-0.7c0.1-0.3,0.3-0.5,0.4-0.7s0.3-0.4,0.4-0.5c0.2-0.4,0.3-0.7,0.3-1.1
			C122.5,62.9,122.6,62.6,122.7,62.1L122.7,62.1z M122.8,71.8c-0.1-1.1-0.2-2.1-0.2-3.3c0-1,0-2.2,0.1-3.2l-0.1-0.1
			c-0.1,0.2-0.1,0.6-0.1,1.1c0,0.6,0,1.2-0.1,1.9c-0.1,0.7,0,1.3,0,1.9s0,0.9,0,1C122.5,71.4,122.6,71.6,122.8,71.8z M123,71.5
			c0-0.2,0-0.4,0-0.6s-0.1-0.4-0.1-0.5v-0.1c-0.1,0.2-0.1,0.5,0,0.8L123,71.5z M123.7,71.5c0-0.3,0-0.5,0-0.6v-0.2
			c0,0.1-0.1,0.2,0,0.3c0,0.1,0,0.2,0.1,0.3L123.7,71.5z"/>
	</g>
	<g>
		<path class="st0" d="M157,37.8c0.2,0.2,0.5,0.4,0.6,0.5c0.2,0.1,0.3,0.3,0.3,0.6c0.1,0.5-0.1,0.7-0.5,0.8c-0.2,0-0.5,0-0.8-0.1
			c-0.4-0.1-0.6-0.2-0.8-0.2l-0.1-0.2l-0.1,0.2l-0.2-0.1c0-0.3-0.1-0.5-0.3-0.5c-0.8,0-1.6,0-2.5,0.2s-1.7,0.3-2.5,0.5
			c-0.7,0.1-1.6,0.3-2.7,0.6c-1.1,0.3-2.2,0.6-3.4,1c-1.2,0.3-2.2,0.7-3.3,1.1c-1.1,0.4-1.9,0.8-2.5,1c-0.1,0-0.2,0.2-0.3,0.4
			s-0.3,0.5-0.3,0.7c-0.1,0.3-0.2,0.5-0.3,0.8s-0.2,0.5-0.3,0.6c-0.2,0.4-0.4,0.8-0.5,1.3c-0.2,0.4-0.4,0.8-0.7,1.3
			c-0.1,0.2-0.3,0.4-0.4,0.8c-0.1,0.3-0.2,0.7-0.4,1.1c-0.1,0.4-0.2,0.8-0.3,1.2s-0.2,0.7-0.3,1c-0.1,0.2-0.2,0.5-0.2,0.7
			c0,0.3-0.1,0.5-0.1,0.8c-0.4,1.8-0.7,3.7-1,5.8c-0.3,2-0.6,4.2-0.7,6.3c-0.1,2.1-0.2,4.2-0.1,6.3c0,2.1,0.3,4.1,0.6,5.9
			c0.1,0.6,0.3,1.3,0.5,1.8c0.1,0.5,0.4,1.1,0.7,1.6c0.3-0.3,0.6-0.5,0.8-0.7s0.6-0.5,0.8-0.8c0.5-0.6,1-1.3,1.4-2.3
			c0.5-0.9,0.9-1.8,1.3-2.8c0.4-0.9,0.7-1.9,1.1-2.9c0.3-0.9,0.6-1.8,0.7-2.6c0,0.3-0.1,0.8-0.3,1.4s-0.4,1.3-0.6,1.9
			c-0.2,0.7-0.5,1.3-0.7,1.9c-0.3,0.6-0.4,1.1-0.6,1.4l-0.1,0.2c0.3-0.6,0.5-1.2,0.8-1.8c0.3-0.6,0.4-1.2,0.7-1.8
			c0.1-0.1,0.1-0.4,0.2-0.9c0.1-0.4,0.3-0.9,0.4-1.4c0.2-0.5,0.3-0.9,0.4-1.3c0.1-0.4,0.2-0.6,0.3-0.6c-0.1,0.9-0.3,1.7-0.7,2.5
			s-0.5,1.7-0.6,2.5c0.1-0.1,0.1-0.2,0.3-0.5c0-0.3,0.2-0.5,0.2-0.8s0.2-0.5,0.2-0.8c0.1-0.2,0.1-0.4,0.3-0.5c0,0,0.1-0.2,0.1-0.5
			s0.2-0.6,0.3-1s0.1-0.7,0.3-1c0.1-0.3,0.2-0.5,0.3-0.6c-0.2,0.8-0.3,1.6-0.6,2.4c-0.2,0.8-0.3,1.6-0.6,2.4
			c0.3-0.7,0.6-1.4,0.8-2.3s0.3-1.7,0.5-2.4l0.1,0.1c-0.1,0.1-0.1,0.4-0.2,0.7c-0.1,0.4-0.1,0.6-0.1,0.7v0.1
			c0.2-0.7,0.4-1.4,0.5-2.2c0.1-0.7,0.3-1.4,0.4-2.2c0.1-0.4,0.1-0.9,0.2-1.4c0-0.5,0.1-1,0.3-1.4v0.2c-0.1,0.7-0.3,1.4-0.4,2.1
			c-0.1,0.7-0.3,1.5-0.2,2.1l0.3-1.6l0.1,0.1c0,0.1,0,0.4,0,0.9c-0.1,0.5-0.2,1-0.3,1.6s-0.3,1.1-0.3,1.7c-0.1,0.5-0.2,0.9-0.2,1
			c-0.5,2-0.9,3.9-1.6,5.8c-0.7,1.8-1.6,3.5-3,5.1c-0.2,0.2-0.5,0.5-0.7,0.7s-0.6,0.3-1,0.4c-0.3,0.1-0.5,0.1-0.7,0.1
			c-0.3,0-0.5-0.1-0.8-0.2c-0.4-0.1-0.7-0.2-0.9-0.3c-0.2-0.1-0.5-0.3-0.8-0.6c-0.5-0.5-0.8-1.2-1-1.9c-0.3-0.8-0.5-1.4-0.6-2.1
			c-0.2-1.1-0.4-2.4-0.6-3.7c-0.1-1.4-0.2-2.8-0.3-4.3c0-1.4,0-2.8,0-4.2c0-1.4,0.1-2.7,0.2-3.7c0.1-1.2,0.3-2.5,0.5-3.9
			c0.3-1.5,0.6-2.8,0.9-4.3s0.7-2.9,1.2-4.4c0.4-1.4,0.9-2.7,1.3-3.8c-0.4,0.2-1.1,0.4-1.7,0.7c-0.7,0.2-1.5,0.5-2.3,0.7
			c-0.8,0.3-1.6,0.5-2.3,0.6c-0.7,0.2-1.3,0.4-1.8,0.5c-1.1,0.2-2,0.3-2.8,0.4c-0.9,0-1.8-0.2-2.8-0.6c-0.1-0.1-0.3-0.1-0.4-0.2
			c-0.1-0.1-0.2-0.2-0.3-0.3c0-0.1,0-0.2,0-0.3l0.1,0.3h0.1l0.1-0.2l0.1,0.2c0.1-0.1,0.1-0.1,0.1,0.1l0.1-0.2l0.1,0.2l-0.4-0.1
			l0.1,0.2l0.1-0.2c0.1,0.1,0.3,0.1,0.4,0.2c0.2,0.2,0.5,0.4,0.7,0.4s0.5,0,0.8-0.1c2.1-0.4,4.2-1,6.2-1.7c2-0.8,4-1.5,6.1-2.1
			c0.2,0,0.4-0.4,0.6-0.9s0.5-1,0.8-1.7c0.3-0.6,0.6-1.2,1-1.7s0.8-0.8,1.2-0.9c0.1,0.1,0.3,0,0.4,0.1s0.3,0,0.5,0
			c0.2-0.1,0.3-0.1,0.4,0c0.3,0,0.4,0.2,0.5,0.4c0,0.1-0.1,0.2-0.1,0.5s-0.1,0.5-0.2,0.8c0,0.3-0.2,0.6-0.2,0.8
			c0,0.3-0.1,0.5-0.2,0.6c0.5-0.1,0.9-0.2,1.4-0.4s1-0.4,1.4-0.6c1.4-0.6,2.8-1,4.2-1.5s2.8-0.8,4.4-1.2c0.5-0.1,0.9-0.2,1.6-0.2
			s1.3-0.1,1.9-0.1c0.7,0,1.3,0,1.9,0.1C156,37.6,156.5,37.7,157,37.8L157,37.8z M130.4,77.1c-0.4-2.2-0.7-4.4-0.7-6.6
			c0-2.3-0.1-4.5,0-6.8c0,0,0,0.3,0,0.8s0,0.9,0,1.5s0,1,0,1.5s0,0.8,0,0.8c0,1.5,0.1,3.1,0.1,4.7s0.3,3.1,0.5,4.6
			c0.1,0.5,0.2,0.9,0.4,1.3s0.4,0.9,0.6,1.3c-0.2-0.4-0.4-1-0.5-1.5C130.6,78.2,130.5,77.7,130.4,77.1z M130.5,75.6
			c-0.1-0.6-0.2-1.4-0.1-2c0.1-0.7-0.1-1.4-0.2-2v-0.1c-0.1,1,0,2.2,0.1,3.3c0.1,1.2,0.4,2.3,0.6,3.3c0.1,0.3,0.1,0.5,0.3,0.8
			l-0.1-0.3c0-0.1-0.1-0.3-0.1-0.3L130.5,75.6z M131.1,75.9L131.1,75.9l-0.1,0.2h0.1V75.9z M130.1,70.6c0-0.1,0-0.1,0.1-0.2
			c0-0.1,0-0.1-0.1-0.2V70.6L130.1,70.6z M131.6,77.6c-0.2-1-0.3-2.1-0.3-3.1c-0.1-1-0.1-2-0.1-3.1c0-0.2,0-0.4,0-0.5
			c0-0.2,0-0.4,0-0.5v-0.1c0,1.1,0.1,2.2,0.1,3.5s0.2,2.4,0.4,3.5L131.6,77.6L131.6,77.6z M131,70c0-0.1,0.1-0.2,0-0.3
			C130.9,69.7,130.9,69.8,131,70z M140.7,69.6c0.1-0.1,0.1-0.1,0.1-0.2L140.7,69.6z"/>
	</g>
	<g>
		<path class="st0" d="M155.7,55.1l-0.1,0.4c-0.2,0.7-0.7,1.7-1.2,3c-0.5,1.2-1.2,2.4-1.9,3.7c-0.7,1.2-1.5,2.3-2.4,3.2
			s-1.7,1.5-2.6,1.6c-0.4,0.1-0.7,0.1-1.1,0c-0.4,0-0.8-0.1-1.1-0.3c-0.6-0.3-1.2-0.4-1.6-0.6s-0.9-0.5-1.2-0.7
			c-0.3-0.3-0.6-0.6-0.8-1.2c-0.2-0.4-0.4-1.1-0.5-1.7c-0.1-0.4-0.2-0.8-0.1-1.2c0-0.5,0-0.9,0-1.2c0.1-0.2,0.3-0.5,0.3-0.8
			s0.2-0.6,0.3-0.8c0.1-0.3,0.3-0.5,0.5-0.8c0.2-0.2,0.6-0.4,1-0.5c0.1,0,0.3-0.1,0.5,0c0.3,0,0.6,0,0.9,0c0.3,0,0.6,0.1,0.9,0
			c0.3,0,0.4,0.1,0.4,0.1c0.1,0,0.3-0.1,0.4,0c0.1,0.1,0.2,0.1,0.2,0.1l0.1,0.3l-0.1,0.1c0.1,0.3,0.3,0.4,0.4,0.6s0.3,0.3,0.3,0.6
			c0.1,0.4,0.1,0.7,0,1.1c0,0.5-0.2,0.9-0.3,1.3c-0.2,0.4-0.4,0.8-0.7,1.1s-0.7,0.5-1,0.6c-0.2,0-0.3,0.1-0.5,0.1
			c-0.1,0-0.3,0.1-0.5,0.1l-0.1,0.1c0,0.2,0.1,0.4,0.2,0.7c0.1,0.3,0.2,0.6,0.4,0.9c0.1,0.3,0.3,0.5,0.5,0.7s0.4,0.3,0.7,0.2
			c0.7-0.1,1.4-0.6,2.1-1.3c0.7-0.7,1.3-1.5,2-2.3c0.7-0.9,1.2-1.7,1.6-2.7c0.5-0.9,0.9-1.7,1.2-2.2c0.1-0.1,0.2-0.3,0.3-0.6
			s0.3-0.5,0.3-0.8c0.1-0.3,0.3-0.5,0.3-0.8c0.1-0.2,0.2-0.4,0.3-0.5c-0.4,0.9-0.8,1.8-1.2,2.8c-0.4,0.9-0.9,1.8-1.3,2.7
			c0.2-0.1,0.4-0.5,0.6-1.1c0.3-0.5,0.5-1,0.8-1.7c0.3-0.6,0.5-1.1,0.8-1.8c0.3-0.5,0.4-0.9,0.5-1.2l0.1-0.1l0.1,0.1
			c-0.3,0.4-0.5,1-0.8,1.7c-0.2,0.7-0.4,1.3-0.7,1.8V58c0.1,0,0.1-0.2,0.3-0.6c0.1-0.3,0.3-0.7,0.5-1.1s0.3-0.8,0.5-1.1
			c0.1-0.3,0.3-0.6,0.2-0.7h0.4l0.2-0.1l0.3,0.1L155.7,55.1z M141.8,62.6c0.1,0.3,0.1,0.5,0.2,1c0.1,0.5,0.2,0.7,0.4,0.9
			c-0.2-0.3-0.2-0.7-0.3-1C142,63.1,142,62.9,141.8,62.6L141.8,62.6z M142.5,63.7c-0.1-0.4-0.1-0.6-0.2-1c-0.1-0.3-0.1-0.6-0.1-1
			c-0.1,0.2,0,0.4,0,0.6c0,0.2,0.1,0.4,0.1,0.5c0,0.2,0.1,0.3,0.1,0.5C142.5,63.4,142.5,63.5,142.5,63.7z M143,63.1L143,63.1v0.3
			h0.1L143,63.1z M143.3,63.8l-0.1-0.5C143.3,63.4,143.3,63.6,143.3,63.8z M143.2,61.9L143.2,61.9c-0.1,0.1,0,0.3,0,0.4
			s0.1,0.3,0.1,0.5L143.2,61.9z M144.4,62.8c0.5-0.5,0.8-1,0.9-1.8c0.1-0.8,0.1-1.4,0-2v-0.1v-0.1c-0.2,0.1-0.3,0.4-0.4,0.7
			c-0.1,0.3-0.2,0.7-0.3,1c0,0.4-0.1,0.7-0.2,1.1c0,0.4,0,0.7,0.1,0.9L144.4,62.8L144.4,62.8z M145.4,58.6c0.1,0.6,0.1,1.1,0.1,1.7
			c-0.1,0.5-0.2,1.1-0.2,1.6V62c0.2-0.4,0.4-0.9,0.3-1.6c0.1-0.7,0-1.1-0.1-1.6L145.4,58.6z M145.7,58.7c0.1,0.3,0.1,0.5,0.1,0.7
			c0.1,0.3,0,0.6,0.1,0.7c0-0.4,0.1-0.7,0-1C145.8,58.9,145.8,58.7,145.7,58.7z M146,59.4L146,59.4v-0.5h-0.1L146,59.4z M146.2,59
			c0,0.2,0.1,0.3,0.1,0.5c0,0.1,0.1,0.3,0.1,0.5c0-0.2,0-0.3,0-0.5C146.3,59.4,146.2,59.2,146.2,59z M146.4,59.1
			c0,0.2,0.1,0.3,0.1,0.5c0,0.1,0.1,0.3,0.1,0.5c0-0.1,0.1-0.2,0-0.3c0-0.1,0-0.2-0.1-0.3C146.5,59.2,146.4,59.2,146.4,59.1z
			 M153,58.8c-0.1,0.1-0.1,0.2-0.1,0.2c0,0.1-0.1,0.2-0.1,0.2v0.1L153,58.8z M154.8,55.4c0.1-0.1,0.1-0.2,0.1-0.3L154.8,55.4z"/>
	</g>
	<g>
		<path class="st0" d="M168.7,52.6c-0.6,0-1.1-0.2-1.6-0.3c-0.5-0.2-0.8-0.6-0.9-1.2c-0.2-0.9-0.1-1.9,0.2-2.9s0.7-1.9,1.3-2.7
			c0.6-0.9,1.3-1.6,2.1-2.2c0.8-0.6,1.7-1,2.6-1.2c0.4-0.1,0.8-0.1,1.2-0.1s0.8,0,1.2,0.1c1.8,0.1,2.8,1,3.2,2.8
			c0.2,1,0.1,2.1-0.2,3.4c-0.3,1.3-0.8,2.6-1.4,3.9c-0.6,1.3-1.3,2.6-2,3.8s-1.3,2.2-1.8,3.1c-0.2,0.3-0.5,0.7-0.9,1.1
			c-0.4,0.5-0.7,0.9-0.8,1.3c0.4,0.2,0.7,0.4,1.2,0.8c0.5,0.4,0.9,0.8,1.2,1.1c0.5,0.4,0.9,0.7,1.2,1c0.4,0.3,0.7,0.3,1.1,0.3
			s0.7-0.2,1.1-0.6c0.4-0.4,0.7-0.7,1.1-1.2c0.3-0.4,0.6-1,0.7-1.5s0.2-0.9,0.1-1.2c0-0.2-0.1-0.3-0.2-0.3c-0.1-0.1-0.2-0.1-0.4-0.1
			l0.3-0.1c0.4,0,0.8,0,1.2,0.1s0.6,0.3,0.7,0.8c0.1,0.5,0.1,0.9-0.1,1.5c-0.1,0.6-0.3,1.1-0.6,1.6s-0.7,1-1.1,1.3
			c-0.4,0.4-0.8,0.6-1.4,0.7c-0.5,0.1-0.8,0.1-1.2,0.1s-0.8-0.1-1.3-0.2c-0.6-0.2-1.1-0.3-1.5-0.5s-0.7-0.4-1.2-0.6
			c-0.3-0.2-0.7-0.5-1-0.8s-0.7-0.6-1.1-1c-0.2,0.2-0.6,0.5-1,0.8c-0.4,0.4-0.7,0.5-1.1,0.6c-0.2,0-0.5,0-0.7-0.1
			c-0.3-0.1-0.5-0.2-0.7-0.2l-0.1-0.3c-0.1-0.5,0.1-0.9,0.5-1.3c0.4-0.5,0.8-0.6,1.3-0.7c0.2,0,0.4-0.1,0.6,0c0.2,0.1,0.4,0,0.6,0
			c0.1,0,0.2-0.1,0.3-0.3s0.3-0.4,0.4-0.7c0.1-0.2,0.3-0.5,0.4-0.7c0.1-0.2,0.2-0.4,0.3-0.4c0.4-0.7,0.9-1.7,1.6-2.9
			c0.6-1.2,1.2-2.4,1.8-3.7c0.6-1.2,1-2.6,1.3-3.7c0.3-1.2,0.4-2.2,0.2-3.1c0-0.1-0.1-0.3-0.2-0.6c-0.1-0.3-0.2-0.6-0.4-0.9
			c-0.1-0.3-0.3-0.6-0.4-0.8c-0.1-0.3-0.3-0.3-0.4-0.3c-0.7,0.1-1.4,0.6-2.2,1.2c-0.7,0.6-1.4,1.4-2,2.3c-0.6,0.9-1.1,1.7-1.4,2.6
			c-0.3,0.9-0.4,1.8-0.3,2.5c0,0.2,0.1,0.3,0.2,0.3c0.1,0.1,0.1,0.2,0.2,0.3v0.1C168.8,52.5,168.7,52.5,168.7,52.6z M167,62.3
			c-0.1,0.1-0.2,0.2-0.3,0.4s-0.1,0.3-0.1,0.4v0.2v0.1c0,0,0,0,0,0.1h0.1c0-0.2,0-0.4,0.1-0.6C167,62.6,166.9,62.5,167,62.3z
			 M167.1,63.2L167.1,63.2c0-0.2-0.1-0.3,0-0.4c0.1-0.1,0.1-0.2,0.1-0.3c-0.1,0.2-0.3,0.5-0.3,0.8L167.1,63.2L167.1,63.2z M167,51.8
			c0-0.1-0.1-0.3-0.2-0.3c0-0.1-0.1-0.3-0.2-0.3c0-0.1-0.1-0.3,0-0.6c-0.1-0.3,0-0.5,0-0.8s0-0.5,0-0.8c0.1-0.2,0-0.4,0.1-0.5h-0.1
			c0,0.3-0.1,0.7-0.2,1.2c-0.1,0.6,0,0.9,0.1,1.2S166.7,51.5,167,51.8L167,51.8L167,51.8z M166.9,50.4c0,0.3,0,0.5,0,0.7
			c0,0.1,0,0.1,0,0.2c0,0,0,0.1,0,0.2c0-0.2-0.1-0.4-0.1-0.5C166.9,50.6,166.9,50.6,166.9,50.4z M167.6,50.8c-0.1,0.1,0,0.3,0,0.5
			v0.2V50.8z M170.5,59.8c-0.1,0.1-0.1,0.3-0.3,0.4s-0.2,0.3-0.3,0.5c0.1-0.2,0.3-0.4,0.4-0.7s0.3-0.4,0.4-0.7L170.5,59.8z
			 M170.9,59.8L170.9,59.8c-0.1,0-0.1,0-0.2,0.1L170.9,59.8z M175.5,49.9c0.2-0.7,0.4-1.5,0.6-2.2c0.1-0.8,0.2-1.5,0-2.3
			c-0.1-0.5-0.3-0.9-0.6-1.4c0.1,0.3,0.2,0.5,0.2,0.7c0.1,0.3,0.2,0.4,0.2,0.7c0.2,0.8,0.1,1.7-0.1,2.3c-0.2,0.7-0.4,1.4-0.5,2.3
			L175.5,49.9z M178.9,59.9L178.9,59.9c0,0.5,0,0.9-0.1,1.3s-0.2,0.8-0.4,1.2l0.1-0.1c0.2-0.4,0.3-0.7,0.3-1.1
			C178.9,60.9,179,60.5,178.9,59.9L178.9,59.9z M179.1,62c0.3-0.5,0.3-1.1,0.1-1.6v-0.1c0,0,0-0.1,0-0.2c0.1,0.4,0,0.7,0,0.9
			C179.1,61.3,179.1,61.6,179.1,62z M176.3,44.9L176.3,44.9v0.6c0,0.2,0.1,0.4,0.1,0.6c0,0.2,0.1,0.4,0,0.6c0-0.3,0.1-0.7,0-1.1
			L176.3,44.9z M179.3,60.9c0.1-0.2,0-0.4,0-0.6V60.9z M179.5,61.2c0.1-0.1,0-0.3,0.1-0.4c0.1-0.1,0-0.3,0-0.5c0,0-0.1,0-0.1-0.1
			v-0.1V61.2z M179.7,60.2c0,0.3,0,0.7,0,1c0.1-0.2,0-0.3,0.1-0.5c0-0.1,0-0.3,0-0.5H179.7L179.7,60.2z M177.1,45.1l0.1,1.3
			c0-0.3,0.1-0.7,0-0.9L177.1,45.1z"/>
	</g>
</g>
<g>
	<path class="st1" d="M40.6,24.5v1.9c0,0.6-0.1,1-0.2,1.4c-0.1,0.4-0.2,0.7-0.4,0.9L30.2,49c-0.2,0.4-0.5,0.8-0.9,1.1
		s-0.9,0.4-1.5,0.4h-3.2l10.1-19.9c0.2-0.4,0.5-0.8,0.7-1.1c0.2-0.3,0.5-0.7,0.7-1H23.7c-0.3,0-0.5-0.1-0.7-0.3s-0.3-0.4-0.3-0.7v-3
		H40.6z"/>
	<path class="st1" d="M60.9,40.4c0.2-0.3,0.4-0.5,0.6-0.7c0.2-0.2,0.4-0.5,0.5-0.7c-0.6,0.4-1.3,0.7-2,0.9s-1.5,0.3-2.3,0.3
		c-0.9,0-1.8-0.2-2.6-0.5c-0.9-0.3-1.6-0.8-2.3-1.4c-0.7-0.6-1.2-1.4-1.6-2.3c-0.4-0.9-0.6-2-0.6-3.3c0-1.2,0.2-2.3,0.6-3.3
		s1-1.9,1.8-2.7c0.8-0.8,1.7-1.4,2.8-1.8s2.3-0.7,3.6-0.7s2.5,0.2,3.6,0.6s2,1,2.7,1.8c0.8,0.8,1.3,1.7,1.7,2.7
		c0.4,1.1,0.6,2.2,0.6,3.5c0,0.8-0.1,1.6-0.2,2.3s-0.3,1.4-0.6,2.1c-0.3,0.7-0.6,1.3-0.9,2c-0.4,0.6-0.8,1.3-1.2,1.9l-6,8.5
		c-0.2,0.3-0.5,0.5-0.9,0.7s-0.9,0.3-1.4,0.3h-4.1L60.9,40.4z M55,32.3c0,1.5,0.4,2.6,1.1,3.3c0.8,0.8,1.8,1.1,3.2,1.1
		c0.7,0,1.4-0.1,1.9-0.3c0.6-0.2,1-0.5,1.4-0.9s0.7-0.9,0.9-1.4s0.3-1.1,0.3-1.7c0-0.7-0.1-1.3-0.3-1.9s-0.5-1-0.9-1.4
		s-0.9-0.7-1.4-0.9c-0.5-0.2-1.1-0.3-1.8-0.3s-1.3,0.1-1.8,0.3c-0.5,0.2-1,0.5-1.4,0.9s-0.7,0.9-0.9,1.4C55.1,31,55,31.6,55,32.3z"
		/>
	<path class="st1" d="M77.6,33.8H80c0.3-1.5,0.7-2.8,1.3-4s1.3-2.2,2.2-3c0.9-0.8,1.8-1.5,2.9-1.9c1.1-0.5,2.3-0.7,3.6-0.7
		c1.7,0,3.1,0.3,4.3,1c1.2,0.6,2.2,1.5,3,2.6l-1.6,1.7c-0.1,0.1-0.2,0.2-0.4,0.4c-0.1,0-0.3,0.1-0.5,0.1s-0.3,0-0.5-0.1
		c-0.1-0.1-0.3-0.2-0.5-0.4s-0.4-0.3-0.6-0.5s-0.4-0.3-0.7-0.5c-0.3-0.1-0.6-0.3-1-0.4S90.7,28,90.1,28c-1.4,0-2.6,0.5-3.6,1.5
		s-1.6,2.4-2,4.3h9v1.4c0,0.3-0.1,0.5-0.3,0.8c-0.2,0.2-0.5,0.4-0.9,0.4h-8.1c0,0.2,0,0.4,0,0.6c0,0.2,0,0.4,0,0.6
		c0,0.1,0,0.3,0,0.4s0,0.3,0,0.4h7.6v1.4c0,0.3-0.1,0.5-0.3,0.8C91.3,40.8,91,41,90.6,41h-6.2c0.3,2.1,1,3.6,1.9,4.6
		s2.1,1.5,3.6,1.5c0.9,0,1.6-0.1,2.1-0.4s0.9-0.5,1.3-0.8c0.3-0.3,0.6-0.5,0.8-0.8c0.2-0.2,0.5-0.4,0.7-0.4c0.1,0,0.2,0,0.3,0.1
		c0.1,0,0.2,0.1,0.3,0.2l1.9,1.8c-0.8,1.3-1.9,2.3-3.2,3c-1.3,0.7-2.8,1-4.5,1c-1.4,0-2.7-0.2-3.8-0.7s-2.1-1.1-2.9-2
		s-1.5-1.9-2-3.1c-0.5-1.2-0.9-2.6-1.1-4.1h-2.3v-2.5h2.1c0-0.1,0-0.3,0-0.4s0-0.3,0-0.4c0-0.2,0-0.4,0-0.6c0-0.2,0-0.4,0-0.6h-2.1
		L77.6,33.8L77.6,33.8z"/>
</g>
</svg>
