<?xml version="1.0" encoding="utf-8"?>
<!-- Generator: Adobe Illustrator 22.1.0, SVG Export Plug-In . SVG Version: 6.00 Build 0)  -->
<svg version="1.1" id="Capa_1" xmlns="http://www.w3.org/2000/svg" xmlns:xlink="http://www.w3.org/1999/xlink" x="0px" y="0px"
	 viewBox="0 0 175.5 61" style="enable-background:new 0 0 175.5 61;" xml:space="preserve">
<style type="text/css">
	.st0{fill:#BDC6C2;}
</style>
<g>
	<path class="st0" d="M30.6,27.6c-0.2,0.6-0.8,1.5-1.7,2.5c-1,1.1-2.1,2.1-3.3,3.3c-1.2,1.1-2.4,2.2-3.6,3.2c-1.2,1-2,1.8-2.6,2.3
		c-0.1,0.1-0.3,0.4-0.5,0.8c-0.3,0.4-0.5,0.9-0.8,1.4c-0.3,0.5-0.5,1-0.7,1.5c-0.2,0.5-0.4,0.8-0.5,1.1c-0.2,0.4-0.5,0.9-0.8,1.5
		c-0.3,0.6-0.7,1.1-1.1,1.6c-0.4,0.5-0.8,0.9-1.3,1.3c-0.5,0.3-1,0.5-1.6,0.5c-0.1,0-0.3,0-0.5-0.1c-0.3-0.1-0.5-0.2-0.7-0.3
		c-0.2-0.1-0.4-0.3-0.6-0.4c-0.2-0.1-0.3-0.3-0.3-0.4c0-0.7,0.2-1.4,0.7-2.1c0.5-0.7,1-1.4,1.6-2.1c0.6-0.7,1.3-1.3,2-1.9
		c0.7-0.6,1.2-1.2,1.7-1.7c0.1-0.1,0.4-0.6,0.7-1.3c0.3-0.7,0.7-1.6,1.1-2.5c0.4-1,0.9-2,1.4-3.2c0.5-1.1,0.9-2.3,1.4-3.3
		c0.4-1.1,0.8-2,1.2-2.9c0.3-0.9,0.6-1.5,0.8-1.9v-0.1l-0.1,0.1c-0.4,0.6-1,1.4-1.6,2.3c-0.6,1-1.3,2-1.9,3c-0.7,1-1.3,2-2,2.9
		c-0.6,0.9-1.2,1.6-1.7,2c-0.3,0.2-0.5,0.4-0.6,0.4c-0.1,0.1-0.4,0.1-0.7,0.1c-0.1,0-0.3-0.1-0.5-0.2c-0.3-0.1-0.4-0.2-0.5-0.3
		c-0.4-0.2-0.7-0.4-0.9-0.5c-0.2-0.1-0.4-0.3-0.5-0.5c-0.1-0.2-0.2-0.4-0.2-0.7c0-0.3-0.1-0.6-0.1-1.1c0-0.3,0-0.7,0.1-1.1
		c0.1-0.4,0.1-0.9,0.2-1.3c0.1-0.4,0.3-0.9,0.4-1.3c0.2-0.4,0.4-0.7,0.6-0.9c0-0.1,0.1-0.3,0.3-0.4l0.1,0.2L13,27l0.3,0.2l0.2-0.1
		v0.3l0.2-0.2l0.1,0.2l0.1-0.2l0.3,0.2l0.1-0.1c0.2,0.1,0.3,0.3,0.3,0.5c0,0.9-0.1,1.7-0.4,2.6c-0.3,0.9-0.4,1.7-0.4,2.5v0.3
		c0.4-0.3,0.7-0.6,1-1c0.3-0.3,0.6-0.7,0.9-1.1c0.2-0.3,0.4-0.6,0.7-1c0.2-0.3,0.5-0.6,0.8-0.9l-2,2.7h0.1c0.3-0.2,0.5-0.4,0.8-0.7
		c0.2-0.3,0.4-0.6,0.6-0.9c0.2-0.3,0.4-0.6,0.6-0.9c0.2-0.3,0.4-0.6,0.7-0.8c-0.1,0.2-0.2,0.5-0.4,0.7c-0.2,0.3-0.4,0.6-0.7,0.9
		c-0.2,0.3-0.5,0.6-0.7,0.9c-0.2,0.3-0.4,0.5-0.5,0.8c0.7-0.6,1.3-1.4,1.7-2.3c0.5-0.9,1.1-1.7,1.7-2.3c-0.3,0.5-0.6,1-1,1.5
		c-0.4,0.5-0.7,1-1,1.5h0.1c0.3-0.5,0.7-0.9,1-1.4c0.4-0.4,0.7-0.9,1-1.4l2.3-3.3c0.4-0.5,0.8-1.1,1.1-1.6c0.4-0.5,0.7-1,0.9-1.7
		c0.1-0.2,0.2-0.4,0.3-0.7c0.1-0.3,0.2-0.6,0.3-0.9c0.1-0.3,0.2-0.6,0.4-0.9c0.1-0.3,0.3-0.5,0.4-0.6l0.1,0.2h0.1l0.1-0.2l0.2,0.2
		l0.3-0.1l0.1,0.2l0.4-0.1c0,0,0.1,0.1,0.3,0.2c0.1,0,0.2,0.1,0.2,0.2c0,0.1,0.1,0.2,0.1,0.3c0,0.6-0.3,1.7-0.8,3.2
		c-0.5,1.5-1.1,3.1-1.8,4.8c-0.7,1.7-1.3,3.3-2,4.8c-0.6,1.5-1.1,2.6-1.3,3.2l0.1,0.1c0.4-0.3,1-0.7,1.7-1.3
		c0.7-0.6,1.5-1.3,2.2-2.1c0.8-0.7,1.5-1.5,2.2-2.2c0.7-0.7,1.3-1.3,1.7-1.7v0.1c-0.2,0.3-0.4,0.5-0.6,0.7c-0.2,0.2-0.4,0.5-0.6,0.7
		l0.3-0.2c0.1-0.2,0.3-0.4,0.5-0.6c0.2-0.2,0.4-0.4,0.6-0.6V28c-0.2,0.3-0.4,0.6-0.5,0.8c-0.2,0.3-0.4,0.5-0.7,0.8
		c0.1,0,0.2-0.1,0.4-0.3c0.2-0.2,0.3-0.4,0.5-0.6c0.2-0.2,0.4-0.4,0.5-0.6c0.2-0.2,0.3-0.3,0.4-0.4c-0.1,0.2-0.2,0.4-0.3,0.5v0.1
		c0.1-0.1,0.2-0.1,0.3-0.2c0.1,0,0.2-0.1,0.2-0.2c0-0.1,0.1-0.1,0.2-0.2l0.1-0.2l0.3-0.1l0.1,0.1h0.1L30.6,27.6z M10.1,47.5
		c0-0.4,0.1-0.9,0.3-1.4c0.3-0.5,0.6-1,1-1.6c0.4-0.5,0.8-1,1.2-1.4c0.4-0.4,0.7-0.8,1-1.1l-0.1-0.1c-0.3,0.2-0.6,0.5-1,1
		c-0.4,0.4-0.8,0.9-1.2,1.4c-0.4,0.5-0.7,1-1,1.6c-0.3,0.5-0.4,1-0.4,1.3C10,47.3,10,47.4,10.1,47.5z M13.4,42.5
		c-0.3,0.3-0.6,0.6-1,1c-0.3,0.4-0.7,0.7-1,1.1c-0.3,0.4-0.6,0.8-0.8,1.3c-0.2,0.4-0.3,0.9-0.3,1.3v0.2c0-0.3,0.1-0.5,0.2-0.8
		c0.1-0.3,0.3-0.6,0.4-0.7c0.1-0.2,0.2-0.4,0.4-0.8c0.2-0.3,0.4-0.7,0.7-1c0.3-0.3,0.5-0.6,0.7-0.9C13,42.9,13.2,42.7,13.4,42.5
		L13.4,42.5z M10.6,46.6c-0.1,0.3-0.2,0.6-0.2,0.8L10.6,46.6z M10.7,47.5c0.1-0.5,0.2-1,0.4-1.4c0.2-0.5,0.4-0.9,0.7-1.3
		c-0.2,0.2-0.4,0.6-0.7,1.2c-0.3,0.6-0.4,1-0.4,1.3c0,0,0,0.1,0,0.1C10.7,47.3,10.7,47.4,10.7,47.5z M10.9,47.6
		c0.1-0.2,0.1-0.4,0.1-0.6c0-0.2,0-0.4,0.1-0.6c-0.1,0.2-0.1,0.4-0.2,0.5c0,0.2-0.1,0.3-0.1,0.5V47.6z M11.3,32
		c0,0.1-0.1,0.2-0.1,0.4c0,0.3,0.1,0.6,0.2,0.9L11.3,32z M11.6,47.1c0.1,0,0.3-0.2,0.5-0.5c0.3-0.3,0.5-0.7,0.7-1.1
		c0.2-0.4,0.5-0.8,0.7-1.2c0.2-0.4,0.4-0.6,0.4-0.8c-0.2,0.1-0.5,0.3-0.7,0.6c-0.3,0.3-0.5,0.6-0.8,1c-0.2,0.4-0.4,0.7-0.6,1.1
		C11.8,46.6,11.7,46.9,11.6,47.1z M11.7,32.7c0-0.3,0-0.5,0-0.8c0-0.3,0-0.5,0.1-0.8c-0.1,0.3-0.2,0.7-0.2,1
		C11.7,32.4,11.7,32.6,11.7,32.7z M12.8,31.2c-0.1,0.3-0.1,0.6-0.2,0.8c-0.1,0.2-0.1,0.5-0.1,0.7l0.1,0.4L12.8,31.2z M12.6,27.3
		c0.1,0,0.2-0.1,0.2-0.3L12.6,27.3z M16.9,38.4c0-0.1,0-0.2,0.1-0.2L16.9,38.4L16.9,38.4z M17.4,37.3L17.4,37.3
		C17.3,37.3,17.3,37.3,17.4,37.3c-0.1,0.1-0.1,0.1-0.1,0.2v0.1L17.4,37.3z M17.6,36.8L17.6,36.8C17.6,36.8,17.6,36.8,17.6,36.8
		c-0.1,0.1-0.1,0.1-0.1,0.2V37L17.6,36.8z M17.8,36.3L17.8,36.3l-0.1,0.2h0.1L17.8,36.3z M17.9,36.1c0,0,0.1-0.1,0.1-0.2L17.9,36.1
		L17.9,36.1z M18.1,35.6L18.1,35.6l0.2-0.2L18.1,35.6z M18.3,35.1c0,0,0,0.1,0,0.1c0,0,0,0.1,0,0.1L18.3,35.1L18.3,35.1z M18.4,34.8
		c0,0,0,0.1-0.1,0.1h0.1V34.8z M18.6,34.4c0,0.1,0,0.2-0.1,0.3L18.6,34.4L18.6,34.4z M19.4,32.8L19.4,32.8c-0.1,0.1-0.2,0.3-0.4,0.7
		c-0.1,0.4-0.2,0.6-0.3,0.7l0.1,0.1c0-0.1,0.1-0.3,0.2-0.5c0.1-0.3,0.2-0.5,0.2-0.6L19.4,32.8z M19.6,32.2L19.6,32.2
		c-0.1,0-0.1,0.1-0.1,0.2L19.6,32.2z M19.7,31.9c0-0.1,0-0.2,0.1-0.4L19.7,31.9L19.7,31.9z M23.5,22.6c-0.7,1.4-1.3,2.8-1.9,4.3
		c-0.6,1.5-1.1,2.9-1.7,4.4c0.2-0.5,0.5-1.2,0.8-2.1c0.4-0.9,0.7-1.8,1.1-2.6c0.4-0.9,0.7-1.7,1-2.4c0.3-0.7,0.5-1.2,0.6-1.4V22.6z"
		/>
	<path class="st0" d="M53,28.2L53,28.2c-0.2,0.3-0.4,0.7-0.6,1c-0.2,0.3-0.4,0.7-0.5,1l0.1,0.1c0.1-0.3,0.3-0.6,0.5-0.9
		c0.2-0.3,0.4-0.6,0.6-0.9c-0.1,0.5-0.3,1.4-0.8,2.4c-0.5,1.1-1,2.2-1.6,3.4c-0.6,1.2-1.2,2.3-1.7,3.4c-0.6,1.1-1,1.8-1.2,2.3
		c-0.2,0.3-0.5,1-1,2.1c-0.5,1.1-1,2.1-1.6,3.3c-0.6,1.1-1.1,2.1-1.7,3c-0.5,0.9-1,1.3-1.3,1.3c-0.3,0-0.7-0.1-1.1-0.4
		c-0.5-0.3-0.9-0.5-1.3-0.8c-0.3-0.3-0.6-0.5-0.8-0.8c-0.2-0.3-0.3-0.7-0.4-1.1c-0.1-0.4-0.1-0.9-0.1-1.5c0-1.7,0.2-3.4,0.6-5.1
		c0.4-1.7,0.9-3.4,1.4-5c0.2-0.6,0.5-1.6,1.1-2.9c0.5-1.3,1.2-2.8,1.9-4.4c0.7-1.6,1.5-3.3,2.4-5c0.9-1.7,1.8-3.3,2.6-4.7
		c0.9-1.4,1.7-2.6,2.6-3.5c0.8-0.9,1.5-1.4,2.2-1.4c0.1,0,0.2,0,0.4,0.1c0.2,0,0.4,0.1,0.6,0.1c0.2,0.1,0.4,0.1,0.6,0.2
		c0.2,0.1,0.3,0.1,0.3,0.2c0.1,0,0.2,0,0.3,0.1c0.1,0.1,0.2,0.2,0.2,0.3c0,0.2,0,0.3-0.1,0.4c0.1,0.2,0.3,0.4,0.3,0.5
		c0.1,0.1,0.1,0.4,0.1,0.7c0,0.9-0.2,1.9-0.7,2.9c-0.4,1-1,2-1.6,2.9c-0.6,1-1.3,1.9-2,2.8c-0.7,0.9-1.4,1.7-2,2.3
		c-0.4,0.5-0.9,1-1.5,1.5c-0.6,0.5-1,1.1-1.3,1.6c-0.5,1.1-1.1,2.3-1.7,3.9c-0.6,1.5-1.2,3.1-1.7,4.7c-0.5,1.6-1,3.2-1.3,4.8
		c-0.4,1.6-0.5,3-0.5,4.1v0.5l0.2-0.1c0.5-0.8,1-1.6,1.4-2.5c0.4-0.9,0.8-1.7,1.2-2.5c0.4-0.8,0.9-1.8,1.7-3.2
		c0.7-1.4,1.6-2.9,2.4-4.4c0.9-1.5,1.7-3,2.6-4.3c0.9-1.3,1.5-2.3,2-3v0.2c-2,3.3-3.9,6.7-5.8,10c-1.9,3.3-3.7,6.7-5.5,10.2
		c0.4-0.4,0.9-1.1,1.3-2c0.4-0.9,0.7-1.6,1-2.2c1.4-2.7,2.8-5.4,4.4-7.9c1.5-2.6,3.1-5.2,4.6-7.8V28.2z M39.1,45.3
		c0-1.7,0.3-3.6,0.8-5.6c0.5-2,1-3.8,1.6-5.5c0.1-0.4,0.2-0.7,0.4-1.1c0.2-0.4,0.3-0.7,0.3-1.1c-0.4,0.6-0.7,1.5-1.1,2.8
		c-0.4,1.2-0.7,2.5-1,3.8c-0.3,1.3-0.6,2.6-0.8,3.8c-0.2,1.2-0.3,2.2-0.3,2.9c0,0.6,0.1,1.1,0.3,1.5c-0.1-0.2-0.1-0.4-0.1-0.8
		C39.1,45.7,39.1,45.4,39.1,45.3z M39.7,43c0.1-0.1,0.1-0.2,0.1-0.4c0-0.1,0-0.2,0-0.4l-0.1-0.1c0,0.4-0.1,0.9-0.2,1.3
		c-0.1,0.4-0.2,0.9-0.2,1.3c0,0.2,0,0.4,0,0.6c0,0.2,0,0.4,0,0.6c0-0.5,0-1,0.1-1.6C39.7,44.1,39.7,43.6,39.7,43z M40.3,46.5
		c0-0.6,0-1.2,0.1-1.8c0.1-0.6,0.2-1.1,0.2-1.7c-0.3,1-0.4,2-0.4,3.1C40.3,46.3,40.3,46.4,40.3,46.5z M48.1,27
		c0.4-0.4,0.9-1,1.5-1.6c0.5-0.6,1.1-1.3,1.7-2c0.6-0.7,1.1-1.5,1.6-2.3c0.5-0.8,1-1.6,1.3-2.4c0,0.1,0,0.1,0,0.2c0,0,0,0.1,0,0.2
		l0.1,0.1c0.3-0.6,0.5-1.2,0.8-1.7c0.3-0.5,0.4-1.2,0.4-1.9c0-0.1,0-0.2,0-0.2c0-0.1,0-0.2,0-0.2h-0.1c0,0.7-0.1,1.3-0.2,1.6
		c-0.1,0.4-0.3,0.7-0.4,1c0.3-0.8,0.5-1.5,0.5-2.2c0-0.2,0-0.3-0.1-0.4c0,0.2,0,0.4,0,0.6c0,0.2,0,0.4-0.1,0.6
		c0,0.3-0.2,0.7-0.4,1.3c-0.2,0.6-0.5,1.2-0.8,1.8c-0.3,0.6-0.6,1.2-1,1.7c-0.3,0.5-0.6,0.8-0.8,1c0.3-0.5,0.6-1,0.9-1.5
		c0.3-0.5,0.7-1,1-1.6c0.3-0.5,0.6-1.1,0.8-1.7c0.2-0.6,0.3-1.1,0.3-1.7v-0.3c-0.1,0.2-0.1,0.4-0.1,0.7c0,0.2,0,0.5-0.1,0.7
		c0-0.2,0-0.4,0.1-0.6c0.1-0.2,0-0.4,0-0.6c0,0.6-0.1,1.2-0.3,1.6c-0.2,0.5-0.4,0.9-0.7,1.3c0.2-0.4,0.3-0.8,0.5-1.3
		c0.1-0.4,0.2-0.9,0.2-1.3v-0.1c-0.1,0.1-0.1,0.3-0.2,0.6c-0.1,0.3-0.1,0.6-0.2,0.7c0-0.1,0.1-0.3,0.1-0.4c0-0.1,0-0.2,0.1-0.4h-0.1
		c-0.2,0.3-0.6,0.9-1.1,1.7c-0.5,0.8-1.1,1.7-1.6,2.6c-0.5,0.9-1,1.7-1.5,2.5c-0.4,0.8-0.7,1.3-0.7,1.5l-0.1,0.1
		c-0.1,0.2-0.2,0.3-0.3,0.4c-0.1,0.2-0.2,0.4-0.2,0.5c-0.1,0.2-0.2,0.4-0.3,0.5l0.1,0.1c0.5-0.5,1-1.1,1.4-1.7
		c0.4-0.6,0.9-1.1,1.4-1.6l-0.1,0.2c-0.2,0.2-0.4,0.4-0.7,0.8c-0.3,0.3-0.6,0.7-1,1.1c-0.3,0.4-0.6,0.8-0.9,1.1
		c-0.3,0.3-0.4,0.6-0.5,0.8V27z M53.1,19.9c0.1-0.3,0.2-0.6,0.3-0.8c0.1-0.3,0.3-0.5,0.5-0.8L53.1,19.9z M54.7,17.6
		c-0.1,0.3-0.2,0.7-0.5,1.1C54.4,18.3,54.5,18,54.7,17.6z M55.6,15.9L55.6,15.9l0.1-0.2h-0.1V15.9z"/>
	<path class="st0" d="M62.5,28.2L62.5,28.2c-0.2,0.3-0.4,0.7-0.6,1c-0.2,0.3-0.4,0.7-0.5,1l0.1,0.1c0.1-0.3,0.3-0.6,0.5-0.9
		c0.2-0.3,0.4-0.6,0.6-0.9c-0.1,0.5-0.3,1.4-0.8,2.4c-0.5,1.1-1,2.2-1.6,3.4c-0.6,1.2-1.2,2.3-1.7,3.4c-0.6,1.1-1,1.8-1.2,2.3
		c-0.2,0.3-0.5,1-1,2.1c-0.5,1.1-1,2.1-1.6,3.3c-0.6,1.1-1.1,2.1-1.7,3c-0.5,0.9-1,1.3-1.3,1.3c-0.3,0-0.7-0.1-1.1-0.4
		c-0.5-0.3-0.9-0.5-1.3-0.8c-0.3-0.3-0.6-0.5-0.8-0.8c-0.2-0.3-0.3-0.7-0.4-1.1C48,46,48,45.5,48,44.9c0-1.7,0.2-3.4,0.6-5.1
		c0.4-1.7,0.9-3.4,1.4-5c0.2-0.6,0.5-1.6,1.1-2.9c0.5-1.3,1.2-2.8,1.9-4.4c0.7-1.6,1.5-3.3,2.4-5c0.9-1.7,1.8-3.3,2.6-4.7
		c0.9-1.4,1.7-2.6,2.6-3.5c0.8-0.9,1.5-1.4,2.2-1.4c0.1,0,0.2,0,0.4,0.1c0.2,0,0.4,0.1,0.6,0.1c0.2,0.1,0.4,0.1,0.6,0.2
		c0.2,0.1,0.3,0.1,0.3,0.2c0.1,0,0.2,0,0.3,0.1c0.1,0.1,0.2,0.2,0.2,0.3c0,0.2,0,0.3-0.1,0.4c0.1,0.2,0.3,0.4,0.3,0.5
		c0.1,0.1,0.1,0.4,0.1,0.7c0,0.9-0.2,1.9-0.7,2.9c-0.4,1-1,2-1.6,2.9c-0.6,1-1.3,1.9-2,2.8c-0.7,0.9-1.4,1.7-2,2.3
		c-0.4,0.5-0.9,1-1.5,1.5c-0.6,0.5-1,1.1-1.3,1.6c-0.5,1.1-1.1,2.3-1.7,3.9c-0.6,1.5-1.2,3.1-1.7,4.7c-0.5,1.6-1,3.2-1.3,4.8
		c-0.4,1.6-0.5,3-0.5,4.1v0.5l0.2-0.1c0.5-0.8,1-1.6,1.4-2.5c0.4-0.9,0.8-1.7,1.2-2.5c0.4-0.8,0.9-1.8,1.7-3.2
		c0.7-1.4,1.6-2.9,2.4-4.4c0.9-1.5,1.7-3,2.6-4.3c0.9-1.3,1.5-2.3,2-3v0.2c-2,3.3-3.9,6.7-5.8,10c-1.9,3.3-3.7,6.7-5.5,10.2
		c0.4-0.4,0.9-1.1,1.3-2c0.4-0.9,0.7-1.6,1-2.2c1.4-2.7,2.8-5.4,4.4-7.9c1.5-2.6,3.1-5.2,4.6-7.8V28.2z M48.5,45.3
		c0-1.7,0.3-3.6,0.8-5.6c0.5-2,1-3.8,1.6-5.5c0.1-0.4,0.2-0.7,0.4-1.1c0.2-0.4,0.3-0.7,0.3-1.1c-0.4,0.6-0.7,1.5-1.1,2.8
		c-0.4,1.2-0.7,2.5-1,3.8c-0.3,1.3-0.6,2.6-0.8,3.8c-0.2,1.2-0.3,2.2-0.3,2.9c0,0.6,0.1,1.1,0.3,1.5c-0.1-0.2-0.1-0.4-0.1-0.8
		C48.6,45.7,48.5,45.4,48.5,45.3z M49.2,43c0.1-0.1,0.1-0.2,0.1-0.4c0-0.1,0-0.2,0-0.4l-0.1-0.1c0,0.4-0.1,0.9-0.2,1.3
		c-0.1,0.4-0.2,0.9-0.2,1.3c0,0.2,0,0.4,0,0.6c0,0.2,0,0.4,0,0.6c0-0.5,0-1,0.1-1.6C49.2,44.1,49.2,43.6,49.2,43z M49.8,46.5
		c0-0.6,0-1.2,0.1-1.8c0.1-0.6,0.2-1.1,0.2-1.7c-0.3,1-0.4,2-0.4,3.1C49.7,46.3,49.8,46.4,49.8,46.5z M57.6,27
		c0.4-0.4,0.9-1,1.5-1.6c0.5-0.6,1.1-1.3,1.7-2c0.6-0.7,1.1-1.5,1.6-2.3c0.5-0.8,1-1.6,1.3-2.4c0,0.1,0,0.1,0,0.2c0,0,0,0.1,0,0.2
		l0.1,0.1c0.3-0.6,0.5-1.2,0.8-1.7c0.3-0.5,0.4-1.2,0.4-1.9c0-0.1,0-0.2,0-0.2c0-0.1,0-0.2,0-0.2h-0.1c0,0.7-0.1,1.3-0.2,1.6
		c-0.1,0.4-0.3,0.7-0.4,1c0.3-0.8,0.5-1.5,0.5-2.2c0-0.2,0-0.3-0.1-0.4c0,0.2,0,0.4,0,0.6c0,0.2,0,0.4-0.1,0.6
		c0,0.3-0.2,0.7-0.4,1.3c-0.2,0.6-0.5,1.2-0.8,1.8c-0.3,0.6-0.6,1.2-1,1.7c-0.3,0.5-0.6,0.8-0.8,1c0.3-0.5,0.6-1,0.9-1.5
		c0.3-0.5,0.7-1,1-1.6c0.3-0.5,0.6-1.1,0.8-1.7c0.2-0.6,0.3-1.1,0.3-1.7v-0.3c-0.1,0.2-0.1,0.4-0.1,0.7c0,0.2,0,0.5-0.1,0.7
		c0-0.2,0-0.4,0.1-0.6c0.1-0.2,0-0.4,0-0.6c0,0.6-0.1,1.2-0.3,1.6c-0.2,0.5-0.4,0.9-0.7,1.3c0.2-0.4,0.3-0.8,0.5-1.3
		c0.1-0.4,0.2-0.9,0.2-1.3v-0.1c-0.1,0.1-0.1,0.3-0.2,0.6c-0.1,0.3-0.1,0.6-0.2,0.7c0-0.1,0.1-0.3,0.1-0.4c0-0.1,0-0.2,0.1-0.4h-0.1
		c-0.2,0.3-0.6,0.9-1.1,1.7c-0.5,0.8-1.1,1.7-1.6,2.6c-0.5,0.9-1,1.7-1.5,2.5c-0.4,0.8-0.7,1.3-0.7,1.5l-0.1,0.1
		c-0.1,0.2-0.2,0.3-0.3,0.4c-0.1,0.2-0.2,0.4-0.2,0.5c-0.1,0.2-0.2,0.4-0.3,0.5l0.1,0.1c0.5-0.5,1-1.1,1.4-1.7
		c0.4-0.6,0.9-1.1,1.4-1.6l-0.1,0.2c-0.2,0.2-0.4,0.4-0.7,0.8c-0.3,0.3-0.6,0.7-1,1.1c-0.3,0.4-0.6,0.8-0.9,1.1
		c-0.3,0.3-0.4,0.6-0.5,0.8V27z M62.6,19.9c0.1-0.3,0.2-0.6,0.3-0.8c0.1-0.3,0.3-0.5,0.5-0.8L62.6,19.9z M64.2,17.6
		c-0.1,0.3-0.2,0.7-0.5,1.1C63.9,18.3,64,18,64.2,17.6z M65.1,15.9L65.1,15.9l0.1-0.2h-0.1V15.9z"/>
	<path class="st0" d="M76.7,26.3l-0.2,0.4c-0.4,0.7-1.1,1.7-1.9,2.9c-0.8,1.2-1.8,2.3-2.8,3.5c-1,1.1-2.1,2.1-3.2,2.9
		c-1.1,0.8-2.1,1.2-3.1,1.2c-0.4,0-0.8-0.1-1.2-0.2c-0.4-0.1-0.8-0.3-1.1-0.5c-0.6-0.4-1.1-0.7-1.6-1c-0.4-0.3-0.8-0.7-1.1-1
		c-0.3-0.4-0.5-0.8-0.6-1.4c-0.1-0.5-0.2-1.2-0.2-1.9c0-0.4,0-0.9,0.1-1.3c0.1-0.5,0.2-0.9,0.3-1.3c0.2-0.2,0.4-0.5,0.5-0.8
		c0.1-0.3,0.3-0.6,0.5-0.8c0.2-0.3,0.4-0.5,0.7-0.7c0.3-0.2,0.7-0.3,1.2-0.3c0.1,0,0.3,0,0.5,0.1c0.3,0.1,0.6,0.1,0.9,0.2
		c0.3,0.1,0.6,0.2,0.8,0.2c0.3,0.1,0.4,0.2,0.4,0.2c0.1,0,0.3,0,0.4,0.1c0.1,0.1,0.2,0.2,0.2,0.2l0.1,0.3l-0.1,0.1
		c0.1,0.3,0.2,0.5,0.3,0.7c0.1,0.2,0.2,0.4,0.2,0.7c0,0.4-0.1,0.8-0.2,1.2c-0.1,0.5-0.4,0.9-0.6,1.3c-0.3,0.4-0.6,0.8-1,1
		c-0.4,0.3-0.7,0.4-1.1,0.4c-0.2,0-0.3,0-0.5,0c-0.1,0-0.3,0-0.5,0L63,32.9c0,0.2,0,0.4,0.1,0.8c0,0.3,0.1,0.7,0.2,1
		c0.1,0.3,0.2,0.6,0.4,0.9c0.2,0.3,0.4,0.4,0.7,0.4c0.8,0,1.6-0.3,2.5-0.9c0.9-0.6,1.7-1.3,2.6-2c0.9-0.8,1.6-1.6,2.3-2.5
		c0.7-0.9,1.3-1.6,1.7-2.1c0.1-0.1,0.3-0.3,0.4-0.6c0.2-0.3,0.4-0.5,0.5-0.8c0.2-0.3,0.4-0.5,0.5-0.8c0.2-0.2,0.3-0.4,0.4-0.5
		c-0.6,0.9-1.2,1.8-1.9,2.7c-0.6,0.9-1.3,1.7-1.9,2.6c0.2-0.1,0.5-0.5,0.9-1c0.4-0.5,0.8-1,1.2-1.6c0.4-0.6,0.8-1.1,1.2-1.7
		c0.4-0.5,0.6-0.9,0.8-1.2l0.1-0.1l0.1,0.1c-0.4,0.4-0.8,1-1.2,1.6c-0.4,0.7-0.7,1.3-1.1,1.8v0.1c0.1,0,0.2-0.2,0.5-0.6
		c0.2-0.3,0.5-0.7,0.8-1.1c0.3-0.4,0.5-0.8,0.8-1.1c0.2-0.3,0.4-0.6,0.4-0.7l0.4,0.1l0.2-0.1l0.3,0.2L76.7,26.3z M64.5,16.6l0.4,0.1
		l0.2,0.2l0.2-0.1l0.1,0.2l0.2-0.1l0.1,0.1l0.2-0.1c0.1,0.1,0.2,0.2,0.2,0.3l0.2-0.2l0.3,0.3c0,0.2-0.2,0.6-0.7,1.2
		c-0.5,0.6-1,1.2-1.6,1.9c-0.6,0.7-1.1,1.2-1.7,1.7c-0.5,0.5-0.9,0.8-1,0.8c-0.1,0-0.1,0-0.2-0.1c-0.1-0.1-0.1-0.1-0.2-0.1l-0.3-0.2
		c0,0,0-0.1-0.1-0.1c0-0.1,0-0.1,0.1-0.2c0-0.1,0.1-0.1,0.1-0.2l-0.4,0.4V22l1-1.4v-0.2l-1.2,1.6v-0.2c0.1-0.1,0.1-0.2,0.2-0.4
		c0.1-0.2,0.3-0.4,0.4-0.5c0.1-0.2,0.2-0.4,0.3-0.5c0.4-0.7,0.9-1.4,1.5-2.1C63.3,17.7,63.9,17.1,64.5,16.6L64.5,16.6z M60.4,31.3
		c0,0.3,0,0.6,0,1.1c0,0.5,0.1,0.8,0.2,1c-0.1-0.4-0.1-0.8-0.1-1.1c0-0.4,0-0.7,0-1.1L60.4,31.3z M61,32.6c0-0.4,0-0.7,0-1.1
		c0-0.3,0-0.7,0.1-1.1c-0.1,0.2-0.1,0.4-0.1,0.6c0,0.2,0,0.4,0,0.6c0,0.2,0,0.3,0,0.5C60.9,32.3,60.9,32.4,61,32.6z M61.5,32.1
		L61.5,32.1l-0.1,0.3h0.1V32.1z M61.8,32.9v-0.6C61.8,32.5,61.8,32.7,61.8,32.9z M62,30.8L62,30.8c-0.1,0.1-0.1,0.3-0.1,0.4
		c0,0.1,0,0.3,0,0.5L62,30.8z M63.1,32c0.6-0.4,1.1-0.9,1.3-1.7c0.3-0.8,0.4-1.5,0.4-2.1c0,0,0-0.1,0-0.1c0,0,0-0.1,0-0.1
		c-0.2,0.1-0.4,0.4-0.6,0.7c-0.2,0.3-0.4,0.7-0.5,1c-0.1,0.4-0.3,0.7-0.4,1.1c-0.1,0.4-0.1,0.7-0.1,1V32z M65.1,27.8
		c0,0.7-0.1,1.2-0.2,1.8c-0.2,0.5-0.4,1.1-0.6,1.7v0.1c0.3-0.4,0.6-0.9,0.7-1.6c0.2-0.7,0.2-1.2,0.2-1.7L65.1,27.8z M65.4,27.9
		c0,0.3,0,0.6-0.1,0.8c0,0.3-0.1,0.6-0.1,0.8c0.1-0.4,0.2-0.7,0.2-1.1C65.5,28.2,65.4,28,65.4,27.9z M65.6,28.8L65.6,28.8l0.1-0.5
		h-0.1V28.8z M65.8,28.4c0,0.2,0,0.3,0,0.5c0,0.1,0,0.3,0,0.5c0-0.2,0.1-0.3,0.1-0.5C65.9,28.8,65.9,28.6,65.8,28.4z M66.1,28.5
		c0,0.2,0,0.3,0,0.5c0,0.1,0,0.3,0,0.5c0-0.1,0.1-0.2,0.1-0.3c0-0.1,0-0.2,0-0.3C66.1,28.7,66.1,28.6,66.1,28.5z M73.2,29.6
		c-0.1,0.1-0.2,0.2-0.2,0.2c0,0.1-0.1,0.2-0.2,0.2v0.1L73.2,29.6z M75.8,26.4c0.1-0.1,0.2-0.2,0.2-0.3L75.8,26.4z"/>
	<path class="st0" d="M90.4,26.5c0,0.5-0.2,1-0.5,1.5c-0.3,0.5-0.7,1-1.1,1.5c-0.5,0.5-1,0.8-1.5,1.1c-0.5,0.3-1,0.4-1.5,0.4
		c-0.1,0-0.3-0.1-0.5-0.2c-0.3-0.1-0.5-0.2-0.8-0.4c-0.3-0.1-0.5-0.3-0.8-0.4c-0.2-0.1-0.4-0.2-0.5-0.2c0,0.1-0.2,0.6-0.5,1.3
		c-0.3,0.7-0.7,1.6-1.1,2.6c-0.4,1-0.9,2.1-1.5,3.3c-0.5,1.2-1.1,2.2-1.6,3.2c-0.5,1-1,1.8-1.4,2.4c-0.4,0.6-0.7,1-1,1
		c-0.1,0-0.2,0-0.4-0.1c-0.2-0.1-0.5-0.2-0.7-0.3c-0.3-0.1-0.5-0.2-0.7-0.4c-0.2-0.1-0.3-0.2-0.3-0.3c-0.1-0.2-0.2-0.6-0.2-1
		c0-0.5-0.1-0.9-0.1-1.4c0-0.5-0.1-1-0.1-1.5c0-0.5,0-0.9,0-1.1c0-1.2,0-2.5,0-3.7c0-1.2,0-2.4-0.1-3.7c0-1-0.2-2-0.4-2.9
		c-0.3-1-0.4-1.9-0.4-2.9c0-0.1,0-0.3,0-0.4c0-0.1,0.1-0.2,0.3-0.3c0.1,0,0.1,0.1,0.1,0.3v0.3c0-0.1,0-0.2,0-0.3
		c0-0.1,0-0.2,0.1-0.3l0.4,0.2c0.1-0.1,0.2-0.1,0.3-0.1l0.1-0.2c0.1,0.1,0.3,0.2,0.3,0.3c0.1,0.1,0.1,0.2,0.2,0.3
		c0.4-0.1,0.7,0.3,0.9,1c0.2,0.7,0.4,1.6,0.6,2.6c0.2,1,0.3,1.9,0.4,2.8c0.1,0.9,0.1,1.5,0.1,1.8c0,1.2-0.1,2.5-0.2,3.8
		c-0.2,1.3-0.2,2.5-0.2,3.7v0.7c0.1-0.1,0.2-0.2,0.3-0.4c1-2.1,1.9-3.9,2.7-5.6c0.3-0.7,0.7-1.4,1-2.1c0.3-0.7,0.6-1.3,0.9-1.9
		c0.3-0.6,0.5-1,0.6-1.4c0.2-0.4,0.2-0.6,0.2-0.7c0-0.4-0.1-0.8-0.2-1.2c-0.1-0.4-0.2-0.8-0.2-1.2c0-0.5,0.1-1.3,0.4-2.4
		c0.3-1,0.6-2.1,1-3.1c0.4-1,0.9-1.9,1.5-2.7c0.6-0.8,1.2-1.2,1.9-1.2c0.3,0,0.7,0.1,1.2,0.2c0.5,0.2,0.7,0.4,0.7,0.8
		c0,0.7-0.2,1.5-0.6,2.5c-0.4,1-0.8,2-1.3,3c-0.5,1-0.9,1.9-1.3,2.8c-0.4,0.9-0.6,1.5-0.6,1.8c0,0.2,0,0.4,0.1,0.7
		c0.1,0.3,0.2,0.5,0.3,0.8c0.1,0.3,0.3,0.5,0.5,0.7c0.2,0.2,0.4,0.3,0.5,0.3c0.4,0,0.8-0.1,1.2-0.4c0.4-0.3,0.9-0.6,1.3-1
		c0.4-0.4,0.8-0.8,1.2-1.2C89.9,27.2,90.2,26.8,90.4,26.5L90.4,26.5z M74.4,42.4c0-0.5,0-0.9-0.1-1.4c0-0.5-0.1-0.9-0.1-1.3
		c0-0.8,0-1.9,0.1-3.3c0-1.4,0-2.8,0-4.2c0-1.4-0.1-2.7-0.2-4c-0.1-1.2-0.3-2.1-0.5-2.7c0,0.1,0,0.4,0.1,0.7
		c0.1,0.4,0.1,0.6,0.2,0.8c0.1,0.9,0.3,1.9,0.3,2.8c0.1,0.9,0.1,1.9,0.1,2.8v1.9c0,0.3,0,0.9,0,1.7c0,0.8,0,1.6-0.1,2.5
		c0,0.9,0,1.6,0,2.4C74.2,41.8,74.3,42.2,74.4,42.4z M74.6,41.3c0-1,0-2,0.1-3.1c0.1-1,0.1-2,0.1-3.1v-3.6c0,0,0,0.4-0.1,1.2
		c0,0.7-0.1,1.6-0.1,2.5c0,0.9,0,1.7-0.1,2.6c0,0.8,0,1.3,0,1.6v1.8C74.5,41.2,74.5,41.2,74.6,41.3C74.6,41.2,74.6,41.3,74.6,41.3z
		 M74.6,30.4L74.6,30.4l0.1-0.4h-0.1V30.4z M74.6,41.8c0-0.2,0-0.3-0.1-0.4L74.6,41.8L74.6,41.8z M74.6,31.4L74.6,31.4l0.1-0.7h-0.1
		V31.4z M75,39.4c0,0.3,0,0.5,0,0.7c0,0.2,0,0.5,0,0.7V39.4z M75.2,36.8L75.2,36.8l-0.1,0.7h0.1V36.8z M75.2,35.5L75.2,35.5
		l-0.1,0.8h0.1V35.5z M75.6,32.1C75.6,32,75.6,32,75.6,32.1c0-0.1-0.1-0.1-0.1-0.2c0,1.4,0,2.8-0.1,4.2c-0.1,1.4-0.2,2.8-0.2,4.2
		c0,0.3,0,0.6,0,0.8c0,0.2,0,0.5,0.1,0.8c0-1.3,0.1-2.5,0.2-3.8c0.1-1.3,0.2-2.5,0.2-3.8V32.1z M75.2,34.8L75.2,34.8l0.1-0.9h-0.1
		V34.8z M75.5,31.5L75.5,31.5l0.1-0.5L75.5,31V31.5z M76.3,41.1c0.9-2.1,1.9-4.1,2.9-6.1c1-2,2-4.1,2.8-6.2v-0.2L82,28.8
		c0,0.1-0.2,0.5-0.5,1.1c-0.3,0.6-0.6,1.4-1.1,2.3c-0.4,0.9-0.9,1.9-1.4,2.9c-0.5,1-0.9,2-1.3,2.9c-0.4,0.9-0.7,1.6-1,2.2
		C76.4,40.8,76.3,41.1,76.3,41.1z M79,36.3c0.1-0.1,0.3-0.5,0.6-1.3c0.3-0.8,0.7-1.6,1.1-2.5c0.4-0.9,0.7-1.7,1-2.4
		c0.3-0.7,0.5-1.1,0.5-1.1c-0.5,1.2-1.1,2.5-1.6,3.7C80.1,33.8,79.6,35,79,36.3z M81.8,31.1L81.8,31.1l-0.1,0.2h0.1L81.8,31.1z
		 M82,26.3c0-0.9,0.1-1.9,0.4-2.9c0.3-1,0.6-2,0.9-2.8c-0.2,0.2-0.4,0.5-0.5,1c-0.2,0.5-0.3,1.1-0.4,1.6c-0.1,0.6-0.2,1.1-0.3,1.7
		c-0.1,0.5-0.1,0.9-0.1,1.2c0,0.2,0,0.4,0.1,0.8c0,0.3,0.1,0.6,0.2,0.7l0.1-0.1C82,27.1,82,26.7,82,26.3z M82,30.6
		c0-0.1,0-0.1,0.1-0.2L82,30.3V30.6L82,30.6z M82.4,27c0-0.3,0-0.7,0-1.1c0-0.4,0-0.8,0.1-1.1c-0.1,0.2-0.1,0.4-0.1,0.7
		c0,0.2,0,0.5,0,0.7C82.3,26.5,82.3,26.8,82.4,27z M82.4,29.6c-0.1,0-0.1,0.1-0.1,0.3L82.4,29.6z M82.4,29.6
		c0.1-0.1,0.1-0.2,0.1-0.3h-0.1c0,0.1,0,0.1,0,0.1C82.4,29.5,82.4,29.5,82.4,29.6z M83.3,20.5l0.2-0.3h-0.1L83.3,20.5z M83.3,25.3
		c0-0.1,0-0.3,0.1-0.3h-0.1C83.3,25.1,83.3,25.2,83.3,25.3L83.3,25.3z M87.2,18.1c-0.1,0.2-0.3,0.7-0.5,1.4
		c-0.3,0.7-0.6,1.4-0.9,2.2c-0.3,0.7-0.6,1.4-0.8,2c-0.2,0.6-0.4,0.9-0.4,0.9l0.1-0.1c0.2-0.6,0.5-1.1,0.7-1.7
		c0.3-0.5,0.5-1.1,0.7-1.6c0.2-0.5,0.4-1,0.5-1.5C86.9,19,87.1,18.6,87.2,18.1L87.2,18.1z M85.1,23c0,0,0.1-0.2,0.3-0.6
		c0.2-0.4,0.3-0.7,0.3-0.8c0,0,0.1-0.2,0.2-0.4c0.1-0.2,0.2-0.5,0.3-0.8c0.1-0.3,0.2-0.5,0.3-0.8c0.1-0.2,0.1-0.4,0.1-0.4l0.1-0.2
		c-0.1,0-0.2,0.2-0.3,0.6c-0.1,0.4-0.3,0.8-0.5,1.2c-0.2,0.4-0.4,0.9-0.5,1.3c-0.2,0.4-0.3,0.7-0.3,0.8L85.1,23z M87,19.5L87,19.5
		C86.9,19.6,86.9,19.6,87,19.5c-0.1,0.1-0.1,0.1-0.1,0.2h0.1L87,19.5z M87.1,19.2c0.1-0.2,0.2-0.4,0.2-0.6c0.1-0.2,0.1-0.4,0.1-0.6
		v-0.1L87.1,19.2z"/>
	<path class="st0" d="M104,28.4c-0.1,0.3-0.2,0.8-0.5,1.4c-0.2,0.7-0.5,1.4-0.9,2.2c-0.4,0.8-0.8,1.6-1.2,2.5
		c-0.5,0.9-0.9,1.6-1.4,2.3c-0.5,0.7-1,1.3-1.5,1.7c-0.5,0.5-1,0.7-1.5,0.7c-0.3,0-0.6-0.1-0.9-0.2c-0.4-0.1-0.7-0.3-1-0.5
		c-0.3-0.2-0.6-0.5-0.8-0.8c-0.2-0.3-0.3-0.6-0.3-1c0-0.8,0.1-1.6,0.2-2.5c0.1-0.9,0.3-1.7,0.4-2.4c0-0.1,0.1-0.2,0.1-0.4
		c0-0.1,0.1-0.2,0.1-0.4v-0.2c-0.3,0.3-0.6,0.7-1,1.2c-0.4,0.5-0.8,1.1-1.3,1.6c-0.5,0.5-0.9,1-1.4,1.4c-0.5,0.4-0.9,0.6-1.2,0.6
		c-0.8-0.4-1.5-0.7-1.9-1.1c-0.5-0.4-0.7-1.1-0.7-2.1c0-0.8,0.2-1.6,0.6-2.4c0.4-0.9,0.9-1.6,1.5-2.4c0.6-0.7,1.3-1.3,2-1.8
		c0.8-0.5,1.5-0.7,2.3-0.7c0.5,0,1.1,0.1,1.6,0.2c0.6,0.1,1.1,0.3,1.6,0.4c0.1-0.1,0.2-0.2,0.3-0.3c0.1-0.1,0.2-0.2,0.4-0.2
		c0.1,0,0.3,0,0.3,0.1l0.1,0.1c0,0,0.1,0.1,0.2,0.1c0,0,0.1,0,0.1-0.1l0.1,0.2c0.2,0,0.3,0,0.4-0.1l0.3,0.2c0.2-0.1,0.3,0,0.4,0.2
		c0.1,0.2,0.1,0.4,0.1,0.5c0,0.2-0.1,0.5-0.2,0.9c-0.1,0.4-0.3,0.7-0.5,1.1c-0.2,0.4-0.4,0.8-0.5,1.1c-0.2,0.3-0.3,0.6-0.3,0.7
		c-0.1,0.3-0.3,0.8-0.5,1.4c-0.2,0.7-0.4,1.4-0.6,2.1c-0.2,0.7-0.4,1.5-0.5,2.2c-0.1,0.7-0.2,1.2-0.2,1.5c0,0.1,0,0.1,0,0.1
		c0,0,0,0.1,0,0.1c0.2,0,0.5-0.3,0.9-0.7c0.4-0.4,0.8-1,1.3-1.6c0.5-0.6,1-1.3,1.5-2.1c0.5-0.8,1-1.5,1.5-2.2
		c0.5-0.7,0.9-1.4,1.2-1.9c0.3-0.6,0.6-1,0.7-1.2l0.1,0.1c-0.4,0.7-0.8,1.4-1.2,2.2c-0.4,0.7-0.8,1.4-1.3,2.1l0.1,0.1
		c0-0.1,0.2-0.3,0.4-0.7c0.2-0.4,0.5-0.8,0.8-1.2c0.3-0.4,0.6-0.8,0.8-1.3c0.3-0.4,0.4-0.8,0.5-1.1l0.2,0.1
		c-0.4,0.7-0.6,1.2-0.8,1.6c-0.2,0.4-0.4,0.7-0.5,1.1c-0.2,0.3-0.2,0.5-0.2,0.5c0.1,0,0.2-0.2,0.3-0.4c0.1-0.3,0.3-0.5,0.4-0.8
		c0.1-0.3,0.3-0.6,0.5-0.9c0.2-0.3,0.3-0.5,0.5-0.7l0.1-0.3L104,28.4c-0.1,0.1-0.3,0.4-0.5,0.8c-0.2,0.5-0.4,0.7-0.4,0.8v0.1
		L104,28.4z M87.5,33c0-0.9,0.1-1.7,0.4-2.6l-0.1,0.1c-0.3,0.8-0.5,1.7-0.5,2.5c0,0.3,0.1,0.6,0.2,0.9C87.6,33.6,87.5,33.4,87.5,33z
		 M87.9,33.3c0-0.2,0-0.3,0-0.5c0-0.1,0-0.3,0.1-0.5c0,0.1-0.1,0.2-0.1,0.3c0,0.1,0,0.2,0,0.3C87.8,33.2,87.8,33.3,87.9,33.3z
		 M88.6,34c0-0.2,0.1-0.4,0.1-0.6c0-0.2,0-0.4,0-0.6c-0.1,0.4-0.1,0.6-0.1,0.8V34z M96.1,26.7c-0.7,0-1.4,0.2-2.1,0.7
		c-0.8,0.5-1.4,1.2-2.1,1.9c-0.6,0.8-1.1,1.6-1.6,2.4c-0.4,0.9-0.6,1.6-0.6,2.2v0.3c0.2-0.1,0.4-0.2,0.7-0.5v0.1
		c-0.1,0.1-0.2,0.2-0.3,0.3c-0.1,0.1-0.2,0.2-0.2,0.4c0.2-0.1,0.3-0.2,0.4-0.3c0.1-0.1,0.2-0.2,0.4-0.4c-0.1,0.3-0.3,0.4-0.4,0.5
		l-0.1,0.3c0.4-0.4,0.7-0.7,1.1-1.1c0.4-0.3,0.7-0.7,1-1.1c-0.1,0.1-0.2,0.4-0.5,0.7c-0.2,0.3-0.4,0.5-0.5,0.6l0.1,0.1
		c0.1-0.1,0.4-0.5,0.8-0.9c0.4-0.5,0.8-1,1.3-1.5c0.4-0.5,0.8-1,1.2-1.5c0.4-0.5,0.5-0.8,0.5-0.9c-0.4,0.4-0.7,0.9-1,1.3
		c-0.3,0.4-0.7,0.9-1.1,1.3c0-0.1,0.1-0.3,0.3-0.5c0.2-0.2,0.4-0.5,0.6-0.7c0.2-0.3,0.4-0.5,0.6-0.7c0.2-0.2,0.4-0.4,0.5-0.5
		c0.3-0.4,0.5-0.7,0.6-1.1C95.7,27.5,95.9,27.2,96.1,26.7L96.1,26.7z M94.1,37c0.1-1.2,0.2-2.3,0.5-3.5c0.2-1.1,0.5-2.3,0.8-3.4
		l-0.1-0.1c-0.1,0.2-0.2,0.6-0.3,1.2c-0.1,0.6-0.3,1.3-0.5,2c-0.2,0.7-0.3,1.4-0.4,2c-0.1,0.6-0.2,1-0.2,1.1
		C93.9,36.6,94,36.8,94.1,37z M94.4,36.8c0-0.2,0.1-0.4,0.1-0.6c0-0.2,0-0.4,0-0.6v-0.1c-0.1,0.2-0.2,0.5-0.2,0.8L94.4,36.8z
		 M95.1,36.9c0.1-0.3,0.1-0.5,0.1-0.6v-0.2c0,0.1-0.1,0.2-0.1,0.3c0,0.1,0,0.2,0,0.3V36.9z"/>
	<path class="st0" d="M137.7,8.1c0.2,0.3,0.4,0.5,0.5,0.6c0.2,0.2,0.2,0.4,0.2,0.7c0,0.5-0.2,0.7-0.7,0.7c-0.2,0-0.5-0.1-0.8-0.3
		c-0.4-0.2-0.6-0.3-0.8-0.4L136,9.2l-0.2,0.2l-0.2-0.2c0.1-0.3,0-0.5-0.2-0.6c-0.8-0.2-1.7-0.3-2.7-0.3c-1,0-1.9,0-2.8,0
		c-0.8,0-1.8,0-3,0.1c-1.2,0.1-2.5,0.2-3.8,0.4c-1.3,0.1-2.5,0.3-3.7,0.5c-1.2,0.2-2.2,0.4-2.9,0.5c-0.1,0-0.3,0.2-0.4,0.4
		c-0.2,0.2-0.4,0.5-0.5,0.7c-0.2,0.3-0.3,0.5-0.5,0.8c-0.2,0.3-0.3,0.5-0.4,0.6c-0.3,0.4-0.6,0.8-0.8,1.3c-0.3,0.4-0.6,0.8-1,1.2
		c-0.2,0.2-0.4,0.4-0.6,0.8c-0.2,0.3-0.4,0.7-0.7,1.1c-0.2,0.4-0.4,0.8-0.6,1.2c-0.2,0.4-0.4,0.7-0.5,1c-0.1,0.2-0.3,0.5-0.4,0.7
		c-0.1,0.3-0.2,0.5-0.3,0.8c-0.8,1.8-1.5,3.8-2.3,5.9c-0.8,2.1-1.5,4.3-2.1,6.5c-0.6,2.2-1.1,4.4-1.5,6.7c-0.4,2.2-0.6,4.4-0.6,6.4
		c0,0.7,0,1.4,0.1,2c0,0.6,0.2,1.2,0.4,1.9c0.4-0.2,0.7-0.4,1-0.6c0.3-0.2,0.7-0.4,1-0.7c0.7-0.5,1.3-1.2,2-2.1
		c0.7-0.8,1.3-1.7,2-2.7c0.6-0.9,1.2-1.9,1.8-2.8c0.5-0.9,1-1.8,1.3-2.6c-0.1,0.3-0.3,0.8-0.6,1.4c-0.3,0.6-0.7,1.3-1,1.9
		c-0.4,0.7-0.8,1.3-1.1,1.9c-0.4,0.6-0.7,1.1-0.9,1.4l-0.1,0.2c0.4-0.6,0.8-1.2,1.2-1.8c0.4-0.6,0.7-1.2,1.1-1.8
		c0.1-0.1,0.2-0.4,0.4-0.9c0.2-0.4,0.5-0.9,0.7-1.4c0.3-0.5,0.5-0.9,0.7-1.3c0.2-0.4,0.3-0.6,0.4-0.6c-0.3,0.9-0.7,1.7-1.3,2.5
		s-0.9,1.7-1.2,2.5c0.1-0.1,0.2-0.2,0.4-0.5c0.1-0.3,0.3-0.5,0.4-0.8c0.1-0.3,0.3-0.5,0.4-0.8c0.1-0.2,0.2-0.4,0.4-0.5
		c0,0,0.1-0.2,0.2-0.5c0.1-0.3,0.3-0.6,0.5-1c0.2-0.4,0.3-0.7,0.5-1c0.2-0.3,0.3-0.5,0.4-0.6c-0.4,0.8-0.7,1.6-1.1,2.4
		c-0.4,0.8-0.7,1.6-1.1,2.4c0.5-0.7,0.9-1.4,1.3-2.3c0.4-0.9,0.7-1.7,1-2.4l0.1,0.1c-0.1,0.1-0.2,0.4-0.4,0.7
		c-0.2,0.4-0.2,0.6-0.2,0.7v0.1c0.4-0.7,0.7-1.4,1-2.2c0.3-0.7,0.6-1.4,0.9-2.2c0.2-0.4,0.3-0.9,0.5-1.4c0.1-0.5,0.3-1,0.6-1.4v0.2
		c-0.3,0.7-0.6,1.4-0.9,2.1c-0.3,0.7-0.6,1.5-0.7,2.2l0.7-1.6l0.1,0.1c0,0.1-0.1,0.4-0.2,0.9c-0.2,0.5-0.4,1-0.6,1.6
		c-0.2,0.6-0.5,1.1-0.7,1.7c-0.2,0.5-0.4,0.9-0.4,1c-0.9,2-1.8,4-2.9,5.8c-1.1,1.8-2.5,3.4-4.3,4.8c-0.3,0.2-0.6,0.4-0.9,0.6
		c-0.3,0.2-0.7,0.2-1.1,0.2c-0.3,0-0.6,0-0.8-0.1c-0.3-0.1-0.5-0.2-0.8-0.4c-0.4-0.2-0.7-0.4-0.9-0.5c-0.2-0.1-0.5-0.4-0.7-0.8
		c-0.4-0.6-0.6-1.4-0.7-2.2c-0.1-0.9-0.2-1.6-0.2-2.4c0-1.2,0.1-2.6,0.2-4.1c0.2-1.5,0.4-3,0.6-4.6c0.3-1.5,0.6-3,0.9-4.5
		c0.3-1.5,0.7-2.8,1-3.9c0.4-1.2,0.8-2.6,1.4-4c0.6-1.5,1.2-2.9,1.9-4.4c0.7-1.5,1.4-2.9,2.2-4.4c0.7-1.4,1.5-2.7,2.2-3.8
		c-0.5,0.1-1.2,0.2-2,0.4c-0.8,0.1-1.7,0.2-2.6,0.3c-0.9,0.1-1.8,0.2-2.6,0.2c-0.8,0.1-1.5,0.1-2,0.1c-1.2,0-2.2-0.1-3.1-0.2
		c-0.9-0.2-1.9-0.6-2.9-1.2c-0.1-0.1-0.3-0.2-0.4-0.3c-0.1-0.1-0.2-0.3-0.2-0.4c0-0.1,0-0.2,0.1-0.3l0.1,0.3h0.1l0.1-0.2l0.1,0.2
		c0.1-0.1,0.1-0.1,0.1,0.1l0.1-0.2l0.1,0.2L96,9.4l0.1,0.2l0.2-0.2c0.1,0.1,0.3,0.2,0.4,0.3c0.2,0.3,0.4,0.5,0.6,0.6
		c0.2,0.1,0.5,0.1,0.9,0.1c2.3,0,4.7-0.2,6.9-0.5c2.3-0.4,4.6-0.7,6.9-1c0.2,0,0.5-0.3,0.8-0.8c0.3-0.5,0.7-1,1.2-1.6
		c0.4-0.6,0.9-1.1,1.4-1.6c0.5-0.5,1-0.7,1.5-0.7c0.1,0.1,0.3,0.1,0.4,0.2c0.1,0.1,0.3,0.1,0.5,0.1c0.2-0.1,0.3,0,0.4,0.1
		c0.3,0.1,0.4,0.3,0.4,0.5c0,0.1-0.1,0.2-0.2,0.5c-0.1,0.3-0.2,0.5-0.4,0.8c-0.1,0.3-0.3,0.6-0.4,0.8c-0.1,0.3-0.2,0.5-0.3,0.6
		c0.5,0,1,0,1.6-0.1c0.6-0.1,1.1-0.2,1.6-0.3c1.6-0.3,3.2-0.5,4.8-0.7c1.6-0.2,3.2-0.3,4.9-0.3c0.5,0,1,0,1.7,0.1
		c0.7,0.1,1.4,0.2,2,0.3c0.7,0.1,1.4,0.3,2,0.5C136.7,7.7,137.2,7.9,137.7,8.1L137.7,8.1z M101.1,44.3c0-2.4,0.2-4.8,0.7-7.2
		c0.5-2.4,0.9-4.8,1.4-7.2c0,0-0.1,0.3-0.2,0.8c-0.1,0.5-0.2,1-0.3,1.6c-0.1,0.6-0.2,1.1-0.3,1.6c-0.1,0.5-0.2,0.8-0.2,0.8
		c-0.3,1.6-0.6,3.3-0.9,5c-0.3,1.7-0.4,3.4-0.4,5c0,0.5,0,1,0.1,1.5c0.1,0.5,0.2,1,0.4,1.5c-0.1-0.5-0.2-1.1-0.2-1.7
		C101.1,45.5,101.1,44.9,101.1,44.3z M101.5,42.7c0-0.7,0.1-1.5,0.3-2.2c0.2-0.7,0.2-1.5,0.2-2.2v-0.1c-0.3,1.1-0.5,2.3-0.6,3.5
		c-0.1,1.3-0.1,2.5-0.1,3.6c0,0.3,0,0.6,0.1,0.9v-0.3c0-0.1,0-0.3-0.1-0.3L101.5,42.7z M102.1,43.1L102.1,43.1l-0.1,0.2h0.1V43.1z
		 M102.2,37.3c0-0.1,0-0.1,0.1-0.2c0-0.1,0-0.1-0.1-0.2V37.3L102.2,37.3z M102.2,45.1c0-1.1,0.1-2.3,0.3-3.4
		c0.1-1.1,0.3-2.2,0.5-3.3c0-0.2,0.1-0.4,0.1-0.5c0-0.2,0.1-0.4,0.1-0.5l0-0.1c-0.2,1.2-0.4,2.4-0.6,3.7c-0.2,1.3-0.3,2.6-0.3,3.8
		V45.1z M103.2,36.8c0-0.1,0.1-0.2,0.1-0.3C103.2,36.5,103.2,36.6,103.2,36.8z M113.6,38.5c0.1-0.1,0.1-0.1,0.1-0.2L113.6,38.5z"/>
	<path class="st0" d="M132.6,26.3l-0.2,0.4c-0.4,0.7-1.1,1.7-1.9,2.9c-0.8,1.2-1.8,2.3-2.8,3.5c-1,1.1-2.1,2.1-3.2,2.9
		c-1.1,0.8-2.1,1.2-3.1,1.2c-0.4,0-0.8-0.1-1.2-0.2c-0.4-0.1-0.8-0.3-1.1-0.5c-0.6-0.4-1.2-0.7-1.6-1c-0.4-0.3-0.8-0.7-1.1-1
		c-0.3-0.4-0.5-0.8-0.6-1.4c-0.1-0.5-0.2-1.2-0.2-1.9c0-0.4,0-0.9,0.1-1.3c0.1-0.5,0.2-0.9,0.3-1.3c0.2-0.2,0.4-0.5,0.5-0.8
		c0.1-0.3,0.3-0.6,0.5-0.8c0.2-0.3,0.4-0.5,0.7-0.7c0.3-0.2,0.7-0.3,1.2-0.3c0.1,0,0.3,0,0.5,0.1c0.3,0.1,0.6,0.1,0.9,0.2
		c0.3,0.1,0.6,0.2,0.9,0.2c0.3,0.1,0.4,0.2,0.4,0.2c0.1,0,0.3,0,0.4,0.1c0.1,0.1,0.2,0.2,0.2,0.2l0.1,0.3l-0.1,0.1
		c0.1,0.3,0.2,0.5,0.3,0.7c0.1,0.2,0.2,0.4,0.2,0.7c0,0.4-0.1,0.8-0.2,1.2c-0.1,0.5-0.4,0.9-0.6,1.3c-0.3,0.4-0.6,0.8-1,1
		c-0.4,0.3-0.8,0.4-1.2,0.4c-0.2,0-0.3,0-0.5,0c-0.1,0-0.3,0-0.5,0l-0.1,0.1c0,0.2,0,0.4,0.1,0.8c0,0.3,0.1,0.7,0.2,1
		c0.1,0.3,0.2,0.6,0.4,0.9c0.2,0.3,0.4,0.4,0.7,0.4c0.8,0,1.6-0.3,2.5-0.9c0.9-0.6,1.7-1.3,2.6-2c0.9-0.8,1.6-1.6,2.3-2.5
		c0.7-0.9,1.3-1.6,1.7-2.1c0.1-0.1,0.3-0.3,0.4-0.6c0.2-0.3,0.4-0.5,0.5-0.8c0.2-0.3,0.4-0.5,0.5-0.8c0.2-0.2,0.3-0.4,0.4-0.5
		c-0.6,0.9-1.2,1.8-1.9,2.7c-0.6,0.9-1.3,1.7-1.9,2.6c0.2-0.1,0.5-0.5,0.9-1c0.4-0.5,0.8-1,1.2-1.6c0.4-0.6,0.8-1.1,1.2-1.7
		c0.4-0.5,0.6-0.9,0.8-1.2l0.1-0.1l0.1,0.1c-0.4,0.4-0.8,1-1.2,1.6c-0.4,0.7-0.7,1.3-1.1,1.8v0.1c0.1,0,0.2-0.2,0.5-0.6
		c0.2-0.3,0.5-0.7,0.8-1.1c0.3-0.4,0.5-0.8,0.8-1.1c0.2-0.3,0.4-0.6,0.4-0.7l0.4,0.1l0.2-0.1l0.3,0.2L132.6,26.3z M116.3,31.3
		c0,0.3,0,0.6,0,1.1c0,0.5,0.1,0.8,0.2,1c-0.1-0.4-0.1-0.8-0.1-1.1c0-0.4,0-0.7,0-1.1L116.3,31.3z M116.8,32.6c0-0.4,0-0.7,0-1.1
		c0-0.3,0-0.7,0.1-1.1c-0.1,0.2-0.1,0.4-0.1,0.6c0,0.2,0,0.4,0,0.6c0,0.2,0,0.3,0,0.5C116.8,32.3,116.8,32.4,116.8,32.6z
		 M117.4,32.1L117.4,32.1l-0.1,0.3h0.1V32.1z M117.6,32.9v-0.6C117.7,32.5,117.7,32.7,117.6,32.9z M117.9,30.8L117.9,30.8
		c-0.1,0.1-0.1,0.3-0.1,0.4c0,0.1,0,0.3,0,0.5L117.9,30.8z M119,32c0.6-0.4,1.1-0.9,1.3-1.7c0.3-0.8,0.4-1.5,0.4-2.1
		c0,0,0-0.1,0-0.1c0,0,0-0.1,0-0.1c-0.2,0.1-0.4,0.4-0.6,0.7c-0.2,0.3-0.4,0.7-0.5,1c-0.1,0.4-0.3,0.7-0.4,1.1
		c-0.1,0.4-0.1,0.7-0.1,1V32z M120.9,27.8c0,0.7-0.1,1.2-0.2,1.8c-0.2,0.5-0.4,1.1-0.6,1.7v0.1c0.3-0.4,0.6-0.9,0.7-1.6
		c0.2-0.7,0.2-1.2,0.2-1.7L120.9,27.8z M121.2,27.9c0,0.3,0,0.6-0.1,0.8c0,0.3-0.1,0.6-0.1,0.8c0.1-0.4,0.2-0.7,0.2-1.1
		C121.3,28.2,121.3,28,121.2,27.9z M121.4,28.8L121.4,28.8l0.1-0.5h-0.1V28.8z M121.7,28.4c0,0.2,0,0.3,0,0.5c0,0.1,0,0.3,0,0.5
		c0-0.2,0.1-0.3,0.1-0.5C121.7,28.8,121.7,28.6,121.7,28.4z M121.9,28.5c0,0.2,0,0.3,0,0.5c0,0.1,0,0.3,0,0.5c0-0.1,0.1-0.2,0.1-0.3
		c0-0.1,0-0.2,0-0.3C122,28.7,121.9,28.6,121.9,28.5z M129,29.6c-0.1,0.1-0.2,0.2-0.2,0.2c0,0.1-0.1,0.2-0.2,0.2v0.1L129,29.6z
		 M131.6,26.4c0.1-0.1,0.2-0.2,0.2-0.3L131.6,26.4z"/>
	<path class="st0" d="M147,26.4c-0.6-0.1-1.1-0.4-1.6-0.7c-0.5-0.3-0.7-0.8-0.7-1.5c0-1,0.3-2,0.8-3c0.5-1,1.2-1.9,2-2.6
		c0.8-0.8,1.7-1.4,2.7-1.9c1-0.5,2-0.7,3-0.7c0.4,0,0.9,0.1,1.3,0.2c0.4,0.1,0.8,0.2,1.2,0.4c1.9,0.5,2.8,1.7,2.8,3.7
		c0,1.1-0.3,2.3-0.9,3.6c-0.6,1.3-1.4,2.6-2.3,3.9c-0.9,1.3-1.9,2.5-2.9,3.6c-1,1.1-1.9,2.1-2.6,2.9c-0.3,0.3-0.7,0.6-1.2,1
		c-0.5,0.4-0.9,0.8-1.1,1.2c0.4,0.3,0.7,0.6,1.1,1.1c0.4,0.5,0.8,1,1.1,1.4c0.4,0.5,0.8,0.9,1.1,1.3c0.4,0.4,0.7,0.5,1.1,0.5
		c0.4,0,0.8-0.1,1.3-0.4c0.5-0.3,0.9-0.6,1.4-1.1c0.4-0.4,0.8-0.9,1.1-1.4c0.3-0.5,0.4-0.9,0.4-1.3c0-0.2,0-0.3-0.1-0.4
		c-0.1-0.1-0.2-0.2-0.4-0.2l0.3-0.1c0.4,0.1,0.8,0.2,1.2,0.4c0.4,0.2,0.6,0.5,0.6,1c0,0.5-0.1,1-0.4,1.6c-0.2,0.6-0.6,1.1-1,1.6
		c-0.4,0.5-0.9,0.9-1.4,1.2c-0.5,0.3-1,0.5-1.6,0.5c-0.5,0-0.9-0.1-1.3-0.2c-0.4-0.1-0.8-0.3-1.3-0.5c-0.6-0.3-1.1-0.5-1.5-0.8
		c-0.4-0.3-0.7-0.6-1.1-0.9c-0.3-0.3-0.6-0.7-0.9-1.1c-0.3-0.4-0.6-0.8-1-1.3c-0.3,0.2-0.7,0.4-1.2,0.7c-0.5,0.3-0.9,0.4-1.3,0.4
		c-0.2,0-0.5-0.1-0.7-0.3c-0.3-0.2-0.5-0.3-0.7-0.4v-0.3c0-0.5,0.3-0.9,0.8-1.3c0.5-0.4,1-0.5,1.5-0.5c0.2,0,0.4,0,0.6,0.1
		c0.2,0.1,0.4,0.1,0.6,0.1c0.1,0,0.2-0.1,0.4-0.3c0.2-0.2,0.4-0.4,0.6-0.6c0.2-0.2,0.4-0.5,0.6-0.7c0.2-0.2,0.3-0.4,0.4-0.4
		c0.6-0.7,1.3-1.6,2.3-2.7c0.9-1.1,1.8-2.3,2.7-3.5c0.9-1.2,1.6-2.5,2.2-3.7c0.6-1.2,0.9-2.3,0.9-3.2c0-0.1,0-0.3-0.1-0.7
		c0-0.3-0.1-0.7-0.2-1c-0.1-0.3-0.2-0.7-0.3-0.9c-0.1-0.3-0.3-0.4-0.4-0.4c-0.8,0-1.6,0.3-2.6,0.8c-0.9,0.5-1.8,1.2-2.6,2
		c-0.8,0.8-1.5,1.6-2,2.5c-0.5,0.9-0.8,1.8-0.8,2.6c0,0.2,0,0.3,0.1,0.4c0.1,0.1,0.1,0.2,0.1,0.4c0,0,0,0.1,0,0.1
		C147.1,26.3,147,26.3,147,26.4z M143.1,36.3c-0.1,0.1-0.3,0.2-0.4,0.4c-0.1,0.2-0.2,0.3-0.2,0.4v0.2c0,0,0,0.1,0,0.1c0,0,0,0,0,0.1
		h0.1c0-0.2,0.1-0.4,0.2-0.6C143,36.6,143,36.5,143.1,36.3z M143,37.3v-0.1c0-0.1,0-0.2,0.1-0.3c0.1-0.1,0.1-0.2,0.2-0.3
		c-0.2,0.2-0.4,0.5-0.5,0.8H143z M145.3,25.1c0-0.1,0-0.3-0.1-0.4c0-0.1-0.1-0.3-0.1-0.4c0-0.1,0-0.3,0.1-0.6c0-0.3,0.1-0.5,0.2-0.8
		c0.1-0.3,0.1-0.5,0.2-0.8c0.1-0.2,0.1-0.4,0.2-0.5h-0.1c-0.1,0.3-0.3,0.7-0.5,1.2c-0.2,0.6-0.2,1-0.2,1.3c0,0.3,0.1,0.7,0.3,1.1
		V25.1z M145.5,23.6c-0.1,0.3-0.1,0.5-0.1,0.7c0,0.1,0,0.1,0,0.2c0,0,0,0.1,0,0.2c0-0.2,0-0.4,0-0.5
		C145.5,23.9,145.5,23.8,145.5,23.6z M146.2,24.2c-0.1,0.1-0.1,0.3-0.1,0.5v0.2L146.2,24.2z M147.4,34.4c-0.1,0.1-0.2,0.3-0.4,0.4
		c-0.2,0.1-0.3,0.3-0.4,0.5c0.2-0.2,0.4-0.4,0.6-0.6c0.2-0.2,0.4-0.4,0.6-0.7L147.4,34.4z M147.8,34.5L147.8,34.5
		c-0.1,0-0.1,0-0.2,0.1L147.8,34.5z M154.8,24.9c0.4-0.7,0.7-1.5,1.1-2.2c0.3-0.8,0.5-1.6,0.5-2.4c0-0.5-0.1-1-0.3-1.6
		c0,0.3,0.1,0.6,0.1,0.8c0,0.3,0.1,0.5,0.1,0.8c0,0.9-0.2,1.8-0.6,2.4c-0.4,0.7-0.7,1.4-1,2.3L154.8,24.9z M156.3,36.3L156.3,36.3
		c-0.1,0.5-0.2,1-0.4,1.4c-0.2,0.4-0.4,0.8-0.7,1.2l0.1-0.1c0.3-0.4,0.5-0.7,0.6-1.1c0.2-0.4,0.3-0.8,0.4-1.3L156.3,36.3z M156,38.5
		c0.4-0.5,0.5-1.1,0.5-1.7c0,0,0-0.1,0-0.1c0,0,0-0.1,0-0.2c0,0.4-0.1,0.7-0.2,1C156.2,37.8,156.1,38.1,156,38.5z M156.7,19.8
		L156.7,19.8l-0.1,0.6c0,0.2,0,0.4,0,0.7c0,0.2,0,0.4-0.1,0.6c0.1-0.3,0.2-0.7,0.2-1.2L156.7,19.8z M156.5,37.4
		c0.1-0.2,0.1-0.4,0.1-0.6L156.5,37.4z M156.6,37.8c0.1-0.1,0.1-0.3,0.2-0.4c0.1-0.1,0.1-0.3,0.1-0.5c0,0-0.1,0-0.1-0.1v-0.1
		L156.6,37.8z M157.1,36.8c-0.1,0.3-0.1,0.7-0.2,1.1c0.1-0.2,0.1-0.3,0.2-0.5c0-0.1,0.1-0.3,0.1-0.5V36.8z M157.5,20.2l-0.2,1.4
		c0.1-0.3,0.2-0.7,0.2-1V20.2z"/>
</g>
</svg>
