<?xml version="1.0" encoding="utf-8"?>
<!-- Generator: Adobe Illustrator 22.1.0, SVG Export Plug-In . SVG Version: 6.00 Build 0)  -->
<svg version="1.1" id="Capa_1" xmlns="http://www.w3.org/2000/svg" xmlns:xlink="http://www.w3.org/1999/xlink" x="0px" y="0px"
	 viewBox="0 0 175.5 61" style="enable-background:new 0 0 175.5 61;" xml:space="preserve">
<style type="text/css">
	.st0{fill:#FFFFFF;}
	.st1{fill:#BDC4C2;}
</style>
<g>
	<path class="st0" d="M30.4,50.5v2.6h1.6v0.2h-1.8v-2.8H30.4z"/>
	<path class="st0" d="M35.7,53.3l-0.3-0.7h-1.7l-0.3,0.7h-0.2l1.2-2.8h0.2l1.3,2.8H35.7z M35.3,52.4l-0.7-1.7l-0.7,1.7H35.3z"/>
	<path class="st0" d="M41.8,52.9c-0.3,0.3-0.6,0.4-1,0.4c-0.9,0-1.4-0.7-1.4-1.4c0-0.7,0.5-1.4,1.4-1.4c0.4,0,0.7,0.1,1,0.4L41.7,51
		c-0.2-0.2-0.6-0.4-0.9-0.4c-0.8,0-1.2,0.6-1.2,1.2c0,0.7,0.4,1.2,1.2,1.2c0.3,0,0.6-0.1,0.9-0.4L41.8,52.9z"/>
	<path class="st0" d="M46.1,51.9c0,0.7-0.5,1.4-1.4,1.4c-0.9,0-1.4-0.7-1.4-1.4c0-0.7,0.5-1.4,1.4-1.4
		C45.7,50.4,46.2,51.1,46.1,51.9z M43.5,51.9c0,0.6,0.4,1.2,1.2,1.2c0.8,0,1.2-0.6,1.2-1.2c0-0.6-0.4-1.2-1.2-1.2
		C43.9,50.6,43.5,51.2,43.5,51.9z"/>
	<path class="st0" d="M50.2,50.8l-1.1,1.6h-0.1L48,50.8v2.5h-0.2v-2.8c0.1,0,0.2,0,0.3,0l1.1,1.6l1.1-1.6h0.3v2.8h-0.2V50.8z"/>
	<path class="st0" d="M52.4,52.3v1h-0.2v-2.8c0.4,0,0.8,0,1.2,0c1.2,0,1.2,1.8,0,1.8H52.4z M52.4,50.7v1.4h1c0.9,0,0.9-1.4,0-1.4
		H52.4z"/>
	<path class="st0" d="M58.1,53.3l-0.3-0.7h-1.7l-0.3,0.7h-0.2l1.2-2.8h0.2l1.3,2.8H58.1z M57.7,52.4l-0.7-1.7l-0.7,1.7H57.7z"/>
	<path class="st0" d="M59.9,50.5l1.9,2.3v-2.3H62v2.8h-0.1L60,51v2.3h-0.2L59.9,50.5L59.9,50.5z M60.4,50.1c0-0.2,0.3-0.3,0.4-0.2
		L61,50c0.1,0,0.2,0,0.2-0.1l0.1,0c0,0.2-0.3,0.3-0.4,0.2l-0.2-0.1c-0.1,0-0.2,0-0.2,0.1L60.4,50.1z"/>
	<path class="st0" d="M63.7,50.2L63.7,50.2l0.3-0.5h0.3v0l-0.4,0.5H63.7z M63.9,53.3v-2.8h-0.2v2.8H63.9z"/>
	<path class="st0" d="M67.8,53.3l-0.3-0.7h-1.7l-0.3,0.7h-0.2l1.3-2.8h0.2l1.2,2.8H67.8z M67.5,52.4l-0.7-1.7L66,52.4H67.5z"/>
	<path class="st0" d="M74.1,51.8c0,0.7-0.4,1.4-1.4,1.4c-0.3,0-0.6,0-0.9,0v-2.8c0.3,0,0.6,0,0.9,0C73.6,50.5,74,51.2,74.1,51.8z
		 M71.9,50.7v2.4h0.7c0.8,0,1.2-0.6,1.2-1.2c0-0.6-0.4-1.2-1.2-1.2H71.9z"/>
	<path class="st0" d="M75.9,51.8h1.6V52h-1.6v1.1h1.8v0.2h-2v-2.8h1.9v0.2h-1.7V51.8z"/>
	<path class="st0" d="M81.6,50.5v2.6h1.6v0.2h-1.8v-2.8H81.6z"/>
	<path class="st0" d="M87.3,51.9c0,0.7-0.5,1.4-1.4,1.4s-1.4-0.7-1.4-1.4c0-0.7,0.5-1.4,1.4-1.4S87.3,51.1,87.3,51.9z M84.7,51.9
		c0,0.6,0.4,1.2,1.2,1.2c0.8,0,1.2-0.6,1.2-1.2c0-0.6-0.4-1.2-1.2-1.2S84.7,51.2,84.7,51.9z"/>
	<path class="st0" d="M90.8,51c-0.2-0.3-0.5-0.4-0.8-0.4c-0.3,0-0.8,0.1-0.8,0.6c0,0.4,0.4,0.4,0.9,0.5c0.5,0.1,1.1,0.2,1.1,0.8
		c0,0.6-0.6,0.8-1.1,0.8c-0.4,0-0.9-0.2-1.1-0.6l0.2-0.1c0.2,0.3,0.6,0.5,1,0.5s0.9-0.1,0.9-0.6c0-0.4-0.5-0.5-0.9-0.6
		c-0.5-0.1-1-0.2-1-0.7c0-0.6,0.6-0.8,1.1-0.8c0.4,0,0.7,0.1,1,0.5L90.8,51z"/>
	<path class="st0" d="M95.1,52.3v1h-0.2v-2.8c0.4,0,0.8,0,1.2,0c1.2,0,1.2,1.8,0,1.8H95.1z M95.1,50.7v1.4h1c0.9,0,0.9-1.4,0-1.4
		H95.1z"/>
	<path class="st0" d="M100.8,53.3h-0.3l-1-1.1h-0.8v1.1h-0.2v-2.8c0.4,0,0.8,0,1.2,0c0.6,0,0.9,0.4,0.9,0.9c0,0.5-0.3,0.9-0.9,0.9
		L100.8,53.3z M98.8,52h1c0.5,0,0.7-0.3,0.7-0.7c0-0.3-0.2-0.7-0.7-0.7h-1V52z"/>
	<path class="st0" d="M105,51.9c0,0.7-0.5,1.4-1.4,1.4c-0.9,0-1.4-0.7-1.4-1.4c0-0.7,0.5-1.4,1.4-1.4C104.5,50.4,105,51.1,105,51.9z
		 M102.4,51.9c0,0.6,0.4,1.2,1.2,1.2c0.8,0,1.2-0.6,1.2-1.2c0-0.6-0.4-1.2-1.2-1.2C102.8,50.6,102.4,51.2,102.4,51.9z"/>
	<path class="st0" d="M107.2,52.2l-1.1-1.7v0h0.3l0.9,1.5l0.9-1.5h0.3v0l-1.1,1.7v1.1h-0.2V52.2z"/>
	<path class="st0" d="M110.3,51.8h1.6V52h-1.6v1.1h1.8v0.2h-2v-2.8h1.9v0.2h-1.7V51.8z"/>
	<path class="st0" d="M115.9,52.9c-0.3,0.3-0.6,0.4-1,0.4c-0.9,0-1.4-0.7-1.4-1.4c0-0.7,0.5-1.4,1.4-1.4c0.4,0,0.7,0.1,1,0.4
		l-0.1,0.1c-0.2-0.2-0.6-0.4-0.9-0.4c-0.8,0-1.2,0.6-1.2,1.2c0,0.7,0.4,1.2,1.2,1.2c0.3,0,0.6-0.1,0.9-0.4L115.9,52.9z"/>
	<path class="st0" d="M118.3,50.7h-1v-0.2h2.2v0.2h-1v2.6h-0.2V50.7z"/>
	<path class="st0" d="M123.7,51.9c0,0.7-0.5,1.4-1.4,1.4c-0.9,0-1.4-0.7-1.4-1.4c0-0.7,0.5-1.4,1.4-1.4
		C123.2,50.4,123.7,51.1,123.7,51.9z M121.1,51.9c0,0.6,0.4,1.2,1.2,1.2c0.8,0,1.2-0.6,1.2-1.2c0-0.6-0.4-1.2-1.2-1.2
		C121.5,50.6,121.1,51.2,121.1,51.9z"/>
	<path class="st0" d="M127.2,51c-0.2-0.3-0.5-0.4-0.8-0.4c-0.3,0-0.8,0.1-0.8,0.6c0,0.4,0.4,0.4,0.9,0.5c0.5,0.1,1.1,0.2,1.1,0.8
		c0,0.6-0.6,0.8-1.1,0.8c-0.4,0-0.9-0.2-1.1-0.6l0.2-0.1c0.2,0.3,0.6,0.5,1,0.5c0.3,0,0.9-0.1,0.9-0.6c0-0.4-0.5-0.5-0.9-0.6
		c-0.5-0.1-1-0.2-1-0.7c0-0.6,0.6-0.8,1.1-0.8c0.4,0,0.7,0.1,1,0.5L127.2,51z"/>
	<path class="st0" d="M133.6,51.8c0,0.7-0.4,1.4-1.4,1.4c-0.3,0-0.6,0-0.9,0v-2.8c0.3,0,0.6,0,0.9,0
		C133.1,50.5,133.6,51.2,133.6,51.8z M131.4,50.7v2.4h0.7c0.8,0,1.2-0.6,1.2-1.2c0-0.6-0.4-1.2-1.2-1.2H131.4z"/>
	<path class="st0" d="M135.4,51.8h1.6V52h-1.6v1.1h1.8v0.2h-2v-2.8h1.9v0.2h-1.7V51.8z"/>
	<path class="st0" d="M141,52.9c-0.3,0.3-0.6,0.4-1,0.4c-0.9,0-1.4-0.7-1.4-1.4c0-0.7,0.5-1.4,1.4-1.4c0.4,0,0.7,0.1,1,0.4l-0.1,0.1
		c-0.2-0.2-0.6-0.4-0.9-0.4c-0.8,0-1.2,0.6-1.2,1.2c0,0.7,0.4,1.2,1.2,1.2c0.3,0,0.6-0.1,0.9-0.4L141,52.9z"/>
	<path class="st0" d="M145.3,51.9c0,0.7-0.5,1.4-1.4,1.4s-1.4-0.7-1.4-1.4c0-0.7,0.5-1.4,1.4-1.4C144.9,50.4,145.4,51.1,145.3,51.9z
		 M142.7,51.9c0,0.6,0.4,1.2,1.2,1.2c0.8,0,1.2-0.6,1.2-1.2c0-0.6-0.4-1.2-1.2-1.2S142.7,51.2,142.7,51.9z"/>
</g>
<path class="st1" d="M36.7,7.7v27.3h2.8V36h-2.3c-1.5,0-3,0.1-4.7,0.3v-3.4h-0.1c-1.1,2.5-2.9,3.7-5.3,3.7c-2,0-3.7-0.9-5.2-2.6
	c-1.5-1.7-2.2-3.7-2.2-5.9c0-2.4,0.8-4.4,2.4-6.2c1.6-1.8,3.4-2.7,5.6-2.7c2.2,0,3.8,1,4.8,2.9h0.1V9.1h-3.8V8h3.8
	C33.9,8,35.3,7.9,36.7,7.7z M27.7,20c-1.5,0-2.5,0.6-2.9,1.7c-0.4,1.1-0.6,3.4-0.6,6.9c0,3,0.2,4.9,0.7,5.7c0.5,0.8,1.3,1.2,2.4,1.2
	c1.2,0,2.2-0.4,3.1-1.2c0.9-0.8,1.5-1.7,1.8-2.7c0.3-1,0.4-2.7,0.4-4.9c0-2.2-0.4-3.8-1.3-4.9C30.5,20.6,29.3,20,27.7,20z"/>
<path class="st1" d="M57.8,30.3h0.9c-0.4,2-1.2,3.6-2.5,4.6c-1.2,1.1-2.7,1.6-4.4,1.6c-2.4,0-4.3-0.9-6-2.6c-1.6-1.7-2.4-3.8-2.4-6
	c0-2.3,0.8-4.4,2.5-6.2c1.7-1.8,3.7-2.7,6.2-2.7c1.8,0,3.2,0.4,4.3,1.3s1.7,1.9,1.7,3c0,0.6-0.2,1.1-0.6,1.5
	c-0.4,0.4-0.9,0.7-1.5,0.7c-0.6,0-1.1-0.2-1.5-0.6c-0.4-0.4-0.6-0.9-0.6-1.5c0-0.4,0.2-0.9,0.5-1.3c0.3-0.4,0.5-0.7,0.5-0.9
	c0-0.4-0.3-0.7-0.8-1c-0.5-0.3-1.2-0.4-2-0.4c-1.4,0-2.5,0.4-3.2,1.2c-0.7,0.8-1.1,2.4-1.1,4.9c0,2.5,0.1,4.4,0.2,5.6
	c0.1,1.2,0.5,2.2,1.1,2.8c0.6,0.7,1.5,1,2.8,1C54.7,35.6,56.7,33.8,57.8,30.3z"/>
<path class="st1" d="M63,27.8c0-2.4,0.8-4.5,2.5-6.2c1.7-1.7,3.7-2.5,6.2-2.5c2.4,0,4.4,0.8,6.1,2.4c1.7,1.6,2.5,3.7,2.5,6.1
	c0,2.5-0.9,4.6-2.6,6.3c-1.7,1.7-3.8,2.6-6.1,2.6c-2.3,0-4.3-0.8-6-2.5C63.8,32.3,63,30.2,63,27.8z M75.5,27.8
	c0-2.6-0.1-4.3-0.3-5.1c-0.2-0.8-0.6-1.5-1.2-2c-0.6-0.5-1.4-0.7-2.5-0.7c-1,0-1.8,0.2-2.5,0.7c-0.6,0.5-1,1.2-1.2,2
	c-0.2,0.8-0.2,2.5-0.2,5.1c0,2.6,0.1,4.3,0.3,5.1c0.2,0.8,0.6,1.5,1.2,2c0.6,0.5,1.4,0.7,2.4,0.7c1,0,1.8-0.2,2.4-0.7
	c0.6-0.5,1.1-1.1,1.2-2C75.4,32,75.5,30.3,75.5,27.8z"/>
<path class="st0" d="M114.4,29.9h-2.5v-1.3c2.3,0,4.2,0,6.4,0v1.3h-2.5v6.5h-1.5V29.9z"/>
<path class="st0" d="M121.4,28.5v3.1c0.5-0.6,1.1-0.8,1.7-0.8c1.6,0,2.3,1.1,2.3,2.7v2.9h-1.4v-2.9c0-1-0.5-1.4-1.3-1.4
	c-0.8,0-1.4,0.7-1.4,1.5v2.8h-1.4v-7.8H121.4z"/>
<path class="st0" d="M128.7,34.1c0.1,0.7,0.7,1.2,1.6,1.2c0.5,0,1.2-0.2,1.5-0.5l0.9,0.9c-0.6,0.6-1.5,0.9-2.4,0.9
	c-1.9,0-3-1.2-3-2.9c0-1.7,1.1-2.9,2.9-2.9c1.8,0,3,1.1,2.8,3.4H128.7z M131.7,33c-0.1-0.7-0.6-1.1-1.4-1.1c-0.7,0-1.3,0.4-1.5,1.1
	H131.7z"/>
<path class="st0" d="M144.6,35.4c-0.8,0.8-1.8,1.2-3,1.2c-2.9,0-4.1-2-4.1-4c0-2,1.3-4.1,4.1-4.1c1.1,0,2.1,0.4,2.9,1.2l-1,0.9
	c-0.5-0.5-1.2-0.7-1.9-0.7c-1.9,0-2.7,1.4-2.7,2.7c0,1.3,0.8,2.6,2.7,2.6c0.7,0,1.5-0.3,2-0.8L144.6,35.4z"/>
<path class="st0" d="M151.7,33.6c0,1.6-1.1,2.9-2.9,2.9c-1.8,0-2.9-1.3-2.9-2.9c0-1.6,1.1-2.9,2.8-2.9
	C150.6,30.7,151.7,32,151.7,33.6z M147.3,33.6c0,0.8,0.5,1.6,1.5,1.6c1,0,1.5-0.8,1.5-1.6c0-0.8-0.6-1.6-1.5-1.6
	C147.8,32,147.3,32.8,147.3,33.6z"/>
<g>
	<g>
		<rect x="84.7" y="35.3" class="st0" width="22.7" height="1.1"/>
	</g>
</g>
<circle class="st1" cx="154.7" cy="35.4" r="1.1"/>
</svg>
