<?xml version="1.0" encoding="utf-8"?>
<!-- Generator: Adobe Illustrator 22.1.0, SVG Export Plug-In . SVG Version: 6.00 Build 0)  -->
<svg version="1.1" id="Capa_1" xmlns="http://www.w3.org/2000/svg" xmlns:xlink="http://www.w3.org/1999/xlink" x="0px" y="0px"
	 viewBox="0 0 280 278.8" style="enable-background:new 0 0 280 278.8;" xml:space="preserve">
<style type="text/css">
	.st0{fill:#333333;}
	.st1{fill:#262626;}
</style>
<g>
	<path class="st0" d="M98.1,217.6v10.3h1.1c0.1,0,0.2,0,0.2,0.1s0.1,0.1,0.1,0.2v0.5h-2.4v-11.8h2.4v0.5c0,0.1,0,0.2-0.1,0.2
		s-0.1,0.1-0.2,0.1h-1.1V217.6z"/>
	<path class="st0" d="M120.9,222.2c0,0.7-0.1,1.3-0.3,1.9c-0.2,0.6-0.5,1.1-0.9,1.5s-0.9,0.7-1.5,1c-0.6,0.2-1.2,0.3-1.9,0.3
		c-0.7,0-1.3-0.1-1.9-0.3s-1-0.6-1.4-1s-0.7-0.9-0.9-1.5c-0.2-0.6-0.3-1.2-0.3-1.9s0.1-1.3,0.3-1.9c0.2-0.6,0.5-1.1,0.9-1.5
		s0.9-0.8,1.4-1c0.6-0.2,1.2-0.4,1.9-0.4c0.7,0,1.3,0.1,1.9,0.4s1,0.6,1.5,1c0.4,0.4,0.7,0.9,0.9,1.5
		C120.8,220.8,120.9,221.5,120.9,222.2z M119.6,222.2c0-0.6-0.1-1.1-0.2-1.5c-0.2-0.5-0.4-0.8-0.7-1.2c-0.3-0.3-0.6-0.6-1-0.7
		c-0.4-0.2-0.9-0.3-1.4-0.3s-1,0.1-1.4,0.3s-0.8,0.4-1,0.7c-0.3,0.3-0.5,0.7-0.7,1.2s-0.2,1-0.2,1.5s0.1,1.1,0.2,1.5
		c0.2,0.5,0.4,0.8,0.7,1.2s0.6,0.6,1,0.7c0.4,0.2,0.9,0.3,1.4,0.3s1-0.1,1.4-0.3s0.8-0.4,1-0.7s0.5-0.7,0.7-1.2
		C119.5,223.3,119.6,222.8,119.6,222.2z"/>
	<path class="st0" d="M132.5,218.6h-3v8.3h-1.3v-8.3h-3v-1.1h7.3V218.6z"/>
	<path class="st0" d="M144.6,226.8h-1.1c-0.2,0-0.4-0.1-0.5-0.3l-2.4-3.3c-0.1-0.1-0.2-0.2-0.2-0.2c-0.1,0-0.2-0.1-0.4-0.1h-1v3.9
		h-1.3v-9.3h2.6c0.6,0,1.1,0.1,1.5,0.2c0.4,0.1,0.8,0.3,1.1,0.5s0.5,0.5,0.6,0.8s0.2,0.7,0.2,1.1c0,0.3-0.1,0.6-0.2,0.9
		c-0.1,0.3-0.3,0.5-0.5,0.8c-0.2,0.2-0.4,0.4-0.7,0.6c-0.3,0.2-0.6,0.3-1,0.4c0.2,0.1,0.3,0.2,0.4,0.4L144.6,226.8z M140.3,222
		c0.4,0,0.7,0,1-0.1s0.5-0.2,0.7-0.4s0.3-0.4,0.4-0.6c0.1-0.2,0.1-0.5,0.1-0.7c0-0.6-0.2-1-0.5-1.3c-0.4-0.3-0.9-0.4-1.6-0.4H139
		v3.5H140.3z"/>
	<path class="st0" d="M158.3,222.2c0,0.7-0.1,1.3-0.3,1.9c-0.2,0.6-0.5,1.1-0.9,1.5s-0.9,0.7-1.5,1c-0.6,0.2-1.2,0.3-1.9,0.3
		s-1.3-0.1-1.9-0.3s-1-0.6-1.4-1s-0.7-0.9-0.9-1.5s-0.3-1.2-0.3-1.9s0.1-1.3,0.3-1.9c0.2-0.6,0.5-1.1,0.9-1.5s0.9-0.8,1.4-1
		c0.6-0.2,1.2-0.4,1.9-0.4s1.3,0.1,1.9,0.4s1,0.6,1.5,1c0.4,0.4,0.7,0.9,0.9,1.5C158.2,220.8,158.3,221.5,158.3,222.2z M157,222.2
		c0-0.6-0.1-1.1-0.2-1.5c-0.2-0.5-0.4-0.8-0.7-1.2c-0.3-0.3-0.6-0.6-1-0.7c-0.4-0.2-0.9-0.3-1.4-0.3s-1,0.1-1.4,0.3s-0.8,0.4-1,0.7
		c-0.3,0.3-0.5,0.7-0.7,1.2s-0.2,1-0.2,1.5s0.1,1.1,0.2,1.5c0.2,0.5,0.4,0.8,0.7,1.2s0.6,0.6,1,0.7c0.4,0.2,0.9,0.3,1.4,0.3
		s1-0.1,1.4-0.3s0.8-0.4,1-0.7s0.5-0.7,0.7-1.2C156.9,223.3,157,222.8,157,222.2z"/>
	<path class="st0" d="M168.8,219c0,0.1-0.1,0.1-0.1,0.1s-0.1,0-0.2,0c-0.1,0-0.2,0-0.3-0.1s-0.2-0.2-0.4-0.2
		c-0.1-0.1-0.3-0.2-0.5-0.2c-0.2-0.1-0.5-0.1-0.8-0.1s-0.5,0-0.7,0.1s-0.4,0.2-0.5,0.3s-0.3,0.3-0.3,0.5s-0.1,0.4-0.1,0.6
		c0,0.3,0.1,0.5,0.2,0.6c0.1,0.2,0.3,0.3,0.5,0.4s0.4,0.2,0.7,0.3s0.5,0.2,0.8,0.3s0.6,0.2,0.8,0.3s0.5,0.3,0.7,0.5s0.4,0.4,0.5,0.7
		s0.2,0.6,0.2,1s-0.1,0.8-0.2,1.1c-0.1,0.4-0.3,0.7-0.6,0.9s-0.6,0.5-1,0.6c-0.4,0.2-0.8,0.2-1.3,0.2c-0.6,0-1.2-0.1-1.7-0.3
		s-0.9-0.5-1.3-0.9l0.4-0.6l0.1-0.1c0,0,0.1,0,0.2,0c0.1,0,0.1,0,0.2,0.1c0.1,0,0.2,0.1,0.2,0.2c0.1,0.1,0.2,0.1,0.3,0.2
		c0.1,0.1,0.3,0.2,0.4,0.2c0.1,0.1,0.3,0.1,0.5,0.2c0.2,0,0.4,0.1,0.6,0.1c0.3,0,0.6,0,0.8-0.1s0.4-0.2,0.6-0.3
		c0.2-0.2,0.3-0.3,0.4-0.5c0.1-0.2,0.1-0.4,0.1-0.7s-0.1-0.5-0.2-0.7s-0.3-0.3-0.5-0.5c-0.2-0.1-0.4-0.2-0.7-0.3s-0.5-0.2-0.8-0.3
		s-0.6-0.2-0.8-0.3s-0.5-0.3-0.7-0.5s-0.4-0.4-0.5-0.7s-0.2-0.6-0.2-1c0-0.3,0.1-0.6,0.2-1c0.1-0.3,0.3-0.6,0.6-0.8s0.5-0.4,0.9-0.6
		c0.4-0.1,0.8-0.2,1.2-0.2c0.5,0,1,0.1,1.4,0.2s0.8,0.4,1.1,0.7L168.8,219z"/>
	<path class="st0" d="M183.8,228.7h-2.4v-0.5c0-0.1,0-0.2,0.1-0.2s0.1-0.1,0.2-0.1h1.1v-10.3h-1.1c-0.1,0-0.2,0-0.2-0.1
		s-0.1-0.1-0.1-0.2v-0.4h2.4V228.7z"/>
</g>
<g>
	<g>
		<path class="st1" d="M141,180.6c-2.9,0-5.2-2.3-5.2-5.2s2.3-5.2,5.2-5.2s5.2,2.3,5.2,5.2S143.8,180.6,141,180.6z M141,171.3
			c-2.3,0-4.2,1.9-4.2,4.2s1.9,4.2,4.2,4.2s4.2-1.9,4.2-4.2C145.2,173.1,143.3,171.3,141,171.3z"/>
	</g>
</g>
<g>
	<path class="st1" d="M141,154.4h-1v-28.5h0.5c16.7,0,34.5-11.7,34.5-33.5c0-21.6-17.5-34.5-34.5-34.5c-19.1,0-33.5,14.8-33.5,34.5
		h-1c0-19.9,15.1-35.5,34.5-35.5c17.5,0,35.5,13.3,35.5,35.5s-17.9,34.3-35,34.5V154.4z"/>
</g>
</svg>
