<?xml version="1.0" encoding="utf-8"?>
<!-- Generator: Adobe Illustrator 22.1.0, SVG Export Plug-In . SVG Version: 6.00 Build 0)  -->
<svg version="1.1" id="Capa_1" xmlns="http://www.w3.org/2000/svg" xmlns:xlink="http://www.w3.org/1999/xlink" x="0px" y="0px"
	 viewBox="0 0 266 274" style="enable-background:new 0 0 266 274;" xml:space="preserve">
<style type="text/css">
	.st0{fill:none;stroke:#262626;stroke-miterlimit:10;}
	.st1{fill:#333333;}
</style>
<g>
	<g>
		<circle class="st0" cx="137" cy="71.5" r="11.5"/>
	</g>
	<g>
		<polyline class="st0" points="137,71.5 135.1,74.6 137,71.5 134.6,64.6 		"/>
	</g>
	<g>
		<g>
			<polygon class="st0" points="75.8,143.6 59.6,143.6 59.6,182.9 214.4,182.9 214.4,143.6 198.4,143.6 198.4,163.9 75.9,163.9 			
				"/>
		</g>
		<g>
			<polyline class="st0" points="67.8,143.6 67.8,130 206.3,130 206.3,143.6 			"/>
		</g>
		<g>
			<line class="st0" x1="115" y1="130" x2="115" y2="163.9"/>
		</g>
		<g>
			<line class="st0" x1="160.9" y1="130" x2="160.9" y2="163.9"/>
		</g>
	</g>
	<g>
		<path class="st1" d="M95.3,220.6v10h0.9c0.1,0,0.2,0,0.3,0.1s0.1,0.2,0.1,0.3v0.6H94v-12.1h2.7v0.6c0,0.1,0,0.2-0.1,0.3
			s-0.2,0.1-0.3,0.1L95.3,220.6L95.3,220.6z"/>
		<path class="st1" d="M114,221.8c0,0.1-0.1,0.1-0.1,0.1s-0.1,0-0.2,0s-0.2,0-0.3-0.1c-0.1-0.1-0.2-0.2-0.4-0.2s-0.3-0.2-0.5-0.2
			c-0.2-0.1-0.5-0.1-0.8-0.1s-0.5,0-0.7,0.1s-0.4,0.2-0.5,0.3s-0.3,0.3-0.3,0.5s-0.1,0.4-0.1,0.6c0,0.3,0.1,0.5,0.2,0.6
			c0.1,0.2,0.3,0.3,0.5,0.4s0.4,0.2,0.7,0.3c0.3,0.1,0.5,0.2,0.8,0.3s0.6,0.2,0.8,0.3s0.5,0.3,0.7,0.5s0.4,0.4,0.5,0.7
			s0.2,0.6,0.2,1s-0.1,0.8-0.2,1.1c-0.1,0.4-0.3,0.7-0.6,0.9c-0.3,0.3-0.6,0.5-1,0.6c-0.4,0.2-0.8,0.2-1.3,0.2
			c-0.6,0-1.2-0.1-1.7-0.3s-0.9-0.5-1.3-0.9l0.4-0.6l0.1-0.1c0,0,0.1,0,0.2,0s0.1,0,0.2,0.1c0.1,0,0.2,0.1,0.2,0.2s0.2,0.1,0.3,0.2
			c0.1,0.1,0.3,0.2,0.4,0.2c0.1,0.1,0.3,0.1,0.5,0.2c0.2,0,0.4,0.1,0.6,0.1c0.3,0,0.6,0,0.8-0.1c0.2-0.1,0.4-0.2,0.6-0.3
			s0.3-0.3,0.4-0.5s0.1-0.4,0.1-0.7s-0.1-0.5-0.2-0.7s-0.3-0.3-0.5-0.5c-0.2-0.1-0.4-0.2-0.7-0.3c-0.3-0.1-0.5-0.2-0.8-0.3
			s-0.6-0.2-0.8-0.3s-0.5-0.3-0.7-0.5s-0.4-0.4-0.5-0.7s-0.2-0.6-0.2-1c0-0.3,0.1-0.6,0.2-1c0.1-0.3,0.3-0.6,0.6-0.8
			s0.5-0.4,0.9-0.6c0.4-0.1,0.8-0.2,1.2-0.2c0.5,0,1,0.1,1.4,0.2c0.4,0.2,0.8,0.4,1.1,0.7L114,221.8z"/>
		<path class="st1" d="M127.6,229.7h-1c-0.1,0-0.2,0-0.3-0.1c-0.1-0.1-0.1-0.1-0.2-0.2l-0.9-2.2H121l-0.9,2.2c0,0.1-0.1,0.1-0.1,0.2
			s-0.2,0.1-0.3,0.1h-1l3.7-9.3h1.3L127.6,229.7z M125,226.2l-1.5-3.8c0-0.1-0.1-0.2-0.1-0.4c0-0.1-0.1-0.3-0.1-0.5
			c-0.1,0.4-0.2,0.6-0.3,0.9l-1.5,3.8H125z"/>
		<path class="st1" d="M138,228.6v1.1h-5.3v-9.3h1.3v8.3h4V228.6z"/>
		<path class="st1" d="M151.5,225c0,0.7-0.1,1.3-0.3,1.9c-0.2,0.6-0.5,1.1-0.9,1.5s-0.9,0.7-1.5,1c-0.6,0.2-1.2,0.3-1.9,0.3
			s-1.3-0.1-1.9-0.3c-0.6-0.2-1-0.6-1.4-1s-0.7-0.9-0.9-1.5s-0.3-1.2-0.3-1.9s0.1-1.3,0.3-1.9c0.2-0.6,0.5-1.1,0.9-1.5
			s0.9-0.8,1.4-1c0.6-0.2,1.2-0.4,1.9-0.4s1.3,0.1,1.9,0.4c0.6,0.2,1,0.6,1.5,1c0.4,0.4,0.7,0.9,0.9,1.5
			C151.4,223.7,151.5,224.3,151.5,225z M150.2,225c0-0.6-0.1-1.1-0.2-1.5c-0.2-0.5-0.4-0.8-0.7-1.2c-0.3-0.3-0.6-0.6-1-0.7
			s-0.9-0.3-1.4-0.3s-1,0.1-1.4,0.3s-0.8,0.4-1,0.7c-0.3,0.3-0.5,0.7-0.7,1.2s-0.2,1-0.2,1.5c0,0.6,0.1,1.1,0.2,1.5
			c0.2,0.5,0.4,0.8,0.7,1.2c0.3,0.3,0.6,0.6,1,0.7c0.4,0.2,0.9,0.3,1.4,0.3s1-0.1,1.4-0.3s0.8-0.4,1-0.7c0.3-0.3,0.5-0.7,0.7-1.2
			C150.1,226.1,150.2,225.6,150.2,225z M149.4,217.6l-2.1,1.9c-0.1,0.1-0.1,0.1-0.2,0.1c-0.1,0-0.1,0-0.2,0H146l1.5-1.8
			c0.1-0.1,0.1-0.2,0.2-0.2c0.1,0,0.2,0,0.3,0H149.4z"/>
		<path class="st1" d="M164.8,220.3v9.3h-0.6c-0.1,0-0.2,0-0.3-0.1c-0.1,0-0.1-0.1-0.2-0.2l-5.4-7c0,0.1,0,0.2,0,0.3s0,0.2,0,0.3
			v6.6h-1.1v-9.3h0.6c0.1,0,0.1,0,0.1,0h0.1c0,0,0.1,0,0.1,0.1l0.1,0.1l5.4,7c0-0.1,0-0.2,0-0.3s0-0.2,0-0.3v-6.6L164.8,220.3
			L164.8,220.3z"/>
		<path class="st1" d="M180.1,231.7h-2.7V231c0-0.1,0-0.2,0.1-0.3s0.2-0.1,0.3-0.1h0.9v-10h-0.9c-0.1,0-0.2,0-0.3-0.1
			s-0.1-0.2-0.1-0.3v-0.6h2.7V231.7z"/>
	</g>
</g>
</svg>
