<?xml version="1.0" encoding="utf-8"?>
<!-- Generator: Adobe Illustrator 22.1.0, SVG Export Plug-In . SVG Version: 6.00 Build 0)  -->
<svg version="1.1" id="Capa_1" xmlns="http://www.w3.org/2000/svg" xmlns:xlink="http://www.w3.org/1999/xlink" x="0px" y="0px"
	 viewBox="0 0 266 274" style="enable-background:new 0 0 266 274;" xml:space="preserve">
<style type="text/css">
	.st0{fill:none;stroke:#262626;stroke-miterlimit:10;}
	.st1{fill:#333333;}
</style>
<g>
	<g>
		<g>
			<line class="st0" x1="127.1" y1="106.1" x2="127.1" y2="114.4"/>
		</g>
		<g>
			<line class="st0" x1="139.1" y1="106.1" x2="139.1" y2="114.4"/>
		</g>
		<g>
			<rect x="83.6" y="55.3" class="st0" width="99" height="110"/>
		</g>
		<g>
			<line class="st0" x1="182.6" y1="165.3" x2="182.6" y2="177.9"/>
		</g>
		<g>
			<line class="st0" x1="83.6" y1="165.3" x2="83.6" y2="177.9"/>
		</g>
		<g>
			<line class="st0" x1="133.1" y1="55.3" x2="133.1" y2="165.3"/>
		</g>
	</g>
	<g>
		<path class="st1" d="M75.3,215.6v10h0.9c0.1,0,0.2,0,0.3,0.1s0.1,0.2,0.1,0.3v0.6h-2.7v-12.1h2.7v0.6c0,0.1,0,0.2-0.1,0.3
			s-0.2,0.1-0.3,0.1L75.3,215.6L75.3,215.6z"/>
		<path class="st1" d="M96.4,215.3l-3.8,9.3h-1.1l-3.8-9.3h1c0.1,0,0.2,0,0.3,0.1s0.1,0.1,0.2,0.2l2.6,6.6c0.1,0.1,0.1,0.3,0.2,0.5
			s0.1,0.4,0.1,0.5c0-0.2,0.1-0.4,0.1-0.5c0-0.2,0.1-0.3,0.2-0.5l2.6-6.6c0-0.1,0.1-0.1,0.2-0.2c0.1-0.1,0.2-0.1,0.3-0.1H96.4z"/>
		<path class="st1" d="M107.2,223.6v1h-5.7v-9.3h5.7v1h-4.5v3.1h3.6v1h-3.6v3.2H107.2z"/>
		<path class="st1" d="M117.7,216.8c0,0.1-0.1,0.1-0.1,0.1s-0.1,0-0.2,0s-0.2,0-0.3-0.1c-0.1-0.1-0.2-0.2-0.4-0.2
			c-0.1-0.1-0.3-0.2-0.5-0.2c-0.2-0.1-0.5-0.1-0.8-0.1s-0.5,0-0.7,0.1s-0.4,0.2-0.5,0.3s-0.3,0.3-0.3,0.5s-0.1,0.4-0.1,0.6
			c0,0.3,0.1,0.5,0.2,0.6c0.1,0.2,0.3,0.3,0.5,0.4s0.4,0.2,0.7,0.3c0.3,0.1,0.5,0.2,0.8,0.3s0.6,0.2,0.8,0.3s0.5,0.3,0.7,0.5
			s0.4,0.4,0.5,0.7s0.2,0.6,0.2,1s-0.1,0.8-0.2,1.1c-0.1,0.4-0.3,0.7-0.6,0.9s-0.6,0.5-1,0.6c-0.4,0.2-0.8,0.2-1.3,0.2
			c-0.6,0-1.2-0.1-1.7-0.3s-0.9-0.5-1.3-0.9l0.4-0.6l0.1-0.1c0,0,0.1,0,0.2,0s0.1,0,0.2,0.1c0.1,0,0.2,0.1,0.2,0.2
			c0.1,0.1,0.2,0.1,0.3,0.2c0.1,0.1,0.3,0.2,0.4,0.2c0.1,0.1,0.3,0.1,0.5,0.2c0.2,0,0.4,0.1,0.6,0.1c0.3,0,0.6,0,0.8-0.1
			s0.4-0.2,0.6-0.3c0.2-0.2,0.3-0.3,0.4-0.5s0.1-0.4,0.1-0.7s-0.1-0.5-0.2-0.7s-0.3-0.3-0.5-0.5c-0.2-0.1-0.4-0.2-0.7-0.3
			c-0.3-0.1-0.5-0.2-0.8-0.3s-0.6-0.2-0.8-0.3s-0.5-0.3-0.7-0.5s-0.4-0.4-0.5-0.7s-0.2-0.6-0.2-1c0-0.3,0.1-0.6,0.2-1
			c0.1-0.3,0.3-0.6,0.6-0.8s0.5-0.4,0.9-0.6c0.4-0.1,0.8-0.2,1.2-0.2c0.5,0,1,0.1,1.4,0.2s0.8,0.4,1.1,0.7L117.7,216.8z"/>
		<path class="st1" d="M130.2,216.4h-3v8.3h-1.3v-8.3h-3v-1.1h7.3V216.4z"/>
		<path class="st1" d="M136.7,224.7h-1.3v-9.3h1.3V224.7z"/>
		<path class="st1" d="M151.1,220c0,0.7-0.1,1.3-0.3,1.9c-0.2,0.6-0.5,1.1-0.9,1.5s-0.9,0.7-1.5,0.9s-1.2,0.3-1.9,0.3H143v-9.3h3.5
			c0.7,0,1.3,0.1,1.9,0.3c0.6,0.2,1,0.5,1.5,0.9c0.4,0.4,0.7,0.9,0.9,1.5C150.9,218.7,151.1,219.3,151.1,220z M149.8,220
			c0-0.6-0.1-1.1-0.2-1.5c-0.2-0.4-0.4-0.8-0.7-1.1s-0.6-0.6-1-0.7c-0.4-0.2-0.9-0.2-1.4-0.2h-2.2v7.3h2.2c0.5,0,1-0.1,1.4-0.2
			c0.4-0.2,0.8-0.4,1-0.7c0.3-0.3,0.5-0.7,0.7-1.1C149.7,221.1,149.8,220.6,149.8,220z"/>
		<path class="st1" d="M165.4,220c0,0.7-0.1,1.3-0.3,1.9c-0.2,0.6-0.5,1.1-0.9,1.5s-0.9,0.7-1.5,1c-0.6,0.2-1.2,0.3-1.9,0.3
			s-1.3-0.1-1.9-0.3c-0.6-0.2-1-0.6-1.4-1s-0.7-0.9-0.9-1.5s-0.3-1.2-0.3-1.9s0.1-1.3,0.3-1.9c0.2-0.6,0.5-1.1,0.9-1.5
			s0.9-0.8,1.4-1c0.6-0.2,1.2-0.4,1.9-0.4s1.3,0.1,1.9,0.4s1,0.6,1.5,1c0.4,0.4,0.7,0.9,0.9,1.5C165.3,218.7,165.4,219.3,165.4,220z
			 M164.1,220c0-0.6-0.1-1.1-0.2-1.5c-0.2-0.5-0.4-0.8-0.7-1.2c-0.3-0.3-0.6-0.6-1-0.7c-0.4-0.2-0.9-0.3-1.4-0.3s-1,0.1-1.4,0.3
			s-0.8,0.4-1,0.7c-0.3,0.3-0.5,0.7-0.7,1.2s-0.2,1-0.2,1.5s0.1,1.1,0.2,1.5c0.2,0.5,0.4,0.8,0.7,1.2s0.6,0.6,1,0.7
			c0.4,0.2,0.9,0.3,1.4,0.3s1-0.1,1.4-0.3s0.8-0.4,1-0.7s0.5-0.7,0.7-1.2C164,221.1,164.1,220.6,164.1,220z"/>
		<path class="st1" d="M178,224.7h-1.1c-0.2,0-0.4-0.1-0.5-0.3l-2.4-3.3c-0.1-0.1-0.2-0.2-0.2-0.2c-0.1,0-0.2-0.1-0.4-0.1h-1v3.9
			h-1.3v-9.3h2.6c0.6,0,1.1,0.1,1.5,0.2c0.4,0.1,0.8,0.3,1.1,0.5s0.5,0.5,0.6,0.8s0.2,0.7,0.2,1.1c0,0.3-0.1,0.6-0.2,0.9
			c-0.1,0.3-0.3,0.5-0.5,0.8c-0.2,0.2-0.4,0.4-0.7,0.6s-0.6,0.3-1,0.4c0.2,0.1,0.3,0.2,0.4,0.4L178,224.7z M173.7,219.9
			c0.4,0,0.7,0,1-0.1s0.5-0.2,0.7-0.4s0.3-0.4,0.4-0.6c0.1-0.2,0.1-0.5,0.1-0.7c0-0.6-0.2-1-0.5-1.3c-0.4-0.3-0.9-0.4-1.6-0.4h-1.4
			v3.5H173.7z"/>
		<path class="st1" d="M192.2,226.7h-2.7V226c0-0.1,0-0.2,0.1-0.3s0.2-0.1,0.3-0.1h0.9v-10h-0.9c-0.1,0-0.2,0-0.3-0.1
			s-0.1-0.2-0.1-0.3v-0.6h2.7V226.7z"/>
	</g>
</g>
</svg>
