<?xml version="1.0" encoding="utf-8"?>
<!-- Generator: Adobe Illustrator 18.0.0, SVG Export Plug-In . SVG Version: 6.00 Build 0)  -->
<svg version="1.1" id="Capa_1" xmlns="http://www.w3.org/2000/svg" xmlns:xlink="http://www.w3.org/1999/xlink" x="0px" y="0px"
	 viewBox="71.3 0 348.2 320.9" enable-background="new 71.3 0 348.2 320.9" xml:space="preserve">
<g>
	<path fill="#FFFFFF" d="M71.3,205.6c0,27.7,22.7,50.3,50.3,50.3h37.8v56.6c0,3.4,2.1,6.3,5,7.6c1.3,0.4,2.1,0.8,3.4,0.8
		c2.1,0,4.2-0.4,5.9-2.1l66.7-62.9h128.8c27.7,0,50.3-22.7,50.3-50.3V50.3c0-27.7-22.7-50.3-50.3-50.3L121.7,0
		C94,0,71.3,22.7,71.3,50.3V205.6z M88.1,50.3c0-18.5,15.1-33.6,33.6-33.6h247.5c18.5,0,33.6,15.1,33.6,33.6v155.2
		c0,18.5-15.1,33.6-33.6,33.6H237c-2.1,0-4.2,0.8-5.9,2.1l-55,52v-45.7c0-4.6-3.8-8.4-8.4-8.4h-46.1c-18.5,0-33.6-15.1-33.6-33.6
		L88.1,50.3z"/>
</g>
</svg>
