<?xml version="1.0" encoding="utf-8"?>
<!-- Generator: Adobe Illustrator 18.0.0, SVG Export Plug-In . SVG Version: 6.00 Build 0)  -->
<svg version="1.1" id="Capa_1" xmlns="http://www.w3.org/2000/svg" xmlns:xlink="http://www.w3.org/1999/xlink" x="0px" y="0px"
	 viewBox="143.7 0 275.8 301.3" enable-background="new 143.7 0 275.8 301.3" xml:space="preserve">
<g>
	<g>
		<path fill="#FFFFFF" d="M413.2,0H150c-3.5,0-6.3,2.8-6.3,6.3V295c0,3.5,2.8,6.3,6.3,6.3h263.2c3.5,0,6.3-2.8,6.3-6.3V6.3
			C419.5,2.8,416.7,0,413.2,0z M406.9,288.8H156.3V12.6h250.7V288.8z"/>
		<rect x="190.4" y="43.7" fill="#FFFFFF" width="119" height="12.6"/>
		<rect x="335.5" y="43.7" fill="#FFFFFF" width="44.2" height="12.6"/>
		<rect x="335.5" y="68.9" fill="#FFFFFF" width="44.2" height="12.6"/>
		<path fill="#FFFFFF" d="M194.6,178.6h86.7c3.5,0,6.3-2.8,6.3-6.3V85.6c0-3.5-2.8-6.3-6.3-6.3h-86.7c-3.5,0-6.3,2.8-6.3,6.3v86.7
			C188.3,175.8,191.1,178.6,194.6,178.6z M200.9,91.9H275v74.1h-74.1V91.9z"/>
		<path fill="#FFFFFF" d="M194.6,259.4h43.4c3.5,0,6.3-2.8,6.3-6.3v-51.4c0-3.5-2.8-6.3-6.3-6.3h-43.4c-3.5,0-6.3,2.8-6.3,6.3v51.4
			C188.3,256.6,191.1,259.4,194.6,259.4z M200.9,208h30.8v38.8h-30.8V208z"/>
		<path fill="#FFFFFF" d="M306.4,109.6v62.8c0,3.5,2.8,6.3,6.3,6.3h62.8c3.5,0,6.3-2.8,6.3-6.3v-62.8c0-3.5-2.8-6.3-6.3-6.3h-62.8
			C309.2,103.3,306.4,106.1,306.4,109.6z M319,115.9h50.2v50.2H319V115.9z"/>
		<path fill="#FFFFFF" d="M375.5,195.4H265.9c-3.5,0-6.3,2.8-6.3,6.3v51.4c0,3.5,2.8,6.3,6.3,6.3h109.6c3.5,0,6.3-2.8,6.3-6.3v-51.4
			C381.8,198.2,379,195.4,375.5,195.4z M369.2,246.8h-97V208h97V246.8z"/>
	</g>
</g>
</svg>
