<?xml version="1.0" encoding="utf-8"?>
<!-- Generator: Adobe Illustrator 18.0.0, SVG Export Plug-In . SVG Version: 6.00 Build 0)  -->
<svg version="1.1" id="Capa_1" xmlns="http://www.w3.org/2000/svg" xmlns:xlink="http://www.w3.org/1999/xlink" x="0px" y="0px"
	 viewBox="0 0 108.8 108.8" enable-background="new 0 0 108.8 108.8" xml:space="preserve">
<circle opacity="0.5" fill="#FFFFFF" cx="54.4" cy="54.4" r="50.3"/>
<g>
	<path fill="#3F3C38" d="M26.2,49.2c-1,0-1.7,0.2-2.3,0.7C23.4,50.3,23,51,22.9,52c-0.1,0.9-0.2,3.4-0.2,7.3c0,3.8,0.1,6.2,0.2,7.1
		s0.5,1.6,1.1,2.1c0.6,0.5,1.4,0.8,2.4,0.8c0.8,0,1.5-0.2,2.2-0.7c0.6-0.5,1-1.3,1.1-2.6c0.1-1.2,0.2-3.4,0.2-6.3
		c0-4.6-0.2-7.6-0.5-8.8C29,49.8,27.9,49.2,26.2,49.2z"/>
	<path fill="#3F3C38" d="M54.4,0C24.4,0,0,24.4,0,54.4s24.4,54.4,54.4,54.4s54.4-24.4,54.4-54.4S84.5,0,54.4,0z M81.8,34.7
		c0.8-0.9,1.8-1.3,3-1.3c1.1,0,2.1,0.4,2.9,1.3s1.1,2,1.1,3.4c0,2-0.6,5.1-1.7,9.3c-1.1,4.3-1.7,7.7-1.7,10.4V59h-1.7v-1.2
		c0-2.5-0.5-5.9-1.5-10.2c-1-4.3-1.5-7.3-1.5-9C80.6,36.9,81,35.6,81.8,34.7z M34.9,67.4c-2.2,2.3-5.1,3.4-8.7,3.4
		c-3.6,0-6.5-1.1-8.6-3.4c-2.2-2.3-3.2-5-3.2-8c0-3.1,1.1-5.8,3.3-8.1c2.2-2.3,5-3.4,8.6-3.4c3.6,0,6.4,1.1,8.6,3.4
		c2.2,2.3,3.3,5,3.3,8.1C38.2,62.4,37.1,65.1,34.9,67.4z M72.6,70.1H58.9v-1.6h2.9L55,58.9h-0.1v9.6h2.5v1.6H44.5v-1.6h3.1V35.7
		h-3.1v-1.6H47l6.4-0.5h1.4v25l5.7-5.5c0-0.1,0.3-0.4,0.9-1s0.8-1,0.8-1.1c0-0.5-0.6-0.8-1.9-0.8h-1.5v-1.7h11.4v1.7h-0.8
		c-1.3,0-2.4,0.1-3.2,0.4c-0.8,0.3-1.7,0.9-2.8,2l-2.6,2.6l9.7,13.3h2.1V70.1z M87.7,69.2c-0.8,0.9-1.8,1.3-3,1.3
		c-1.2,0-2.2-0.4-3-1.3s-1.3-1.9-1.3-3s0.4-2.2,1.3-3c0.8-0.8,1.8-1.2,3-1.2c1.1,0,2.1,0.4,3,1.2c0.9,0.8,1.3,1.8,1.3,2.9
		C89,67.2,88.6,68.3,87.7,69.2z"/>
</g>
</svg>
