<?xml version="1.0" encoding="utf-8"?>
<!-- Generator: Adobe Illustrator 22.1.0, SVG Export Plug-In . SVG Version: 6.00 Build 0)  -->
<svg version="1.1" id="Capa_1" xmlns="http://www.w3.org/2000/svg" xmlns:xlink="http://www.w3.org/1999/xlink" x="0px" y="0px"
	 viewBox="0 0 271.9 85.7" style="enable-background:new 0 0 271.9 85.7;" xml:space="preserve">
<style type="text/css">
	.st0{fill:#3D3935;}
</style>
<g>
	<path class="st0" d="M21.7,69.7c-3.8,0-7.2-1.7-10.1-5.1c-2.9-3.4-4.3-7.2-4.3-11.5c0-4.5,1.5-8.6,4.6-12c3-3.4,6.7-5.2,10.8-5.2
		c4,0,7,1.7,9,5V17.5h-7.2v-2.6H32c2.6,0,5.3-0.2,7.9-0.6l0.3-0.1V66h5.4v2.6h-4.7c-2.8,0-5.8,0.2-8.8,0.5l-0.3,0v-5.8
		C29.5,67.5,26.2,69.7,21.7,69.7z M22.7,36.5c-4,0-7.5,1.7-10.4,5c-2.9,3.3-4.4,7.2-4.4,11.6c0,4.1,1.4,7.8,4.2,11.1
		c2.8,3.2,6,4.9,9.6,4.9c4.6,0,7.8-2.2,9.9-6.8l0.1-0.2h0.7v6.5c3-0.3,5.9-0.4,8.6-0.4H45v-1.4h-5.4V15c-2.5,0.4-5.1,0.5-7.7,0.5
		h-6.9v1.4h7.2v25.2h-0.6L31.6,42C29.7,38.3,26.8,36.5,22.7,36.5z M22.3,67.6c-2.2,0-3.8-0.8-4.7-2.4c-1-1.5-1.4-5.1-1.4-10.9
		c0-6.7,0.4-11,1.1-13.2c0.8-2.3,2.7-3.4,5.7-3.4c3,0,5.4,1.1,7.1,3.3c1.7,2.1,2.6,5.4,2.6,9.5c0,4.3-0.3,7.5-0.8,9.5
		c-0.5,2-1.7,3.8-3.4,5.3C26.6,66.8,24.6,67.6,22.3,67.6z M23,38.3c-2.8,0-4.4,1-5.1,3c-0.7,2.1-1.1,6.5-1.1,13
		c0,5.6,0.5,9.2,1.3,10.6c0.9,1.4,2.3,2.1,4.2,2.1c2.1,0,4-0.7,5.7-2.2c1.6-1.5,2.7-3.1,3.2-5c0.5-1.9,0.8-5,0.8-9.3
		c0-4-0.8-7.1-2.4-9.1C28,39.3,25.7,38.3,23,38.3z"/>
</g>
<g>
	<path class="st0" d="M68.5,69.7c-4.5,0-8.4-1.7-11.6-5.1c-3.1-3.4-4.7-7.3-4.7-11.6c0-4.5,1.6-8.5,4.8-11.9c3.2-3.4,7.3-5.1,12-5.1
		c3.4,0,6.2,0.9,8.4,2.6c2.2,1.8,3.3,3.8,3.3,6c0,1.1-0.4,2.2-1.2,3.1c-0.8,0.9-1.8,1.4-3.1,1.4c-1.2,0-2.2-0.4-3-1.2
		c-0.8-0.8-1.2-1.8-1.2-3c0-0.9,0.3-1.8,1-2.6c0.8-1,0.9-1.4,0.9-1.4c0-0.6-0.4-1.1-1.3-1.6c-0.9-0.5-2.2-0.8-3.7-0.8
		c-2.6,0-4.6,0.7-5.9,2.1c-1.3,1.4-1.9,4.5-1.9,9.2c0,4.8,0.1,8.3,0.4,10.6c0.2,2.2,0.9,4,1.9,5.2c1,1.2,2.7,1.9,5.1,1.9
		c5.1,0,8.7-3.3,10.7-9.8l0.1-0.2H82l-0.1,0.4c-0.8,3.9-2.4,6.9-4.8,8.9C74.8,68.6,71.9,69.7,68.5,69.7z M69.1,36.5
		c-4.6,0-8.5,1.7-11.6,4.9c-3.1,3.3-4.7,7.1-4.7,11.5c0,4.2,1.5,8,4.6,11.2c3,3.2,6.8,4.9,11.1,4.9c3.2,0,5.9-1,8.2-2.9
		c2.2-1.9,3.7-4.7,4.5-8.2h-1.1c-2.2,6.6-5.9,10-11.2,10c-2.6,0-4.4-0.7-5.6-2.1c-1.1-1.3-1.8-3.2-2.1-5.6
		c-0.3-2.3-0.4-5.9-0.4-10.6c0-4.9,0.7-8,2.1-9.6c1.4-1.5,3.5-2.3,6.4-2.3c1.6,0,2.9,0.3,4,0.9c1.1,0.6,1.6,1.3,1.6,2.1
		c0,0.3-0.1,0.7-1,1.8c-0.6,0.7-0.9,1.5-0.9,2.2c0,1.1,0.3,1.9,1,2.6c0.7,0.7,1.6,1,2.6,1c1.1,0,1.9-0.4,2.6-1.2
		c0.7-0.8,1-1.7,1-2.7c0-2-1-3.9-3.1-5.5C75.1,37.4,72.4,36.5,69.1,36.5z"/>
</g>
<g>
	<path class="st0" d="M106,69.7c-4.5,0-8.4-1.7-11.6-4.9c-3.2-3.3-4.9-7.3-4.9-12c0-4.6,1.6-8.6,4.8-11.9c3.2-3.3,7.2-4.9,11.9-4.9
		c4.6,0,8.6,1.6,11.8,4.7c3.2,3.1,4.8,7.1,4.8,11.8c0,4.8-1.7,8.9-5,12.2C114.5,68,110.5,69.7,106,69.7z M106.2,36.5
		c-4.5,0-8.4,1.6-11.5,4.7c-3.1,3.1-4.6,7-4.6,11.5c0,4.6,1.6,8.5,4.7,11.6c3.1,3.1,6.9,4.7,11.2,4.7c4.4,0,8.2-1.6,11.4-4.8
		c3.2-3.2,4.8-7.2,4.8-11.8c0-4.5-1.6-8.3-4.6-11.3C114.5,38.1,110.7,36.5,106.2,36.5z M106.1,67.9c-1.9,0-3.5-0.5-4.7-1.4
		c-1.3-0.9-2.1-2.3-2.5-3.9c-0.4-1.6-0.5-4.8-0.5-9.8c0-4.9,0.1-8.1,0.4-9.7c0.3-1.6,1.1-3,2.4-3.9c1.3-1,2.9-1.5,4.9-1.5
		c2.1,0,3.7,0.5,4.9,1.4c1.2,1,2,2.3,2.3,3.9c0.3,1.6,0.5,4.8,0.5,9.7c0,4.8-0.2,8.1-0.5,9.8c-0.3,1.7-1.2,3-2.5,4
		C109.7,67.4,108.1,67.9,106.1,67.9z M106.1,38.3c-1.8,0-3.3,0.5-4.5,1.3c-1.2,0.9-1.9,2.1-2.2,3.6C99.2,44.8,99,48,99,52.8
		c0,4.8,0.2,8.1,0.5,9.6c0.3,1.5,1.1,2.7,2.2,3.5c1.1,0.9,2.6,1.3,4.4,1.3c1.8,0,3.3-0.4,4.4-1.3c1.2-0.9,1.9-2.1,2.2-3.6
		c0.3-1.6,0.5-4.8,0.5-9.6c0-4.8-0.2-8-0.5-9.6c-0.3-1.5-1-2.7-2.1-3.5C109.6,38.8,108.1,38.3,106.1,38.3z"/>
</g>
<g>
	<path class="st0" d="M187.3,56.7h-4.7v-2.5c4.3,0,7.9,0,12.2,0v2.5h-4.7V69h-2.8V56.7z"/>
</g>
<g>
	<path class="st0" d="M200.8,54.2V60c0.9-1.2,2.1-1.6,3.3-1.6c3,0,4.3,2,4.3,5.1V69h-2.6v-5.5c0-1.9-1-2.7-2.4-2.7
		c-1.5,0-2.6,1.3-2.6,2.9V69h-2.6V54.2H200.8z"/>
</g>
<g>
	<path class="st0" d="M214.6,64.7c0.2,1.3,1.3,2.2,3.1,2.2c1,0,2.2-0.4,2.8-1l1.7,1.6c-1.1,1.1-2.9,1.7-4.5,1.7
		c-3.6,0-5.7-2.2-5.7-5.6c0-3.2,2.2-5.5,5.6-5.5c3.5,0,5.7,2.2,5.3,6.5H214.6z M220.3,62.6c-0.2-1.4-1.2-2-2.7-2
		c-1.4,0-2.5,0.7-2.9,2H220.3z"/>
</g>
<g>
	<path class="st0" d="M244.8,67.2c-1.5,1.5-3.5,2.2-5.6,2.2c-5.5,0-7.8-3.8-7.9-7.7c0-3.9,2.5-7.8,7.9-7.8c2,0,3.9,0.8,5.5,2.3
		l-1.9,1.8c-1-1-2.3-1.4-3.6-1.4c-3.6,0-5.1,2.7-5.1,5.2c0,2.5,1.4,5,5.1,5c1.3,0,2.8-0.5,3.7-1.5L244.8,67.2z"/>
</g>
<g>
	<path class="st0" d="M258.2,63.8c0,3-2.1,5.5-5.5,5.5c-3.4,0-5.4-2.4-5.4-5.5c0-3,2.1-5.5,5.4-5.5
		C256.1,58.4,258.2,60.8,258.2,63.8z M249.9,63.8c0,1.6,1,3.1,2.8,3.1c1.9,0,2.8-1.5,2.8-3.1c0-1.6-1.1-3.1-2.8-3.1
		C250.9,60.7,249.9,62.2,249.9,63.8z"/>
</g>
<g>
	<g>
		<g>
			<rect x="131" y="67" class="st0" width="43.1" height="2"/>
		</g>
	</g>
</g>
<g>
	<path class="st0" d="M263.9,69.7c-1.4,0-2.5-1.1-2.5-2.5c0-1.4,1.1-2.5,2.5-2.5c1.4,0,2.5,1.1,2.5,2.5
		C266.4,68.6,265.3,69.7,263.9,69.7z M263.9,65.4c-1,0-1.8,0.8-1.8,1.8c0,1,0.8,1.8,1.8,1.8s1.8-0.8,1.8-1.8
		C265.8,66.2,264.9,65.4,263.9,65.4z"/>
</g>
</svg>
