<?xml version="1.0" encoding="utf-8"?>
<!-- Generator: Adobe Illustrator 18.0.0, SVG Export Plug-In . SVG Version: 6.00 Build 0)  -->
<svg version="1.1" id="Capa_1" xmlns="http://www.w3.org/2000/svg" xmlns:xlink="http://www.w3.org/1999/xlink" x="0px" y="0px"
	 viewBox="12.2 0 407.3 407.3" enable-background="new 12.2 0 407.3 407.3" xml:space="preserve">
<g>
	<g>
		<path fill="#FFFFFF" d="M215.9,407.3c-112.3,0-203.7-91.4-203.7-203.7S103.6,0,215.9,0c112.3,0,203.7,91.4,203.7,203.7
			C419.5,316,328.2,407.3,215.9,407.3z M215.9,28C119,28,40.2,106.8,40.2,203.7S119,379.4,215.9,379.4s175.7-78.8,175.7-175.7
			S312.7,28,215.9,28z"/>
	</g>
	<g>
		<g>
			<path fill="#FFFFFF" d="M215.9,115.3c9.6,0,17.5-7.8,17.5-17.5c0-9.7-7.8-17.5-17.5-17.5c-9.6,0-17.5,7.8-17.5,17.5
				C198.4,107.4,206.2,115.3,215.9,115.3z"/>
		</g>
		<g>
			<path fill="#FFFFFF" d="M215.9,331.6c-7.7,0-14-6.3-14-14V175.4c0-7.7,6.3-14,14-14c7.7,0,14,6.3,14,14v142.3
				C229.8,325.4,223.6,331.6,215.9,331.6z"/>
		</g>
	</g>
</g>
</svg>
