<?xml version="1.0" encoding="utf-8"?>
<!-- Generator: Adobe Illustrator 22.1.0, SVG Export Plug-In . SVG Version: 6.00 Build 0)  -->
<svg version="1.1" id="Capa_1" xmlns="http://www.w3.org/2000/svg" xmlns:xlink="http://www.w3.org/1999/xlink" x="0px" y="0px"
	 viewBox="0 0 100 125" style="enable-background:new 0 0 100 125;" xml:space="preserve">
<style type="text/css">
	.st0{fill:#FFFFFF;}
	.st1{fill:none;stroke:#FFFFFF;stroke-width:5;stroke-miterlimit:10;}
</style>
<path class="st0" d="M96.6,87.2c-11.3-11.3-13-17-13-35c0-15.6-10.6-28.7-25-32.5h0.6c0-5.1-4.1-9.2-9.2-9.2c-5.1,0-9.2,4.1-9.2,9.2
	h0.6c-14.4,3.8-25,16.9-25,32.5c0,9.7-0.3,13.4-1.6,17.8c-1.7,5.6-5.1,10.9-11.4,17.2c-3,3-0.9,8.2,3.4,8.2h26.6l-0.2,2.4
	c0,9.3,7.5,16.8,16.8,16.8s16.8-7.5,16.8-16.8l-0.2-2.4h26.6C97.5,95.4,99.6,90.2,96.6,87.2z M50,14.5c2.6,0,4.7,1.9,5.1,4.4
	c-1.7-0.2-3.3-0.4-5.1-0.4c-1.7,0-3.4,0.1-5.1,0.4C45.3,16.5,47.4,14.5,50,14.5z M50,109.8c-6.6,0-12-5.4-12-12l0.2-2.4h23.5
	l0.2,2.4C62,104.4,56.6,109.8,50,109.8z M6.8,90.6c14.4-14.4,14.4-24,14.4-38.4c0-15.9,12.9-28.8,28.8-28.8s28.8,12.9,28.8,28.8
	c0,14.4,0,24,14.4,38.4H6.8z"/>
<line class="st1" x1="91.4" y1="3.5" x2="8.6" y2="121.5"/>
</svg>
