<?xml version="1.0" encoding="utf-8"?>
<!-- Generator: Adobe Illustrator 22.1.0, SVG Export Plug-In . SVG Version: 6.00 Build 0)  -->
<svg version="1.1" id="Capa_1" xmlns="http://www.w3.org/2000/svg" xmlns:xlink="http://www.w3.org/1999/xlink" x="0px" y="0px"
	 viewBox="0 0 100 125" style="enable-background:new 0 0 100 125;" xml:space="preserve">
<style type="text/css">
	.st0{fill:#FFFFFF;}
</style>
<path class="st0" d="M96.6,81.7c-11.3-11.3-13-17-13-35c0-15.6-10.6-28.7-25-32.5h0.6C59.2,9.1,55.1,5,50,5c-5.1,0-9.2,4.1-9.2,9.2
	h0.6c-14.4,3.8-25,16.9-25,32.5c0,9.7-0.3,13.4-1.6,17.8c-1.7,5.6-5.1,10.9-11.4,17.2c-3,3-0.9,8.2,3.4,8.2h26.6l-0.2,2.4
	c0,9.3,7.5,16.8,16.8,16.8s16.8-7.5,16.8-16.8l-0.2-2.4h26.6C97.5,89.9,99.6,84.8,96.6,81.7z M50,9.1c2.6,0,4.7,1.9,5.1,4.4
	c-1.7-0.2-3.3-0.4-5.1-0.4c-1.7,0-3.4,0.1-5.1,0.4C45.3,11,47.4,9.1,50,9.1z M50,104.3c-6.6,0-12-5.4-12-12l0.2-2.4h23.5l0.2,2.4
	C62,99,56.6,104.3,50,104.3z M6.8,85.1c14.4-14.4,14.4-24,14.4-38.4c0-15.9,12.9-28.8,28.8-28.8s28.8,12.9,28.8,28.8
	c0,14.4,0,24,14.4,38.4H6.8z"/>
</svg>
